<?xml version="1.0" encoding="UTF-8" standalone="no"?>
<!-- Creator: fig2dev Version 3.2.9 -->
<!-- CreationDate: 2026-03-18 22:24:33 -->
<!-- Magnification: 1.05 -->
<svg	xmlns="http://www.w3.org/2000/svg"
	xmlns:xlink="http://www.w3.org/1999/xlink"
	width="931pt" height="915pt"
	viewBox="91 -17112 14771 14517">
<g fill="none">
<!-- Line -->
<polyline points=" 900,-2925 900,-17100"
	stroke="#000000" stroke-width="8px" stroke-dasharray="10 30"/>
<!-- Line -->
<polyline points=" 1035,-3285 1665,-3915"
	stroke="#000000" stroke-width="15px" stroke-dasharray="60 60"/>
<!-- Line -->
<polyline points=" 4674,-15907 14220,-16740"
	stroke="#000000" stroke-width="15px" stroke-dasharray="60 60"/>
<!-- Line -->
<polyline points=" 5583,-14925 14175,-16650"
	stroke="#000000" stroke-width="15px" stroke-dasharray="60 60"/>
<!-- Line -->
<polyline points=" 6511,-14033 14175,-16605"
	stroke="#000000" stroke-width="15px" stroke-dasharray="60 60"/>
<!-- Line -->
<polyline points=" 7350,-12308 14220,-16560"
	stroke="#000000" stroke-width="15px" stroke-dasharray="60 60"/>
<!-- Line -->
<polyline points=" 9164,-10484 14220,-16515"
	stroke="#000000" stroke-width="15px" stroke-dasharray="60 60"/>
<!-- Line -->
<polyline points=" 10009,-9645 14265,-16515"
	stroke="#000000" stroke-width="15px" stroke-dasharray="60 60"/>
<!-- Line -->
<polyline points=" 10845,-8775 14310,-16470"
	stroke="#000000" stroke-width="15px" stroke-dasharray="60 60"/>
<!-- Line -->
<polyline points=" 12519,-6983 14400,-16425"
	stroke="#000000" stroke-width="15px" stroke-dasharray="60 60"/>
<!-- Line -->
<polyline points=" 13440,-6072 14400,-16425"
	stroke="#000000" stroke-width="15px" stroke-dasharray="60 60"/>
<!-- Line -->
<polyline points=" 1800,-2925 1800,-17100"
	stroke="#000000" stroke-width="8px" stroke-dasharray="10 30"/>
<!-- Line -->
<polyline points=" 2700,-2925 2700,-17100"
	stroke="#000000" stroke-width="8px" stroke-dasharray="10 30"/>
<!-- Line -->
<polyline points=" 3600,-2925 3600,-17100"
	stroke="#000000" stroke-width="8px" stroke-dasharray="10 30"/>
<!-- Line -->
<polyline points=" 4500,-2925 4500,-17100"
	stroke="#000000" stroke-width="8px" stroke-dasharray="10 30"/>
<!-- Line -->
<polyline points=" 5400,-2925 5400,-17100"
	stroke="#000000" stroke-width="8px" stroke-dasharray="10 30"/>
<!-- Line -->
<polyline points=" 6300,-2925 6300,-17100"
	stroke="#000000" stroke-width="8px" stroke-dasharray="10 30"/>
<!-- Line -->
<polyline points=" 7200,-2925 7200,-17100"
	stroke="#000000" stroke-width="8px" stroke-dasharray="10 30"/>
<!-- Line -->
<polyline points=" 8100,-2925 8100,-17100"
	stroke="#000000" stroke-width="8px" stroke-dasharray="10 30"/>
<!-- Line -->
<polyline points=" 9000,-2925 9000,-17100"
	stroke="#000000" stroke-width="8px" stroke-dasharray="10 30"/>
<!-- Line -->
<polyline points=" 9900,-2925 9900,-17100"
	stroke="#000000" stroke-width="8px" stroke-dasharray="10 30"/>
<!-- Line -->
<polyline points=" 10800,-2925 10800,-17100"
	stroke="#000000" stroke-width="8px" stroke-dasharray="10 30"/>
<!-- Line -->
<polyline points=" 11700,-2925 11700,-17100"
	stroke="#000000" stroke-width="8px" stroke-dasharray="10 30"/>
<!-- Line -->
<polyline points=" 12600,-2925 12600,-17100"
	stroke="#000000" stroke-width="8px" stroke-dasharray="10 30"/>
<!-- Line -->
<polyline points=" 13500,-2925 13500,-17100"
	stroke="#000000" stroke-width="8px" stroke-dasharray="10 30"/>
<!-- Line -->
<polyline points=" 14400,-2925 14400,-17100"
	stroke="#000000" stroke-width="8px" stroke-dasharray="10 30"/>
<!-- Line -->
<polyline points=" 675,-3150 14850,-3150"
	stroke="#000000" stroke-width="8px" stroke-dasharray="10 30"/>
<!-- Line -->
<polyline points=" 675,-4050 14850,-4050"
	stroke="#000000" stroke-width="8px" stroke-dasharray="10 30"/>
<!-- Line -->
<polyline points=" 675,-4950 14850,-4950"
	stroke="#000000" stroke-width="8px" stroke-dasharray="10 30"/>
<!-- Line -->
<polyline points=" 675,-5850 14850,-5850"
	stroke="#000000" stroke-width="8px" stroke-dasharray="10 30"/>
<!-- Line -->
<polyline points=" 675,-6750 14850,-6750"
	stroke="#000000" stroke-width="8px" stroke-dasharray="10 30"/>
<!-- Line -->
<polyline points=" 675,-7650 14850,-7650"
	stroke="#000000" stroke-width="8px" stroke-dasharray="10 30"/>
<!-- Line -->
<polyline points=" 675,-8550 14850,-8550"
	stroke="#000000" stroke-width="8px" stroke-dasharray="10 30"/>
<!-- Line -->
<polyline points=" 675,-9450 14850,-9450"
	stroke="#000000" stroke-width="8px" stroke-dasharray="10 30"/>
<!-- Line -->
<polyline points=" 675,-10350 14850,-10350"
	stroke="#000000" stroke-width="8px" stroke-dasharray="10 30"/>
<!-- Line -->
<polyline points=" 675,-11250 14850,-11250"
	stroke="#000000" stroke-width="8px" stroke-dasharray="10 30"/>
<!-- Line -->
<polyline points=" 675,-12150 14850,-12150"
	stroke="#000000" stroke-width="8px" stroke-dasharray="10 30"/>
<!-- Line -->
<polyline points=" 675,-13050 14850,-13050"
	stroke="#000000" stroke-width="8px" stroke-dasharray="10 30"/>
<!-- Line -->
<polyline points=" 675,-13950 14850,-13950"
	stroke="#000000" stroke-width="8px" stroke-dasharray="10 30"/>
<!-- Line -->
<polyline points=" 675,-14850 14850,-14850"
	stroke="#000000" stroke-width="8px" stroke-dasharray="10 30"/>
<!-- Line -->
<polyline points=" 675,-15750 14850,-15750"
	stroke="#000000" stroke-width="8px" stroke-dasharray="10 30"/>
<!-- Line -->
<polyline points=" 675,-16650 14850,-16650"
	stroke="#000000" stroke-width="8px" stroke-dasharray="10 30"/>
<!-- Text -->
<text xml:space="preserve" x="540" y="-11160" fill="#000000" font-family="Helvetica Narrow" font-style="normal" font-weight="normal" font-size="384" text-anchor="end">8</text>
<!-- Text -->
<text xml:space="preserve" x="540" y="-7560" fill="#000000" font-family="Helvetica Narrow" font-style="normal" font-weight="normal" font-size="384" text-anchor="end">4</text>
<!-- Text -->
<text xml:space="preserve" x="540" y="-14760" fill="#000000" font-family="Helvetica Narrow" font-style="normal" font-weight="normal" font-size="384" text-anchor="end">12</text>
<!-- Text -->
<text xml:space="preserve" x="540" y="-3960" fill="#000000" font-family="Helvetica Narrow" font-style="normal" font-weight="normal" font-size="384" text-anchor="end">0</text>
<!-- Text -->
<text xml:space="preserve" x="1800" y="-2610" fill="#000000" font-family="Helvetica Narrow" font-style="normal" font-weight="normal" font-size="384" text-anchor="middle">0</text>
<!-- Text -->
<text xml:space="preserve" x="5400" y="-2610" fill="#000000" font-family="Helvetica Narrow" font-style="normal" font-weight="normal" font-size="384" text-anchor="middle">4</text>
<!-- Text -->
<text xml:space="preserve" x="9000" y="-2610" fill="#000000" font-family="Helvetica Narrow" font-style="normal" font-weight="normal" font-size="384" text-anchor="middle">8</text>
<!-- Text -->
<text xml:space="preserve" x="12600" y="-2610" fill="#000000" font-family="Helvetica Narrow" font-style="normal" font-weight="normal" font-size="384" text-anchor="middle">12</text>
<!-- Text -->
<text xml:space="preserve" x="1710" y="-4320" fill="#000000" font-family="Helvetica Narrow" font-style="normal" font-weight="normal" font-size="336" text-anchor="end">edibles</text>
<!-- Text -->
<text xml:space="preserve" x="2520" y="-11520" fill="#000000" font-family="Helvetica Narrow" font-style="normal" font-weight="normal" font-size="336" text-anchor="end">fruit</text>
<!-- Text -->
<text xml:space="preserve" x="4275" y="-16110" fill="#000000" font-family="Helvetica Narrow" font-style="normal" font-weight="normal" font-size="336" text-anchor="middle">orange</text>
<!-- Text -->
<text xml:space="preserve" x="3420" y="-13230" fill="#000000" font-family="Helvetica Narrow" font-style="normal" font-weight="normal" font-size="336" text-anchor="end">citrus</text>
<!-- Text -->
<text xml:space="preserve" x="5085" y="-15165" fill="#000000" font-family="Helvetica Narrow" font-style="normal" font-weight="normal" font-size="336" text-anchor="middle">lemon</text>
<!-- Text -->
<text xml:space="preserve" x="5985" y="-14265" fill="#000000" font-family="Helvetica Narrow" font-style="normal" font-weight="normal" font-size="336" text-anchor="middle">lime</text>
<!-- Text -->
<text xml:space="preserve" x="6930" y="-12420" fill="#000000" font-family="Helvetica Narrow" font-style="normal" font-weight="normal" font-size="336" text-anchor="end">apple</text>
<!-- Text -->
<text xml:space="preserve" x="8640" y="-10710" fill="#000000" font-family="Helvetica Narrow" font-style="normal" font-weight="normal" font-size="336" text-anchor="middle">beans</text>
<!-- Text -->
<text xml:space="preserve" x="9540" y="-9810" fill="#000000" font-family="Helvetica Narrow" font-style="normal" font-weight="normal" font-size="336" text-anchor="middle">peas</text>
<!-- Text -->
<text xml:space="preserve" x="10395" y="-8820" fill="#000000" font-family="Helvetica Narrow" font-style="normal" font-weight="normal" font-size="336" text-anchor="middle">spinach</text>
<!-- Text -->
<text xml:space="preserve" x="12195" y="-7020" fill="#000000" font-family="Helvetica Narrow" font-style="normal" font-weight="normal" font-size="336" text-anchor="middle">wheat</text>
<!-- Text -->
<text xml:space="preserve" x="13095" y="-5985" fill="#000000" font-family="Helvetica Narrow" font-style="normal" font-weight="normal" font-size="336" text-anchor="middle">rice</text>
<!-- Text -->
<text xml:space="preserve" x="7830" y="-7740" fill="#000000" font-family="Helvetica Narrow" font-style="normal" font-weight="normal" font-size="336" text-anchor="end">vegetable</text>
<!-- Text -->
<text xml:space="preserve" x="11610" y="-5220" fill="#000000" font-family="Helvetica Narrow" font-style="normal" font-weight="normal" font-size="336" text-anchor="end">grain</text>
<!-- Circle -->
<circle cx="2700" cy="-11250" r="180"
	stroke="#000000" stroke-width="15px"/>
<!-- Circle -->
<circle cx="11700" cy="-4950" r="180"
	stroke="#000000" stroke-width="15px"/>
<!-- Circle -->
<circle cx="1800" cy="-4050" r="180"
	stroke="#000000" stroke-width="15px"/>
<!-- Circle -->
<circle cx="900" cy="-3150" r="180"
	stroke="#000000" stroke-width="15px" stroke-dasharray="60 60"/>
<!-- Circle -->
<circle cx="3600" cy="-13050" r="180"
	stroke="#000000" stroke-width="15px"/>
<!-- Circle -->
<circle cx="4500" cy="-15750" r="180"
	stroke="#000000" stroke-width="15px"/>
<!-- Circle -->
<circle cx="5400" cy="-14850" r="180"
	stroke="#000000" stroke-width="15px"/>
<!-- Circle -->
<circle cx="6300" cy="-13950" r="180"
	stroke="#000000" stroke-width="15px"/>
<!-- Circle -->
<circle cx="7200" cy="-12150" r="180"
	stroke="#000000" stroke-width="15px"/>
<!-- Circle -->
<circle cx="8100" cy="-7650" r="180"
	stroke="#000000" stroke-width="15px"/>
<!-- Circle -->
<circle cx="9000" cy="-10350" r="180"
	stroke="#000000" stroke-width="15px"/>
<!-- Circle -->
<circle cx="9900" cy="-9450" r="180"
	stroke="#000000" stroke-width="15px"/>
<!-- Circle -->
<circle cx="10800" cy="-8550" r="180"
	stroke="#000000" stroke-width="15px"/>
<!-- Circle -->
<circle cx="12600" cy="-6750" r="180"
	stroke="#000000" stroke-width="15px"/>
<!-- Circle -->
<circle cx="13500" cy="-5850" r="180"
	stroke="#000000" stroke-width="15px"/>
<!-- Circle -->
<circle cx="14400" cy="-16650" r="180"
	stroke="#000000" stroke-width="15px" stroke-dasharray="60 60"/>
<!-- Line -->
<defs>
<clipPath id="cp0">
	<path clip-rule="evenodd" d="M 91,-17112 H 14862 V -2595 H 91 z
		M 7716,-7389 7746,-7337 7934,-7466 7924,-7484z"/>
</clipPath>
</defs>
<polyline points=" 2008,-4120 7920,-7470" clip-path="url(#cp0)"
	stroke="#000000" stroke-width="15px"/>
<!-- Forward arrow to point 7920,-7470 -->
<polygon points=" 7746,-7337 7835,-7422 7716,-7389 7746,-7337"
	stroke="#000000" stroke-width="45px" stroke-miterlimit="8" fill="#000000"/>
<!-- Line -->
<defs>
<clipPath id="cp1">
	<path clip-rule="evenodd" d="M 91,-17112 H 14862 V -2595 H 91 z
		M 2643,-10768 2702,-10761 2712,-10989 2691,-10992z"/>
</clipPath>
</defs>
<polyline points=" 1846,-4287 2700,-10980" clip-path="url(#cp1)"
	stroke="#000000" stroke-width="15px"/>
<!-- Forward arrow to point 2700,-10980 -->
<polygon points=" 2702,-10761 2688,-10884 2643,-10768 2702,-10761"
	stroke="#000000" stroke-width="45px" stroke-miterlimit="8" fill="#000000"/>
<!-- Line -->
<defs>
<clipPath id="cp2">
	<path clip-rule="evenodd" d="M 91,-17112 H 14862 V -2595 H 91 z
		M 11256,-4959 11262,-4900 11486,-4941 11484,-4961z"/>
</clipPath>
</defs>
<polyline points=" 2025,-4050 11475,-4950" clip-path="url(#cp2)"
	stroke="#000000" stroke-width="15px"/>
<!-- Forward arrow to point 11475,-4950 -->
<polygon points=" 11262,-4900 11378,-4941 11256,-4959 11262,-4900"
	stroke="#000000" stroke-width="45px" stroke-miterlimit="8" fill="#000000"/>
<!-- Line -->
<defs>
<clipPath id="cp3">
	<path clip-rule="evenodd" d="M 91,-17112 H 14862 V -2595 H 91 z
		M 3381,-12648 3434,-12619 3524,-12829 3506,-12839z"/>
</clipPath>
</defs>
<polyline points=" 2790,-11475 3510,-12825" clip-path="url(#cp3)"
	stroke="#000000" stroke-width="15px"/>
<!-- Forward arrow to point 3510,-12825 -->
<polygon points=" 3434,-12619 3464,-12739 3381,-12648 3434,-12619"
	stroke="#000000" stroke-width="45px" stroke-miterlimit="8" fill="#000000"/>
<!-- Line -->
<defs>
<clipPath id="cp4">
	<path clip-rule="evenodd" d="M 91,-17112 H 14862 V -2595 H 91 z
		M 4307,-15346 4364,-15327 4419,-15549 4399,-15555z"/>
</clipPath>
</defs>
<polyline points=" 3647,-13319 4406,-15542" clip-path="url(#cp4)"
	stroke="#000000" stroke-width="15px"/>
<!-- Forward arrow to point 4406,-15542 -->
<polygon points=" 4364,-15327 4375,-15450 4307,-15346 4364,-15327"
	stroke="#000000" stroke-width="45px" stroke-miterlimit="8" fill="#000000"/>
<!-- Line -->
<defs>
<clipPath id="cp5">
	<path clip-rule="evenodd" d="M 91,-17112 H 14862 V -2595 H 91 z
		M 5078,-14552 5120,-14508 5271,-14680 5256,-14695z"/>
</clipPath>
</defs>
<polyline points=" 3777,-13267 5256,-14680" clip-path="url(#cp5)"
	stroke="#000000" stroke-width="15px"/>
<!-- Forward arrow to point 5256,-14680 -->
<polygon points=" 5120,-14508 5186,-14613 5078,-14552 5120,-14508"
	stroke="#000000" stroke-width="45px" stroke-miterlimit="8" fill="#000000"/>
<!-- Line -->
<defs>
<clipPath id="cp6">
	<path clip-rule="evenodd" d="M 91,-17112 H 14862 V -2595 H 91 z
		M 5854,-13794 5872,-13737 6083,-13824 6077,-13844z"/>
</clipPath>
</defs>
<polyline points=" 3756,-13097 6070,-13831" clip-path="url(#cp6)"
	stroke="#000000" stroke-width="15px"/>
<!-- Forward arrow to point 6070,-13831 -->
<polygon points=" 5872,-13737 5977,-13802 5854,-13794 5872,-13737"
	stroke="#000000" stroke-width="45px" stroke-miterlimit="8" fill="#000000"/>
<!-- Line -->
<defs>
<clipPath id="cp7">
	<path clip-rule="evenodd" d="M 91,-17112 H 14862 V -2595 H 91 z
		M 8826,-9910 8883,-9891 8938,-10113 8918,-10119z"/>
</clipPath>
</defs>
<polyline points=" 8166,-7883 8925,-10106" clip-path="url(#cp7)"
	stroke="#000000" stroke-width="15px"/>
<!-- Forward arrow to point 8925,-10106 -->
<polygon points=" 8883,-9891 8894,-10014 8826,-9910 8883,-9891"
	stroke="#000000" stroke-width="45px" stroke-miterlimit="8" fill="#000000"/>
<!-- Line -->
<defs>
<clipPath id="cp8">
	<path clip-rule="evenodd" d="M 91,-17112 H 14862 V -2595 H 91 z
		M 9551,-9133 9593,-9089 9744,-9261 9729,-9276z"/>
</clipPath>
</defs>
<polyline points=" 8250,-7848 9729,-9261" clip-path="url(#cp8)"
	stroke="#000000" stroke-width="15px"/>
<!-- Forward arrow to point 9729,-9261 -->
<polygon points=" 9593,-9089 9659,-9194 9551,-9133 9593,-9089"
	stroke="#000000" stroke-width="45px" stroke-miterlimit="8" fill="#000000"/>
<!-- Line -->
<defs>
<clipPath id="cp9">
	<path clip-rule="evenodd" d="M 91,-17112 H 14862 V -2595 H 91 z
		M 10412,-8398 10430,-8341 10641,-8428 10635,-8448z"/>
</clipPath>
</defs>
<polyline points=" 8314,-7701 10628,-8435" clip-path="url(#cp9)"
	stroke="#000000" stroke-width="15px"/>
<!-- Forward arrow to point 10628,-8435 -->
<polygon points=" 10430,-8341 10535,-8406 10412,-8398 10430,-8341"
	stroke="#000000" stroke-width="45px" stroke-miterlimit="8" fill="#000000"/>
<!-- Line -->
<defs>
<clipPath id="cp10">
	<path clip-rule="evenodd" d="M 91,-17112 H 14862 V -2595 H 91 z
		M 6771,-12082 6783,-12023 7002,-12086 6998,-12106z"/>
</clipPath>
</defs>
<polyline points=" 2925,-11295 6990,-12094" clip-path="url(#cp10)"
	stroke="#000000" stroke-width="15px"/>
<!-- Forward arrow to point 6990,-12094 -->
<polygon points=" 6783,-12023 6895,-12075 6771,-12082 6783,-12023"
	stroke="#000000" stroke-width="45px" stroke-miterlimit="8" fill="#000000"/>
<!-- Line -->
<defs>
<clipPath id="cp11">
	<path clip-rule="evenodd" d="M 91,-17112 H 14862 V -2595 H 91 z
		M 13111,-5695 13136,-5641 13334,-5755 13325,-5774z"/>
</clipPath>
</defs>
<polyline points=" 11880,-5085 13320,-5760" clip-path="url(#cp11)"
	stroke="#000000" stroke-width="15px"/>
<!-- Forward arrow to point 13320,-5760 -->
<polygon points=" 13136,-5641 13232,-5719 13111,-5695 13136,-5641"
	stroke="#000000" stroke-width="45px" stroke-miterlimit="8" fill="#000000"/>
<!-- Line -->
<defs>
<clipPath id="cp12">
	<path clip-rule="evenodd" d="M 91,-17112 H 14862 V -2595 H 91 z
		M 12382,-6392 12436,-6364 12524,-6574 12506,-6584z"/>
</clipPath>
</defs>
<polyline points=" 11746,-5115 12510,-6570" clip-path="url(#cp12)"
	stroke="#000000" stroke-width="15px"/>
<!-- Forward arrow to point 12510,-6570 -->
<polygon points=" 12436,-6364 12465,-6484 12382,-6392 12436,-6364"
	stroke="#000000" stroke-width="45px" stroke-miterlimit="8" fill="#000000"/>
</g>
</svg>
