<?xml version='1.0' encoding='UTF-8' standalone='no'?>
<svg width="240pt" viewBox="0 0 240 240" height="240pt" xmlns:xlink="http://www.w3.org/1999/xlink" xmlns="http://www.w3.org/2000/svg">
 <title>Figure 1</title>
 <desc>
Creator: GL2PS 1.4.2, (C) 1999-2020 C. Geuzaine
For: Octave
CreationDate: Thu Dec  1 20:19:20 2022
</desc>
 <defs/>
 <polygon points="0,0 240,0 240,240 0,240" fill="#ffffff"/>
 <g>
  <polygon points="0,240 240,240 240,0 0,0" fill="#ffffff" shape-rendering="crispEdges"/>
  <clipPath id="cp00240240">
   <polygon points="0,240 240,240 240,0 0,0"/>
  </clipPath>
  <g clip-path="url(#cp00240240)">
   <polygon points="9.00021,232 231,232 231,10 9.00021,10" fill="#ffffff" shape-rendering="crispEdges"/>
   <polyline stroke-dasharray="16,0" stroke-width="0.5" stroke="#262626" stroke-linejoin="miter" points="9.00021,232 231,232" fill="none" stroke-linecap="square"/>
   <polyline stroke-dasharray="16,0" stroke-width="0.5" stroke="#262626" stroke-linejoin="miter" points="9.00021,10 231,10" fill="none" stroke-linecap="square"/>
   <polyline stroke-dasharray="16,0" stroke-width="0.5" stroke="#262626" stroke-linejoin="miter" points="9.00021,232 9.00021,10" fill="none" stroke-linecap="square"/>
   <polyline stroke-dasharray="16,0" stroke-width="0.5" stroke="#262626" stroke-linejoin="miter" points="231,232 231,10" fill="none" stroke-linecap="square"/>
   <polygon points="14.4915,230 13.2415,230.908 11.6964,230.908 10.4464,230 9.96896,228.531 10.4464,227.061 11.6964,226.153 13.2415,226.153 14.4915,227.061 14.969,228.531" fill="#00007f" shape-rendering="crispEdges"/>
   <polyline stroke-width="0.5" stroke="#000000" stroke-linejoin="round" points="14.969,228.531 14.4915,230 13.2415,230.908 11.6964,230.908 10.4464,230 9.96896,228.531 10.4464,227.061 11.6964,226.153 13.2415,226.153 14.4915,227.061 14.969,228.531" fill="none" stroke-linecap="round"/>
   <polygon points="21.429,223.063 20.179,223.971 18.6339,223.971 17.3839,223.063 16.9065,221.593 17.3839,220.124 18.6339,219.216 20.179,219.216 21.429,220.124 21.9064,221.593" fill="#00007f" shape-rendering="crispEdges"/>
   <polyline stroke-width="0.5" stroke="#000000" stroke-linejoin="round" points="21.9064,221.593 21.429,223.063 20.179,223.971 18.6339,223.971 17.3839,223.063 16.9065,221.593 17.3839,220.124 18.6339,219.216 20.179,219.216 21.429,220.124 21.9064,221.593" fill="none" stroke-linecap="round"/>
   <polygon points="28.3665,216.125 27.1165,217.034 25.5714,217.034 24.3214,216.125 23.8439,214.656 24.3214,213.186 25.5714,212.278 27.1165,212.278 28.3665,213.186 28.8439,214.656" fill="#00007f" shape-rendering="crispEdges"/>
   <polyline stroke-width="0.5" stroke="#000000" stroke-linejoin="round" points="28.8439,214.656 28.3665,216.125 27.1165,217.034 25.5714,217.034 24.3214,216.125 23.8439,214.656 24.3214,213.186 25.5714,212.278 27.1165,212.278 28.3665,213.186 28.8439,214.656" fill="none" stroke-linecap="round"/>
   <polygon points="35.304,209.188 34.054,210.096 32.5089,210.096 31.2589,209.188 30.7814,207.718 31.2589,206.249 32.5089,205.341 34.054,205.341 35.304,206.249 35.7814,207.718" fill="#00007f" shape-rendering="crispEdges"/>
   <polyline stroke-width="0.5" stroke="#000000" stroke-linejoin="round" points="35.7814,207.718 35.304,209.188 34.054,210.096 32.5089,210.096 31.2589,209.188 30.7814,207.718 31.2589,206.249 32.5089,205.341 34.054,205.341 35.304,206.249 35.7814,207.718" fill="none" stroke-linecap="round"/>
   <polygon points="42.2414,202.25 40.9914,203.159 39.4464,203.159 38.1964,202.25 37.7189,200.781 38.1964,199.311 39.4464,198.403 40.9914,198.403 42.2414,199.311 42.7189,200.781" fill="#00007f" shape-rendering="crispEdges"/>
   <polyline stroke-width="0.5" stroke="#000000" stroke-linejoin="round" points="42.7189,200.781 42.2414,202.25 40.9914,203.159 39.4464,203.159 38.1964,202.25 37.7189,200.781 38.1964,199.311 39.4464,198.403 40.9914,198.403 42.2414,199.311 42.7189,200.781" fill="none" stroke-linecap="round"/>
   <polygon points="49.1789,195.313 47.9289,196.221 46.3839,196.221 45.1338,195.313 44.6564,193.843 45.1338,192.374 46.3839,191.466 47.9289,191.466 49.1789,192.374 49.6564,193.843" fill="#00007f" shape-rendering="crispEdges"/>
   <polyline stroke-width="0.5" stroke="#000000" stroke-linejoin="round" points="49.6564,193.843 49.1789,195.313 47.9289,196.221 46.3839,196.221 45.1338,195.313 44.6564,193.843 45.1338,192.374 46.3839,191.466 47.9289,191.466 49.1789,192.374 49.6564,193.843" fill="none" stroke-linecap="round"/>
   <polygon points="56.1164,188.375 54.8664,189.284 53.3213,189.284 52.0713,188.375 51.5939,186.906 52.0713,185.436 53.3213,184.528 54.8664,184.528 56.1164,185.436 56.5939,186.906" fill="#00007f" shape-rendering="crispEdges"/>
   <polyline stroke-width="0.5" stroke="#000000" stroke-linejoin="round" points="56.5939,186.906 56.1164,188.375 54.8664,189.284 53.3213,189.284 52.0713,188.375 51.5939,186.906 52.0713,185.436 53.3213,184.528 54.8664,184.528 56.1164,185.436 56.5939,186.906" fill="none" stroke-linecap="round"/>
   <polygon points="63.0539,181.438 61.8039,182.346 60.2588,182.346 59.0088,181.438 58.5314,179.968 59.0088,178.499 60.2588,177.591 61.8039,177.591 63.0539,178.499 63.5314,179.968" fill="#00007f" shape-rendering="crispEdges"/>
   <polyline stroke-width="0.5" stroke="#000000" stroke-linejoin="round" points="63.5314,179.968 63.0539,181.438 61.8039,182.346 60.2588,182.346 59.0088,181.438 58.5314,179.968 59.0088,178.499 60.2588,177.591 61.8039,177.591 63.0539,178.499 63.5314,179.968" fill="none" stroke-linecap="round"/>
   <polygon points="69.9914,174.5 68.7414,175.409 67.1963,175.409 65.9463,174.5 65.4688,173.031 65.9463,171.561 67.1963,170.653 68.7414,170.653 69.9914,171.561 70.4688,173.031" fill="#00007f" shape-rendering="crispEdges"/>
   <polyline stroke-width="0.5" stroke="#000000" stroke-linejoin="round" points="70.4688,173.031 69.9914,174.5 68.7414,175.409 67.1963,175.409 65.9463,174.5 65.4688,173.031 65.9463,171.561 67.1963,170.653 68.7414,170.653 69.9914,171.561 70.4688,173.031" fill="none" stroke-linecap="round"/>
   <polygon points="76.9289,167.563 75.6789,168.471 74.1338,168.471 72.8838,167.563 72.4063,166.093 72.8838,164.624 74.1338,163.716 75.6789,163.716 76.9289,164.624 77.4063,166.093" fill="#00007f" shape-rendering="crispEdges"/>
   <polyline stroke-width="0.5" stroke="#000000" stroke-linejoin="round" points="77.4063,166.093 76.9289,167.563 75.6789,168.471 74.1338,168.471 72.8838,167.563 72.4063,166.093 72.8838,164.624 74.1338,163.716 75.6789,163.716 76.9289,164.624 77.4063,166.093" fill="none" stroke-linecap="round"/>
   <polygon points="83.8664,160.625 82.6164,161.534 81.0713,161.534 79.8213,160.625 79.3438,159.156 79.8213,157.687 81.0713,156.778 82.6164,156.778 83.8664,157.687 84.3438,159.156" fill="#00007f" shape-rendering="crispEdges"/>
   <polyline stroke-width="0.5" stroke="#000000" stroke-linejoin="round" points="84.3438,159.156 83.8664,160.625 82.6164,161.534 81.0713,161.534 79.8213,160.625 79.3438,159.156 79.8213,157.687 81.0713,156.778 82.6164,156.778 83.8664,157.687 84.3438,159.156" fill="none" stroke-linecap="round"/>
   <polygon points="90.8039,153.688 89.5539,154.596 88.0088,154.596 86.7588,153.688 86.2813,152.218 86.7588,150.749 88.0088,149.841 89.5539,149.841 90.8039,150.749 91.2813,152.218" fill="#00007f" shape-rendering="crispEdges"/>
   <polyline stroke-width="0.5" stroke="#000000" stroke-linejoin="round" points="91.2813,152.218 90.8039,153.688 89.5539,154.596 88.0088,154.596 86.7588,153.688 86.2813,152.218 86.7588,150.749 88.0088,149.841 89.5539,149.841 90.8039,150.749 91.2813,152.218" fill="none" stroke-linecap="round"/>
   <polygon points="97.7413,146.75 96.4913,147.659 94.9463,147.659 93.6963,146.75 93.2188,145.281 93.6963,143.812 94.9463,142.903 96.4913,142.903 97.7413,143.812 98.2188,145.281" fill="#00007f" shape-rendering="crispEdges"/>
   <polyline stroke-width="0.5" stroke="#000000" stroke-linejoin="round" points="98.2188,145.281 97.7413,146.75 96.4913,147.659 94.9463,147.659 93.6963,146.75 93.2188,145.281 93.6963,143.812 94.9463,142.903 96.4913,142.903 97.7413,143.812 98.2188,145.281" fill="none" stroke-linecap="round"/>
   <polygon points="104.679,139.813 103.429,140.721 101.884,140.721 100.634,139.813 100.156,138.344 100.634,136.874 101.884,135.966 103.429,135.966 104.679,136.874 105.156,138.344" fill="#00007f" shape-rendering="crispEdges"/>
   <polyline stroke-width="0.5" stroke="#000000" stroke-linejoin="round" points="105.156,138.344 104.679,139.813 103.429,140.721 101.884,140.721 100.634,139.813 100.156,138.344 100.634,136.874 101.884,135.966 103.429,135.966 104.679,136.874 105.156,138.344" fill="none" stroke-linecap="round"/>
   <polygon points="111.616,132.875 110.366,133.784 108.821,133.784 107.571,132.875 107.094,131.406 107.571,129.937 108.821,129.028 110.366,129.028 111.616,129.937 112.094,131.406" fill="#00007f" shape-rendering="crispEdges"/>
   <polyline stroke-width="0.5" stroke="#000000" stroke-linejoin="round" points="112.094,131.406 111.616,132.875 110.366,133.784 108.821,133.784 107.571,132.875 107.094,131.406 107.571,129.937 108.821,129.028 110.366,129.028 111.616,129.937 112.094,131.406" fill="none" stroke-linecap="round"/>
   <polygon points="118.554,125.938 117.304,126.846 115.759,126.846 114.509,125.938 114.031,124.469 114.509,122.999 115.759,122.091 117.304,122.091 118.554,122.999 119.031,124.469" fill="#00007f" shape-rendering="crispEdges"/>
   <polyline stroke-width="0.5" stroke="#000000" stroke-linejoin="round" points="119.031,124.469 118.554,125.938 117.304,126.846 115.759,126.846 114.509,125.938 114.031,124.469 114.509,122.999 115.759,122.091 117.304,122.091 118.554,122.999 119.031,124.469" fill="none" stroke-linecap="round"/>
   <polygon points="125.491,119.001 124.241,119.909 122.696,119.909 121.446,119.001 120.969,117.531 121.446,116.062 122.696,115.153 124.241,115.153 125.491,116.062 125.969,117.531" fill="#00007f" shape-rendering="crispEdges"/>
   <polyline stroke-width="0.5" stroke="#000000" stroke-linejoin="round" points="125.969,117.531 125.491,119.001 124.241,119.909 122.696,119.909 121.446,119.001 120.969,117.531 121.446,116.062 122.696,115.153 124.241,115.153 125.491,116.062 125.969,117.531" fill="none" stroke-linecap="round"/>
   <polygon points="132.429,112.063 131.179,112.971 129.634,112.971 128.384,112.063 127.906,110.594 128.384,109.124 129.634,108.216 131.179,108.216 132.429,109.124 132.906,110.594" fill="#00007f" shape-rendering="crispEdges"/>
   <polyline stroke-width="0.5" stroke="#000000" stroke-linejoin="round" points="132.906,110.594 132.429,112.063 131.179,112.971 129.634,112.971 128.384,112.063 127.906,110.594 128.384,109.124 129.634,108.216 131.179,108.216 132.429,109.124 132.906,110.594" fill="none" stroke-linecap="round"/>
   <polygon points="139.366,105.126 138.116,106.034 136.571,106.034 135.321,105.126 134.844,103.656 135.321,102.187 136.571,101.278 138.116,101.278 139.366,102.187 139.844,103.656" fill="#00007f" shape-rendering="crispEdges"/>
   <polyline stroke-width="0.5" stroke="#000000" stroke-linejoin="round" points="139.844,103.656 139.366,105.126 138.116,106.034 136.571,106.034 135.321,105.126 134.844,103.656 135.321,102.187 136.571,101.278 138.116,101.278 139.366,102.187 139.844,103.656" fill="none" stroke-linecap="round"/>
   <polygon points="146.304,98.188 145.054,99.0962 143.509,99.0962 142.259,98.188 141.781,96.7186 142.259,95.2491 143.509,94.3409 145.054,94.3409 146.304,95.2491 146.781,96.7186" fill="#00007f" shape-rendering="crispEdges"/>
   <polyline stroke-width="0.5" stroke="#000000" stroke-linejoin="round" points="146.781,96.7186 146.304,98.188 145.054,99.0962 143.509,99.0962 142.259,98.188 141.781,96.7186 142.259,95.2491 143.509,94.3409 145.054,94.3409 146.304,95.2491 146.781,96.7186" fill="none" stroke-linecap="round"/>
   <polygon points="153.241,91.2506 151.991,92.1587 150.446,92.1587 149.196,91.2506 148.719,89.7811 149.196,88.3116 150.446,87.4035 151.991,87.4035 153.241,88.3116 153.719,89.7811" fill="#00007f" shape-rendering="crispEdges"/>
   <polyline stroke-width="0.5" stroke="#000000" stroke-linejoin="round" points="153.719,89.7811 153.241,91.2506 151.991,92.1587 150.446,92.1587 149.196,91.2506 148.719,89.7811 149.196,88.3116 150.446,87.4035 151.991,87.4035 153.241,88.3116 153.719,89.7811" fill="none" stroke-linecap="round"/>
   <polygon points="160.179,84.3131 158.929,85.2213 157.384,85.2213 156.134,84.3131 155.656,82.8436 156.134,81.3741 157.384,80.466 158.929,80.466 160.179,81.3741 160.656,82.8436" fill="#00007f" shape-rendering="crispEdges"/>
   <polyline stroke-width="0.5" stroke="#000000" stroke-linejoin="round" points="160.656,82.8436 160.179,84.3131 158.929,85.2213 157.384,85.2213 156.134,84.3131 155.656,82.8436 156.134,81.3741 157.384,80.466 158.929,80.466 160.179,81.3741 160.656,82.8436" fill="none" stroke-linecap="round"/>
   <polygon points="167.116,77.3756 165.866,78.2838 164.321,78.2838 163.071,77.3756 162.594,75.9061 163.071,74.4367 164.321,73.5285 165.866,73.5285 167.116,74.4367 167.594,75.9061" fill="#00007f" shape-rendering="crispEdges"/>
   <polyline stroke-width="0.5" stroke="#000000" stroke-linejoin="round" points="167.594,75.9061 167.116,77.3756 165.866,78.2838 164.321,78.2838 163.071,77.3756 162.594,75.9061 163.071,74.4367 164.321,73.5285 165.866,73.5285 167.116,74.4367 167.594,75.9061" fill="none" stroke-linecap="round"/>
   <polygon points="174.054,70.4381 172.804,71.3463 171.259,71.3463 170.009,70.4381 169.531,68.9686 170.009,67.4992 171.259,66.591 172.804,66.591 174.054,67.4992 174.531,68.9686" fill="#00007f" shape-rendering="crispEdges"/>
   <polyline stroke-width="0.5" stroke="#000000" stroke-linejoin="round" points="174.531,68.9686 174.054,70.4381 172.804,71.3463 171.259,71.3463 170.009,70.4381 169.531,68.9686 170.009,67.4992 171.259,66.591 172.804,66.591 174.054,67.4992 174.531,68.9686" fill="none" stroke-linecap="round"/>
   <polygon points="180.991,63.5006 179.741,64.4088 178.196,64.4088 176.946,63.5006 176.469,62.0312 176.946,60.5617 178.196,59.6535 179.741,59.6535 180.991,60.5617 181.469,62.0312" fill="#00007f" shape-rendering="crispEdges"/>
   <polyline stroke-width="0.5" stroke="#000000" stroke-linejoin="round" points="181.469,62.0312 180.991,63.5006 179.741,64.4088 178.196,64.4088 176.946,63.5006 176.469,62.0312 176.946,60.5617 178.196,59.6535 179.741,59.6535 180.991,60.5617 181.469,62.0312" fill="none" stroke-linecap="round"/>
   <polygon points="187.929,56.5631 186.679,57.4713 185.134,57.4713 183.884,56.5631 183.406,55.0937 183.884,53.6242 185.134,52.716 186.679,52.716 187.929,53.6242 188.406,55.0937" fill="#00007f" shape-rendering="crispEdges"/>
   <polyline stroke-width="0.5" stroke="#000000" stroke-linejoin="round" points="188.406,55.0937 187.929,56.5631 186.679,57.4713 185.134,57.4713 183.884,56.5631 183.406,55.0937 183.884,53.6242 185.134,52.716 186.679,52.716 187.929,53.6242 188.406,55.0937" fill="none" stroke-linecap="round"/>
   <polygon points="194.866,49.6256 193.616,50.5338 192.071,50.5338 190.821,49.6256 190.344,48.1562 190.821,46.6867 192.071,45.7785 193.616,45.7785 194.866,46.6867 195.344,48.1562" fill="#00007f" shape-rendering="crispEdges"/>
   <polyline stroke-width="0.5" stroke="#000000" stroke-linejoin="round" points="195.344,48.1562 194.866,49.6256 193.616,50.5338 192.071,50.5338 190.821,49.6256 190.344,48.1562 190.821,46.6867 192.071,45.7785 193.616,45.7785 194.866,46.6867 195.344,48.1562" fill="none" stroke-linecap="round"/>
   <polygon points="201.804,42.6882 200.554,43.5963 199.009,43.5963 197.759,42.6882 197.281,41.2187 197.759,39.7492 199.009,38.841 200.554,38.841 201.804,39.7492 202.281,41.2187" fill="#00007f" shape-rendering="crispEdges"/>
   <polyline stroke-width="0.5" stroke="#000000" stroke-linejoin="round" points="202.281,41.2187 201.804,42.6882 200.554,43.5963 199.009,43.5963 197.759,42.6882 197.281,41.2187 197.759,39.7492 199.009,38.841 200.554,38.841 201.804,39.7492 202.281,41.2187" fill="none" stroke-linecap="round"/>
   <polygon points="208.741,35.7507 207.491,36.6588 205.946,36.6588 204.696,35.7507 204.219,34.2812 204.696,32.8117 205.946,31.9036 207.491,31.9036 208.741,32.8117 209.219,34.2812" fill="#00007f" shape-rendering="crispEdges"/>
   <polyline stroke-width="0.5" stroke="#000000" stroke-linejoin="round" points="209.219,34.2812 208.741,35.7507 207.491,36.6588 205.946,36.6588 204.696,35.7507 204.219,34.2812 204.696,32.8117 205.946,31.9036 207.491,31.9036 208.741,32.8117 209.219,34.2812" fill="none" stroke-linecap="round"/>
   <polygon points="215.679,28.8132 214.429,29.7214 212.884,29.7214 211.634,28.8132 211.156,27.3437 211.634,25.8743 212.884,24.9661 214.429,24.9661 215.679,25.8743 216.156,27.3437" fill="#00007f" shape-rendering="crispEdges"/>
   <polyline stroke-width="0.5" stroke="#000000" stroke-linejoin="round" points="216.156,27.3437 215.679,28.8132 214.429,29.7214 212.884,29.7214 211.634,28.8132 211.156,27.3437 211.634,25.8743 212.884,24.9661 214.429,24.9661 215.679,25.8743 216.156,27.3437" fill="none" stroke-linecap="round"/>
   <polygon points="222.616,21.8757 221.366,22.7839 219.821,22.7839 218.571,21.8757 218.094,20.4062 218.571,18.9368 219.821,18.0286 221.366,18.0286 222.616,18.9368 223.094,20.4062" fill="#00007f" shape-rendering="crispEdges"/>
   <polyline stroke-width="0.5" stroke="#000000" stroke-linejoin="round" points="223.094,20.4062 222.616,21.8757 221.366,22.7839 219.821,22.7839 218.571,21.8757 218.094,20.4062 218.571,18.9368 219.821,18.0286 221.366,18.0286 222.616,18.9368 223.094,20.4062" fill="none" stroke-linecap="round"/>
   <polygon points="229.554,14.9382 228.304,15.8464 226.759,15.8464 225.509,14.9382 225.031,13.4688 225.509,11.9993 226.759,11.0911 228.304,11.0911 229.554,11.9993 230.031,13.4688" fill="#00007f" shape-rendering="crispEdges"/>
   <polyline stroke-width="0.5" stroke="#000000" stroke-linejoin="round" points="230.031,13.4688 229.554,14.9382 228.304,15.8464 226.759,15.8464 225.509,14.9382 225.031,13.4688 225.509,11.9993 226.759,11.0911 228.304,11.0911 229.554,11.9993 230.031,13.4688" fill="none" stroke-linecap="round"/>
  </g>
 </g>
</svg>
