<?xml version="1.0" encoding="UTF-8"?>
<!DOCTYPE svg PUBLIC "-//W3C//DTD SVG 1.1//EN" "http://www.w3.org/Graphics/SVG/1.1/DTD/svg11.dtd">
<svg xmlns="http://www.w3.org/2000/svg" xmlns:xlink="http://www.w3.org/1999/xlink" version="1.1" width="715px" height="435px" viewBox="-0.5 -0.5 715 435" style="background-color: rgb(255, 255, 255);"><defs/><g><path d="M 151 14.37 L 151 361.63" fill="none" stroke="rgb(0, 0, 0)" stroke-miterlimit="10" pointer-events="stroke"/><path d="M 151 9.12 L 153.33 16.12 L 151 14.37 L 148.67 16.12 Z" fill="rgb(0, 0, 0)" stroke="rgb(0, 0, 0)" stroke-miterlimit="10" pointer-events="all"/><path d="M 151 366.88 L 148.67 359.88 L 151 361.63 L 153.33 359.88 Z" fill="rgb(0, 0, 0)" stroke="rgb(0, 0, 0)" stroke-miterlimit="10" pointer-events="all"/><path d="M 146 38 L 156 38" fill="none" stroke="rgb(0, 0, 0)" stroke-width="2" stroke-miterlimit="10" pointer-events="stroke"/><path d="M 324.63 188 L 121 188" fill="none" stroke="rgb(0, 0, 0)" stroke-miterlimit="10" pointer-events="stroke"/><path d="M 329.88 188 L 322.88 190.33 L 324.63 188 L 322.88 185.67 Z" fill="rgb(0, 0, 0)" stroke="rgb(0, 0, 0)" stroke-miterlimit="10" pointer-events="all"/><path d="M 146 338 L 156 338" fill="none" stroke="rgb(0, 0, 0)" stroke-width="2" stroke-miterlimit="10" pointer-events="stroke"/><path d="M 301 193 L 301.01 183" fill="none" stroke="rgb(0, 0, 0)" stroke-width="2" stroke-miterlimit="10" pointer-events="stroke"/><path d="M 301 308 L 301 68" fill="none" stroke="rgb(0, 0, 0)" stroke-width="2" stroke-miterlimit="10" stroke-dasharray="6 6" pointer-events="stroke"/><path d="M 151 188 L 241 68" fill="none" stroke="rgb(0, 0, 0)" stroke-width="2" stroke-miterlimit="10" stroke-dasharray="6 6" pointer-events="stroke"/><path d="M 151 188 L 241 308" fill="none" stroke="rgb(0, 0, 0)" stroke-width="2" stroke-miterlimit="10" stroke-dasharray="6 6" pointer-events="stroke"/><path d="M 301 113 L 151 188" fill="none" stroke="rgb(0, 0, 0)" stroke-width="2" stroke-miterlimit="10" stroke-dasharray="6 6" pointer-events="stroke"/><path d="M 301 263 L 151 188" fill="none" stroke="rgb(0, 0, 0)" stroke-width="2" stroke-miterlimit="10" stroke-dasharray="6 6" pointer-events="stroke"/><path d="M 146 113 L 156 113" fill="none" stroke="rgb(0, 0, 0)" stroke-width="2" stroke-miterlimit="10" pointer-events="stroke"/><path d="M 146 263 L 156 263" fill="none" stroke="rgb(0, 0, 0)" stroke-width="2" stroke-miterlimit="10" pointer-events="stroke"/><rect x="116" y="98" width="30" height="30" fill="none" stroke="none" pointer-events="all"/><g fill="rgb(0, 0, 0)" font-family="Helvetica" text-anchor="middle" font-size="16px"><text x="130.5" y="119.5">β/2</text></g><rect x="111" y="243" width="30" height="30" fill="none" stroke="none" pointer-events="all"/><g fill="rgb(0, 0, 0)" font-family="Helvetica" text-anchor="middle" font-size="16px"><text x="125.5" y="264.5">-β/2</text></g><path d="M 241 68 C 278.81 96.36 301.05 140.89 301 188.15 C 300.95 235.42 278.63 279.9 240.76 308.18" fill="none" stroke="rgb(0, 0, 0)" stroke-width="2" stroke-miterlimit="10" pointer-events="all"/><ellipse cx="241" cy="68" rx="5" ry="5" fill="none" stroke="rgb(0, 0, 0)" stroke-width="2" pointer-events="all"/><ellipse cx="241" cy="308" rx="5" ry="5" fill="none" stroke="rgb(0, 0, 0)" stroke-width="2" pointer-events="all"/><path d="M 559.88 137.52 C 657.92 151.46 715.99 202.69 690.51 252.77 C 665.04 302.85 565.38 333.37 466.32 321.44" fill="none" stroke="rgb(0, 0, 0)" stroke-width="2" stroke-miterlimit="10" stroke-dasharray="6 6" transform="rotate(319,509.46,229)" pointer-events="all"/><rect x="481.46" y="218" width="30" height="30" fill="none" stroke="none" pointer-events="all"/><g fill="rgb(0, 0, 0)" font-family="Helvetica" text-anchor="middle" font-size="16px"><text x="495.96" y="239.5">pa</text></g><rect x="466.46" y="168" width="30" height="30" fill="none" stroke="none" pointer-events="all"/><g fill="rgb(0, 0, 0)" font-family="Helvetica" text-anchor="middle" font-size="16px"><text x="480.96" y="189.5">ps</text></g><rect x="581.46" y="183" width="30" height="30" fill="none" stroke="none" pointer-events="all"/><g fill="rgb(0, 0, 0)" font-family="Helvetica" text-anchor="middle" font-size="16px"><text x="595.96" y="204.5">pc</text></g><path d="M 657.3 130.77 L 511.46 228" fill="none" stroke="rgb(0, 0, 0)" stroke-width="2" stroke-miterlimit="10" stroke-dasharray="6 6" pointer-events="stroke"/><path d="M 509.83 223.14 L 486.46 128" fill="none" stroke="rgb(0, 0, 0)" stroke-width="2" stroke-miterlimit="10" stroke-dasharray="6 6" pointer-events="stroke"/><path d="M 686.46 228 L 636.46 28" fill="none" stroke="rgb(0, 0, 0)" stroke-width="2" stroke-miterlimit="10" stroke-dasharray="6 6" pointer-events="stroke"/><ellipse cx="581.46" cy="88" rx="5" ry="5" fill="none" stroke="rgb(0, 0, 0)" stroke-width="2" pointer-events="all"/><ellipse cx="621.46" cy="248" rx="5" ry="5" fill="none" stroke="rgb(0, 0, 0)" stroke-width="2" pointer-events="all"/><path d="M 655.66 169.77 C 692.17 193.03 705.13 223.63 690.67 252.46 C 676.21 281.29 636 305.01 582.03 316.56" fill="none" stroke="rgb(0, 0, 0)" stroke-width="2" stroke-miterlimit="10" transform="rotate(319,509.46,229)" pointer-events="all"/><path d="M 498.94 177.93 L 501.46 188" fill="none" stroke="rgb(0, 0, 0)" stroke-width="2" stroke-miterlimit="10" pointer-events="stroke"/><path d="M 497 170.17 L 502.82 176.96 L 495.06 178.9 Z" fill="rgb(0, 0, 0)" stroke="rgb(0, 0, 0)" stroke-width="2" stroke-miterlimit="10" pointer-events="all"/><path d="M 592.94 173.68 L 571.46 188" fill="none" stroke="rgb(0, 0, 0)" stroke-width="2" stroke-miterlimit="10" pointer-events="stroke"/><path d="M 599.6 169.24 L 595.16 177.01 L 590.72 170.35 Z" fill="rgb(0, 0, 0)" stroke="rgb(0, 0, 0)" stroke-width="2" stroke-miterlimit="10" pointer-events="all"/><path d="M 382 193.5 L 382 182.5 L 400 182.5 L 400 171.5 L 420 188 L 400 204.5 L 400 193.5 Z" fill="none" stroke="rgb(0, 0, 0)" stroke-width="2" stroke-miterlimit="10" pointer-events="all"/><rect x="196" y="403" width="430" height="30" fill="none" stroke="none" pointer-events="all"/><g fill="rgb(0, 0, 0)" font-family="Helvetica" font-style="italic" text-anchor="middle" font-size="16px"><text x="410.5" y="424.5">All curves are preliminary, and will be redrawn exactly later.</text></g><ellipse cx="511" cy="228" rx="5" ry="5" fill="none" stroke="rgb(0, 0, 0)" stroke-width="2" pointer-events="all"/><path d="M 536.46 328 L 512.21 232.85" fill="none" stroke="rgb(0, 0, 0)" stroke-width="2" stroke-miterlimit="10" stroke-dasharray="6 6" pointer-events="stroke"/></g></svg>