<?xml version="1.0" encoding="UTF-8"?>
<!DOCTYPE svg PUBLIC "-//W3C//DTD SVG 1.1//EN" "http://www.w3.org/Graphics/SVG/1.1/DTD/svg11.dtd">
<svg xmlns="http://www.w3.org/2000/svg" xmlns:xlink="http://www.w3.org/1999/xlink" version="1.1" width="802px" height="512px" viewBox="-0.5 -0.5 802 512" style="background-color: rgb(255, 255, 255);"><defs/><g><path d="M 228.07 108.93 L 266.72 97.29" fill="none" stroke="rgb(0, 0, 0)" stroke-width="2" stroke-miterlimit="10" pointer-events="stroke"/><path d="M 259.1 105.85 L 268.86 96.64 L 255.64 94.36" fill="none" stroke="rgb(0, 0, 0)" stroke-width="2" stroke-miterlimit="10" pointer-events="all"/><path d="M 228.07 123.07 L 307.23 173.59" fill="none" stroke="rgb(0, 0, 0)" stroke-width="2" stroke-miterlimit="10" pointer-events="stroke"/><path d="M 295.77 173.4 L 309.12 174.8 L 302.23 163.28" fill="none" stroke="rgb(0, 0, 0)" stroke-width="2" stroke-miterlimit="10" pointer-events="all"/><ellipse cx="221" cy="116" rx="10" ry="10" fill="rgb(255, 255, 255)" stroke="rgb(0, 0, 0)" stroke-width="2" pointer-events="all"/><path d="M 311 276 L 326.53 276" fill="none" stroke="rgb(0, 0, 0)" stroke-width="2" stroke-miterlimit="10" pointer-events="stroke"/><path d="M 316.76 282 L 328.76 276 L 316.76 270" fill="none" stroke="rgb(0, 0, 0)" stroke-width="2" stroke-miterlimit="10" pointer-events="all"/><ellipse cx="321" cy="176" rx="10" ry="10" fill="rgb(255, 255, 255)" stroke="rgb(0, 0, 0)" stroke-width="2" pointer-events="all"/><ellipse cx="341" cy="121" rx="10" ry="10" fill="rgb(255, 255, 255)" stroke="rgb(0, 0, 0)" stroke-width="2" pointer-events="all"/><ellipse cx="281" cy="96" rx="10" ry="10" fill="rgb(255, 255, 255)" stroke="rgb(0, 0, 0)" stroke-width="2" pointer-events="all"/><ellipse cx="341" cy="276" rx="10" ry="10" fill="rgb(255, 255, 255)" stroke="rgb(0, 0, 0)" stroke-width="2" pointer-events="all"/><ellipse cx="41" cy="256" rx="10" ry="10" fill="rgb(255, 255, 255)" stroke="rgb(0, 0, 0)" stroke-width="2" pointer-events="all"/><path d="M 48.07 248.93 L 210.37 125.77" fill="none" stroke="rgb(0, 0, 0)" stroke-width="2" stroke-miterlimit="10" pointer-events="stroke"/><path d="M 206.22 136.46 L 212.15 124.42 L 198.96 126.9" fill="none" stroke="rgb(0, 0, 0)" stroke-width="2" stroke-miterlimit="10" pointer-events="all"/><ellipse cx="341" cy="76" rx="10" ry="10" fill="rgb(255, 255, 255)" stroke="rgb(0, 0, 0)" stroke-width="2" pointer-events="all"/><path d="M 288.07 103.07 L 326.87 119.28" fill="none" stroke="rgb(0, 0, 0)" stroke-width="2" stroke-miterlimit="10" pointer-events="stroke"/><path d="M 315.55 121.05 L 328.94 120.14 L 320.18 109.98" fill="none" stroke="rgb(0, 0, 0)" stroke-width="2" stroke-miterlimit="10" pointer-events="all"/><path d="M 288.07 88.93 L 326.72 77.29" fill="none" stroke="rgb(0, 0, 0)" stroke-width="2" stroke-miterlimit="10" pointer-events="stroke"/><path d="M 319.1 85.85 L 328.86 76.64 L 315.64 74.36" fill="none" stroke="rgb(0, 0, 0)" stroke-width="2" stroke-miterlimit="10" pointer-events="all"/><path d="M 51 256 L 246.55 275.56" fill="none" stroke="rgb(0, 0, 0)" stroke-width="2" stroke-miterlimit="10" pointer-events="stroke"/><path d="M 236.24 280.55 L 248.78 275.78 L 237.43 268.61" fill="none" stroke="rgb(0, 0, 0)" stroke-width="2" stroke-miterlimit="10" pointer-events="all"/><ellipse cx="261" cy="276" rx="10" ry="10" fill="rgb(255, 255, 255)" stroke="rgb(0, 0, 0)" stroke-width="2" pointer-events="all"/><path d="M 271 276 L 286.53 276" fill="none" stroke="rgb(0, 0, 0)" stroke-width="2" stroke-miterlimit="10" pointer-events="stroke"/><path d="M 276.76 282 L 288.76 276 L 276.76 270" fill="none" stroke="rgb(0, 0, 0)" stroke-width="2" stroke-miterlimit="10" pointer-events="all"/><ellipse cx="301" cy="276" rx="10" ry="10" fill="rgb(255, 255, 255)" stroke="rgb(0, 0, 0)" stroke-width="2" pointer-events="all"/><path d="M 48.07 263.07 L 230.41 406.17" fill="none" stroke="rgb(0, 0, 0)" stroke-width="2" stroke-miterlimit="10" pointer-events="stroke"/><path d="M 219.03 404.86 L 232.17 407.55 L 226.43 395.42" fill="none" stroke="rgb(0, 0, 0)" stroke-width="2" stroke-miterlimit="10" pointer-events="all"/><path d="M 248.07 423.07 L 307.04 453.93" fill="none" stroke="rgb(0, 0, 0)" stroke-width="2" stroke-miterlimit="10" pointer-events="stroke"/><path d="M 295.6 454.72 L 309.02 454.96 L 301.17 444.08" fill="none" stroke="rgb(0, 0, 0)" stroke-width="2" stroke-miterlimit="10" pointer-events="all"/><ellipse cx="241" cy="416" rx="10" ry="10" fill="rgb(255, 255, 255)" stroke="rgb(0, 0, 0)" stroke-width="2" pointer-events="all"/><ellipse cx="321" cy="456" rx="10" ry="10" fill="rgb(255, 255, 255)" stroke="rgb(0, 0, 0)" stroke-width="2" pointer-events="all"/><ellipse cx="321" cy="416" rx="10" ry="10" fill="rgb(255, 255, 255)" stroke="rgb(0, 0, 0)" stroke-width="2" pointer-events="all"/><ellipse cx="321" cy="376" rx="10" ry="10" fill="rgb(255, 255, 255)" stroke="rgb(0, 0, 0)" stroke-width="2" pointer-events="all"/><path d="M 251 416 L 306.53 416" fill="none" stroke="rgb(0, 0, 0)" stroke-width="2" stroke-miterlimit="10" pointer-events="stroke"/><path d="M 296.76 422 L 308.76 416 L 296.76 410" fill="none" stroke="rgb(0, 0, 0)" stroke-width="2" stroke-miterlimit="10" pointer-events="all"/><path d="M 248.07 408.93 L 307.04 378.07" fill="none" stroke="rgb(0, 0, 0)" stroke-width="2" stroke-miterlimit="10" pointer-events="stroke"/><path d="M 301.17 387.92 L 309.02 377.04 L 295.6 377.28" fill="none" stroke="rgb(0, 0, 0)" stroke-width="2" stroke-miterlimit="10" pointer-events="all"/><rect x="361" y="261" width="30" height="30" fill="none" stroke="none" pointer-events="all"/><g fill="rgb(0, 0, 0)" font-family="Helvetica" font-size="16px"><text x="362.5" y="282.5">8,7</text></g><rect x="341" y="441" width="30" height="30" fill="none" stroke="none" pointer-events="all"/><g fill="rgb(0, 0, 0)" font-family="Helvetica" font-size="16px"><text x="342.5" y="462.5">12,2</text></g><rect x="341" y="401" width="30" height="30" fill="none" stroke="none" pointer-events="all"/><g fill="rgb(0, 0, 0)" font-family="Helvetica" font-size="16px"><text x="342.5" y="422.5">11,3</text></g><rect x="341" y="361" width="30" height="30" fill="none" stroke="none" pointer-events="all"/><g fill="rgb(0, 0, 0)" font-family="Helvetica" font-size="16px"><text x="342.5" y="382.5">10,4</text></g><rect x="361" y="61" width="30" height="30" fill="none" stroke="none" pointer-events="all"/><g fill="rgb(0, 0, 0)" font-family="Helvetica" font-size="16px"><text x="362.5" y="82.5">3,12</text></g><rect x="361" y="106" width="30" height="30" fill="none" stroke="none" pointer-events="all"/><g fill="rgb(0, 0, 0)" font-family="Helvetica" font-size="16px"><text x="362.5" y="127.5">4,11</text></g><rect x="341" y="161" width="30" height="30" fill="none" stroke="none" pointer-events="all"/><g fill="rgb(0, 0, 0)" font-family="Helvetica" font-size="16px"><text x="342.5" y="182.5">5,9</text></g><rect x="241" y="56" width="30" height="30" fill="none" stroke="none" pointer-events="all"/><g fill="rgb(0, 0, 0)" font-family="Helvetica" text-anchor="end" font-size="16px"><text x="268.5" y="80.5">2,10</text></g><rect x="181" y="76" width="30" height="30" fill="none" stroke="none" pointer-events="all"/><g fill="rgb(0, 0, 0)" font-family="Helvetica" text-anchor="end" font-size="16px"><text x="208.5" y="100.5">1,8</text></g><rect x="1" y="216" width="30" height="30" fill="none" stroke="none" pointer-events="all"/><g fill="rgb(0, 0, 0)" font-family="Helvetica" text-anchor="end" font-size="16px"><text x="28.5" y="240.5">0,0</text></g><rect x="201" y="426" width="30" height="30" fill="none" stroke="none" pointer-events="all"/><g fill="rgb(0, 0, 0)" font-family="Helvetica" text-anchor="end" font-size="16px"><text x="228.5" y="447.5">9,1</text></g><rect x="246" y="286" width="30" height="30" fill="none" stroke="none" pointer-events="all"/><g fill="rgb(0, 0, 0)" font-family="Helvetica" text-anchor="middle" font-size="16px"><text x="260.5" y="307.5">6,5</text></g><rect x="286" y="286" width="30" height="30" fill="none" stroke="none" pointer-events="all"/><g fill="rgb(0, 0, 0)" font-family="Helvetica" text-anchor="middle" font-size="16px"><text x="300.5" y="307.5">7,6</text></g><path d="M 648.07 103.07 L 710.77 165.77" fill="none" stroke="rgb(0, 0, 0)" stroke-width="2" stroke-miterlimit="10" pointer-events="stroke"/><path d="M 699.62 163.11 L 712.35 167.35 L 708.11 154.62" fill="none" stroke="rgb(0, 0, 0)" stroke-width="2" stroke-miterlimit="10" pointer-events="all"/><ellipse cx="721" cy="256" rx="10" ry="10" fill="rgb(255, 255, 255)" stroke="rgb(0, 0, 0)" stroke-width="2" pointer-events="all"/><ellipse cx="481" cy="256" rx="10" ry="10" fill="rgb(255, 255, 255)" stroke="rgb(0, 0, 0)" stroke-width="2" pointer-events="all"/><path d="M 488.07 248.93 L 630.77 106.23" fill="none" stroke="rgb(0, 0, 0)" stroke-width="2" stroke-miterlimit="10" pointer-events="stroke"/><path d="M 628.11 117.38 L 632.35 104.65 L 619.62 108.89" fill="none" stroke="rgb(0, 0, 0)" stroke-width="2" stroke-miterlimit="10" pointer-events="all"/><path d="M 688.07 63.07 L 710.77 85.77" fill="none" stroke="rgb(0, 0, 0)" stroke-width="2" stroke-miterlimit="10" pointer-events="stroke"/><path d="M 699.62 83.11 L 712.35 87.35 L 708.11 74.62" fill="none" stroke="rgb(0, 0, 0)" stroke-width="2" stroke-miterlimit="10" pointer-events="all"/><path d="M 688.07 48.93 L 708.74 25.78" fill="none" stroke="rgb(0, 0, 0)" stroke-width="2" stroke-miterlimit="10" pointer-events="stroke"/><path d="M 706.71 37.06 L 710.23 24.11 L 697.76 29.06" fill="none" stroke="rgb(0, 0, 0)" stroke-width="2" stroke-miterlimit="10" pointer-events="all"/><path d="M 488.07 263.07 L 630.77 405.77" fill="none" stroke="rgb(0, 0, 0)" stroke-width="2" stroke-miterlimit="10" pointer-events="stroke"/><path d="M 619.62 403.11 L 632.35 407.35 L 628.11 394.62" fill="none" stroke="rgb(0, 0, 0)" stroke-width="2" stroke-miterlimit="10" pointer-events="all"/><path d="M 648.07 423.07 L 710.77 485.77" fill="none" stroke="rgb(0, 0, 0)" stroke-width="2" stroke-miterlimit="10" pointer-events="stroke"/><path d="M 699.62 483.11 L 712.35 487.35 L 708.11 474.62" fill="none" stroke="rgb(0, 0, 0)" stroke-width="2" stroke-miterlimit="10" pointer-events="all"/><path d="M 651 416 L 706.53 416" fill="none" stroke="rgb(0, 0, 0)" stroke-width="2" stroke-miterlimit="10" pointer-events="stroke"/><path d="M 696.76 422 L 708.76 416 L 696.76 410" fill="none" stroke="rgb(0, 0, 0)" stroke-width="2" stroke-miterlimit="10" pointer-events="all"/><path d="M 648.07 408.93 L 710.77 346.23" fill="none" stroke="rgb(0, 0, 0)" stroke-width="2" stroke-miterlimit="10" pointer-events="stroke"/><path d="M 708.11 357.38 L 712.35 344.65 L 699.62 348.89" fill="none" stroke="rgb(0, 0, 0)" stroke-width="2" stroke-miterlimit="10" pointer-events="all"/><rect x="741" y="241" width="60" height="30" fill="none" stroke="none" pointer-events="all"/><g fill="rgb(0, 0, 0)" font-family="Helvetica" font-size="16px"><text x="742.5" y="262.5">3,3 x3</text></g><rect x="441" y="216" width="30" height="30" fill="none" stroke="none" pointer-events="all"/><g fill="rgb(0, 0, 0)" font-family="Helvetica" text-anchor="end" font-size="16px"><text x="468.5" y="240.5">0,0</text></g><path d="M 648.07 88.93 L 670.77 66.23" fill="none" stroke="rgb(0, 0, 0)" stroke-width="2" stroke-miterlimit="10" pointer-events="stroke"/><path d="M 668.11 77.38 L 672.35 64.65 L 659.62 68.89" fill="none" stroke="rgb(0, 0, 0)" stroke-width="2" stroke-miterlimit="10" pointer-events="all"/><ellipse cx="721" cy="16" rx="10" ry="10" fill="rgb(255, 255, 255)" stroke="rgb(0, 0, 0)" stroke-width="2" pointer-events="none"/><ellipse cx="721" cy="336" rx="10" ry="10" fill="rgb(255, 255, 255)" stroke="rgb(0, 0, 0)" stroke-width="2" transform="rotate(90,721,336)" pointer-events="none"/><g fill="rgb(0, 0, 0)" font-family="Helvetica" pointer-events="none" font-size="16px"><text x="742.5" y="342.5">4,2</text></g><ellipse cx="721" cy="496" rx="10" ry="10" fill="rgb(255, 255, 255)" stroke="rgb(0, 0, 0)" stroke-width="2" pointer-events="none"/><g fill="rgb(0, 0, 0)" font-family="Helvetica" pointer-events="none" font-size="16px"><text x="742.5" y="502.5">6,0</text></g><ellipse cx="731" cy="266" rx="10" ry="10" fill="rgb(255, 255, 255)" stroke="rgb(0, 0, 0)" stroke-width="2" pointer-events="none"/><ellipse cx="711" cy="246" rx="10" ry="10" fill="rgb(255, 255, 255)" stroke="rgb(0, 0, 0)" stroke-width="2" pointer-events="none"/><path d="M 491 256 L 706.53 256" fill="none" stroke="rgb(0, 0, 0)" stroke-width="2" stroke-miterlimit="10" pointer-events="none"/><path d="M 696.76 262 L 708.76 256 L 696.76 250" fill="none" stroke="rgb(0, 0, 0)" stroke-width="2" stroke-miterlimit="10" pointer-events="none"/><ellipse cx="641" cy="416" rx="10" ry="10" fill="rgb(255, 255, 255)" stroke="rgb(0, 0, 0)" stroke-width="2" pointer-events="none"/><g fill="rgb(0, 0, 0)" font-family="Helvetica" pointer-events="none" text-anchor="end" font-size="16px"><text x="628.5" y="447.5">4,0</text></g><g fill="rgb(0, 0, 0)" font-family="Helvetica" pointer-events="none" font-size="16px"><text x="742.5" y="22.5">0,6</text></g><ellipse cx="721" cy="176" rx="10" ry="10" fill="rgb(255, 255, 255)" stroke="rgb(0, 0, 0)" stroke-width="2" pointer-events="none"/><g fill="rgb(0, 0, 0)" font-family="Helvetica" pointer-events="none" font-size="16px"><text x="742.5" y="182.5">2,4</text></g><ellipse cx="721" cy="96" rx="10" ry="10" fill="rgb(255, 255, 255)" stroke="rgb(0, 0, 0)" stroke-width="2" pointer-events="none"/><g fill="rgb(0, 0, 0)" font-family="Helvetica" pointer-events="none" font-size="16px"><text x="742.5" y="102.5">1,5</text></g><ellipse cx="721" cy="416" rx="10" ry="10" fill="rgb(255, 255, 255)" stroke="rgb(0, 0, 0)" stroke-width="2" pointer-events="none"/><g fill="rgb(0, 0, 0)" font-family="Helvetica" pointer-events="none" font-size="16px"><text x="742.5" y="422.5">5,1</text></g><ellipse cx="641" cy="96" rx="10" ry="10" fill="rgb(255, 255, 255)" stroke="rgb(0, 0, 0)" stroke-width="2" pointer-events="none"/><g fill="rgb(0, 0, 0)" font-family="Helvetica" pointer-events="none" text-anchor="end" font-size="16px"><text x="628.5" y="80.5">0,4</text></g><ellipse cx="681" cy="56" rx="10" ry="10" fill="rgb(255, 255, 255)" stroke="rgb(0, 0, 0)" stroke-width="2" pointer-events="none"/><g fill="rgb(0, 0, 0)" font-family="Helvetica" pointer-events="none" text-anchor="end" font-size="16px"><text x="668.5" y="40.5">0,5</text></g></g></svg>
