<?xml version="1.0" encoding="UTF-8"?>
<!DOCTYPE svg PUBLIC "-//W3C//DTD SVG 1.1//EN" "http://www.w3.org/Graphics/SVG/1.1/DTD/svg11.dtd">
<svg xmlns="http://www.w3.org/2000/svg" xmlns:xlink="http://www.w3.org/1999/xlink" version="1.1" width="577px" height="598px" viewBox="-0.5 -0.5 577 598" style="background-color: rgb(255, 255, 255);"><defs/><g><ellipse cx="408.5" cy="8.5" rx="7.5" ry="7.5" fill="rgb(255, 255, 255)" stroke="rgb(0, 0, 0)" stroke-width="2" transform="rotate(-180,408.5,8.5)" pointer-events="none"/><ellipse cx="288.5" cy="128.5" rx="7.5" ry="7.5" fill="rgb(255, 255, 255)" stroke="rgb(0, 0, 0)" stroke-width="2" transform="rotate(-180,288.5,128.5)" pointer-events="none"/><ellipse cx="388.5" cy="148.5" rx="7.5" ry="7.5" fill="rgb(255, 255, 255)" stroke="rgb(0, 0, 0)" stroke-width="2" transform="rotate(-180,388.5,148.5)" pointer-events="none"/><ellipse cx="328.5" cy="88.5" rx="7.5" ry="7.5" fill="rgb(255, 255, 255)" stroke="rgb(0, 0, 0)" stroke-width="2" transform="rotate(-180,328.5,88.5)" pointer-events="none"/><ellipse cx="348.5" cy="28.5" rx="7.5" ry="7.5" fill="rgb(255, 255, 255)" stroke="rgb(0, 0, 0)" stroke-width="2" transform="rotate(-180,348.5,28.5)" pointer-events="none"/><ellipse cx="268.5" cy="188.5" rx="7.5" ry="7.5" fill="rgb(255, 255, 255)" stroke="rgb(0, 0, 0)" stroke-width="2" transform="rotate(-180,268.5,188.5)" pointer-events="none"/><ellipse cx="308.5" cy="168.5" rx="7.5" ry="7.5" fill="rgb(255, 255, 255)" stroke="rgb(0, 0, 0)" stroke-width="2" transform="rotate(-180,308.5,168.5)" pointer-events="none"/><ellipse cx="368.5" cy="228.5" rx="7.5" ry="7.5" fill="rgb(255, 255, 255)" stroke="rgb(0, 0, 0)" stroke-width="2" transform="rotate(-180,368.5,228.5)" pointer-events="none"/><ellipse cx="248.5" cy="108.5" rx="7.5" ry="7.5" fill="rgb(255, 255, 255)" stroke="rgb(0, 0, 0)" stroke-width="2" transform="rotate(-180,248.5,108.5)" pointer-events="none"/><ellipse cx="208.5" cy="208.5" rx="7.5" ry="7.5" fill="rgb(255, 255, 255)" stroke="rgb(0, 0, 0)" stroke-width="2" transform="rotate(-180,208.5,208.5)" pointer-events="none"/><ellipse cx="168.5" cy="248.5" rx="7.5" ry="7.5" fill="rgb(255, 255, 255)" stroke="rgb(0, 0, 0)" stroke-width="2" transform="rotate(-180,168.5,248.5)" pointer-events="none"/><ellipse cx="188.5" cy="68.5" rx="7.5" ry="7.5" fill="rgb(255, 255, 255)" stroke="rgb(0, 0, 0)" stroke-width="2" transform="rotate(-180,188.5,68.5)" pointer-events="none"/><ellipse cx="228.5" cy="48.5" rx="7.5" ry="7.5" fill="rgb(255, 255, 255)" stroke="rgb(0, 0, 0)" stroke-width="2" transform="rotate(-180,228.5,48.5)" pointer-events="none"/><path d="M 368.5 221 L 387.18 160.27" fill="none" stroke="rgb(0, 0, 0)" stroke-width="2" stroke-miterlimit="10" pointer-events="none"/><path d="M 389.31 166.96 L 387.84 158.14 L 381.67 164.61" fill="none" stroke="rgb(0, 0, 0)" stroke-width="2" stroke-miterlimit="10" pointer-events="none"/><path d="M 213.8 203.2 L 246.85 120.16" fill="none" stroke="rgb(0, 0, 0)" stroke-width="2" stroke-miterlimit="10" pointer-events="none"/><path d="M 248.43 126.99 L 247.67 118.08 L 241 124.03" fill="none" stroke="rgb(0, 0, 0)" stroke-width="2" stroke-miterlimit="10" pointer-events="none"/><path d="M 216 208.5 L 256.91 190.32" fill="none" stroke="rgb(0, 0, 0)" stroke-width="2" stroke-miterlimit="10" pointer-events="none"/><path d="M 253.27 196.31 L 258.96 189.41 L 250.02 189" fill="none" stroke="rgb(0, 0, 0)" stroke-width="2" stroke-miterlimit="10" pointer-events="none"/><path d="M 176 248.5 L 356.55 228.98" fill="none" stroke="rgb(0, 0, 0)" stroke-width="2" stroke-miterlimit="10" pointer-events="none"/><path d="M 351.25 233.58 L 358.78 228.74 L 350.39 225.62" fill="none" stroke="rgb(0, 0, 0)" stroke-width="2" stroke-miterlimit="10" pointer-events="none"/><path d="M 168.5 241 L 187.96 80.44" fill="none" stroke="rgb(0, 0, 0)" stroke-width="2" stroke-miterlimit="10" pointer-events="none"/><path d="M 191.24 86.64 L 188.23 78.22 L 183.3 85.68" fill="none" stroke="rgb(0, 0, 0)" stroke-width="2" stroke-miterlimit="10" pointer-events="none"/><path d="M 173.8 243.2 L 200.03 216.97" fill="none" stroke="rgb(0, 0, 0)" stroke-width="2" stroke-miterlimit="10" pointer-events="none"/><path d="M 198.79 223.87 L 201.62 215.38 L 193.13 218.21" fill="none" stroke="rgb(0, 0, 0)" stroke-width="2" stroke-miterlimit="10" pointer-events="none"/><path d="M 253.8 103.2 L 316.63 89.46" fill="none" stroke="rgb(0, 0, 0)" stroke-width="2" stroke-miterlimit="10" pointer-events="none"/><path d="M 311.86 94.59 L 318.82 88.98 L 310.15 86.78" fill="none" stroke="rgb(0, 0, 0)" stroke-width="2" stroke-miterlimit="10" pointer-events="none"/><path d="M 268.5 181 L 281.87 138.07" fill="none" stroke="rgb(0, 0, 0)" stroke-width="2" stroke-miterlimit="10" pointer-events="none"/><path d="M 283.97 144.77 L 282.53 135.94 L 276.33 142.39" fill="none" stroke="rgb(0, 0, 0)" stroke-width="2" stroke-miterlimit="10" pointer-events="none"/><path d="M 193.8 63.2 L 218.94 55.16" fill="none" stroke="rgb(0, 0, 0)" stroke-width="2" stroke-miterlimit="10" pointer-events="none"/><path d="M 214.66 60.73 L 221.07 54.48 L 212.23 53.11" fill="none" stroke="rgb(0, 0, 0)" stroke-width="2" stroke-miterlimit="10" pointer-events="none"/><path d="M 208.5 201 L 227.89 60.43" fill="none" stroke="rgb(0, 0, 0)" stroke-width="2" stroke-miterlimit="10" pointer-events="none"/><path d="M 231.06 66.69 L 228.19 58.22 L 223.14 65.59" fill="none" stroke="rgb(0, 0, 0)" stroke-width="2" stroke-miterlimit="10" pointer-events="none"/><path d="M 293.8 123.2 L 320.03 96.97" fill="none" stroke="rgb(0, 0, 0)" stroke-width="2" stroke-miterlimit="10" pointer-events="none"/><path d="M 318.79 103.87 L 321.62 95.38 L 313.13 98.21" fill="none" stroke="rgb(0, 0, 0)" stroke-width="2" stroke-miterlimit="10" pointer-events="none"/><path d="M 388.5 141 L 407.79 20.42" fill="none" stroke="rgb(0, 0, 0)" stroke-width="2" stroke-miterlimit="10" pointer-events="none"/><path d="M 410.83 26.74 L 408.15 18.21 L 402.93 25.48" fill="none" stroke="rgb(0, 0, 0)" stroke-width="2" stroke-miterlimit="10" pointer-events="none"/><path d="M 356 28.5 L 396.91 10.32" fill="none" stroke="rgb(0, 0, 0)" stroke-width="2" stroke-miterlimit="10" pointer-events="none"/><path d="M 393.27 16.31 L 398.96 9.41 L 390.02 9" fill="none" stroke="rgb(0, 0, 0)" stroke-width="2" stroke-miterlimit="10" pointer-events="none"/><path d="M 328.5 81 L 346.68 40.09" fill="none" stroke="rgb(0, 0, 0)" stroke-width="2" stroke-miterlimit="10" pointer-events="none"/><path d="M 348 46.98 L 347.59 38.04 L 340.69 43.73" fill="none" stroke="rgb(0, 0, 0)" stroke-width="2" stroke-miterlimit="10" pointer-events="none"/><path d="M 236 48.5 L 336.61 29.34" fill="none" stroke="rgb(0, 0, 0)" stroke-width="2" stroke-miterlimit="10" pointer-events="none"/><path d="M 331.69 34.34 L 338.8 28.92 L 330.2 26.49" fill="none" stroke="rgb(0, 0, 0)" stroke-width="2" stroke-miterlimit="10" pointer-events="none"/><path d="M 316 168.5 L 376.73 149.82" fill="none" stroke="rgb(0, 0, 0)" stroke-width="2" stroke-miterlimit="10" pointer-events="none"/><path d="M 372.39 155.33 L 378.86 149.16 L 370.04 147.69" fill="none" stroke="rgb(0, 0, 0)" stroke-width="2" stroke-miterlimit="10" pointer-events="none"/><path d="M 308.5 161 L 327.18 100.27" fill="none" stroke="rgb(0, 0, 0)" stroke-width="2" stroke-miterlimit="10" pointer-events="none"/><path d="M 329.31 106.96 L 327.84 98.14 L 321.67 104.61" fill="none" stroke="rgb(0, 0, 0)" stroke-width="2" stroke-miterlimit="10" pointer-events="none"/><path d="M 276 188.5 L 299.26 175.93" fill="none" stroke="rgb(0, 0, 0)" stroke-width="2" stroke-miterlimit="10" pointer-events="none"/><path d="M 296.09 182.19 L 301.23 174.87 L 292.29 175.15" fill="none" stroke="rgb(0, 0, 0)" stroke-width="2" stroke-miterlimit="10" pointer-events="none"/><ellipse cx="248.5" cy="348.5" rx="7.5" ry="7.5" fill="rgb(255, 255, 255)" stroke="rgb(0, 0, 0)" stroke-width="2" transform="rotate(-180,248.5,348.5)" pointer-events="none"/><ellipse cx="128.5" cy="468.5" rx="7.5" ry="7.5" fill="rgb(255, 255, 255)" stroke="rgb(0, 0, 0)" stroke-width="2" transform="rotate(-180,128.5,468.5)" pointer-events="none"/><ellipse cx="228.5" cy="488.5" rx="7.5" ry="7.5" fill="rgb(255, 255, 255)" stroke="rgb(0, 0, 0)" stroke-width="2" transform="rotate(-180,228.5,488.5)" pointer-events="none"/><ellipse cx="168.5" cy="428.5" rx="7.5" ry="7.5" fill="rgb(255, 255, 255)" stroke="rgb(0, 0, 0)" stroke-width="2" transform="rotate(-180,168.5,428.5)" pointer-events="none"/><ellipse cx="188.5" cy="368.5" rx="7.5" ry="7.5" fill="rgb(255, 255, 255)" stroke="rgb(0, 0, 0)" stroke-width="2" transform="rotate(-180,188.5,368.5)" pointer-events="none"/><ellipse cx="108.5" cy="528.5" rx="7.5" ry="7.5" fill="rgb(255, 255, 255)" stroke="rgb(0, 0, 0)" stroke-width="2" transform="rotate(-180,108.5,528.5)" pointer-events="none"/><ellipse cx="148.5" cy="508.5" rx="7.5" ry="7.5" fill="rgb(255, 255, 255)" stroke="rgb(0, 0, 0)" stroke-width="2" transform="rotate(-180,148.5,508.5)" pointer-events="none"/><ellipse cx="208.5" cy="568.5" rx="7.5" ry="7.5" fill="rgb(255, 255, 255)" stroke="rgb(0, 0, 0)" stroke-width="2" transform="rotate(-180,208.5,568.5)" pointer-events="none"/><ellipse cx="88.5" cy="448.5" rx="7.5" ry="7.5" fill="rgb(255, 255, 255)" stroke="rgb(0, 0, 0)" stroke-width="2" transform="rotate(-180,88.5,448.5)" pointer-events="none"/><ellipse cx="48.5" cy="548.5" rx="7.5" ry="7.5" fill="rgb(255, 255, 255)" stroke="rgb(0, 0, 0)" stroke-width="2" transform="rotate(-180,48.5,548.5)" pointer-events="none"/><ellipse cx="8.5" cy="588.5" rx="7.5" ry="7.5" fill="rgb(255, 255, 255)" stroke="rgb(0, 0, 0)" stroke-width="2" transform="rotate(-180,8.5,588.5)" pointer-events="none"/><ellipse cx="28.5" cy="408.5" rx="7.5" ry="7.5" fill="rgb(255, 255, 255)" stroke="rgb(0, 0, 0)" stroke-width="2" transform="rotate(-180,28.5,408.5)" pointer-events="none"/><ellipse cx="68.5" cy="388.5" rx="7.5" ry="7.5" fill="rgb(255, 255, 255)" stroke="rgb(0, 0, 0)" stroke-width="2" transform="rotate(-180,68.5,388.5)" pointer-events="none"/><path d="M 208.5 561 L 227.18 500.27" fill="none" stroke="rgb(0, 0, 0)" stroke-width="2" stroke-miterlimit="10" pointer-events="none"/><path d="M 229.31 506.96 L 227.84 498.14 L 221.67 504.61" fill="none" stroke="rgb(0, 0, 0)" stroke-width="2" stroke-miterlimit="10" pointer-events="none"/><path d="M 53.8 543.2 L 86.85 460.16" fill="none" stroke="rgb(0, 0, 0)" stroke-width="2" stroke-miterlimit="10" pointer-events="none"/><path d="M 88.43 466.99 L 87.67 458.08 L 81 464.03" fill="none" stroke="rgb(0, 0, 0)" stroke-width="2" stroke-miterlimit="10" pointer-events="none"/><path d="M 56 548.5 L 96.91 530.32" fill="none" stroke="rgb(0, 0, 0)" stroke-width="2" stroke-miterlimit="10" pointer-events="none"/><path d="M 93.27 536.31 L 98.96 529.41 L 90.02 529" fill="none" stroke="rgb(0, 0, 0)" stroke-width="2" stroke-miterlimit="10" pointer-events="none"/><path d="M 16 588.5 L 196.55 568.98" fill="none" stroke="rgb(0, 0, 0)" stroke-width="2" stroke-miterlimit="10" pointer-events="none"/><path d="M 191.25 573.58 L 198.78 568.74 L 190.39 565.62" fill="none" stroke="rgb(0, 0, 0)" stroke-width="2" stroke-miterlimit="10" pointer-events="none"/><path d="M 8.5 581 L 27.96 420.44" fill="none" stroke="rgb(0, 0, 0)" stroke-width="2" stroke-miterlimit="10" pointer-events="none"/><path d="M 31.24 426.64 L 28.23 418.22 L 23.3 425.68" fill="none" stroke="rgb(0, 0, 0)" stroke-width="2" stroke-miterlimit="10" pointer-events="none"/><path d="M 13.8 583.2 L 40.03 556.97" fill="none" stroke="rgb(0, 0, 0)" stroke-width="2" stroke-miterlimit="10" pointer-events="none"/><path d="M 38.79 563.87 L 41.62 555.38 L 33.13 558.21" fill="none" stroke="rgb(0, 0, 0)" stroke-width="2" stroke-miterlimit="10" pointer-events="none"/><path d="M 108.5 521 L 121.87 478.07" fill="none" stroke="rgb(0, 0, 0)" stroke-width="2" stroke-miterlimit="10" pointer-events="none"/><path d="M 123.97 484.77 L 122.53 475.94 L 116.33 482.39" fill="none" stroke="rgb(0, 0, 0)" stroke-width="2" stroke-miterlimit="10" pointer-events="none"/><path d="M 48.5 541 L 67.89 400.43" fill="none" stroke="rgb(0, 0, 0)" stroke-width="2" stroke-miterlimit="10" pointer-events="none"/><path d="M 71.06 406.69 L 68.19 398.22 L 63.14 405.59" fill="none" stroke="rgb(0, 0, 0)" stroke-width="2" stroke-miterlimit="10" pointer-events="none"/><path d="M 228.5 481 L 247.79 360.42" fill="none" stroke="rgb(0, 0, 0)" stroke-width="2" stroke-miterlimit="10" pointer-events="none"/><path d="M 250.83 366.74 L 248.15 358.21 L 242.93 365.48" fill="none" stroke="rgb(0, 0, 0)" stroke-width="2" stroke-miterlimit="10" pointer-events="none"/><path d="M 168.5 421 L 186.68 380.09" fill="none" stroke="rgb(0, 0, 0)" stroke-width="2" stroke-miterlimit="10" pointer-events="none"/><path d="M 188 386.98 L 187.59 378.04 L 180.69 383.73" fill="none" stroke="rgb(0, 0, 0)" stroke-width="2" stroke-miterlimit="10" pointer-events="none"/><path d="M 148.5 501 L 167.18 440.27" fill="none" stroke="rgb(0, 0, 0)" stroke-width="2" stroke-miterlimit="10" pointer-events="none"/><path d="M 169.31 446.96 L 167.84 438.14 L 161.67 444.61" fill="none" stroke="rgb(0, 0, 0)" stroke-width="2" stroke-miterlimit="10" pointer-events="none"/><path d="M 116 528.5 L 139.26 515.93" fill="none" stroke="rgb(0, 0, 0)" stroke-width="2" stroke-miterlimit="10" pointer-events="none"/><path d="M 136.09 522.19 L 141.23 514.87 L 132.29 515.15" fill="none" stroke="rgb(0, 0, 0)" stroke-width="2" stroke-miterlimit="10" pointer-events="none"/><ellipse cx="448.5" cy="468.5" rx="7.5" ry="7.5" fill="rgb(255, 255, 255)" stroke="rgb(0, 0, 0)" stroke-width="2" transform="rotate(-180,448.5,468.5)" pointer-events="none"/><ellipse cx="548.5" cy="488.5" rx="7.5" ry="7.5" fill="rgb(255, 255, 255)" stroke="rgb(0, 0, 0)" stroke-width="2" transform="rotate(-180,548.5,488.5)" pointer-events="none"/><ellipse cx="488.5" cy="428.5" rx="7.5" ry="7.5" fill="rgb(255, 255, 255)" stroke="rgb(0, 0, 0)" stroke-width="2" transform="rotate(-180,488.5,428.5)" pointer-events="none"/><ellipse cx="428.5" cy="528.5" rx="7.5" ry="7.5" fill="rgb(255, 255, 255)" stroke="rgb(0, 0, 0)" stroke-width="2" transform="rotate(-180,428.5,528.5)" pointer-events="none"/><ellipse cx="468.5" cy="508.5" rx="7.5" ry="7.5" fill="rgb(255, 255, 255)" stroke="rgb(0, 0, 0)" stroke-width="2" transform="rotate(-180,468.5,508.5)" pointer-events="none"/><ellipse cx="528.5" cy="568.5" rx="7.5" ry="7.5" fill="rgb(255, 255, 255)" stroke="rgb(0, 0, 0)" stroke-width="2" transform="rotate(-180,528.5,568.5)" pointer-events="none"/><ellipse cx="408.5" cy="448.5" rx="7.5" ry="7.5" fill="rgb(255, 255, 255)" stroke="rgb(0, 0, 0)" stroke-width="2" transform="rotate(-180,408.5,448.5)" pointer-events="none"/><ellipse cx="368.5" cy="548.5" rx="7.5" ry="7.5" fill="rgb(255, 255, 255)" stroke="rgb(0, 0, 0)" stroke-width="2" transform="rotate(-180,368.5,548.5)" pointer-events="none"/><ellipse cx="328.5" cy="588.5" rx="7.5" ry="7.5" fill="rgb(255, 255, 255)" stroke="rgb(0, 0, 0)" stroke-width="2" transform="rotate(-180,328.5,588.5)" pointer-events="none"/><ellipse cx="348.5" cy="408.5" rx="7.5" ry="7.5" fill="rgb(255, 255, 255)" stroke="rgb(0, 0, 0)" stroke-width="2" transform="rotate(-180,348.5,408.5)" pointer-events="none"/><ellipse cx="388.5" cy="388.5" rx="7.5" ry="7.5" fill="rgb(255, 255, 255)" stroke="rgb(0, 0, 0)" stroke-width="2" transform="rotate(-180,388.5,388.5)" pointer-events="none"/><path d="M 373.8 543.2 L 406.85 460.16" fill="none" stroke="rgb(0, 0, 0)" stroke-width="2" stroke-miterlimit="10" pointer-events="none"/><path d="M 408.43 466.99 L 407.67 458.08 L 401 464.03" fill="none" stroke="rgb(0, 0, 0)" stroke-width="2" stroke-miterlimit="10" pointer-events="none"/><path d="M 376 548.5 L 416.91 530.32" fill="none" stroke="rgb(0, 0, 0)" stroke-width="2" stroke-miterlimit="10" pointer-events="none"/><path d="M 413.27 536.31 L 418.96 529.41 L 410.02 529" fill="none" stroke="rgb(0, 0, 0)" stroke-width="2" stroke-miterlimit="10" pointer-events="none"/><path d="M 336 588.5 L 516.55 568.98" fill="none" stroke="rgb(0, 0, 0)" stroke-width="2" stroke-miterlimit="10" pointer-events="none"/><path d="M 511.25 573.58 L 518.78 568.74 L 510.39 565.62" fill="none" stroke="rgb(0, 0, 0)" stroke-width="2" stroke-miterlimit="10" pointer-events="none"/><path d="M 328.5 581 L 347.96 420.44" fill="none" stroke="rgb(0, 0, 0)" stroke-width="2" stroke-miterlimit="10" pointer-events="none"/><path d="M 351.24 426.64 L 348.23 418.22 L 343.3 425.68" fill="none" stroke="rgb(0, 0, 0)" stroke-width="2" stroke-miterlimit="10" pointer-events="none"/><path d="M 333.8 583.2 L 360.03 556.97" fill="none" stroke="rgb(0, 0, 0)" stroke-width="2" stroke-miterlimit="10" pointer-events="none"/><path d="M 358.79 563.87 L 361.62 555.38 L 353.13 558.21" fill="none" stroke="rgb(0, 0, 0)" stroke-width="2" stroke-miterlimit="10" pointer-events="none"/><path d="M 413.8 443.2 L 476.63 429.46" fill="none" stroke="rgb(0, 0, 0)" stroke-width="2" stroke-miterlimit="10" pointer-events="none"/><path d="M 471.86 434.59 L 478.82 428.98 L 470.15 426.78" fill="none" stroke="rgb(0, 0, 0)" stroke-width="2" stroke-miterlimit="10" pointer-events="none"/><path d="M 428.5 521 L 441.87 478.07" fill="none" stroke="rgb(0, 0, 0)" stroke-width="2" stroke-miterlimit="10" pointer-events="none"/><path d="M 443.97 484.77 L 442.53 475.94 L 436.33 482.39" fill="none" stroke="rgb(0, 0, 0)" stroke-width="2" stroke-miterlimit="10" pointer-events="none"/><path d="M 353.8 403.2 L 378.94 395.16" fill="none" stroke="rgb(0, 0, 0)" stroke-width="2" stroke-miterlimit="10" pointer-events="none"/><path d="M 374.66 400.73 L 381.07 394.48 L 372.23 393.11" fill="none" stroke="rgb(0, 0, 0)" stroke-width="2" stroke-miterlimit="10" pointer-events="none"/><path d="M 396 388.5 L 496.61 369.34" fill="none" stroke="rgb(0, 0, 0)" stroke-width="2" stroke-miterlimit="10" pointer-events="none"/><path d="M 491.69 374.34 L 498.8 368.92 L 490.2 366.49" fill="none" stroke="rgb(0, 0, 0)" stroke-width="2" stroke-miterlimit="10" pointer-events="none"/><path d="M 476 508.5 L 536.73 489.82" fill="none" stroke="rgb(0, 0, 0)" stroke-width="2" stroke-miterlimit="10" pointer-events="none"/><path d="M 532.39 495.33 L 538.86 489.16 L 530.04 487.69" fill="none" stroke="rgb(0, 0, 0)" stroke-width="2" stroke-miterlimit="10" pointer-events="none"/><path d="M 436 528.5 L 459.26 515.93" fill="none" stroke="rgb(0, 0, 0)" stroke-width="2" stroke-miterlimit="10" pointer-events="none"/><path d="M 456.09 522.19 L 461.23 514.87 L 452.29 515.15" fill="none" stroke="rgb(0, 0, 0)" stroke-width="2" stroke-miterlimit="10" pointer-events="none"/><ellipse cx="568.5" cy="348.5" rx="7.5" ry="7.5" fill="rgb(255, 255, 255)" stroke="rgb(0, 0, 0)" stroke-width="2" transform="rotate(-180,568.5,348.5)" pointer-events="none"/><ellipse cx="508.5" cy="368.5" rx="7.5" ry="7.5" fill="rgb(255, 255, 255)" stroke="rgb(0, 0, 0)" stroke-width="2" transform="rotate(-180,508.5,368.5)" pointer-events="none"/><path d="M 516 368.5 L 556.91 350.32" fill="none" stroke="rgb(0, 0, 0)" stroke-width="2" stroke-miterlimit="10" pointer-events="none"/><path d="M 553.27 356.31 L 558.96 349.41 L 550.02 349" fill="none" stroke="rgb(0, 0, 0)" stroke-width="2" stroke-miterlimit="10" pointer-events="none"/></g></svg>