<?xml version="1.0" encoding="UTF-8"?>
<!DOCTYPE svg PUBLIC "-//W3C//DTD SVG 1.1//EN" "http://www.w3.org/Graphics/SVG/1.1/DTD/svg11.dtd">
<svg xmlns="http://www.w3.org/2000/svg" xmlns:xlink="http://www.w3.org/1999/xlink" version="1.1" width="662px" height="342px" viewBox="-0.5 -0.5 662 342" style="background-color: rgb(255, 255, 255);"><defs/><g><path d="M 18.07 183.93 L 82.08 102.39" fill="none" stroke="rgb(0, 0, 0)" stroke-width="2" stroke-miterlimit="10" pointer-events="stroke"/><path d="M 80.77 113.78 L 83.46 100.63 L 71.33 106.37" fill="none" stroke="rgb(0, 0, 0)" stroke-width="2" stroke-miterlimit="10" pointer-events="all"/><path d="M 21 191 L 76.53 191" fill="none" stroke="rgb(0, 0, 0)" stroke-width="2" stroke-miterlimit="10" pointer-events="stroke"/><path d="M 66.76 197 L 78.76 191 L 66.76 185" fill="none" stroke="rgb(0, 0, 0)" stroke-width="2" stroke-miterlimit="10" pointer-events="all"/><ellipse cx="11" cy="191" rx="10" ry="10" fill="rgb(255, 255, 255)" stroke="rgb(0, 0, 0)" stroke-width="2" pointer-events="all"/><path d="M 101 191 L 157.03 188.93" fill="none" stroke="rgb(0, 0, 0)" stroke-width="2" stroke-miterlimit="10" pointer-events="stroke"/><path d="M 147.5 195.28 L 159.27 188.84 L 147.05 183.29" fill="none" stroke="rgb(0, 0, 0)" stroke-width="2" stroke-miterlimit="10" pointer-events="all"/><path d="M 98.07 183.93 L 160.52 130.96" fill="none" stroke="rgb(0, 0, 0)" stroke-width="2" stroke-miterlimit="10" pointer-events="stroke"/><path d="M 156.95 141.86 L 162.22 129.52 L 149.19 132.7" fill="none" stroke="rgb(0, 0, 0)" stroke-width="2" stroke-miterlimit="10" pointer-events="all"/><ellipse cx="91" cy="191" rx="10" ry="10" fill="rgb(255, 255, 255)" stroke="rgb(0, 0, 0)" stroke-width="2" pointer-events="all"/><path d="M 178.07 183.93 L 236.62 171.9" fill="none" stroke="rgb(0, 0, 0)" stroke-width="2" stroke-miterlimit="10" pointer-events="stroke"/><path d="M 228.26 179.74 L 238.81 171.45 L 225.85 167.99" fill="none" stroke="rgb(0, 0, 0)" stroke-width="2" stroke-miterlimit="10" pointer-events="all"/><ellipse cx="171" cy="191" rx="10" ry="10" fill="rgb(255, 255, 255)" stroke="rgb(0, 0, 0)" stroke-width="2" pointer-events="all"/><ellipse cx="171" cy="71" rx="10" ry="10" fill="rgb(255, 255, 255)" stroke="rgb(0, 0, 0)" stroke-width="2" pointer-events="all"/><ellipse cx="91" cy="91" rx="10" ry="10" fill="rgb(255, 255, 255)" stroke="rgb(0, 0, 0)" stroke-width="2" pointer-events="all"/><ellipse cx="171" cy="121" rx="10" ry="10" fill="rgb(255, 255, 255)" stroke="rgb(0, 0, 0)" stroke-width="2" pointer-events="all"/><ellipse cx="91" cy="331" rx="10" ry="10" fill="rgb(255, 255, 255)" stroke="rgb(0, 0, 0)" stroke-width="2" pointer-events="all"/><path d="M 18.07 198.07 L 81.86 319.97" fill="none" stroke="rgb(0, 0, 0)" stroke-width="2" stroke-miterlimit="10" pointer-events="stroke"/><path d="M 72.01 314.1 L 82.89 321.95 L 82.64 308.53" fill="none" stroke="rgb(0, 0, 0)" stroke-width="2" stroke-miterlimit="10" pointer-events="all"/><ellipse cx="251" cy="216" rx="10" ry="10" fill="rgb(255, 255, 255)" stroke="rgb(0, 0, 0)" stroke-width="2" pointer-events="all"/><ellipse cx="251" cy="171" rx="10" ry="10" fill="rgb(255, 255, 255)" stroke="rgb(0, 0, 0)" stroke-width="2" transform="rotate(90,251,171)" pointer-events="all"/><ellipse cx="171" cy="11" rx="10" ry="10" fill="rgb(255, 255, 255)" stroke="rgb(0, 0, 0)" stroke-width="2" pointer-events="all"/><path d="M 178.07 198.07 L 236.7 214.77" fill="none" stroke="rgb(0, 0, 0)" stroke-width="2" stroke-miterlimit="10" pointer-events="stroke"/><path d="M 225.66 217.87 L 238.85 215.39 L 228.95 206.33" fill="none" stroke="rgb(0, 0, 0)" stroke-width="2" stroke-miterlimit="10" pointer-events="all"/><ellipse cx="171" cy="261" rx="10" ry="10" fill="rgb(255, 255, 255)" stroke="rgb(0, 0, 0)" stroke-width="2" pointer-events="all"/><path d="M 98.07 198.07 L 160.52 251.04" fill="none" stroke="rgb(0, 0, 0)" stroke-width="2" stroke-miterlimit="10" pointer-events="stroke"/><path d="M 149.19 249.3 L 162.22 252.48 L 156.95 240.14" fill="none" stroke="rgb(0, 0, 0)" stroke-width="2" stroke-miterlimit="10" pointer-events="all"/><path d="M 101 91 L 156.76 72.41" fill="none" stroke="rgb(0, 0, 0)" stroke-width="2" stroke-miterlimit="10" pointer-events="stroke"/><path d="M 149.39 81.19 L 158.88 71.71 L 145.6 69.81" fill="none" stroke="rgb(0, 0, 0)" stroke-width="2" stroke-miterlimit="10" pointer-events="all"/><path d="M 98.07 83.93 L 160.77 21.23" fill="none" stroke="rgb(0, 0, 0)" stroke-width="2" stroke-miterlimit="10" pointer-events="stroke"/><path d="M 158.11 32.38 L 162.35 19.65 L 149.62 23.89" fill="none" stroke="rgb(0, 0, 0)" stroke-width="2" stroke-miterlimit="10" pointer-events="all"/><ellipse cx="331" cy="71" rx="10" ry="10" fill="rgb(255, 255, 255)" stroke="rgb(0, 0, 0)" stroke-width="2" pointer-events="all"/><ellipse cx="411" cy="71" rx="10" ry="10" fill="rgb(255, 255, 255)" stroke="rgb(0, 0, 0)" stroke-width="2" pointer-events="all"/><path d="M 341 71 L 396.53 71" fill="none" stroke="rgb(0, 0, 0)" stroke-width="2" stroke-miterlimit="10" pointer-events="stroke"/><path d="M 386.76 77 L 398.76 71 L 386.76 65" fill="none" stroke="rgb(0, 0, 0)" stroke-width="2" stroke-miterlimit="10" pointer-events="all"/><ellipse cx="491" cy="71" rx="10" ry="10" fill="rgb(255, 255, 255)" stroke="rgb(0, 0, 0)" stroke-width="2" pointer-events="all"/><path d="M 421 71 L 477.03 68.93" fill="none" stroke="rgb(0, 0, 0)" stroke-width="2" stroke-miterlimit="10" pointer-events="stroke"/><path d="M 467.5 75.28 L 479.27 68.84 L 467.05 63.29" fill="none" stroke="rgb(0, 0, 0)" stroke-width="2" stroke-miterlimit="10" pointer-events="all"/><ellipse cx="651" cy="31" rx="10" ry="10" fill="rgb(255, 255, 255)" stroke="rgb(0, 0, 0)" stroke-width="2" pointer-events="all"/><path d="M 581 51 L 636.76 32.41" fill="none" stroke="rgb(0, 0, 0)" stroke-width="2" stroke-miterlimit="10" pointer-events="stroke"/><path d="M 629.39 41.19 L 638.88 31.71 L 625.6 29.81" fill="none" stroke="rgb(0, 0, 0)" stroke-width="2" stroke-miterlimit="10" pointer-events="all"/><ellipse cx="571" cy="101" rx="10" ry="10" fill="rgb(255, 255, 255)" stroke="rgb(0, 0, 0)" stroke-width="2" pointer-events="all"/><ellipse cx="571" cy="51" rx="10" ry="10" fill="rgb(255, 255, 255)" stroke="rgb(0, 0, 0)" stroke-width="2" transform="rotate(90,571,51)" pointer-events="all"/><path d="M 498.07 63.93 L 556.62 51.9" fill="none" stroke="rgb(0, 0, 0)" stroke-width="2" stroke-miterlimit="10" pointer-events="stroke"/><path d="M 548.26 59.74 L 558.81 51.45 L 545.85 47.99" fill="none" stroke="rgb(0, 0, 0)" stroke-width="2" stroke-miterlimit="10" pointer-events="all"/><path d="M 501 71 L 557 99" fill="none" stroke="rgb(0, 0, 0)" stroke-width="2" stroke-miterlimit="10" pointer-events="stroke"/><path d="M 545.58 100 L 559 100 L 550.95 89.27" fill="none" stroke="rgb(0, 0, 0)" stroke-width="2" stroke-miterlimit="10" pointer-events="all"/><ellipse cx="491" cy="191" rx="10" ry="10" fill="rgb(255, 255, 255)" stroke="rgb(0, 0, 0)" stroke-width="2" pointer-events="all"/><path d="M 418.07 78.07 L 481.57 180.13" fill="none" stroke="rgb(0, 0, 0)" stroke-width="2" stroke-miterlimit="10" pointer-events="stroke"/><path d="M 471.31 175.01 L 482.75 182.03 L 481.5 168.67" fill="none" stroke="rgb(0, 0, 0)" stroke-width="2" stroke-miterlimit="10" pointer-events="all"/><ellipse cx="571" cy="151" rx="10" ry="10" fill="rgb(255, 255, 255)" stroke="rgb(0, 0, 0)" stroke-width="2" pointer-events="all"/><path d="M 498.07 78.07 L 558.08 147.61" fill="none" stroke="rgb(0, 0, 0)" stroke-width="2" stroke-miterlimit="10" pointer-events="stroke"/><path d="M 547.16 144.14 L 559.54 149.31 L 556.24 136.3" fill="none" stroke="rgb(0, 0, 0)" stroke-width="2" stroke-miterlimit="10" pointer-events="all"/><ellipse cx="651" cy="111" rx="10" ry="10" fill="rgb(255, 255, 255)" stroke="rgb(0, 0, 0)" stroke-width="2" pointer-events="all"/><path d="M 581 101 L 636.59 110.26" fill="none" stroke="rgb(0, 0, 0)" stroke-width="2" stroke-miterlimit="10" pointer-events="stroke"/><path d="M 625.97 114.58 L 638.79 110.63 L 627.94 102.74" fill="none" stroke="rgb(0, 0, 0)" stroke-width="2" stroke-miterlimit="10" pointer-events="all"/></g></svg>
