<?xml version="1.0" encoding="UTF-8"?>
<svg xmlns="http://www.w3.org/2000/svg" xmlns:xlink="http://www.w3.org/1999/xlink" width="350pt" height="350pt" viewBox="0 0 350 350">
<path fill-rule="nonzero" fill="rgb(100%, 98.039216%, 90.980392%)" fill-opacity="1" stroke-width="1" stroke-linecap="butt" stroke-linejoin="miter" stroke="rgb(0%, 0%, 0%)" stroke-opacity="1" stroke-miterlimit="10" d="M 1 349 L 1 1 L 349 1 L 349 349 Z M 1 349 "/>
<path fill="none" stroke-width="1" stroke-linecap="butt" stroke-linejoin="miter" stroke="rgb(45%, 18%, 0%)" stroke-opacity="1" stroke-miterlimit="10" d="M 88.3125 294.316406 C 88.3125 298.050781 82.710938 298.050781 82.710938 294.316406 C 82.710938 290.585938 88.3125 290.585938 88.3125 294.316406 Z M 267.289062 294.316406 C 267.289062 298.050781 261.6875 298.050781 261.6875 294.316406 C 261.6875 290.585938 267.289062 290.585938 267.289062 294.316406 Z M 267.289062 294.316406 "/>
<path fill="none" stroke-width="1" stroke-linecap="butt" stroke-linejoin="miter" stroke="rgb(45%, 18%, 0%)" stroke-opacity="1" stroke-miterlimit="10" d="M 109.425781 246.644531 L 115.289062 252.503906 M 115.289062 246.644531 L 109.425781 252.503906 Z M 261.558594 201.898438 L 267.417969 207.761719 M 267.417969 201.898438 L 261.558594 207.761719 Z M 267.417969 201.898438 "/>
<path fill="none" stroke-width="0.45" stroke-linecap="butt" stroke-linejoin="miter" stroke="rgb(45%, 18%, 0%)" stroke-opacity="1" stroke-dasharray="4.5 3.15" stroke-miterlimit="10" d="M 85.511719 294.316406 L 112.359375 249.574219 M 264.488281 294.316406 L 264.488281 204.828125 "/>
<path fill="none" stroke-width="1" stroke-linecap="butt" stroke-linejoin="miter" stroke="rgb(45%, 18%, 0%)" stroke-opacity="1" stroke-miterlimit="10" d="M 303.085938 294.316406 C 303.085938 298.050781 297.484375 298.050781 297.484375 294.316406 C 297.484375 290.585938 303.085938 290.585938 303.085938 294.316406 Z M 303.085938 25.851562 C 303.085938 29.585938 297.484375 29.585938 297.484375 25.851562 C 297.484375 22.117188 303.085938 22.117188 303.085938 25.851562 Z M 303.085938 25.851562 "/>
<path fill="none" stroke-width="1" stroke-linecap="butt" stroke-linejoin="miter" stroke="rgb(45%, 18%, 0%)" stroke-opacity="1" stroke-miterlimit="10" d="M 297.355469 201.898438 L 303.214844 207.761719 M 303.214844 201.898438 L 297.355469 207.761719 Z M 297.355469 112.410156 L 303.214844 118.269531 M 303.214844 112.410156 L 297.355469 118.269531 Z M 303.214844 112.410156 "/>
<path fill="none" stroke-width="0.45" stroke-linecap="butt" stroke-linejoin="miter" stroke="rgb(45%, 18%, 0%)" stroke-opacity="1" stroke-dasharray="4.5 3.15" stroke-miterlimit="10" d="M 300.285156 294.316406 L 300.285156 204.828125 M 300.285156 25.851562 L 300.285156 115.339844 "/>
<path fill="none" stroke-width="1" stroke-linecap="butt" stroke-linejoin="miter" stroke="rgb(45%, 18%, 0%)" stroke-opacity="1" stroke-miterlimit="10" d="M 57.617188 275.902344 C 57.617188 279.636719 52.015625 279.636719 52.015625 275.902344 C 52.015625 272.167969 57.617188 272.167969 57.617188 275.902344 Z M 138.15625 141.667969 C 138.15625 145.402344 132.558594 145.402344 132.558594 141.667969 C 132.558594 137.933594 138.15625 137.933594 138.15625 141.667969 Z M 138.15625 141.667969 "/>
<path fill="none" stroke-width="1" stroke-linecap="butt" stroke-linejoin="miter" stroke="rgb(45%, 18%, 0%)" stroke-opacity="1" stroke-miterlimit="10" d="M 78.734375 228.226562 L 84.59375 234.085938 M 84.59375 228.226562 L 78.734375 234.085938 Z M 105.578125 183.484375 L 111.441406 189.34375 M 111.441406 183.484375 L 105.578125 189.34375 Z M 111.441406 183.484375 "/>
<path fill="none" stroke-width="0.45" stroke-linecap="butt" stroke-linejoin="miter" stroke="rgb(45%, 18%, 0%)" stroke-opacity="1" stroke-dasharray="4.5 3.15" stroke-miterlimit="10" d="M 54.816406 275.902344 L 81.664062 231.15625 M 135.355469 141.667969 L 108.511719 186.414062 "/>
<path fill="none" stroke-width="1" stroke-linecap="butt" stroke-linejoin="miter" stroke="rgb(45%, 18%, 0%)" stroke-opacity="1" stroke-miterlimit="10" d="M 58.375 221.34375 C 58.375 225.078125 52.777344 225.078125 52.777344 221.34375 C 52.777344 217.613281 58.375 217.613281 58.375 221.34375 Z M 306.707031 187.789062 C 306.707031 191.519531 301.105469 191.519531 301.105469 187.789062 C 301.105469 184.054688 306.707031 184.054688 306.707031 187.789062 Z M 306.707031 187.789062 "/>
<path fill="none" stroke-width="1" stroke-linecap="butt" stroke-linejoin="miter" stroke="rgb(45%, 18%, 0%)" stroke-opacity="1" stroke-miterlimit="10" d="M 135.421875 207.230469 L 141.28125 213.089844 M 141.28125 207.230469 L 135.421875 213.089844 Z M 218.199219 196.042969 L 224.058594 201.902344 M 224.058594 196.042969 L 218.199219 201.902344 Z M 224.058594 196.042969 "/>
<path fill="none" stroke-width="0.45" stroke-linecap="butt" stroke-linejoin="miter" stroke="rgb(45%, 18%, 0%)" stroke-opacity="1" stroke-dasharray="4.5 3.15" stroke-miterlimit="10" d="M 55.574219 221.34375 L 138.351562 210.160156 M 303.90625 187.789062 L 221.128906 198.972656 "/>
<path fill-rule="nonzero" fill="rgb(0%, 0%, 65%)" fill-opacity="1" d="M 97.25 283.210938 C 97.25 286.644531 92.097656 286.644531 92.097656 283.210938 C 92.097656 279.773438 97.25 279.773438 97.25 283.210938 "/>
<path fill-rule="nonzero" fill="rgb(0%, 0%, 65%)" fill-opacity="1" d="M 110.667969 272.566406 C 110.667969 276.003906 105.515625 276.003906 105.515625 272.566406 C 105.515625 269.132812 110.667969 269.132812 110.667969 272.566406 "/>
<path fill-rule="nonzero" fill="rgb(0%, 0%, 65%)" fill-opacity="1" d="M 127.378906 262.855469 C 127.378906 266.292969 122.226562 266.292969 122.226562 262.855469 C 122.226562 259.421875 127.378906 259.421875 127.378906 262.855469 "/>
<path fill-rule="nonzero" fill="rgb(0%, 0%, 65%)" fill-opacity="1" d="M 146.421875 254.546875 C 146.421875 257.980469 141.269531 257.980469 141.269531 254.546875 C 141.269531 251.109375 146.421875 251.109375 146.421875 254.546875 "/>
<path fill-rule="nonzero" fill="rgb(0%, 0%, 65%)" fill-opacity="1" d="M 166.832031 248.097656 C 166.832031 251.53125 161.679688 251.53125 161.679688 248.097656 C 161.679688 244.664062 166.832031 244.664062 166.832031 248.097656 "/>
<path fill-rule="nonzero" fill="rgb(0%, 0%, 65%)" fill-opacity="1" d="M 187.644531 243.980469 C 187.644531 247.414062 182.492188 247.414062 182.492188 243.980469 C 182.492188 240.546875 187.644531 240.546875 187.644531 243.980469 "/>
<path fill-rule="nonzero" fill="rgb(0%, 0%, 65%)" fill-opacity="1" d="M 207.898438 242.660156 C 207.898438 246.09375 202.746094 246.09375 202.746094 242.660156 C 202.746094 239.226562 207.898438 239.226562 207.898438 242.660156 "/>
<path fill-rule="nonzero" fill="rgb(0%, 0%, 65%)" fill-opacity="1" d="M 226.628906 244.601562 C 226.628906 248.035156 221.476562 248.035156 221.476562 244.601562 C 221.476562 241.167969 226.628906 241.167969 226.628906 244.601562 "/>
<path fill-rule="nonzero" fill="rgb(0%, 0%, 65%)" fill-opacity="1" d="M 242.875 250.273438 C 242.875 253.707031 237.722656 253.707031 237.722656 250.273438 C 237.722656 246.839844 242.875 246.839844 242.875 250.273438 "/>
<path fill-rule="nonzero" fill="rgb(0%, 0%, 65%)" fill-opacity="1" d="M 255.671875 260.136719 C 255.671875 263.574219 250.519531 263.574219 250.519531 260.136719 C 250.519531 256.703125 255.671875 256.703125 255.671875 260.136719 "/>
<path fill-rule="nonzero" fill="rgb(0%, 0%, 65%)" fill-opacity="1" d="M 264.054688 274.664062 C 264.054688 278.097656 258.902344 278.097656 258.902344 274.664062 C 258.902344 271.230469 264.054688 271.230469 264.054688 274.664062 "/>
<path fill-rule="nonzero" fill="rgb(0%, 0%, 65%)" fill-opacity="1" d="M 302.859375 271.945312 C 302.859375 275.378906 297.707031 275.378906 297.707031 271.945312 C 297.707031 268.511719 302.859375 268.511719 302.859375 271.945312 "/>
<path fill-rule="nonzero" fill="rgb(0%, 0%, 65%)" fill-opacity="1" d="M 302.859375 249.574219 C 302.859375 253.007812 297.707031 253.007812 297.707031 249.574219 C 297.707031 246.140625 302.859375 246.140625 302.859375 249.574219 "/>
<path fill-rule="nonzero" fill="rgb(0%, 0%, 65%)" fill-opacity="1" d="M 302.859375 227.203125 C 302.859375 230.636719 297.707031 230.636719 297.707031 227.203125 C 297.707031 223.765625 302.859375 223.765625 302.859375 227.203125 "/>
<path fill-rule="nonzero" fill="rgb(0%, 0%, 65%)" fill-opacity="1" d="M 302.859375 204.828125 C 302.859375 208.265625 297.707031 208.265625 297.707031 204.828125 C 297.707031 201.394531 302.859375 201.394531 302.859375 204.828125 "/>
<path fill-rule="nonzero" fill="rgb(0%, 0%, 65%)" fill-opacity="1" d="M 302.859375 182.457031 C 302.859375 185.890625 297.707031 185.890625 297.707031 182.457031 C 297.707031 179.023438 302.859375 179.023438 302.859375 182.457031 "/>
<path fill-rule="nonzero" fill="rgb(0%, 0%, 65%)" fill-opacity="1" d="M 302.859375 160.085938 C 302.859375 163.519531 297.707031 163.519531 297.707031 160.085938 C 297.707031 156.652344 302.859375 156.652344 302.859375 160.085938 "/>
<path fill-rule="nonzero" fill="rgb(0%, 0%, 65%)" fill-opacity="1" d="M 302.859375 137.714844 C 302.859375 141.148438 297.707031 141.148438 297.707031 137.714844 C 297.707031 134.277344 302.859375 134.277344 302.859375 137.714844 "/>
<path fill-rule="nonzero" fill="rgb(0%, 0%, 65%)" fill-opacity="1" d="M 302.859375 115.339844 C 302.859375 118.777344 297.707031 118.777344 297.707031 115.339844 C 297.707031 111.90625 302.859375 111.90625 302.859375 115.339844 "/>
<path fill-rule="nonzero" fill="rgb(0%, 0%, 65%)" fill-opacity="1" d="M 302.859375 92.96875 C 302.859375 96.402344 297.707031 96.402344 297.707031 92.96875 C 297.707031 89.535156 302.859375 89.535156 302.859375 92.96875 "/>
<path fill-rule="nonzero" fill="rgb(0%, 0%, 65%)" fill-opacity="1" d="M 302.859375 70.597656 C 302.859375 74.03125 297.707031 74.03125 297.707031 70.597656 C 297.707031 67.160156 302.859375 67.160156 302.859375 70.597656 "/>
<path fill-rule="nonzero" fill="rgb(0%, 0%, 65%)" fill-opacity="1" d="M 302.859375 48.222656 C 302.859375 51.660156 297.707031 51.660156 297.707031 48.222656 C 297.707031 44.789062 302.859375 44.789062 302.859375 48.222656 "/>
<path fill-rule="nonzero" fill="rgb(0%, 0%, 65%)" fill-opacity="1" d="M 64.105469 264.714844 C 64.105469 268.148438 58.953125 268.148438 58.953125 264.714844 C 58.953125 261.28125 64.105469 261.28125 64.105469 264.714844 "/>
<path fill-rule="nonzero" fill="rgb(0%, 0%, 65%)" fill-opacity="1" d="M 70.816406 253.53125 C 70.816406 256.964844 65.664062 256.964844 65.664062 253.53125 C 65.664062 250.09375 70.816406 250.09375 70.816406 253.53125 "/>
<path fill-rule="nonzero" fill="rgb(0%, 0%, 65%)" fill-opacity="1" d="M 77.527344 242.34375 C 77.527344 245.777344 72.375 245.777344 72.375 242.34375 C 72.375 238.910156 77.527344 238.910156 77.527344 242.34375 "/>
<path fill-rule="nonzero" fill="rgb(0%, 0%, 65%)" fill-opacity="1" d="M 84.238281 231.15625 C 84.238281 234.59375 79.085938 234.59375 79.085938 231.15625 C 79.085938 227.722656 84.238281 227.722656 84.238281 231.15625 "/>
<path fill-rule="nonzero" fill="rgb(0%, 0%, 65%)" fill-opacity="1" d="M 90.953125 219.972656 C 90.953125 223.40625 85.800781 223.40625 85.800781 219.972656 C 85.800781 216.535156 90.953125 216.535156 90.953125 219.972656 "/>
<path fill-rule="nonzero" fill="rgb(0%, 0%, 65%)" fill-opacity="1" d="M 97.664062 208.785156 C 97.664062 212.21875 92.511719 212.21875 92.511719 208.785156 C 92.511719 205.351562 97.664062 205.351562 97.664062 208.785156 "/>
<path fill-rule="nonzero" fill="rgb(0%, 0%, 65%)" fill-opacity="1" d="M 104.375 197.597656 C 104.375 201.035156 99.222656 201.035156 99.222656 197.597656 C 99.222656 194.164062 104.375 194.164062 104.375 197.597656 "/>
<path fill-rule="nonzero" fill="rgb(0%, 0%, 65%)" fill-opacity="1" d="M 111.085938 186.414062 C 111.085938 189.847656 105.933594 189.847656 105.933594 186.414062 C 105.933594 182.976562 111.085938 182.976562 111.085938 186.414062 "/>
<path fill-rule="nonzero" fill="rgb(0%, 0%, 65%)" fill-opacity="1" d="M 117.796875 175.226562 C 117.796875 178.660156 112.644531 178.660156 112.644531 175.226562 C 112.644531 171.792969 117.796875 171.792969 117.796875 175.226562 "/>
<path fill-rule="nonzero" fill="rgb(0%, 0%, 65%)" fill-opacity="1" d="M 124.507812 164.039062 C 124.507812 167.476562 119.359375 167.476562 119.359375 164.039062 C 119.359375 160.605469 124.507812 160.605469 124.507812 164.039062 "/>
<path fill-rule="nonzero" fill="rgb(0%, 0%, 65%)" fill-opacity="1" d="M 131.222656 152.855469 C 131.222656 156.289062 126.070312 156.289062 126.070312 152.855469 C 126.070312 149.421875 131.222656 149.421875 131.222656 152.855469 "/>
<path fill-rule="nonzero" fill="rgb(0%, 0%, 65%)" fill-opacity="1" d="M 78.847656 218.550781 C 78.847656 221.984375 73.695312 221.984375 73.695312 218.550781 C 73.695312 215.113281 78.847656 215.113281 78.847656 218.550781 "/>
<path fill-rule="nonzero" fill="rgb(0%, 0%, 65%)" fill-opacity="1" d="M 99.539062 215.753906 C 99.539062 219.1875 94.386719 219.1875 94.386719 215.753906 C 94.386719 212.316406 99.539062 212.316406 99.539062 215.753906 "/>
<path fill-rule="nonzero" fill="rgb(0%, 0%, 65%)" fill-opacity="1" d="M 120.234375 212.957031 C 120.234375 216.390625 115.082031 216.390625 115.082031 212.957031 C 115.082031 209.519531 120.234375 209.519531 120.234375 212.957031 "/>
<path fill-rule="nonzero" fill="rgb(0%, 0%, 65%)" fill-opacity="1" d="M 140.929688 210.160156 C 140.929688 213.59375 135.777344 213.59375 135.777344 210.160156 C 135.777344 206.726562 140.929688 206.726562 140.929688 210.160156 "/>
<path fill-rule="nonzero" fill="rgb(0%, 0%, 65%)" fill-opacity="1" d="M 161.621094 207.363281 C 161.621094 210.796875 156.472656 210.796875 156.472656 207.363281 C 156.472656 203.929688 161.621094 203.929688 161.621094 207.363281 "/>
<path fill-rule="nonzero" fill="rgb(0%, 0%, 65%)" fill-opacity="1" d="M 182.316406 204.566406 C 182.316406 208 177.164062 208 177.164062 204.566406 C 177.164062 201.132812 182.316406 201.132812 182.316406 204.566406 "/>
<path fill-rule="nonzero" fill="rgb(0%, 0%, 65%)" fill-opacity="1" d="M 203.011719 201.769531 C 203.011719 205.203125 197.859375 205.203125 197.859375 201.769531 C 197.859375 198.335938 203.011719 198.335938 203.011719 201.769531 "/>
<path fill-rule="nonzero" fill="rgb(0%, 0%, 65%)" fill-opacity="1" d="M 223.707031 198.972656 C 223.707031 202.40625 218.554688 202.40625 218.554688 198.972656 C 218.554688 195.539062 223.707031 195.539062 223.707031 198.972656 "/>
<path fill-rule="nonzero" fill="rgb(0%, 0%, 65%)" fill-opacity="1" d="M 244.398438 196.175781 C 244.398438 199.613281 239.246094 199.613281 239.246094 196.175781 C 239.246094 192.742188 244.398438 192.742188 244.398438 196.175781 "/>
<path fill-rule="nonzero" fill="rgb(0%, 0%, 65%)" fill-opacity="1" d="M 265.09375 193.378906 C 265.09375 196.816406 259.941406 196.816406 259.941406 193.378906 C 259.941406 189.945312 265.09375 189.945312 265.09375 193.378906 "/>
<path fill-rule="nonzero" fill="rgb(0%, 0%, 65%)" fill-opacity="1" d="M 285.789062 190.582031 C 285.789062 194.019531 280.636719 194.019531 280.636719 190.582031 C 280.636719 187.148438 285.789062 187.148438 285.789062 190.582031 "/>
<path fill="none" stroke-width="1" stroke-linecap="butt" stroke-linejoin="miter" stroke="rgb(0%, 40%, 0%)" stroke-opacity="1" stroke-miterlimit="10" d="M 85.511719 294.316406 C 112.359375 249.574219 264.488281 204.828125 264.488281 294.316406 "/>
<path fill="none" stroke-width="1" stroke-linecap="butt" stroke-linejoin="miter" stroke="rgb(0%, 40%, 0%)" stroke-opacity="1" stroke-miterlimit="10" d="M 300.285156 294.316406 C 300.285156 204.828125 300.285156 115.339844 300.285156 25.851562 "/>
<path fill="none" stroke-width="1" stroke-linecap="butt" stroke-linejoin="miter" stroke="rgb(0%, 40%, 0%)" stroke-opacity="1" stroke-miterlimit="10" d="M 54.816406 275.902344 C 81.664062 231.15625 108.511719 186.414062 135.355469 141.667969 "/>
<path fill="none" stroke-width="1" stroke-linecap="butt" stroke-linejoin="miter" stroke="rgb(0%, 40%, 0%)" stroke-opacity="1" stroke-miterlimit="10" d="M 55.574219 221.34375 C 138.351562 210.160156 221.128906 198.972656 303.90625 187.789062 "/>
</svg>
