<?xml version="1.0" encoding="UTF-8"?>
<!DOCTYPE svg PUBLIC "-//W3C//DTD SVG 1.1//EN" "http://www.w3.org/Graphics/SVG/1.1/DTD/svg11.dtd">
<svg xmlns="http://www.w3.org/2000/svg" xmlns:xlink="http://www.w3.org/1999/xlink" version="1.1" width="1132px" height="592px" viewBox="-0.5 -0.5 1132 592" style="background-color: rgb(255, 255, 255);"><defs/><g><path d="M 971 256 L 1066.85 294.34" fill="none" stroke="rgb(0, 0, 0)" stroke-width="2" stroke-miterlimit="10" pointer-events="stroke"/><path d="M 1055.55 296.28 L 1068.92 295.17 L 1060.01 285.14" fill="none" stroke="rgb(0, 0, 0)" stroke-width="2" stroke-miterlimit="10" pointer-events="all"/><ellipse cx="761" cy="296" rx="10" ry="10" fill="rgb(255, 255, 255)" stroke="rgb(0, 0, 0)" stroke-width="2" pointer-events="all"/><path d="M 768.07 303.07 L 950.77 485.77" fill="none" stroke="rgb(0, 0, 0)" stroke-width="2" stroke-miterlimit="10" pointer-events="stroke"/><path d="M 939.62 483.11 L 952.35 487.35 L 948.11 474.62" fill="none" stroke="rgb(0, 0, 0)" stroke-width="2" stroke-miterlimit="10" pointer-events="all"/><path d="M 771 296 L 826.53 296" fill="none" stroke="rgb(0, 0, 0)" stroke-width="2" stroke-miterlimit="10" pointer-events="stroke"/><path d="M 816.76 302 L 828.76 296 L 816.76 290" fill="none" stroke="rgb(0, 0, 0)" stroke-width="2" stroke-miterlimit="10" pointer-events="all"/><rect x="721" y="256" width="30" height="30" fill="none" stroke="none" pointer-events="all"/><g fill="rgb(0, 0, 0)" font-family="Helvetica" text-anchor="end" font-size="16px"><text x="748.5" y="280.5">0,0</text></g><ellipse cx="961" cy="176" rx="10" ry="10" fill="rgb(255, 255, 255)" stroke="rgb(0, 0, 0)" stroke-width="2" transform="rotate(90,961,176)" pointer-events="all"/><path d="M 848.07 288.93 L 950.77 186.23" fill="none" stroke="rgb(0, 0, 0)" stroke-width="2" stroke-miterlimit="10" pointer-events="stroke"/><path d="M 948.11 197.38 L 952.35 184.65 L 939.62 188.89" fill="none" stroke="rgb(0, 0, 0)" stroke-width="2" stroke-miterlimit="10" pointer-events="all"/><rect x="946" y="136" width="30" height="30" fill="none" stroke="none" pointer-events="all"/><g fill="rgb(0, 0, 0)" font-family="Helvetica" text-anchor="middle" font-size="16px"><text x="960.5" y="157.5">1,4</text></g><ellipse cx="961" cy="336" rx="10" ry="10" fill="rgb(255, 255, 255)" stroke="rgb(0, 0, 0)" stroke-width="2" pointer-events="all"/><path d="M 851 296 L 946.85 334.34" fill="none" stroke="rgb(0, 0, 0)" stroke-width="2" stroke-miterlimit="10" pointer-events="stroke"/><path d="M 935.55 336.28 L 948.92 335.17 L 940.01 325.14" fill="none" stroke="rgb(0, 0, 0)" stroke-width="2" stroke-miterlimit="10" pointer-events="all"/><rect x="946" y="346" width="30" height="30" fill="none" stroke="none" pointer-events="all"/><g fill="rgb(0, 0, 0)" font-family="Helvetica" text-anchor="middle" font-size="16px"><text x="960.5" y="367.5">3,2</text></g><path d="M 768.07 288.93 L 950.77 106.23" fill="none" stroke="rgb(0, 0, 0)" stroke-width="2" stroke-miterlimit="10" pointer-events="stroke"/><path d="M 948.11 117.38 L 952.35 104.65 L 939.62 108.89" fill="none" stroke="rgb(0, 0, 0)" stroke-width="2" stroke-miterlimit="10" pointer-events="all"/><ellipse cx="961" cy="416" rx="10" ry="10" fill="rgb(255, 255, 255)" stroke="rgb(0, 0, 0)" stroke-width="2" pointer-events="all"/><path d="M 848.07 303.07 L 950.77 405.77" fill="none" stroke="rgb(0, 0, 0)" stroke-width="2" stroke-miterlimit="10" pointer-events="stroke"/><path d="M 939.62 403.11 L 952.35 407.35 L 948.11 394.62" fill="none" stroke="rgb(0, 0, 0)" stroke-width="2" stroke-miterlimit="10" pointer-events="all"/><ellipse cx="961" cy="256" rx="10" ry="10" fill="rgb(255, 255, 255)" stroke="rgb(0, 0, 0)" stroke-width="2" pointer-events="all"/><rect x="946" y="216" width="30" height="30" fill="none" stroke="none" pointer-events="all"/><g fill="rgb(0, 0, 0)" font-family="Helvetica" text-anchor="middle" font-size="16px"><text x="960.5" y="237.5">2,3</text></g><rect x="946" y="426" width="30" height="30" fill="none" stroke="none" pointer-events="all"/><g fill="rgb(0, 0, 0)" font-family="Helvetica" text-anchor="middle" font-size="16px"><text x="960.5" y="447.5">4,1</text></g><rect x="981" y="81" width="30" height="30" fill="none" stroke="none" pointer-events="all"/><g fill="rgb(0, 0, 0)" font-family="Helvetica" font-size="16px"><text x="982.5" y="102.5">0,5</text></g><ellipse cx="961" cy="496" rx="10" ry="10" fill="rgb(255, 255, 255)" stroke="rgb(0, 0, 0)" stroke-width="2" pointer-events="all"/><rect x="981" y="481" width="30" height="30" fill="none" stroke="none" pointer-events="all"/><g fill="rgb(0, 0, 0)" font-family="Helvetica" font-size="16px"><text x="982.5" y="502.5">5,0</text></g><ellipse cx="841" cy="296" rx="10" ry="10" fill="rgb(255, 255, 255)" stroke="rgb(0, 0, 0)" stroke-width="2" pointer-events="all"/><rect x="801" y="256" width="30" height="30" fill="none" stroke="none" pointer-events="all"/><g fill="rgb(0, 0, 0)" font-family="Helvetica" text-anchor="end" font-size="16px"><text x="828.5" y="280.5">1,1</text></g><path d="M 971 336 L 1066.85 297.66" fill="none" stroke="rgb(0, 0, 0)" stroke-width="2" stroke-miterlimit="10" pointer-events="stroke"/><path d="M 1060.01 306.86 L 1068.92 296.83 L 1055.55 295.72" fill="none" stroke="rgb(0, 0, 0)" stroke-width="2" stroke-miterlimit="10" pointer-events="all"/><rect x="1101" y="281" width="30" height="30" fill="none" stroke="none" pointer-events="all"/><g fill="rgb(0, 0, 0)" font-family="Helvetica" font-size="16px"><text x="1102.5" y="302.5">4,4</text></g><path d="M 968.07 408.93 L 1070.77 306.23" fill="none" stroke="rgb(0, 0, 0)" stroke-width="2" stroke-miterlimit="10" pointer-events="stroke"/><path d="M 1068.11 317.38 L 1072.35 304.65 L 1059.62 308.89" fill="none" stroke="rgb(0, 0, 0)" stroke-width="2" stroke-miterlimit="10" pointer-events="all"/><path d="M 851 296 L 946.85 257.66" fill="none" stroke="rgb(0, 0, 0)" stroke-width="2" stroke-miterlimit="10" pointer-events="stroke"/><path d="M 940.01 266.86 L 948.92 256.83 L 935.55 255.72" fill="none" stroke="rgb(0, 0, 0)" stroke-width="2" stroke-miterlimit="10" pointer-events="all"/><path d="M 968.07 183.07 L 1070.77 285.77" fill="none" stroke="rgb(0, 0, 0)" stroke-width="2" stroke-miterlimit="10" pointer-events="stroke"/><path d="M 1059.62 283.11 L 1072.35 287.35 L 1068.11 274.62" fill="none" stroke="rgb(0, 0, 0)" stroke-width="2" stroke-miterlimit="10" pointer-events="all"/><path d="M 411 256 L 586.63 295.03" fill="none" stroke="rgb(0, 0, 0)" stroke-width="2" stroke-miterlimit="10" pointer-events="stroke"/><path d="M 575.8 298.77 L 588.82 295.51 L 578.4 287.05" fill="none" stroke="rgb(0, 0, 0)" stroke-width="2" stroke-miterlimit="10" pointer-events="all"/><ellipse cx="41" cy="296" rx="10" ry="10" fill="rgb(255, 255, 255)" stroke="rgb(0, 0, 0)" stroke-width="2" pointer-events="all"/><path d="M 48.07 303.07 L 390.38 566.2" fill="none" stroke="rgb(0, 0, 0)" stroke-width="2" stroke-miterlimit="10" pointer-events="stroke"/><path d="M 378.99 565.01 L 392.16 567.57 L 386.3 555.5" fill="none" stroke="rgb(0, 0, 0)" stroke-width="2" stroke-miterlimit="10" pointer-events="all"/><path d="M 51 296 L 186.53 296" fill="none" stroke="rgb(0, 0, 0)" stroke-width="2" stroke-miterlimit="10" pointer-events="stroke"/><path d="M 176.76 302 L 188.76 296 L 176.76 290" fill="none" stroke="rgb(0, 0, 0)" stroke-width="2" stroke-miterlimit="10" pointer-events="all"/><rect x="1" y="256" width="30" height="30" fill="none" stroke="none" pointer-events="all"/><g fill="rgb(0, 0, 0)" font-family="Helvetica" text-anchor="end" font-size="16px"><text x="28.5" y="280.5">0,0</text></g><ellipse cx="401" cy="176" rx="10" ry="10" fill="rgb(255, 255, 255)" stroke="rgb(0, 0, 0)" stroke-width="2" transform="rotate(90,401,176)" pointer-events="all"/><path d="M 208.07 288.93 L 390.04 185.28" fill="none" stroke="rgb(0, 0, 0)" stroke-width="2" stroke-miterlimit="10" pointer-events="stroke"/><path d="M 384.53 195.33 L 391.99 184.18 L 378.59 184.9" fill="none" stroke="rgb(0, 0, 0)" stroke-width="2" stroke-miterlimit="10" pointer-events="all"/><rect x="386" y="136" width="30" height="30" fill="none" stroke="none" pointer-events="all"/><g fill="rgb(0, 0, 0)" font-family="Helvetica" text-anchor="middle" font-size="16px"><text x="400.5" y="157.5">3,6</text></g><ellipse cx="401" cy="336" rx="10" ry="10" fill="rgb(255, 255, 255)" stroke="rgb(0, 0, 0)" stroke-width="2" pointer-events="all"/><path d="M 211 296 L 386.63 335.03" fill="none" stroke="rgb(0, 0, 0)" stroke-width="2" stroke-miterlimit="10" pointer-events="stroke"/><path d="M 375.8 338.77 L 388.82 335.51 L 378.4 327.05" fill="none" stroke="rgb(0, 0, 0)" stroke-width="2" stroke-miterlimit="10" pointer-events="all"/><rect x="386" y="346" width="30" height="30" fill="none" stroke="none" pointer-events="all"/><g fill="rgb(0, 0, 0)" font-family="Helvetica" text-anchor="middle" font-size="16px"><text x="400.5" y="367.5">5,4</text></g><path d="M 48.07 288.93 L 390.38 25.8" fill="none" stroke="rgb(0, 0, 0)" stroke-width="2" stroke-miterlimit="10" pointer-events="stroke"/><path d="M 386.3 36.5 L 392.16 24.43 L 378.99 26.99" fill="none" stroke="rgb(0, 0, 0)" stroke-width="2" stroke-miterlimit="10" pointer-events="all"/><ellipse cx="401" cy="416" rx="10" ry="10" fill="rgb(255, 255, 255)" stroke="rgb(0, 0, 0)" stroke-width="2" pointer-events="all"/><path d="M 208.07 303.07 L 390.04 406.72" fill="none" stroke="rgb(0, 0, 0)" stroke-width="2" stroke-miterlimit="10" pointer-events="stroke"/><path d="M 378.59 407.1 L 391.99 407.82 L 384.53 396.67" fill="none" stroke="rgb(0, 0, 0)" stroke-width="2" stroke-miterlimit="10" pointer-events="all"/><ellipse cx="401" cy="256" rx="10" ry="10" fill="rgb(255, 255, 255)" stroke="rgb(0, 0, 0)" stroke-width="2" pointer-events="all"/><rect x="386" y="216" width="30" height="30" fill="none" stroke="none" pointer-events="all"/><g fill="rgb(0, 0, 0)" font-family="Helvetica" text-anchor="middle" font-size="16px"><text x="400.5" y="237.5">4,5</text></g><rect x="386" y="426" width="30" height="30" fill="none" stroke="none" pointer-events="all"/><g fill="rgb(0, 0, 0)" font-family="Helvetica" text-anchor="middle" font-size="16px"><text x="400.5" y="447.5">6,3</text></g><rect x="421" y="1" width="30" height="30" fill="none" stroke="none" pointer-events="all"/><g fill="rgb(0, 0, 0)" font-family="Helvetica" font-size="16px"><text x="422.5" y="22.5">1,8</text></g><ellipse cx="401" cy="576" rx="10" ry="10" fill="rgb(255, 255, 255)" stroke="rgb(0, 0, 0)" stroke-width="2" pointer-events="all"/><rect x="421" y="561" width="30" height="30" fill="none" stroke="none" pointer-events="all"/><g fill="rgb(0, 0, 0)" font-family="Helvetica" font-size="16px"><text x="422.5" y="582.5">8,1</text></g><ellipse cx="201" cy="296" rx="10" ry="10" fill="rgb(255, 255, 255)" stroke="rgb(0, 0, 0)" stroke-width="2" pointer-events="all"/><rect x="161" y="256" width="30" height="30" fill="none" stroke="none" pointer-events="all"/><g fill="rgb(0, 0, 0)" font-family="Helvetica" text-anchor="end" font-size="16px"><text x="188.5" y="280.5">2,2</text></g><path d="M 411 336 L 586.63 296.97" fill="none" stroke="rgb(0, 0, 0)" stroke-width="2" stroke-miterlimit="10" pointer-events="stroke"/><path d="M 578.4 304.95 L 588.82 296.49 L 575.8 293.23" fill="none" stroke="rgb(0, 0, 0)" stroke-width="2" stroke-miterlimit="10" pointer-events="all"/><rect x="621" y="281" width="30" height="30" fill="none" stroke="none" pointer-events="all"/><g fill="rgb(0, 0, 0)" font-family="Helvetica" font-size="16px"><text x="622.5" y="302.5">7,7</text></g><path d="M 408.07 408.93 L 590.04 305.28" fill="none" stroke="rgb(0, 0, 0)" stroke-width="2" stroke-miterlimit="10" pointer-events="stroke"/><path d="M 584.53 315.33 L 591.99 304.18 L 578.59 304.9" fill="none" stroke="rgb(0, 0, 0)" stroke-width="2" stroke-miterlimit="10" pointer-events="all"/><path d="M 211 296 L 386.63 256.97" fill="none" stroke="rgb(0, 0, 0)" stroke-width="2" stroke-miterlimit="10" pointer-events="stroke"/><path d="M 378.4 264.95 L 388.82 256.49 L 375.8 253.23" fill="none" stroke="rgb(0, 0, 0)" stroke-width="2" stroke-miterlimit="10" pointer-events="all"/><path d="M 408.07 183.07 L 590.04 286.72" fill="none" stroke="rgb(0, 0, 0)" stroke-width="2" stroke-miterlimit="10" pointer-events="stroke"/><path d="M 578.59 287.1 L 591.99 287.82 L 584.53 276.67" fill="none" stroke="rgb(0, 0, 0)" stroke-width="2" stroke-miterlimit="10" pointer-events="all"/><ellipse cx="961" cy="96" rx="10" ry="10" fill="rgb(255, 255, 255)" stroke="rgb(0, 0, 0)" stroke-width="2" pointer-events="all"/><ellipse cx="401" cy="16" rx="10" ry="10" fill="rgb(255, 255, 255)" stroke="rgb(0, 0, 0)" stroke-width="2" pointer-events="all"/><ellipse cx="1081" cy="296" rx="10" ry="10" fill="rgb(255, 255, 255)" stroke="rgb(0, 0, 0)" stroke-width="2" pointer-events="all"/><ellipse cx="601" cy="296" rx="10" ry="10" fill="rgb(255, 255, 255)" stroke="rgb(0, 0, 0)" stroke-width="2" pointer-events="all"/></g></svg>
