<?xml version="1.0" encoding="UTF-8"?>
<!DOCTYPE svg PUBLIC "-//W3C//DTD SVG 1.1//EN" "http://www.w3.org/Graphics/SVG/1.1/DTD/svg11.dtd">
<svg xmlns="http://www.w3.org/2000/svg" xmlns:xlink="http://www.w3.org/1999/xlink" version="1.1" width="588px" height="263px" viewBox="-0.5 -0.5 588 263" style="background-color: rgb(255, 255, 255);"><defs/><g><ellipse cx="378.5" cy="209.5" rx="7.5" ry="7.5" fill="rgb(255, 255, 255)" stroke="rgb(0, 0, 0)" stroke-width="2" transform="rotate(90,378.5,209.5)" pointer-events="none"/><ellipse cx="458.5" cy="129.5" rx="7.5" ry="7.5" fill="rgb(255, 255, 255)" stroke="rgb(0, 0, 0)" stroke-width="2" transform="rotate(90,458.5,129.5)" pointer-events="none"/><ellipse cx="418.5" cy="89.5" rx="7.5" ry="7.5" fill="rgb(255, 255, 255)" stroke="rgb(0, 0, 0)" stroke-width="2" transform="rotate(90,418.5,89.5)" pointer-events="none"/><ellipse cx="418.5" cy="169.5" rx="7.5" ry="7.5" fill="rgb(255, 255, 255)" stroke="rgb(0, 0, 0)" stroke-width="2" transform="rotate(90,418.5,169.5)" pointer-events="none"/><ellipse cx="578.5" cy="209.5" rx="7.5" ry="7.5" fill="rgb(255, 255, 255)" stroke="rgb(0, 0, 0)" stroke-width="2" transform="rotate(90,578.5,209.5)" pointer-events="none"/><ellipse cx="378.5" cy="49.5" rx="7.5" ry="7.5" fill="rgb(255, 255, 255)" stroke="rgb(0, 0, 0)" stroke-width="2" transform="rotate(90,378.5,49.5)" pointer-events="none"/><ellipse cx="378.5" cy="89.5" rx="7.5" ry="7.5" fill="rgb(255, 255, 255)" stroke="rgb(0, 0, 0)" stroke-width="2" transform="rotate(90,378.5,89.5)" pointer-events="none"/><ellipse cx="498.5" cy="169.5" rx="7.5" ry="7.5" fill="rgb(255, 255, 255)" stroke="rgb(0, 0, 0)" stroke-width="2" transform="rotate(90,498.5,169.5)" pointer-events="none"/><ellipse cx="538.5" cy="209.5" rx="7.5" ry="7.5" fill="rgb(255, 255, 255)" stroke="rgb(0, 0, 0)" stroke-width="2" transform="rotate(90,538.5,209.5)" pointer-events="none"/><ellipse cx="458.5" cy="89.5" rx="7.5" ry="7.5" fill="rgb(255, 255, 255)" stroke="rgb(0, 0, 0)" stroke-width="2" transform="rotate(90,458.5,89.5)" pointer-events="none"/><ellipse cx="418.5" cy="209.5" rx="7.5" ry="7.5" fill="rgb(255, 255, 255)" stroke="rgb(0, 0, 0)" stroke-width="2" transform="rotate(90,418.5,209.5)" pointer-events="none"/><ellipse cx="538.5" cy="89.5" rx="7.5" ry="7.5" fill="rgb(255, 255, 255)" stroke="rgb(0, 0, 0)" stroke-width="2" transform="rotate(90,538.5,89.5)" pointer-events="none"/><ellipse cx="578.5" cy="49.5" rx="7.5" ry="7.5" fill="rgb(255, 255, 255)" stroke="rgb(0, 0, 0)" stroke-width="2" transform="rotate(90,578.5,49.5)" pointer-events="none"/><path d="M 378.5 202 L 378.5 101.47" fill="none" stroke="rgb(0, 0, 0)" stroke-width="2" stroke-miterlimit="10" pointer-events="none"/><path d="M 382.5 107.24 L 378.5 99.24 L 374.5 107.24" fill="none" stroke="rgb(0, 0, 0)" stroke-width="2" stroke-miterlimit="10" pointer-events="none"/><path d="M 418.26 202 L 418.05 181.47" fill="none" stroke="rgb(0, 0, 0)" stroke-width="2" stroke-miterlimit="10" pointer-events="none"/><path d="M 422.11 187.19 L 418.02 179.24 L 414.11 187.28" fill="none" stroke="rgb(0, 0, 0)" stroke-width="2" stroke-miterlimit="10" pointer-events="none"/><path d="M 498.26 162 L 531.13 98.77" fill="none" stroke="rgb(0, 0, 0)" stroke-width="2" stroke-miterlimit="10" pointer-events="none"/><path d="M 532.02 105.73 L 532.17 96.79 L 524.93 102.04" fill="none" stroke="rgb(0, 0, 0)" stroke-width="2" stroke-miterlimit="10" pointer-events="none"/><path d="M 538.26 202 L 538.26 101.47" fill="none" stroke="rgb(0, 0, 0)" stroke-width="2" stroke-miterlimit="10" pointer-events="none"/><path d="M 542.26 107.24 L 538.26 99.24 L 534.26 107.24" fill="none" stroke="rgb(0, 0, 0)" stroke-width="2" stroke-miterlimit="10" pointer-events="none"/><path d="M 578.26 202 L 578.01 61.47" fill="none" stroke="rgb(0, 0, 0)" stroke-width="2" stroke-miterlimit="10" pointer-events="none"/><path d="M 582.02 67.23 L 578 59.24 L 574.02 67.24" fill="none" stroke="rgb(0, 0, 0)" stroke-width="2" stroke-miterlimit="10" pointer-events="none"/><path d="M 458.26 122 L 458.05 101.47" fill="none" stroke="rgb(0, 0, 0)" stroke-width="2" stroke-miterlimit="10" pointer-events="none"/><path d="M 462.11 107.19 L 458.02 99.24 L 454.11 107.28" fill="none" stroke="rgb(0, 0, 0)" stroke-width="2" stroke-miterlimit="10" pointer-events="none"/><path d="M 418.26 162 L 418.48 101.47" fill="none" stroke="rgb(0, 0, 0)" stroke-width="2" stroke-miterlimit="10" pointer-events="none"/><path d="M 422.46 107.25 L 418.49 99.24 L 414.46 107.22" fill="none" stroke="rgb(0, 0, 0)" stroke-width="2" stroke-miterlimit="10" pointer-events="none"/><path d="M 378.5 82 L 378.5 61.47" fill="none" stroke="rgb(0, 0, 0)" stroke-width="2" stroke-miterlimit="10" pointer-events="none"/><path d="M 382.5 67.24 L 378.5 59.24 L 374.5 67.24" fill="none" stroke="rgb(0, 0, 0)" stroke-width="2" stroke-miterlimit="10" pointer-events="none"/><path d="M 386 209.5 L 406.53 209.5" fill="none" stroke="rgb(0, 0, 0)" stroke-width="2" stroke-miterlimit="10" pointer-events="none"/><path d="M 400.76 213.5 L 408.76 209.5 L 400.76 205.5" fill="none" stroke="rgb(0, 0, 0)" stroke-width="2" stroke-miterlimit="10" pointer-events="none"/><path d="M 426 209.26 L 526.53 209.01" fill="none" stroke="rgb(0, 0, 0)" stroke-width="2" stroke-miterlimit="10" pointer-events="none"/><path d="M 520.77 213.03 L 528.76 209.01 L 520.75 205.03" fill="none" stroke="rgb(0, 0, 0)" stroke-width="2" stroke-miterlimit="10" pointer-events="none"/><path d="M 546 209.26 L 566.53 209.05" fill="none" stroke="rgb(0, 0, 0)" stroke-width="2" stroke-miterlimit="10" pointer-events="none"/><path d="M 560.81 213.11 L 568.76 209.02 L 560.72 205.11" fill="none" stroke="rgb(0, 0, 0)" stroke-width="2" stroke-miterlimit="10" pointer-events="none"/><path d="M 538.5 82 L 569.68 57.56" fill="none" stroke="rgb(0, 0, 0)" stroke-width="2" stroke-miterlimit="10" pointer-events="none"/><path d="M 567.61 64.27 L 571.44 56.18 L 562.67 57.97" fill="none" stroke="rgb(0, 0, 0)" stroke-width="2" stroke-miterlimit="10" pointer-events="none"/><path d="M 466 89.5 L 526.53 89.5" fill="none" stroke="rgb(0, 0, 0)" stroke-width="2" stroke-miterlimit="10" pointer-events="none"/><path d="M 520.76 93.5 L 528.76 89.5 L 520.76 85.5" fill="none" stroke="rgb(0, 0, 0)" stroke-width="2" stroke-miterlimit="10" pointer-events="none"/><path d="M 426 89.5 L 446.53 89.5" fill="none" stroke="rgb(0, 0, 0)" stroke-width="2" stroke-miterlimit="10" pointer-events="none"/><path d="M 440.76 93.5 L 448.76 89.5 L 440.76 85.5" fill="none" stroke="rgb(0, 0, 0)" stroke-width="2" stroke-miterlimit="10" pointer-events="none"/><path d="M 386 89.5 L 406.53 89.5" fill="none" stroke="rgb(0, 0, 0)" stroke-width="2" stroke-miterlimit="10" pointer-events="none"/><path d="M 400.76 93.5 L 408.76 89.5 L 400.76 85.5" fill="none" stroke="rgb(0, 0, 0)" stroke-width="2" stroke-miterlimit="10" pointer-events="none"/><path d="M 426 169.26 L 486.53 169.48" fill="none" stroke="rgb(0, 0, 0)" stroke-width="2" stroke-miterlimit="10" pointer-events="none"/><path d="M 480.75 173.46 L 488.76 169.49 L 480.78 165.46" fill="none" stroke="rgb(0, 0, 0)" stroke-width="2" stroke-miterlimit="10" pointer-events="none"/><path d="M 386 49.26 L 566.53 49.49" fill="none" stroke="rgb(0, 0, 0)" stroke-width="2" stroke-miterlimit="10" pointer-events="none"/><path d="M 560.76 53.49 L 568.76 49.5 L 560.77 45.49" fill="none" stroke="rgb(0, 0, 0)" stroke-width="2" stroke-miterlimit="10" pointer-events="none"/><path d="M 423.8 164.2 L 450.03 137.97" fill="none" stroke="rgb(0, 0, 0)" stroke-width="2" stroke-miterlimit="10" pointer-events="none"/><path d="M 448.79 144.87 L 451.62 136.38 L 443.13 139.21" fill="none" stroke="rgb(0, 0, 0)" stroke-width="2" stroke-miterlimit="10" pointer-events="none"/><ellipse cx="11.04" cy="250.2" rx="7.044797687861272" ry="7.044797687861272" fill="rgb(255, 255, 255)" stroke="rgb(0, 0, 0)" stroke-width="2" transform="rotate(-405,11.04,250.2)" pointer-events="none"/><ellipse cx="160.04" cy="70.79" rx="7.044797687861272" ry="7.044797687861272" fill="rgb(255, 255, 255)" stroke="rgb(0, 0, 0)" stroke-width="2" transform="rotate(-405,160.04,70.79)" pointer-events="none"/><ellipse cx="75.04" cy="230.48" rx="7.044797687861272" ry="7.044797687861272" fill="rgb(255, 255, 255)" stroke="rgb(0, 0, 0)" stroke-width="2" transform="rotate(-405,75.04,230.48)" pointer-events="none"/><path d="M 16.03 245.22 L 63.7 231.7" fill="none" stroke="rgb(0, 0, 0)" stroke-width="2" stroke-miterlimit="10" pointer-events="none"/><path d="M 59.24 237.12 L 65.85 231.09 L 57.06 229.42" fill="none" stroke="rgb(0, 0, 0)" stroke-width="2" stroke-miterlimit="10" pointer-events="none"/><ellipse cx="32.04" cy="110.24" rx="7.044797687861272" ry="7.044797687861272" fill="rgb(255, 255, 255)" stroke="rgb(0, 0, 0)" stroke-width="2" transform="rotate(-405,32.04,110.24)" pointer-events="none"/><path d="M 11.04 243.16 L 30.25 121.62" fill="none" stroke="rgb(0, 0, 0)" stroke-width="2" stroke-miterlimit="10" pointer-events="none"/><path d="M 33.3 127.94 L 30.6 119.41 L 25.4 126.69" fill="none" stroke="rgb(0, 0, 0)" stroke-width="2" stroke-miterlimit="10" pointer-events="none"/><ellipse cx="54.04" cy="30.4" rx="7.044797687861272" ry="7.044797687861272" fill="rgb(255, 255, 255)" stroke="rgb(0, 0, 0)" stroke-width="2" transform="rotate(-405,54.04,30.4)" pointer-events="none"/><path d="M 37.03 105.26 L 48.3 39.79" fill="none" stroke="rgb(0, 0, 0)" stroke-width="2" stroke-miterlimit="10" pointer-events="none"/><path d="M 51.27 46.15 L 48.68 37.59 L 43.38 44.79" fill="none" stroke="rgb(0, 0, 0)" stroke-width="2" stroke-miterlimit="10" pointer-events="none"/><ellipse cx="96.04" cy="170.36" rx="7.044797687861272" ry="7.044797687861272" fill="rgb(255, 255, 255)" stroke="rgb(0, 0, 0)" stroke-width="2" transform="rotate(-405,96.04,170.36)" pointer-events="none"/><path d="M 75.04 223.43 L 89.65 179.58" fill="none" stroke="rgb(0, 0, 0)" stroke-width="2" stroke-miterlimit="10" pointer-events="none"/><path d="M 91.62 186.32 L 90.36 177.46 L 84.03 183.79" fill="none" stroke="rgb(0, 0, 0)" stroke-width="2" stroke-miterlimit="10" pointer-events="none"/><ellipse cx="117.04" cy="90.52" rx="7.044797687861272" ry="7.044797687861272" fill="rgb(255, 255, 255)" stroke="rgb(0, 0, 0)" stroke-width="2" transform="rotate(-405,117.04,90.52)" pointer-events="none"/><ellipse cx="139.04" cy="130.91" rx="7.044797687861272" ry="7.044797687861272" fill="rgb(255, 255, 255)" stroke="rgb(0, 0, 0)" stroke-width="2" transform="rotate(-315,139.04,130.91)" pointer-events="none"/><path d="M 101.03 165.38 L 130.73 138.87" fill="none" stroke="rgb(0, 0, 0)" stroke-width="2" stroke-miterlimit="10" pointer-events="none"/><path d="M 129.09 145.69 L 132.4 137.38 L 123.76 139.72" fill="none" stroke="rgb(0, 0, 0)" stroke-width="2" stroke-miterlimit="10" pointer-events="none"/><ellipse cx="181.04" cy="150.63" rx="7.044797687861272" ry="7.044797687861272" fill="rgb(255, 255, 255)" stroke="rgb(0, 0, 0)" stroke-width="2" transform="rotate(-405,181.04,150.63)" pointer-events="none"/><path d="M 96.04 163.32 L 115.68 101.82" fill="none" stroke="rgb(0, 0, 0)" stroke-width="2" stroke-miterlimit="10" pointer-events="none"/><path d="M 117.74 108.53 L 116.36 99.69 L 110.12 106.1" fill="none" stroke="rgb(0, 0, 0)" stroke-width="2" stroke-miterlimit="10" pointer-events="none"/><ellipse cx="223.04" cy="51.07" rx="7.044797687861272" ry="7.044797687861272" fill="rgb(255, 255, 255)" stroke="rgb(0, 0, 0)" stroke-width="2" transform="rotate(-405,223.04,51.07)" pointer-events="none"/><ellipse cx="245.04" cy="190.09" rx="7.044797687861272" ry="7.044797687861272" fill="rgb(255, 255, 255)" stroke="rgb(0, 0, 0)" stroke-width="2" transform="rotate(-405,245.04,190.09)" pointer-events="none"/><path d="M 144.03 125.93 L 158.63 82.08" fill="none" stroke="rgb(0, 0, 0)" stroke-width="2" stroke-miterlimit="10" pointer-events="none"/><path d="M 160.6 88.81 L 159.34 79.96 L 153.01 86.29" fill="none" stroke="rgb(0, 0, 0)" stroke-width="2" stroke-miterlimit="10" pointer-events="none"/><path d="M 186.03 145.65 L 216.56 60.26" fill="none" stroke="rgb(0, 0, 0)" stroke-width="2" stroke-miterlimit="10" pointer-events="none"/><path d="M 218.38 67.03 L 217.31 58.15 L 210.85 64.34" fill="none" stroke="rgb(0, 0, 0)" stroke-width="2" stroke-miterlimit="10" pointer-events="none"/><path d="M 122.03 85.54 L 150.77 77.04" fill="none" stroke="rgb(0, 0, 0)" stroke-width="2" stroke-miterlimit="10" pointer-events="none"/><path d="M 146.38 82.51 L 152.92 76.41 L 144.11 74.84" fill="none" stroke="rgb(0, 0, 0)" stroke-width="2" stroke-miterlimit="10" pointer-events="none"/><path d="M 167.09 70.79 L 214.69 57.44" fill="none" stroke="rgb(0, 0, 0)" stroke-width="2" stroke-miterlimit="10" pointer-events="none"/><path d="M 210.22 62.85 L 216.85 56.84 L 208.06 55.15" fill="none" stroke="rgb(0, 0, 0)" stroke-width="2" stroke-miterlimit="10" pointer-events="none"/><path d="M 103.09 170.36 L 169.69 151.83" fill="none" stroke="rgb(0, 0, 0)" stroke-width="2" stroke-miterlimit="10" pointer-events="none"/><path d="M 165.21 157.23 L 171.85 151.23 L 163.07 149.52" fill="none" stroke="rgb(0, 0, 0)" stroke-width="2" stroke-miterlimit="10" pointer-events="none"/><path d="M 39.09 110.24 L 105.69 91.72" fill="none" stroke="rgb(0, 0, 0)" stroke-width="2" stroke-miterlimit="10" pointer-events="none"/><path d="M 101.21 97.12 L 107.85 91.12 L 99.07 89.41" fill="none" stroke="rgb(0, 0, 0)" stroke-width="2" stroke-miterlimit="10" pointer-events="none"/><ellipse cx="266.04" cy="10.68" rx="7.044797687861272" ry="7.044797687861272" fill="rgb(255, 255, 255)" stroke="rgb(0, 0, 0)" stroke-width="2" transform="rotate(-405,266.04,10.68)" pointer-events="none"/><path d="M 61.09 30.4 L 254.58 11.78" fill="none" stroke="rgb(0, 0, 0)" stroke-width="2" stroke-miterlimit="10" pointer-events="none"/><path d="M 249.23 16.31 L 256.81 11.56 L 248.46 8.35" fill="none" stroke="rgb(0, 0, 0)" stroke-width="2" stroke-miterlimit="10" pointer-events="none"/><ellipse cx="202.04" cy="209.81" rx="7.044797687861272" ry="7.044797687861272" fill="rgb(255, 255, 255)" stroke="rgb(0, 0, 0)" stroke-width="2" transform="rotate(-405,202.04,209.81)" pointer-events="none"/><path d="M 245.04 183.04 L 265.48 22.16" fill="none" stroke="rgb(0, 0, 0)" stroke-width="2" stroke-miterlimit="10" pointer-events="none"/><path d="M 268.72 28.38 L 265.76 19.94 L 260.79 27.37" fill="none" stroke="rgb(0, 0, 0)" stroke-width="2" stroke-miterlimit="10" pointer-events="none"/><path d="M 228.03 46.09 L 257.77 18.69" fill="none" stroke="rgb(0, 0, 0)" stroke-width="2" stroke-miterlimit="10" pointer-events="none"/><path d="M 256.24 25.54 L 259.42 17.17 L 250.82 19.65" fill="none" stroke="rgb(0, 0, 0)" stroke-width="2" stroke-miterlimit="10" pointer-events="none"/><path d="M 202.04 202.77 L 222.4 62.54" fill="none" stroke="rgb(0, 0, 0)" stroke-width="2" stroke-miterlimit="10" pointer-events="none"/><path d="M 225.53 68.82 L 222.72 60.33 L 217.62 67.67" fill="none" stroke="rgb(0, 0, 0)" stroke-width="2" stroke-miterlimit="10" pointer-events="none"/><path d="M 82.09 230.48 L 190.6 210.62" fill="none" stroke="rgb(0, 0, 0)" stroke-width="2" stroke-miterlimit="10" pointer-events="none"/><path d="M 185.65 215.59 L 192.8 210.21 L 184.21 207.72" fill="none" stroke="rgb(0, 0, 0)" stroke-width="2" stroke-miterlimit="10" pointer-events="none"/><path d="M 207.03 204.83 L 235.77 196.33" fill="none" stroke="rgb(0, 0, 0)" stroke-width="2" stroke-miterlimit="10" pointer-events="none"/><path d="M 231.38 201.8 L 237.92 195.7 L 229.11 194.13" fill="none" stroke="rgb(0, 0, 0)" stroke-width="2" stroke-miterlimit="10" pointer-events="none"/></g></svg>
