<?xml version="1.0" encoding="UTF-8"?>
<!DOCTYPE svg PUBLIC "-//W3C//DTD SVG 1.1//EN" "http://www.w3.org/Graphics/SVG/1.1/DTD/svg11.dtd">
<svg xmlns="http://www.w3.org/2000/svg" xmlns:xlink="http://www.w3.org/1999/xlink" version="1.1" width="385px" height="365px" viewBox="-0.5 -0.5 385 365" style="background-color: rgb(255, 255, 255);"><defs/><g><path d="M 119.07 244.93 L 261.08 161.34" fill="none" stroke="rgb(0, 0, 0)" stroke-width="2" stroke-miterlimit="10" pointer-events="stroke"/><path d="M 255.7 171.46 L 263 160.21 L 249.62 161.12" fill="none" stroke="rgb(0, 0, 0)" stroke-width="2" stroke-miterlimit="10" pointer-events="all"/><path d="M 282 152 L 372 152" fill="none" stroke="rgb(0, 0, 0)" stroke-width="2" stroke-miterlimit="10" stroke-dasharray="2 2" pointer-events="stroke"/><path d="M 122 252 L 372 252" fill="none" stroke="rgb(0, 0, 0)" stroke-width="2" stroke-miterlimit="10" stroke-dasharray="2 2" pointer-events="stroke"/><path d="M 112 262 L 112 352" fill="none" stroke="rgb(0, 0, 0)" stroke-width="2" stroke-miterlimit="10" stroke-dasharray="2 2" pointer-events="stroke"/><path d="M 272 162 L 272 352" fill="none" stroke="rgb(0, 0, 0)" stroke-width="2" stroke-miterlimit="10" stroke-dasharray="2 2" pointer-events="stroke"/><path d="M 112 12 L 112 242" fill="none" stroke="rgb(0, 0, 0)" stroke-width="2" stroke-miterlimit="10" stroke-dasharray="2 2" pointer-events="stroke"/><path d="M 272 12 L 272 142" fill="none" stroke="rgb(0, 0, 0)" stroke-width="2" stroke-miterlimit="10" stroke-dasharray="2 2" pointer-events="stroke"/><rect x="82" y="252" width="20" height="30" fill="none" stroke="none" pointer-events="all"/><g fill="rgb(0, 0, 0)" font-family="Helvetica" text-anchor="end" font-size="16px"><text x="99.5" y="273.5">B</text></g><rect x="282" y="112" width="40" height="30" fill="none" stroke="none" pointer-events="all"/><g fill="rgb(0, 0, 0)" font-family="Helvetica" font-size="16px"><text x="283.5" y="136.5">A</text></g><rect x="222" y="282" width="20" height="30" fill="none" stroke="none" pointer-events="all"/><g fill="rgb(0, 0, 0)" font-family="Helvetica" text-anchor="middle" font-size="24px"><text x="231.5" y="307.5">∅</text></g><ellipse cx="272" cy="152" rx="10" ry="10" fill="rgb(255, 255, 255)" stroke="rgb(0, 0, 0)" stroke-width="2" transform="rotate(-180,272,152)" pointer-events="all"/><path d="M 12 152 L 262 152" fill="none" stroke="rgb(0, 0, 0)" stroke-width="2" stroke-miterlimit="10" stroke-dasharray="2 2" pointer-events="stroke"/><rect x="212" y="22" width="40" height="30" fill="none" stroke="none" pointer-events="all"/><g fill="rgb(0, 0, 0)" font-family="Helvetica" text-anchor="middle" font-size="16px"><text x="231.5" y="34">C</text><text x="231.5" y="53">zone</text></g><ellipse cx="112" cy="252" rx="10" ry="10" fill="rgb(255, 255, 255)" stroke="rgb(0, 0, 0)" stroke-width="2" transform="rotate(-180,112,252)" pointer-events="all"/><path d="M 12 252 L 102 252" fill="none" stroke="rgb(0, 0, 0)" stroke-width="2" stroke-miterlimit="10" stroke-dasharray="2 2" pointer-events="stroke"/><path d="M 192 352 L 192 12" fill="none" stroke="rgb(0, 0, 0)" stroke-width="2" stroke-miterlimit="10" stroke-dasharray="6 6" pointer-events="stroke"/><rect x="142" y="282" width="20" height="30" fill="none" stroke="none" pointer-events="all"/><g fill="rgb(0, 0, 0)" font-family="Helvetica" text-anchor="middle" font-size="24px"><text x="151.5" y="307.5">∅</text></g><rect x="142" y="172" width="20" height="30" fill="none" stroke="none" pointer-events="all"/><g fill="rgb(0, 0, 0)" font-family="Helvetica" text-anchor="middle" font-size="24px"><text x="151.5" y="197.5">∅</text></g><rect x="222" y="192" width="20" height="30" fill="none" stroke="none" pointer-events="all"/><g fill="rgb(0, 0, 0)" font-family="Helvetica" text-anchor="middle" font-size="24px"><text x="231.5" y="217.5">∅</text></g><ellipse cx="222" cy="112" rx="10" ry="10" fill="rgb(255, 255, 255)" stroke="rgb(0, 0, 0)" stroke-width="2" transform="rotate(-180,222,112)" pointer-events="all"/><rect x="232" y="72" width="40" height="30" fill="none" stroke="none" pointer-events="all"/><g fill="rgb(0, 0, 0)" font-family="Helvetica" font-size="16px"><text x="233.5" y="96.5">C</text></g><path d="M 12 332 L 357.76 332" fill="none" stroke="rgb(0, 0, 0)" stroke-width="2" stroke-miterlimit="10" pointer-events="stroke"/><path d="M 369.76 332 L 357.76 336 L 357.76 328 Z" fill="rgb(0, 0, 0)" stroke="rgb(0, 0, 0)" stroke-width="2" stroke-miterlimit="10" pointer-events="all"/><path d="M 32 352 L 32 26.24" fill="none" stroke="rgb(0, 0, 0)" stroke-width="2" stroke-miterlimit="10" pointer-events="stroke"/><path d="M 32 14.24 L 36 26.24 L 28 26.24 Z" fill="rgb(0, 0, 0)" stroke="rgb(0, 0, 0)" stroke-width="2" stroke-miterlimit="10" pointer-events="all"/><rect x="322" y="332" width="40" height="30" fill="none" stroke="none" pointer-events="all"/><g fill="rgb(0, 0, 0)" font-family="Helvetica" text-anchor="end" font-size="16px"><text x="359.5" y="353.5">principal</text></g><rect x="42" y="12" width="40" height="30" fill="none" stroke="none" pointer-events="all"/><g fill="rgb(0, 0, 0)" font-family="Helvetica" font-size="16px"><text x="43.5" y="33.5">obverse</text></g></g></svg>