<?xml version="1.0" encoding="UTF-8"?>
<!DOCTYPE svg PUBLIC "-//W3C//DTD SVG 1.1//EN" "http://www.w3.org/Graphics/SVG/1.1/DTD/svg11.dtd">
<svg xmlns="http://www.w3.org/2000/svg" xmlns:xlink="http://www.w3.org/1999/xlink" version="1.1" width="352px" height="344px" viewBox="-0.5 -0.5 352 344" style="background-color: rgb(255, 255, 255);"><defs/><g><path d="M 18.07 183.93 L 82.08 102.39" fill="none" stroke="#000000" stroke-width="2" stroke-miterlimit="10" pointer-events="stroke"/><path d="M 80.77 113.78 L 83.46 100.63 L 71.33 106.37" fill="none" stroke="#000000" stroke-width="2" stroke-miterlimit="10" pointer-events="all"/><path d="M 21 191 L 76.53 191" fill="none" stroke="#000000" stroke-width="2" stroke-miterlimit="10" pointer-events="stroke"/><path d="M 66.76 197 L 78.76 191 L 66.76 185" fill="none" stroke="#000000" stroke-width="2" stroke-miterlimit="10" pointer-events="all"/><ellipse cx="11" cy="191" rx="10" ry="10" fill="#ffffff" stroke="#000000" stroke-width="2" pointer-events="all"/><path d="M 101 191 L 157.03 188.93" fill="none" stroke="#000000" stroke-width="2" stroke-miterlimit="10" pointer-events="stroke"/><path d="M 147.5 195.28 L 159.27 188.84 L 147.05 183.29" fill="none" stroke="#000000" stroke-width="2" stroke-miterlimit="10" pointer-events="all"/><path d="M 98.07 183.93 L 160.52 130.96" fill="none" stroke="#000000" stroke-width="2" stroke-miterlimit="10" pointer-events="stroke"/><path d="M 156.95 141.86 L 162.22 129.52 L 149.19 132.7" fill="none" stroke="#000000" stroke-width="2" stroke-miterlimit="10" pointer-events="all"/><ellipse cx="91" cy="191" rx="10" ry="10" fill="#ffffff" stroke="#000000" stroke-width="2" pointer-events="all"/><path d="M 178.07 183.93 L 236.62 171.9" fill="none" stroke="#000000" stroke-width="2" stroke-miterlimit="10" pointer-events="stroke"/><path d="M 228.26 179.74 L 238.81 171.45 L 225.85 167.99" fill="none" stroke="#000000" stroke-width="2" stroke-miterlimit="10" pointer-events="all"/><ellipse cx="171" cy="191" rx="10" ry="10" fill="#ffffff" stroke="#000000" stroke-width="2" pointer-events="all"/><ellipse cx="171" cy="71" rx="10" ry="10" fill="#ffffff" stroke="#000000" stroke-width="2" pointer-events="all"/><ellipse cx="91" cy="91" rx="10" ry="10" fill="#ffffff" stroke="#000000" stroke-width="2" pointer-events="all"/><ellipse cx="171" cy="121" rx="10" ry="10" fill="#ffffff" stroke="#000000" stroke-width="2" pointer-events="all"/><ellipse cx="91" cy="331" rx="10" ry="10" fill="#ffffff" stroke="#000000" stroke-width="2" pointer-events="all"/><path d="M 18.07 198.07 L 81.86 319.97" fill="none" stroke="#000000" stroke-width="2" stroke-miterlimit="10" pointer-events="stroke"/><path d="M 72.01 314.1 L 82.89 321.95 L 82.64 308.53" fill="none" stroke="#000000" stroke-width="2" stroke-miterlimit="10" pointer-events="all"/><ellipse cx="251" cy="216" rx="10" ry="10" fill="#ffffff" stroke="#000000" stroke-width="2" pointer-events="all"/><ellipse cx="251" cy="171" rx="10" ry="10" fill="#ffffff" stroke="#000000" stroke-width="2" transform="rotate(90,251,171)" pointer-events="all"/><ellipse cx="171" cy="11" rx="10" ry="10" fill="#ffffff" stroke="#000000" stroke-width="2" pointer-events="all"/><path d="M 178.07 198.07 L 236.7 214.77" fill="none" stroke="#000000" stroke-width="2" stroke-miterlimit="10" pointer-events="stroke"/><path d="M 225.66 217.87 L 238.85 215.39 L 228.95 206.33" fill="none" stroke="#000000" stroke-width="2" stroke-miterlimit="10" pointer-events="all"/><ellipse cx="171" cy="261" rx="10" ry="10" fill="#ffffff" stroke="#000000" stroke-width="2" pointer-events="all"/><path d="M 98.07 198.07 L 160.52 251.04" fill="none" stroke="#000000" stroke-width="2" stroke-miterlimit="10" pointer-events="stroke"/><path d="M 149.19 249.3 L 162.22 252.48 L 156.95 240.14" fill="none" stroke="#000000" stroke-width="2" stroke-miterlimit="10" pointer-events="all"/><path d="M 101 91 L 156.76 72.41" fill="none" stroke="#000000" stroke-width="2" stroke-miterlimit="10" pointer-events="stroke"/><path d="M 149.39 81.19 L 158.88 71.71 L 145.6 69.81" fill="none" stroke="#000000" stroke-width="2" stroke-miterlimit="10" pointer-events="all"/><path d="M 98.07 83.93 L 160.77 21.23" fill="none" stroke="#000000" stroke-width="2" stroke-miterlimit="10" pointer-events="stroke"/><path d="M 158.11 32.38 L 162.35 19.65 L 149.62 23.89" fill="none" stroke="#000000" stroke-width="2" stroke-miterlimit="10" pointer-events="all"/><ellipse cx="341" cy="191" rx="10" ry="10" fill="#ffffff" stroke="#000000" stroke-width="2" pointer-events="all"/><path d="M 261 216 L 326.79 192.5" fill="none" stroke="#000000" stroke-width="2" stroke-miterlimit="10" stroke-dasharray="6 6" pointer-events="stroke"/><path d="M 319.61 201.44 L 328.89 191.75 L 315.58 190.14" fill="none" stroke="#000000" stroke-width="2" stroke-miterlimit="10" pointer-events="all"/><path d="M 261 171 L 326.7 189.77" fill="none" stroke="#000000" stroke-width="2" stroke-miterlimit="10" stroke-dasharray="6 6" pointer-events="stroke"/><path d="M 315.66 192.86 L 328.85 190.39 L 318.96 181.32" fill="none" stroke="#000000" stroke-width="2" stroke-miterlimit="10" pointer-events="all"/><path d="M 181 261 L 329.79 199.77" fill="none" stroke="#000000" stroke-width="2" stroke-miterlimit="10" stroke-dasharray="6 6" pointer-events="stroke"/><path d="M 323.05 209.04 L 331.86 198.92 L 318.48 197.94" fill="none" stroke="#000000" stroke-width="2" stroke-miterlimit="10" pointer-events="all"/><path d="M 101 331 L 330.04 200.29" fill="none" stroke="#000000" stroke-width="2" stroke-miterlimit="10" stroke-dasharray="6 6" pointer-events="stroke"/><path d="M 324.54 210.34 L 331.99 199.18 L 318.59 199.92" fill="none" stroke="#000000" stroke-width="2" stroke-miterlimit="10" pointer-events="all"/><path d="M 180.34 124.57 L 329.76 182.32" fill="none" stroke="#000000" stroke-width="2" stroke-miterlimit="10" stroke-dasharray="6 6" pointer-events="stroke"/><path d="M 318.49 184.39 L 331.84 183.12 L 322.81 173.2" fill="none" stroke="#000000" stroke-width="2" stroke-miterlimit="10" pointer-events="all"/><path d="M 178.07 78.07 L 330.23 181.42" fill="none" stroke="#000000" stroke-width="2" stroke-miterlimit="10" stroke-dasharray="6 6" pointer-events="stroke"/><path d="M 318.78 180.89 L 332.08 182.67 L 325.52 170.97" fill="none" stroke="#000000" stroke-width="2" stroke-miterlimit="10" pointer-events="all"/><path d="M 178.07 18.07 L 330.87 180.67" fill="none" stroke="#000000" stroke-width="2" stroke-miterlimit="10" stroke-dasharray="6 6" pointer-events="stroke"/><path d="M 319.81 177.66 L 332.4 182.3 L 328.55 169.45" fill="none" stroke="#000000" stroke-width="2" stroke-miterlimit="10" pointer-events="all"/></g></svg>
