<?xml version="1.0" encoding="UTF-8"?>
<!DOCTYPE svg PUBLIC "-//W3C//DTD SVG 1.1//EN" "http://www.w3.org/Graphics/SVG/1.1/DTD/svg11.dtd">
<svg xmlns="http://www.w3.org/2000/svg" xmlns:xlink="http://www.w3.org/1999/xlink" version="1.1" width="1133px" height="1262px" viewBox="-0.5 -0.5 1133 1262" style="background-color: rgb(255, 255, 255);"><defs/><g><path d="M 748.07 1018.07 L 887.93 1084.79" fill="none" stroke="rgb(0, 0, 0)" stroke-width="2" stroke-miterlimit="10" pointer-events="stroke"/><path d="M 876.53 1086 L 889.95 1085.75 L 881.7 1075.17" fill="none" stroke="rgb(0, 0, 0)" stroke-width="2" stroke-miterlimit="10" pointer-events="all"/><ellipse cx="101" cy="611" rx="10" ry="10" fill="rgb(255, 255, 255)" stroke="rgb(0, 0, 0)" stroke-width="2" pointer-events="all"/><path d="M 748.07 43.93 L 849.58 19.13" fill="none" stroke="rgb(0, 0, 0)" stroke-width="2" stroke-miterlimit="10" pointer-events="stroke"/><path d="M 841.52 27.28 L 851.76 18.6 L 838.68 15.62" fill="none" stroke="rgb(0, 0, 0)" stroke-width="2" stroke-miterlimit="10" pointer-events="all"/><ellipse cx="901" cy="1091" rx="10" ry="10" fill="rgb(255, 255, 255)" stroke="rgb(0, 0, 0)" stroke-width="2" pointer-events="all"/><rect x="901" y="1051" width="50" height="30" fill="none" stroke="none" pointer-events="all"/><g fill="rgb(0, 0, 0)" font-family="Helvetica" font-size="16px"><text x="902.5" y="1072.5">R,5</text></g><path d="M 111 611 L 326.8 689.47" fill="none" stroke="rgb(0, 0, 0)" stroke-width="2" stroke-miterlimit="10" pointer-events="stroke"/><path d="M 315.57 691.77 L 328.9 690.24 L 319.67 680.5" fill="none" stroke="rgb(0, 0, 0)" stroke-width="2" stroke-miterlimit="10" pointer-events="all"/><ellipse cx="861" cy="11" rx="10" ry="10" fill="rgb(255, 255, 255)" stroke="rgb(0, 0, 0)" stroke-width="2" transform="rotate(90,861,11)" pointer-events="all"/><ellipse cx="741" cy="51" rx="10" ry="10" fill="rgb(255, 255, 255)" stroke="rgb(0, 0, 0)" stroke-width="2" pointer-events="all"/><path d="M 108.07 603.93 L 730.56 61.01" fill="none" stroke="rgb(0, 0, 0)" stroke-width="2" stroke-miterlimit="10" pointer-events="stroke"/><path d="M 727.14 71.95 L 732.24 59.54 L 719.26 62.91" fill="none" stroke="rgb(0, 0, 0)" stroke-width="2" stroke-miterlimit="10" pointer-events="all"/><rect x="716" y="11" width="35" height="30" fill="none" stroke="none" pointer-events="all"/><g fill="rgb(0, 0, 0)" font-family="Helvetica" font-size="16px"><text x="717.5" y="32.5">C,16</text></g><rect x="876" y="91" width="50" height="30" fill="none" stroke="none" pointer-events="all"/><g fill="rgb(0, 0, 0)" font-family="Helvetica" font-size="16px"><text x="877.5" y="112.5">E,17</text></g><rect x="821" y="1201" width="30" height="30" fill="none" stroke="none" pointer-events="all"/><g fill="rgb(0, 0, 0)" font-family="Helvetica" font-size="16px"><text x="822.5" y="1222.5">S,2</text></g><rect x="311" y="651" width="50" height="30" fill="none" stroke="none" pointer-events="all"/><g fill="rgb(0, 0, 0)" font-family="Helvetica" font-size="16px"><text x="312.5" y="672.5">F,3</text></g><rect x="1" y="571" width="30" height="30" fill="none" stroke="none" pointer-events="all"/><g fill="rgb(0, 0, 0)" font-family="Helvetica" font-size="16px"><text x="2.5" y="592.5">A,0</text></g><rect x="946" y="331" width="40" height="30" fill="none" stroke="none" pointer-events="all"/><g fill="rgb(0, 0, 0)" font-family="Helvetica" font-size="16px"><text x="947.5" y="352.5">J,15</text></g><rect x="691" y="761" width="40" height="30" fill="none" stroke="none" pointer-events="all"/><g fill="rgb(0, 0, 0)" font-family="Helvetica" font-size="16px"><text x="692.5" y="782.5">L,6</text></g><ellipse cx="861" cy="91" rx="10" ry="10" fill="rgb(255, 255, 255)" stroke="rgb(0, 0, 0)" stroke-width="2" pointer-events="all"/><path d="M 748.07 58.07 L 849.58 82.87" fill="none" stroke="rgb(0, 0, 0)" stroke-width="2" stroke-miterlimit="10" pointer-events="stroke"/><path d="M 838.68 86.38 L 851.76 83.4 L 841.52 74.72" fill="none" stroke="rgb(0, 0, 0)" stroke-width="2" stroke-miterlimit="10" pointer-events="all"/><ellipse cx="741" cy="1011" rx="10" ry="10" fill="rgb(255, 255, 255)" stroke="rgb(0, 0, 0)" stroke-width="2" transform="rotate(90,741,1011)" pointer-events="all"/><ellipse cx="701" cy="811" rx="10" ry="10" fill="rgb(255, 255, 255)" stroke="rgb(0, 0, 0)" stroke-width="2" transform="rotate(90,701,811)" pointer-events="all"/><path d="M 348.07 698.07 L 727.54 1008.17" fill="none" stroke="rgb(0, 0, 0)" stroke-width="2" stroke-miterlimit="10" pointer-events="stroke"/><path d="M 716.18 1006.64 L 729.27 1009.59 L 723.77 997.35" fill="none" stroke="rgb(0, 0, 0)" stroke-width="2" stroke-miterlimit="10" pointer-events="all"/><path d="M 748.07 1003.93 L 1010.26 820.63" fill="none" stroke="rgb(0, 0, 0)" stroke-width="2" stroke-miterlimit="10" pointer-events="stroke"/><path d="M 1005.7 831.15 L 1012.1 819.35 L 998.82 821.31" fill="none" stroke="rgb(0, 0, 0)" stroke-width="2" stroke-miterlimit="10" pointer-events="all"/><rect x="886" y="11" width="60" height="30" fill="none" stroke="none" pointer-events="all"/><g fill="rgb(0, 0, 0)" font-family="Helvetica" font-size="16px"><text x="887.5" y="32.5">D,18</text></g><rect x="81" y="571" width="60" height="30" fill="none" stroke="none" pointer-events="all"/><g fill="rgb(0, 0, 0)" font-family="Helvetica" font-size="16px"><text x="82.5" y="592.5">B,1</text></g><path d="M 1031 811 L 1086.53 811" fill="none" stroke="rgb(0, 0, 0)" stroke-width="2" stroke-miterlimit="10" pointer-events="stroke"/><path d="M 1076.76 817 L 1088.76 811 L 1076.76 805" fill="none" stroke="rgb(0, 0, 0)" stroke-width="2" stroke-miterlimit="10" pointer-events="all"/><path d="M 551 571 L 606.53 571" fill="none" stroke="rgb(0, 0, 0)" stroke-width="2" stroke-miterlimit="10" pointer-events="stroke"/><path d="M 596.76 577 L 608.76 571 L 596.76 565" fill="none" stroke="rgb(0, 0, 0)" stroke-width="2" stroke-miterlimit="10" pointer-events="all"/><ellipse cx="1101" cy="811" rx="10" ry="10" fill="rgb(255, 255, 255)" stroke="rgb(0, 0, 0)" stroke-width="2" transform="rotate(90,1101,811)" pointer-events="all"/><ellipse cx="541" cy="571" rx="10" ry="10" fill="rgb(255, 255, 255)" stroke="rgb(0, 0, 0)" stroke-width="2" transform="rotate(90,541,571)" pointer-events="all"/><path d="M 711 811 L 849.95 740.1" fill="none" stroke="rgb(0, 0, 0)" stroke-width="2" stroke-miterlimit="10" pointer-events="stroke"/><path d="M 843.98 749.89 L 851.94 739.09 L 838.52 739.2" fill="none" stroke="rgb(0, 0, 0)" stroke-width="2" stroke-miterlimit="10" pointer-events="all"/><ellipse cx="821" cy="1251" rx="10" ry="10" fill="rgb(255, 255, 255)" stroke="rgb(0, 0, 0)" stroke-width="2" transform="rotate(90,821,1251)" pointer-events="all"/><path d="M 351 691 L 689.68 802.53" fill="none" stroke="rgb(0, 0, 0)" stroke-width="2" stroke-miterlimit="10" pointer-events="stroke"/><path d="M 678.53 805.18 L 691.81 803.23 L 682.28 793.78" fill="none" stroke="rgb(0, 0, 0)" stroke-width="2" stroke-miterlimit="10" pointer-events="all"/><path d="M 348.07 683.93 L 527.19 573.35" fill="none" stroke="rgb(0, 0, 0)" stroke-width="2" stroke-miterlimit="10" pointer-events="stroke"/><path d="M 522.04 583.58 L 529.1 572.17 L 515.73 573.37" fill="none" stroke="rgb(0, 0, 0)" stroke-width="2" stroke-miterlimit="10" pointer-events="all"/><ellipse cx="341" cy="691" rx="10" ry="10" fill="rgb(255, 255, 255)" stroke="rgb(0, 0, 0)" stroke-width="2" transform="rotate(90,341,691)" pointer-events="all"/><ellipse cx="621" cy="571" rx="10" ry="10" fill="rgb(255, 255, 255)" stroke="rgb(0, 0, 0)" stroke-width="2" transform="rotate(90,621,571)" pointer-events="all"/><path d="M 108.07 618.07 L 810.58 1240.96" fill="none" stroke="rgb(0, 0, 0)" stroke-width="2" stroke-miterlimit="10" pointer-events="stroke"/><path d="M 799.3 1238.97 L 812.26 1242.45 L 807.26 1229.99" fill="none" stroke="rgb(0, 0, 0)" stroke-width="2" stroke-miterlimit="10" pointer-events="all"/><path d="M 31 611 L 86.53 611" fill="none" stroke="rgb(0, 0, 0)" stroke-width="2" stroke-miterlimit="10" pointer-events="stroke"/><path d="M 76.76 617 L 88.76 611 L 76.76 605" fill="none" stroke="rgb(0, 0, 0)" stroke-width="2" stroke-miterlimit="10" pointer-events="all"/><ellipse cx="21" cy="611" rx="10" ry="10" fill="rgb(255, 255, 255)" stroke="rgb(0, 0, 0)" stroke-width="2" transform="rotate(90,21,611)" pointer-events="all"/><rect x="591" y="531" width="50" height="30" fill="none" stroke="none" pointer-events="all"/><g fill="rgb(0, 0, 0)" font-family="Helvetica" font-size="16px"><text x="592.5" y="552.5">H,8</text></g><rect x="791" y="731" width="50" height="30" fill="none" stroke="none" pointer-events="all"/><g fill="rgb(0, 0, 0)" font-family="Helvetica" font-size="16px"><text x="792.5" y="752.5">M,9</text></g><rect x="731" y="971" width="50" height="30" fill="none" stroke="none" pointer-events="all"/><g fill="rgb(0, 0, 0)" font-family="Helvetica" font-size="16px"><text x="732.5" y="992.5">O,4</text></g><rect x="1081" y="771" width="50" height="30" fill="none" stroke="none" pointer-events="all"/><g fill="rgb(0, 0, 0)" font-family="Helvetica" font-size="16px"><text x="1082.5" y="792.5">Q,11</text></g><rect x="511" y="531" width="50" height="30" fill="none" stroke="none" pointer-events="all"/><g fill="rgb(0, 0, 0)" font-family="Helvetica" font-size="16px"><text x="512.5" y="552.5">G,7</text></g><path d="M 868.07 403.93 L 969.58 379.13" fill="none" stroke="rgb(0, 0, 0)" stroke-width="2" stroke-miterlimit="10" pointer-events="stroke"/><path d="M 961.52 387.28 L 971.76 378.6 L 958.68 375.62" fill="none" stroke="rgb(0, 0, 0)" stroke-width="2" stroke-miterlimit="10" pointer-events="all"/><ellipse cx="981" cy="371" rx="10" ry="10" fill="rgb(255, 255, 255)" stroke="rgb(0, 0, 0)" stroke-width="2" transform="rotate(90,981,371)" pointer-events="all"/><ellipse cx="861" cy="411" rx="10" ry="10" fill="rgb(255, 255, 255)" stroke="rgb(0, 0, 0)" stroke-width="2" pointer-events="all"/><path d="M 628.07 563.93 L 847.31 413.53" fill="none" stroke="rgb(0, 0, 0)" stroke-width="2" stroke-miterlimit="10" pointer-events="stroke"/><path d="M 842.65 424 L 849.16 412.26 L 835.87 414.11" fill="none" stroke="rgb(0, 0, 0)" stroke-width="2" stroke-miterlimit="10" pointer-events="all"/><rect x="836" y="371" width="35" height="30" fill="none" stroke="none" pointer-events="all"/><g fill="rgb(0, 0, 0)" font-family="Helvetica" font-size="16px"><text x="837.5" y="392.5">I,13</text></g><rect x="941" y="461" width="50" height="30" fill="none" stroke="none" pointer-events="all"/><g fill="rgb(0, 0, 0)" font-family="Helvetica" font-size="16px"><text x="942.5" y="482.5">K,14</text></g><ellipse cx="981" cy="451" rx="10" ry="10" fill="rgb(255, 255, 255)" stroke="rgb(0, 0, 0)" stroke-width="2" pointer-events="all"/><path d="M 868.07 418.07 L 969.58 442.87" fill="none" stroke="rgb(0, 0, 0)" stroke-width="2" stroke-miterlimit="10" pointer-events="stroke"/><path d="M 958.68 446.38 L 971.76 443.4 L 961.52 434.72" fill="none" stroke="rgb(0, 0, 0)" stroke-width="2" stroke-miterlimit="10" pointer-events="all"/><path d="M 868.07 723.93 L 1009.85 659.91" fill="none" stroke="rgb(0, 0, 0)" stroke-width="2" stroke-miterlimit="10" pointer-events="stroke"/><path d="M 1003.42 669.4 L 1011.89 658.99 L 998.49 658.46" fill="none" stroke="rgb(0, 0, 0)" stroke-width="2" stroke-miterlimit="10" pointer-events="all"/><ellipse cx="1021" cy="651" rx="10" ry="10" fill="rgb(255, 255, 255)" stroke="rgb(0, 0, 0)" stroke-width="2" transform="rotate(90,1021,651)" pointer-events="all"/><ellipse cx="861" cy="731" rx="10" ry="10" fill="rgb(255, 255, 255)" stroke="rgb(0, 0, 0)" stroke-width="2" pointer-events="all"/><path d="M 628.07 578.07 L 847.31 728.47" fill="none" stroke="rgb(0, 0, 0)" stroke-width="2" stroke-miterlimit="10" pointer-events="stroke"/><path d="M 835.87 727.89 L 849.16 729.74 L 842.65 718" fill="none" stroke="rgb(0, 0, 0)" stroke-width="2" stroke-miterlimit="10" pointer-events="all"/><rect x="976" y="611" width="35" height="30" fill="none" stroke="none" pointer-events="all"/><g fill="rgb(0, 0, 0)" font-family="Helvetica" font-size="16px"><text x="977.5" y="632.5">N,12</text></g><rect x="1001" y="831" width="50" height="30" fill="none" stroke="none" pointer-events="all"/><g fill="rgb(0, 0, 0)" font-family="Helvetica" font-size="16px"><text x="1002.5" y="852.5">P,10</text></g><ellipse cx="1021" cy="811" rx="10" ry="10" fill="rgb(255, 255, 255)" stroke="rgb(0, 0, 0)" stroke-width="2" pointer-events="all"/><path d="M 868.07 738.07 L 1009.85 802.09" fill="none" stroke="rgb(0, 0, 0)" stroke-width="2" stroke-miterlimit="10" pointer-events="stroke"/><path d="M 998.49 803.54 L 1011.89 803.01 L 1003.42 792.6" fill="none" stroke="rgb(0, 0, 0)" stroke-width="2" stroke-miterlimit="10" pointer-events="all"/></g></svg>
