<?xml version="1.0" encoding="UTF-8"?>
<!DOCTYPE svg PUBLIC "-//W3C//DTD SVG 1.1//EN" "http://www.w3.org/Graphics/SVG/1.1/DTD/svg11.dtd">
<svg xmlns="http://www.w3.org/2000/svg" xmlns:xlink="http://www.w3.org/1999/xlink" version="1.1" width="328px" height="312px" viewBox="-0.5 -0.5 328 312" style="background-color: rgb(255, 255, 255);"><defs/><g><rect x="1" y="229.72" width="20" height="28.18" fill="none" stroke="none" pointer-events="all"/><g fill="rgb(0, 0, 0)" font-family="Helvetica" text-anchor="middle" font-size="16px"><text x="10.5" y="251.22">10</text></g><rect x="6" y="29.18" width="20" height="28.18" fill="none" stroke="none" pointer-events="all"/><g fill="rgb(0, 0, 0)" font-family="Helvetica" text-anchor="middle" font-size="16px"><text x="15.5" y="50.68">0</text></g><rect x="31.5" y="1" width="20" height="28.18" fill="none" stroke="none" pointer-events="all"/><g fill="rgb(0, 0, 0)" font-family="Helvetica" text-anchor="middle" font-size="16px"><text x="41" y="22.5">0</text></g><rect x="243.5" y="1" width="20" height="28.18" fill="none" stroke="none" pointer-events="all"/><g fill="rgb(0, 0, 0)" font-family="Helvetica" text-anchor="middle" font-size="16px"><text x="253" y="22.5">10</text></g><ellipse cx="41.04" cy="284.2" rx="7.044797687861272" ry="7.044797687861272" fill="rgb(255, 255, 255)" stroke="rgb(0, 0, 0)" stroke-width="2" transform="rotate(-405,41.04,284.2)" pointer-events="all"/><path d="M 89 69.57 L 124.8 193.02" fill="none" stroke="rgb(0, 0, 0)" stroke-width="2" stroke-miterlimit="10" pointer-events="stroke"/><path d="M 119.35 188.6 L 125.42 195.17 L 127.04 186.37" fill="none" stroke="rgb(0, 0, 0)" stroke-width="2" stroke-miterlimit="10" pointer-events="all"/><ellipse cx="190.04" cy="104.79" rx="7.044797687861272" ry="7.044797687861272" fill="rgb(255, 255, 255)" stroke="rgb(0, 0, 0)" stroke-width="2" transform="rotate(-405,190.04,104.79)" pointer-events="all"/><ellipse cx="105.04" cy="264.48" rx="7.044797687861272" ry="7.044797687861272" fill="rgb(255, 255, 255)" stroke="rgb(0, 0, 0)" stroke-width="2" transform="rotate(-405,105.04,264.48)" pointer-events="all"/><path d="M 42 295.34 L 42 25.42" fill="none" stroke="rgb(0, 0, 0)" stroke-miterlimit="10" pointer-events="stroke"/><path d="M 42 302.34 L 39.67 295.34 L 44.33 295.34 Z" fill="rgb(0, 0, 0)" stroke="rgb(0, 0, 0)" stroke-miterlimit="10" pointer-events="all"/><path d="M 21 283.73 L 317 283.73" fill="none" stroke="rgb(0, 0, 0)" stroke-miterlimit="10" stroke-dasharray="3 3" pointer-events="stroke"/><path d="M 126.1 197.32 L 127 25.42" fill="none" stroke="rgb(0, 0, 0)" stroke-miterlimit="10" stroke-dasharray="3 3" pointer-events="stroke"/><path d="M 169 303.46 L 169 25.42" fill="none" stroke="rgb(0, 0, 0)" stroke-miterlimit="10" stroke-dasharray="3 3" pointer-events="stroke"/><path d="M 211.04 177.59 L 211 25.42" fill="none" stroke="rgb(0, 0, 0)" stroke-miterlimit="10" stroke-dasharray="3 3" pointer-events="stroke"/><path d="M 253.13 78.02 L 254 25.42" fill="none" stroke="rgb(0, 0, 0)" stroke-miterlimit="10" stroke-dasharray="3 3" pointer-events="stroke"/><path d="M 239.09 243.87 L 317 244.28" fill="none" stroke="rgb(0, 0, 0)" stroke-miterlimit="10" stroke-dasharray="3 3" pointer-events="stroke"/><path d="M 21 203.89 L 317 203.89" fill="none" stroke="rgb(0, 0, 0)" stroke-miterlimit="10" stroke-dasharray="3 3" pointer-events="stroke"/><path d="M 21 164.44 L 317 164.44" fill="none" stroke="rgb(0, 0, 0)" stroke-miterlimit="10" stroke-dasharray="3 3" pointer-events="stroke"/><path d="M 154.09 124.55 L 317 124.99" fill="none" stroke="rgb(0, 0, 0)" stroke-miterlimit="10" stroke-dasharray="3 3" pointer-events="stroke"/><path d="M 21 84.6 L 317 84.6" fill="none" stroke="rgb(0, 0, 0)" stroke-miterlimit="10" stroke-dasharray="3 3" pointer-events="stroke"/><path d="M 21 45.15 L 306.88 45.15" fill="none" stroke="rgb(0, 0, 0)" stroke-miterlimit="10" pointer-events="stroke"/><path d="M 315.88 45.15 L 306.88 48.15 L 306.88 42.15 Z" fill="rgb(0, 0, 0)" stroke="rgb(0, 0, 0)" stroke-miterlimit="10" pointer-events="all"/><ellipse cx="62.04" cy="144.24" rx="7.044797687861272" ry="7.044797687861272" fill="rgb(255, 255, 255)" stroke="rgb(0, 0, 0)" stroke-width="2" transform="rotate(-405,62.04,144.24)" pointer-events="all"/><path d="M 62.04 151.29 L 98.58 255.27" fill="none" stroke="rgb(0, 0, 0)" stroke-width="2" stroke-miterlimit="10" pointer-events="stroke"/><path d="M 92.9 251.16 L 99.32 257.38 L 100.44 248.51" fill="none" stroke="rgb(0, 0, 0)" stroke-width="2" stroke-miterlimit="10" pointer-events="all"/><ellipse cx="84.04" cy="64.4" rx="7.044797687861272" ry="7.044797687861272" fill="rgb(255, 255, 255)" stroke="rgb(0, 0, 0)" stroke-width="2" transform="rotate(-405,84.04,64.4)" pointer-events="all"/><path d="M 84 303.46 L 84 25.42" fill="none" stroke="rgb(0, 0, 0)" stroke-miterlimit="10" stroke-dasharray="3 3" pointer-events="stroke"/><path d="M 296 303.46 L 296 25.42" fill="none" stroke="rgb(0, 0, 0)" stroke-miterlimit="10" stroke-dasharray="3 3" pointer-events="stroke"/><ellipse cx="126.04" cy="204.36" rx="7.044797687861272" ry="7.044797687861272" fill="rgb(255, 255, 255)" stroke="rgb(0, 0, 0)" stroke-width="2" transform="rotate(-405,126.04,204.36)" pointer-events="all"/><path d="M 67.03 149.23 L 117.79 196.34" fill="none" stroke="rgb(0, 0, 0)" stroke-width="2" stroke-miterlimit="10" pointer-events="stroke"/><path d="M 110.84 195.35 L 119.42 197.86 L 116.28 189.48" fill="none" stroke="rgb(0, 0, 0)" stroke-width="2" stroke-miterlimit="10" pointer-events="all"/><path d="M 127 303.46 L 126.1 211.4" fill="none" stroke="rgb(0, 0, 0)" stroke-miterlimit="10" stroke-dasharray="3 3" pointer-events="stroke"/><ellipse cx="147.04" cy="124.52" rx="7.044797687861272" ry="7.044797687861272" fill="rgb(255, 255, 255)" stroke="rgb(0, 0, 0)" stroke-width="2" transform="rotate(-405,147.04,124.52)" pointer-events="all"/><path d="M 89.03 69.38 L 138.81 116.46" fill="none" stroke="rgb(0, 0, 0)" stroke-width="2" stroke-miterlimit="10" pointer-events="stroke"/><path d="M 131.88 115.41 L 140.44 118 L 137.37 109.6" fill="none" stroke="rgb(0, 0, 0)" stroke-width="2" stroke-miterlimit="10" pointer-events="all"/><path d="M 21 124.99 L 140 124.56" fill="none" stroke="rgb(0, 0, 0)" stroke-miterlimit="10" stroke-dasharray="3 3" pointer-events="stroke"/><ellipse cx="169.04" cy="164.91" rx="7.044797687861272" ry="7.044797687861272" fill="rgb(255, 255, 255)" stroke="rgb(0, 0, 0)" stroke-width="2" transform="rotate(-315,169.04,164.91)" pointer-events="all"/><path d="M 131.03 209.34 L 222.79 237.52" fill="none" stroke="rgb(0, 0, 0)" stroke-width="2" stroke-miterlimit="10" pointer-events="stroke"/><path d="M 216.1 239.65 L 224.93 238.17 L 218.45 232" fill="none" stroke="rgb(0, 0, 0)" stroke-width="2" stroke-miterlimit="10" pointer-events="all"/><ellipse cx="211.04" cy="184.63" rx="7.044797687861272" ry="7.044797687861272" fill="rgb(255, 255, 255)" stroke="rgb(0, 0, 0)" stroke-width="2" transform="rotate(-405,211.04,184.63)" pointer-events="all"/><path d="M 152.03 129.5 L 162.42 155.77" fill="none" stroke="rgb(0, 0, 0)" stroke-width="2" stroke-miterlimit="10" pointer-events="stroke"/><path d="M 156.58 151.88 L 163.24 157.85 L 164.02 148.94" fill="none" stroke="rgb(0, 0, 0)" stroke-width="2" stroke-miterlimit="10" pointer-events="all"/><path d="M 211 303.46 L 211 191.68" fill="none" stroke="rgb(0, 0, 0)" stroke-miterlimit="10" stroke-dasharray="3 3" pointer-events="stroke"/><ellipse cx="253.04" cy="85.07" rx="7.044797687861272" ry="7.044797687861272" fill="rgb(255, 255, 255)" stroke="rgb(0, 0, 0)" stroke-width="2" transform="rotate(-405,253.04,85.07)" pointer-events="all"/><path d="M 254 303.46 L 253.09 92.11" fill="none" stroke="rgb(0, 0, 0)" stroke-miterlimit="10" stroke-dasharray="3 3" pointer-events="stroke"/><ellipse cx="275.04" cy="224.09" rx="7.044797687861272" ry="7.044797687861272" fill="rgb(255, 255, 255)" stroke="rgb(0, 0, 0)" stroke-width="2" transform="rotate(-405,275.04,224.09)" pointer-events="all"/><path d="M 89.03 69.38 L 178.82 103.22" fill="none" stroke="rgb(0, 0, 0)" stroke-width="2" stroke-miterlimit="10" pointer-events="stroke"/><path d="M 172.01 104.93 L 180.91 104 L 174.83 97.44" fill="none" stroke="rgb(0, 0, 0)" stroke-width="2" stroke-miterlimit="10" pointer-events="all"/><path d="M 216.03 189.62 L 266.14 216.96" fill="none" stroke="rgb(0, 0, 0)" stroke-width="2" stroke-miterlimit="10" pointer-events="stroke"/><path d="M 259.16 217.71 L 268.1 218.03 L 262.99 210.69" fill="none" stroke="rgb(0, 0, 0)" stroke-width="2" stroke-miterlimit="10" pointer-events="all"/><path d="M 190.04 111.84 L 209.68 173.33" fill="none" stroke="rgb(0, 0, 0)" stroke-width="2" stroke-miterlimit="10" pointer-events="stroke"/><path d="M 204.12 169.06 L 210.36 175.46 L 211.74 166.62" fill="none" stroke="rgb(0, 0, 0)" stroke-width="2" stroke-miterlimit="10" pointer-events="all"/><path d="M 174.03 169.89 L 199.99 182.66" fill="none" stroke="rgb(0, 0, 0)" stroke-width="2" stroke-miterlimit="10" pointer-events="stroke"/><path d="M 193.05 183.71 L 201.99 183.65 L 196.58 176.53" fill="none" stroke="rgb(0, 0, 0)" stroke-width="2" stroke-miterlimit="10" pointer-events="all"/><path d="M 84.04 71.45 L 104.54 252.99" fill="none" stroke="rgb(0, 0, 0)" stroke-width="2" stroke-miterlimit="10" pointer-events="stroke"/><path d="M 99.92 247.71 L 104.79 255.21 L 107.87 246.81" fill="none" stroke="rgb(0, 0, 0)" stroke-width="2" stroke-miterlimit="10" pointer-events="all"/><ellipse cx="296.04" cy="44.68" rx="7.044797687861272" ry="7.044797687861272" fill="rgb(255, 255, 255)" stroke="rgb(0, 0, 0)" stroke-width="2" transform="rotate(-405,296.04,44.68)" pointer-events="all"/><path d="M 91.09 64.4 L 243.61 79.64" fill="none" stroke="rgb(0, 0, 0)" stroke-width="2" stroke-miterlimit="10" pointer-events="stroke"/><path d="M 237.48 83.05 L 245.84 79.86 L 238.28 75.09" fill="none" stroke="rgb(0, 0, 0)" stroke-width="2" stroke-miterlimit="10" pointer-events="all"/><ellipse cx="232.04" cy="243.81" rx="7.044797687861272" ry="7.044797687861272" fill="rgb(255, 255, 255)" stroke="rgb(0, 0, 0)" stroke-width="2" transform="rotate(-405,232.04,243.81)" pointer-events="all"/><path d="M 21 244.28 L 225 243.83" fill="none" stroke="rgb(0, 0, 0)" stroke-miterlimit="10" stroke-dasharray="3 3" pointer-events="stroke"/><path d="M 133.09 204.36 L 263.58 223.44" fill="none" stroke="rgb(0, 0, 0)" stroke-width="2" stroke-miterlimit="10" pointer-events="stroke"/><path d="M 257.29 226.56 L 265.79 223.76 L 258.45 218.65" fill="none" stroke="rgb(0, 0, 0)" stroke-width="2" stroke-miterlimit="10" pointer-events="all"/><path d="M 69.09 144.24 L 157.63 163.94" fill="none" stroke="rgb(0, 0, 0)" stroke-width="2" stroke-miterlimit="10" pointer-events="stroke"/><path d="M 151.14 166.59 L 159.82 164.42 L 152.88 158.78" fill="none" stroke="rgb(0, 0, 0)" stroke-width="2" stroke-miterlimit="10" pointer-events="all"/><path d="M 211.04 191.68 L 230.16 232.71" fill="none" stroke="rgb(0, 0, 0)" stroke-width="2" stroke-miterlimit="10" pointer-events="stroke"/><path d="M 224.1 229.18 L 231.1 234.74 L 231.35 225.8" fill="none" stroke="rgb(0, 0, 0)" stroke-width="2" stroke-miterlimit="10" pointer-events="all"/><path d="M 253.04 92.11 L 274.27 212.64" fill="none" stroke="rgb(0, 0, 0)" stroke-width="2" stroke-miterlimit="10" pointer-events="stroke"/><path d="M 269.33 207.65 L 274.66 214.84 L 277.21 206.27" fill="none" stroke="rgb(0, 0, 0)" stroke-width="2" stroke-miterlimit="10" pointer-events="all"/></g></svg>
