<?xml version="1.0" encoding="UTF-8"?>
<!DOCTYPE svg PUBLIC "-//W3C//DTD SVG 1.1//EN" "http://www.w3.org/Graphics/SVG/1.1/DTD/svg11.dtd">
<svg xmlns="http://www.w3.org/2000/svg" xmlns:xlink="http://www.w3.org/1999/xlink" version="1.1" width="857px" height="275px" viewBox="-0.5 -0.5 857 275" style="background-color: rgb(255, 255, 255);"><defs/><g><ellipse cx="488" cy="144" rx="7.5" ry="7.5" fill="#ffffff" stroke="#000000" stroke-width="2" pointer-events="all"/><path d="M 683 16.5 L 615.52 134.81" fill="none" stroke="#000000" stroke-width="2" stroke-miterlimit="10" pointer-events="stroke"/><path d="M 614.96 126.71 L 614.41 136.75 L 622.78 131.17" fill="none" stroke="#000000" stroke-width="2" stroke-miterlimit="10" pointer-events="all"/><ellipse cx="728" cy="114" rx="7.5" ry="7.5" fill="#ffffff" stroke="#000000" stroke-width="2" pointer-events="all"/><ellipse cx="548" cy="174" rx="7.5" ry="7.5" fill="#ffffff" stroke="#000000" stroke-width="2" pointer-events="all"/><ellipse cx="608" cy="54" rx="7.5" ry="7.5" fill="#ffffff" stroke="#000000" stroke-width="2" pointer-events="all"/><path d="M 602.7 59.3 L 550.03 162.52" fill="none" stroke="#000000" stroke-width="2" stroke-miterlimit="10" pointer-events="stroke"/><path d="M 549.1 154.45 L 549.02 164.51 L 557.12 158.54" fill="none" stroke="#000000" stroke-width="2" stroke-miterlimit="10" pointer-events="all"/><ellipse cx="683" cy="9" rx="7.5" ry="7.5" fill="#ffffff" stroke="#000000" stroke-width="2" pointer-events="all"/><ellipse cx="608" cy="144" rx="7.5" ry="7.5" fill="#ffffff" stroke="#000000" stroke-width="2" pointer-events="all"/><path d="M 608 61.5 L 608 132.03" fill="none" stroke="#000000" stroke-width="2" stroke-miterlimit="10" pointer-events="stroke"/><path d="M 603.5 125.26 L 608 134.26 L 612.5 125.26" fill="none" stroke="#000000" stroke-width="2" stroke-miterlimit="10" pointer-events="all"/><ellipse cx="683" cy="99" rx="7.5" ry="7.5" fill="#ffffff" stroke="#000000" stroke-width="2" pointer-events="all"/><path d="M 683 16.5 L 683 87.03" fill="none" stroke="#000000" stroke-width="2" stroke-miterlimit="10" pointer-events="stroke"/><path d="M 678.5 80.26 L 683 89.26 L 687.5 80.26" fill="none" stroke="#000000" stroke-width="2" stroke-miterlimit="10" pointer-events="all"/><ellipse cx="668" cy="144" rx="7.5" ry="7.5" fill="#ffffff" stroke="#000000" stroke-width="2" transform="rotate(90,668,144)" pointer-events="all"/><path d="M 608 151.5 L 651 237.5" fill="none" stroke="#000000" stroke-width="2" stroke-miterlimit="10" pointer-events="stroke"/><path d="M 643.95 233.46 L 652 239.5 L 652 229.44" fill="none" stroke="#000000" stroke-width="2" stroke-miterlimit="10" pointer-events="all"/><ellipse cx="683" cy="189" rx="7.5" ry="7.5" fill="#ffffff" stroke="#000000" stroke-width="2" pointer-events="all"/><path d="M 683 106.5 L 670 132.5" fill="none" stroke="#000000" stroke-width="2" stroke-miterlimit="10" pointer-events="stroke"/><path d="M 669 124.44 L 669 134.5 L 677.05 128.46" fill="none" stroke="#000000" stroke-width="2" stroke-miterlimit="10" pointer-events="all"/><ellipse cx="788" cy="144" rx="7.5" ry="7.5" fill="#ffffff" stroke="#000000" stroke-width="2" pointer-events="all"/><ellipse cx="698" cy="264" rx="7.5" ry="7.5" fill="#ffffff" stroke="#000000" stroke-width="2" pointer-events="all"/><path d="M 683 16.5 L 720.93 104.59" fill="none" stroke="#000000" stroke-width="2" stroke-miterlimit="10" pointer-events="stroke"/><path d="M 714.12 100.16 L 721.81 106.64 L 722.39 96.6" fill="none" stroke="#000000" stroke-width="2" stroke-miterlimit="10" pointer-events="all"/><path d="M 683 196.5 L 696.92 252.16" fill="none" stroke="#000000" stroke-width="2" stroke-miterlimit="10" pointer-events="stroke"/><path d="M 690.91 246.69 L 697.46 254.33 L 699.64 244.51" fill="none" stroke="#000000" stroke-width="2" stroke-miterlimit="10" pointer-events="all"/><path d="M 722.7 119.3 L 690.41 179.75" fill="none" stroke="#000000" stroke-width="2" stroke-miterlimit="10" pointer-events="stroke"/><path d="M 689.63 171.67 L 689.36 181.72 L 697.57 175.91" fill="none" stroke="#000000" stroke-width="2" stroke-miterlimit="10" pointer-events="all"/><path d="M 668 151.5 L 676.41 179.41" fill="none" stroke="#000000" stroke-width="2" stroke-miterlimit="10" pointer-events="stroke"/><path d="M 670.15 174.24 L 677.05 181.56 L 678.77 171.64" fill="none" stroke="#000000" stroke-width="2" stroke-miterlimit="10" pointer-events="all"/><path d="M 677.7 14.3 L 556.11 165.21" fill="none" stroke="#000000" stroke-width="2" stroke-miterlimit="10" pointer-events="stroke"/><path d="M 556.85 157.12 L 554.71 166.96 L 563.86 162.77" fill="none" stroke="#000000" stroke-width="2" stroke-miterlimit="10" pointer-events="all"/><ellipse cx="848" cy="144" rx="7.5" ry="7.5" fill="#ffffff" stroke="#000000" stroke-width="2" pointer-events="all"/><path d="M 688.3 14.3 L 785.17 133.03" fill="none" stroke="#000000" stroke-width="2" stroke-miterlimit="10" pointer-events="stroke"/><path d="M 777.41 130.64 L 786.59 134.77 L 784.38 124.95" fill="none" stroke="#000000" stroke-width="2" stroke-miterlimit="10" pointer-events="all"/><ellipse cx="653" cy="249" rx="7.5" ry="7.5" fill="#ffffff" stroke="#000000" stroke-width="2" pointer-events="all"/><path d="M 613.3 149.3 L 690.07 255.08" fill="none" stroke="#000000" stroke-width="2" stroke-miterlimit="10" pointer-events="stroke"/><path d="M 682.46 252.25 L 691.38 256.89 L 689.74 246.96" fill="none" stroke="#000000" stroke-width="2" stroke-miterlimit="10" pointer-events="all"/><path d="M 613.3 59.3 L 660.33 134.9" fill="none" stroke="#000000" stroke-width="2" stroke-miterlimit="10" pointer-events="stroke"/><path d="M 652.94 131.53 L 661.52 136.8 L 660.58 126.78" fill="none" stroke="#000000" stroke-width="2" stroke-miterlimit="10" pointer-events="all"/><path d="M 677.7 194.3 L 659.94 239.53" fill="none" stroke="#000000" stroke-width="2" stroke-miterlimit="10" pointer-events="stroke"/><path d="M 658.22 231.59 L 659.12 241.62 L 666.6 234.88" fill="none" stroke="#000000" stroke-width="2" stroke-miterlimit="10" pointer-events="all"/><path d="M 782.7 149.3 L 705.93 255.08" fill="none" stroke="#000000" stroke-width="2" stroke-miterlimit="10" pointer-events="stroke"/><path d="M 706.26 246.96 L 704.62 256.89 L 713.54 252.25" fill="none" stroke="#000000" stroke-width="2" stroke-miterlimit="10" pointer-events="all"/><ellipse cx="8" cy="144" rx="7.5" ry="7.5" fill="#ffffff" stroke="#000000" stroke-width="2" pointer-events="all"/><ellipse cx="248" cy="114" rx="7.5" ry="7.5" fill="#ffffff" stroke="#000000" stroke-width="2" pointer-events="all"/><ellipse cx="68" cy="174" rx="7.5" ry="7.5" fill="#ffffff" stroke="#000000" stroke-width="2" pointer-events="all"/><path d="M 15.5 144 L 58.73 166.62" fill="none" stroke="#000000" stroke-width="2" stroke-miterlimit="10" pointer-events="stroke"/><path d="M 50.65 167.47 L 60.72 167.66 L 54.83 159.5" fill="none" stroke="#000000" stroke-width="2" stroke-miterlimit="10" pointer-events="all"/><ellipse cx="128" cy="54" rx="7.5" ry="7.5" fill="#ffffff" stroke="#000000" stroke-width="2" pointer-events="all"/><path d="M 13.3 138.7 L 118.35 61.09" fill="none" stroke="#000000" stroke-width="2" stroke-miterlimit="10" pointer-events="stroke"/><path d="M 115.59 68.73 L 120.15 59.76 L 110.24 61.49" fill="none" stroke="#000000" stroke-width="2" stroke-miterlimit="10" pointer-events="all"/><ellipse cx="203" cy="9" rx="7.5" ry="7.5" fill="#ffffff" stroke="#000000" stroke-width="2" pointer-events="all"/><path d="M 135.5 54 L 191.92 11.68" fill="none" stroke="#000000" stroke-width="2" stroke-miterlimit="10" pointer-events="stroke"/><path d="M 189.21 19.34 L 193.71 10.34 L 183.81 12.14" fill="none" stroke="#000000" stroke-width="2" stroke-miterlimit="10" pointer-events="all"/><ellipse cx="128" cy="144" rx="7.5" ry="7.5" fill="#ffffff" stroke="#000000" stroke-width="2" pointer-events="all"/><path d="M 73.3 168.7 L 116.54 146.07" fill="none" stroke="#000000" stroke-width="2" stroke-miterlimit="10" pointer-events="stroke"/><path d="M 112.63 153.2 L 118.52 145.04 L 108.46 145.22" fill="none" stroke="#000000" stroke-width="2" stroke-miterlimit="10" pointer-events="all"/><ellipse cx="203" cy="99" rx="7.5" ry="7.5" fill="#ffffff" stroke="#000000" stroke-width="2" pointer-events="all"/><ellipse cx="188" cy="144" rx="7.5" ry="7.5" fill="#ffffff" stroke="#000000" stroke-width="2" transform="rotate(90,188,144)" pointer-events="all"/><path d="M 135.5 144 L 176.03 144" fill="none" stroke="#000000" stroke-width="2" stroke-miterlimit="10" pointer-events="stroke"/><path d="M 169.26 148.5 L 178.26 144 L 169.26 139.5" fill="none" stroke="#000000" stroke-width="2" stroke-miterlimit="10" pointer-events="all"/><ellipse cx="203" cy="189" rx="7.5" ry="7.5" fill="#ffffff" stroke="#000000" stroke-width="2" pointer-events="all"/><path d="M 133.3 138.7 L 193.75 106.41" fill="none" stroke="#000000" stroke-width="2" stroke-miterlimit="10" pointer-events="stroke"/><path d="M 189.91 113.57 L 195.72 105.36 L 185.67 105.63" fill="none" stroke="#000000" stroke-width="2" stroke-miterlimit="10" pointer-events="all"/><ellipse cx="308" cy="144" rx="7.5" ry="7.5" fill="#ffffff" stroke="#000000" stroke-width="2" pointer-events="all"/><ellipse cx="218" cy="264" rx="7.5" ry="7.5" fill="#ffffff" stroke="#000000" stroke-width="2" pointer-events="all"/><path d="M 195.5 144 L 238.73 121.38" fill="none" stroke="#000000" stroke-width="2" stroke-miterlimit="10" pointer-events="stroke"/><path d="M 234.83 128.5 L 240.72 120.34 L 230.65 120.53" fill="none" stroke="#000000" stroke-width="2" stroke-miterlimit="10" pointer-events="all"/><path d="M 210.5 189 L 296.5 146" fill="none" stroke="#000000" stroke-width="2" stroke-miterlimit="10" pointer-events="stroke"/><path d="M 292.46 153.05 L 298.5 145 L 288.44 145" fill="none" stroke="#000000" stroke-width="2" stroke-miterlimit="10" pointer-events="all"/><path d="M 210.5 99 L 236.5 112" fill="none" stroke="#000000" stroke-width="2" stroke-miterlimit="10" pointer-events="stroke"/><path d="M 228.44 113 L 238.5 113 L 232.46 104.95" fill="none" stroke="#000000" stroke-width="2" stroke-miterlimit="10" pointer-events="all"/><path d="M 253.3 119.3 L 296.54 141.93" fill="none" stroke="#000000" stroke-width="2" stroke-miterlimit="10" pointer-events="stroke"/><path d="M 288.46 142.78 L 298.52 142.96 L 292.63 134.8" fill="none" stroke="#000000" stroke-width="2" stroke-miterlimit="10" pointer-events="all"/><path d="M 133.3 149.3 L 193.75 181.59" fill="none" stroke="#000000" stroke-width="2" stroke-miterlimit="10" pointer-events="stroke"/><path d="M 185.67 182.37 L 195.72 182.64 L 189.91 174.43" fill="none" stroke="#000000" stroke-width="2" stroke-miterlimit="10" pointer-events="all"/><path d="M 133.3 59.3 L 193.75 91.59" fill="none" stroke="#000000" stroke-width="2" stroke-miterlimit="10" pointer-events="stroke"/><path d="M 185.67 92.37 L 195.72 92.64 L 189.91 84.43" fill="none" stroke="#000000" stroke-width="2" stroke-miterlimit="10" pointer-events="all"/><ellipse cx="368" cy="144" rx="7.5" ry="7.5" fill="#ffffff" stroke="#000000" stroke-width="2" pointer-events="all"/><path d="M 208.3 14.3 L 358.72 136.44" fill="none" stroke="#000000" stroke-width="2" stroke-miterlimit="10" pointer-events="stroke"/><path d="M 350.63 135.67 L 360.45 137.85 L 356.3 128.69" fill="none" stroke="#000000" stroke-width="2" stroke-miterlimit="10" pointer-events="all"/><ellipse cx="173" cy="249" rx="7.5" ry="7.5" fill="#ffffff" stroke="#000000" stroke-width="2" pointer-events="all"/><path d="M 223.3 258.7 L 359.18 152.06" fill="none" stroke="#000000" stroke-width="2" stroke-miterlimit="10" pointer-events="stroke"/><path d="M 356.64 159.78 L 360.94 150.68 L 351.08 152.7" fill="none" stroke="#000000" stroke-width="2" stroke-miterlimit="10" pointer-events="all"/><path d="M 315.5 144 L 356.03 144" fill="none" stroke="#000000" stroke-width="2" stroke-miterlimit="10" pointer-events="stroke"/><path d="M 349.26 148.5 L 358.26 144 L 349.26 139.5" fill="none" stroke="#000000" stroke-width="2" stroke-miterlimit="10" pointer-events="all"/><path d="M 178.3 243.7 L 299.13 152.01" fill="none" stroke="#000000" stroke-width="2" stroke-miterlimit="10" pointer-events="stroke"/><path d="M 296.47 159.68 L 300.92 150.65 L 291.03 152.51" fill="none" stroke="#000000" stroke-width="2" stroke-miterlimit="10" pointer-events="all"/><path d="M 73.3 179.3 L 164 241.18" fill="none" stroke="#000000" stroke-width="2" stroke-miterlimit="10" pointer-events="stroke"/><path d="M 155.88 241.08 L 165.85 242.44 L 160.95 233.65" fill="none" stroke="#000000" stroke-width="2" stroke-miterlimit="10" pointer-events="all"/><path d="M 180.5 249 L 206.5 262" fill="none" stroke="#000000" stroke-width="2" stroke-miterlimit="10" pointer-events="stroke"/><path d="M 198.44 263 L 208.5 263 L 202.46 254.95" fill="none" stroke="#000000" stroke-width="2" stroke-miterlimit="10" pointer-events="all"/></g></svg>
