<?xml version='1.0' encoding='UTF-8' standalone='no'?>
<svg viewBox="0 0 240 240" xmlns:xlink="http://www.w3.org/1999/xlink" width="240pt" xmlns="http://www.w3.org/2000/svg" height="240pt">
 <title>Figure 1</title>
 <desc>
Creator: GL2PS 1.4.2, (C) 1999-2020 C. Geuzaine
For: Octave
CreationDate: Thu Dec  1 20:19:19 2022
</desc>
 <defs/>
 <polygon fill="#ffffff" points="0,0 240,0 240,240 0,240"/>
 <g>
  <polygon shape-rendering="crispEdges" fill="#ffffff" points="0,240 240,240 240,0 0,0"/>
  <clipPath id="cp00240240">
   <polygon points="0,240 240,240 240,0 0,0"/>
  </clipPath>
  <g clip-path="url(#cp00240240)">
   <polygon shape-rendering="crispEdges" fill="#ffffff" points="9.00021,232 231,232 231,10 9.00021,10"/>
   <polyline stroke-width="0.5" stroke-dasharray="16,0" stroke="#262626" stroke-linecap="square" fill="none" stroke-linejoin="miter" points="9.00021,232 231,232"/>
   <polyline stroke-width="0.5" stroke-dasharray="16,0" stroke="#262626" stroke-linecap="square" fill="none" stroke-linejoin="miter" points="9.00021,10 231,10"/>
   <polyline stroke-width="0.5" stroke-dasharray="16,0" stroke="#262626" stroke-linecap="square" fill="none" stroke-linejoin="miter" points="9.00021,232 9.00021,10"/>
   <polyline stroke-width="0.5" stroke-dasharray="16,0" stroke="#262626" stroke-linecap="square" fill="none" stroke-linejoin="miter" points="231,232 231,10"/>
   <polygon shape-rendering="crispEdges" fill="#00007f" points="14.4915,223.063 13.2415,223.971 11.6964,223.971 10.4464,223.063 9.96896,221.593 10.4464,220.124 11.6964,219.216 13.2415,219.216 14.4915,220.124 14.969,221.593"/>
   <polyline stroke-width="0.5" stroke="#000000" stroke-linecap="round" fill="none" stroke-linejoin="round" points="14.969,221.593 14.4915,223.063 13.2415,223.971 11.6964,223.971 10.4464,223.063 9.96896,221.593 10.4464,220.124 11.6964,219.216 13.2415,219.216 14.4915,220.124 14.969,221.593"/>
   <polygon shape-rendering="crispEdges" fill="#00007f" points="21.429,230 20.179,230.908 18.6339,230.908 17.3839,230 16.9065,228.531 17.3839,227.061 18.6339,226.153 20.179,226.153 21.429,227.061 21.9064,228.531"/>
   <polyline stroke-width="0.5" stroke="#000000" stroke-linecap="round" fill="none" stroke-linejoin="round" points="21.9064,228.531 21.429,230 20.179,230.908 18.6339,230.908 17.3839,230 16.9065,228.531 17.3839,227.061 18.6339,226.153 20.179,226.153 21.429,227.061 21.9064,228.531"/>
   <polygon shape-rendering="crispEdges" fill="#00007f" points="28.3665,188.375 27.1165,189.284 25.5714,189.284 24.3214,188.375 23.8439,186.906 24.3214,185.436 25.5714,184.528 27.1165,184.528 28.3665,185.436 28.8439,186.906"/>
   <polyline stroke-width="0.5" stroke="#000000" stroke-linecap="round" fill="none" stroke-linejoin="round" points="28.8439,186.906 28.3665,188.375 27.1165,189.284 25.5714,189.284 24.3214,188.375 23.8439,186.906 24.3214,185.436 25.5714,184.528 27.1165,184.528 28.3665,185.436 28.8439,186.906"/>
   <polygon shape-rendering="crispEdges" fill="#00007f" points="35.304,209.188 34.054,210.096 32.5089,210.096 31.2589,209.188 30.7814,207.718 31.2589,206.249 32.5089,205.341 34.054,205.341 35.304,206.249 35.7814,207.718"/>
   <polyline stroke-width="0.5" stroke="#000000" stroke-linecap="round" fill="none" stroke-linejoin="round" points="35.7814,207.718 35.304,209.188 34.054,210.096 32.5089,210.096 31.2589,209.188 30.7814,207.718 31.2589,206.249 32.5089,205.341 34.054,205.341 35.304,206.249 35.7814,207.718"/>
   <polygon shape-rendering="crispEdges" fill="#00007f" points="42.2414,202.25 40.9914,203.159 39.4464,203.159 38.1964,202.25 37.7189,200.781 38.1964,199.311 39.4464,198.403 40.9914,198.403 42.2414,199.311 42.7189,200.781"/>
   <polyline stroke-width="0.5" stroke="#000000" stroke-linecap="round" fill="none" stroke-linejoin="round" points="42.7189,200.781 42.2414,202.25 40.9914,203.159 39.4464,203.159 38.1964,202.25 37.7189,200.781 38.1964,199.311 39.4464,198.403 40.9914,198.403 42.2414,199.311 42.7189,200.781"/>
   <polygon shape-rendering="crispEdges" fill="#00007f" points="49.1789,181.438 47.9289,182.346 46.3839,182.346 45.1338,181.438 44.6564,179.968 45.1338,178.499 46.3839,177.591 47.9289,177.591 49.1789,178.499 49.6564,179.968"/>
   <polyline stroke-width="0.5" stroke="#000000" stroke-linecap="round" fill="none" stroke-linejoin="round" points="49.6564,179.968 49.1789,181.438 47.9289,182.346 46.3839,182.346 45.1338,181.438 44.6564,179.968 45.1338,178.499 46.3839,177.591 47.9289,177.591 49.1789,178.499 49.6564,179.968"/>
   <polygon shape-rendering="crispEdges" fill="#00007f" points="56.1164,195.313 54.8664,196.221 53.3213,196.221 52.0713,195.313 51.5939,193.843 52.0713,192.374 53.3213,191.466 54.8664,191.466 56.1164,192.374 56.5939,193.843"/>
   <polyline stroke-width="0.5" stroke="#000000" stroke-linecap="round" fill="none" stroke-linejoin="round" points="56.5939,193.843 56.1164,195.313 54.8664,196.221 53.3213,196.221 52.0713,195.313 51.5939,193.843 52.0713,192.374 53.3213,191.466 54.8664,191.466 56.1164,192.374 56.5939,193.843"/>
   <polygon shape-rendering="crispEdges" fill="#00007f" points="63.0539,216.125 61.8039,217.034 60.2588,217.034 59.0088,216.125 58.5314,214.656 59.0088,213.186 60.2588,212.278 61.8039,212.278 63.0539,213.186 63.5314,214.656"/>
   <polyline stroke-width="0.5" stroke="#000000" stroke-linecap="round" fill="none" stroke-linejoin="round" points="63.5314,214.656 63.0539,216.125 61.8039,217.034 60.2588,217.034 59.0088,216.125 58.5314,214.656 59.0088,213.186 60.2588,212.278 61.8039,212.278 63.0539,213.186 63.5314,214.656"/>
   <polygon shape-rendering="crispEdges" fill="#00007f" points="69.9914,174.5 68.7414,175.409 67.1963,175.409 65.9463,174.5 65.4688,173.031 65.9463,171.561 67.1963,170.653 68.7414,170.653 69.9914,171.561 70.4688,173.031"/>
   <polyline stroke-width="0.5" stroke="#000000" stroke-linecap="round" fill="none" stroke-linejoin="round" points="70.4688,173.031 69.9914,174.5 68.7414,175.409 67.1963,175.409 65.9463,174.5 65.4688,173.031 65.9463,171.561 67.1963,170.653 68.7414,170.653 69.9914,171.561 70.4688,173.031"/>
   <polygon shape-rendering="crispEdges" fill="#00007f" points="76.9289,146.75 75.6789,147.659 74.1338,147.659 72.8838,146.75 72.4063,145.281 72.8838,143.812 74.1338,142.903 75.6789,142.903 76.9289,143.812 77.4063,145.281"/>
   <polyline stroke-width="0.5" stroke="#000000" stroke-linecap="round" fill="none" stroke-linejoin="round" points="77.4063,145.281 76.9289,146.75 75.6789,147.659 74.1338,147.659 72.8838,146.75 72.4063,145.281 72.8838,143.812 74.1338,142.903 75.6789,142.903 76.9289,143.812 77.4063,145.281"/>
   <polygon shape-rendering="crispEdges" fill="#00007f" points="83.8664,132.875 82.6164,133.784 81.0713,133.784 79.8213,132.875 79.3438,131.406 79.8213,129.937 81.0713,129.028 82.6164,129.028 83.8664,129.937 84.3438,131.406"/>
   <polyline stroke-width="0.5" stroke="#000000" stroke-linecap="round" fill="none" stroke-linejoin="round" points="84.3438,131.406 83.8664,132.875 82.6164,133.784 81.0713,133.784 79.8213,132.875 79.3438,131.406 79.8213,129.937 81.0713,129.028 82.6164,129.028 83.8664,129.937 84.3438,131.406"/>
   <polygon shape-rendering="crispEdges" fill="#00007f" points="90.8039,167.563 89.5539,168.471 88.0088,168.471 86.7588,167.563 86.2813,166.093 86.7588,164.624 88.0088,163.716 89.5539,163.716 90.8039,164.624 91.2813,166.093"/>
   <polyline stroke-width="0.5" stroke="#000000" stroke-linecap="round" fill="none" stroke-linejoin="round" points="91.2813,166.093 90.8039,167.563 89.5539,168.471 88.0088,168.471 86.7588,167.563 86.2813,166.093 86.7588,164.624 88.0088,163.716 89.5539,163.716 90.8039,164.624 91.2813,166.093"/>
   <polygon shape-rendering="crispEdges" fill="#00007f" points="97.7413,139.813 96.4913,140.721 94.9463,140.721 93.6963,139.813 93.2188,138.344 93.6963,136.874 94.9463,135.966 96.4913,135.966 97.7413,136.874 98.2188,138.344"/>
   <polyline stroke-width="0.5" stroke="#000000" stroke-linecap="round" fill="none" stroke-linejoin="round" points="98.2188,138.344 97.7413,139.813 96.4913,140.721 94.9463,140.721 93.6963,139.813 93.2188,138.344 93.6963,136.874 94.9463,135.966 96.4913,135.966 97.7413,136.874 98.2188,138.344"/>
   <polygon shape-rendering="crispEdges" fill="#00007f" points="104.679,160.625 103.429,161.534 101.884,161.534 100.634,160.625 100.156,159.156 100.634,157.687 101.884,156.778 103.429,156.778 104.679,157.687 105.156,159.156"/>
   <polyline stroke-width="0.5" stroke="#000000" stroke-linecap="round" fill="none" stroke-linejoin="round" points="105.156,159.156 104.679,160.625 103.429,161.534 101.884,161.534 100.634,160.625 100.156,159.156 100.634,157.687 101.884,156.778 103.429,156.778 104.679,157.687 105.156,159.156"/>
   <polygon shape-rendering="crispEdges" fill="#00007f" points="111.616,125.938 110.366,126.846 108.821,126.846 107.571,125.938 107.094,124.469 107.571,122.999 108.821,122.091 110.366,122.091 111.616,122.999 112.094,124.469"/>
   <polyline stroke-width="0.5" stroke="#000000" stroke-linecap="round" fill="none" stroke-linejoin="round" points="112.094,124.469 111.616,125.938 110.366,126.846 108.821,126.846 107.571,125.938 107.094,124.469 107.571,122.999 108.821,122.091 110.366,122.091 111.616,122.999 112.094,124.469"/>
   <polygon shape-rendering="crispEdges" fill="#00007f" points="118.554,153.688 117.304,154.596 115.759,154.596 114.509,153.688 114.031,152.218 114.509,150.749 115.759,149.841 117.304,149.841 118.554,150.749 119.031,152.218"/>
   <polyline stroke-width="0.5" stroke="#000000" stroke-linecap="round" fill="none" stroke-linejoin="round" points="119.031,152.218 118.554,153.688 117.304,154.596 115.759,154.596 114.509,153.688 114.031,152.218 114.509,150.749 115.759,149.841 117.304,149.841 118.554,150.749 119.031,152.218"/>
   <polygon shape-rendering="crispEdges" fill="#00007f" points="125.491,98.188 124.241,99.0962 122.696,99.0962 121.446,98.188 120.969,96.7186 121.446,95.2491 122.696,94.3409 124.241,94.3409 125.491,95.2491 125.969,96.7186"/>
   <polyline stroke-width="0.5" stroke="#000000" stroke-linecap="round" fill="none" stroke-linejoin="round" points="125.969,96.7186 125.491,98.188 124.241,99.0962 122.696,99.0962 121.446,98.188 120.969,96.7186 121.446,95.2491 122.696,94.3409 124.241,94.3409 125.491,95.2491 125.969,96.7186"/>
   <polygon shape-rendering="crispEdges" fill="#00007f" points="132.429,112.063 131.179,112.971 129.634,112.971 128.384,112.063 127.906,110.594 128.384,109.124 129.634,108.216 131.179,108.216 132.429,109.124 132.906,110.594"/>
   <polyline stroke-width="0.5" stroke="#000000" stroke-linecap="round" fill="none" stroke-linejoin="round" points="132.906,110.594 132.429,112.063 131.179,112.971 129.634,112.971 128.384,112.063 127.906,110.594 128.384,109.124 129.634,108.216 131.179,108.216 132.429,109.124 132.906,110.594"/>
   <polygon shape-rendering="crispEdges" fill="#00007f" points="139.366,70.4381 138.116,71.3463 136.571,71.3463 135.321,70.4381 134.844,68.9686 135.321,67.4992 136.571,66.591 138.116,66.591 139.366,67.4992 139.844,68.9686"/>
   <polyline stroke-width="0.5" stroke="#000000" stroke-linecap="round" fill="none" stroke-linejoin="round" points="139.844,68.9686 139.366,70.4381 138.116,71.3463 136.571,71.3463 135.321,70.4381 134.844,68.9686 135.321,67.4992 136.571,66.591 138.116,66.591 139.366,67.4992 139.844,68.9686"/>
   <polygon shape-rendering="crispEdges" fill="#00007f" points="146.304,77.3756 145.054,78.2838 143.509,78.2838 142.259,77.3756 141.781,75.9061 142.259,74.4367 143.509,73.5285 145.054,73.5285 146.304,74.4367 146.781,75.9061"/>
   <polyline stroke-width="0.5" stroke="#000000" stroke-linecap="round" fill="none" stroke-linejoin="round" points="146.781,75.9061 146.304,77.3756 145.054,78.2838 143.509,78.2838 142.259,77.3756 141.781,75.9061 142.259,74.4367 143.509,73.5285 145.054,73.5285 146.304,74.4367 146.781,75.9061"/>
   <polygon shape-rendering="crispEdges" fill="#00007f" points="153.241,119.001 151.991,119.909 150.446,119.909 149.196,119.001 148.719,117.531 149.196,116.062 150.446,115.153 151.991,115.153 153.241,116.062 153.719,117.531"/>
   <polyline stroke-width="0.5" stroke="#000000" stroke-linecap="round" fill="none" stroke-linejoin="round" points="153.719,117.531 153.241,119.001 151.991,119.909 150.446,119.909 149.196,119.001 148.719,117.531 149.196,116.062 150.446,115.153 151.991,115.153 153.241,116.062 153.719,117.531"/>
   <polygon shape-rendering="crispEdges" fill="#00007f" points="160.179,105.126 158.929,106.034 157.384,106.034 156.134,105.126 155.656,103.656 156.134,102.187 157.384,101.278 158.929,101.278 160.179,102.187 160.656,103.656"/>
   <polyline stroke-width="0.5" stroke="#000000" stroke-linecap="round" fill="none" stroke-linejoin="round" points="160.656,103.656 160.179,105.126 158.929,106.034 157.384,106.034 156.134,105.126 155.656,103.656 156.134,102.187 157.384,101.278 158.929,101.278 160.179,102.187 160.656,103.656"/>
   <polygon shape-rendering="crispEdges" fill="#00007f" points="167.116,91.2506 165.866,92.1587 164.321,92.1587 163.071,91.2506 162.594,89.7811 163.071,88.3116 164.321,87.4035 165.866,87.4035 167.116,88.3116 167.594,89.7811"/>
   <polyline stroke-width="0.5" stroke="#000000" stroke-linecap="round" fill="none" stroke-linejoin="round" points="167.594,89.7811 167.116,91.2506 165.866,92.1587 164.321,92.1587 163.071,91.2506 162.594,89.7811 163.071,88.3116 164.321,87.4035 165.866,87.4035 167.116,88.3116 167.594,89.7811"/>
   <polygon shape-rendering="crispEdges" fill="#00007f" points="174.054,84.3131 172.804,85.2213 171.259,85.2213 170.009,84.3131 169.531,82.8436 170.009,81.3741 171.259,80.466 172.804,80.466 174.054,81.3741 174.531,82.8436"/>
   <polyline stroke-width="0.5" stroke="#000000" stroke-linecap="round" fill="none" stroke-linejoin="round" points="174.531,82.8436 174.054,84.3131 172.804,85.2213 171.259,85.2213 170.009,84.3131 169.531,82.8436 170.009,81.3741 171.259,80.466 172.804,80.466 174.054,81.3741 174.531,82.8436"/>
   <polygon shape-rendering="crispEdges" fill="#00007f" points="180.991,49.6256 179.741,50.5338 178.196,50.5338 176.946,49.6256 176.469,48.1562 176.946,46.6867 178.196,45.7785 179.741,45.7785 180.991,46.6867 181.469,48.1562"/>
   <polyline stroke-width="0.5" stroke="#000000" stroke-linecap="round" fill="none" stroke-linejoin="round" points="181.469,48.1562 180.991,49.6256 179.741,50.5338 178.196,50.5338 176.946,49.6256 176.469,48.1562 176.946,46.6867 178.196,45.7785 179.741,45.7785 180.991,46.6867 181.469,48.1562"/>
   <polygon shape-rendering="crispEdges" fill="#00007f" points="187.929,63.5006 186.679,64.4088 185.134,64.4088 183.884,63.5006 183.406,62.0312 183.884,60.5617 185.134,59.6535 186.679,59.6535 187.929,60.5617 188.406,62.0312"/>
   <polyline stroke-width="0.5" stroke="#000000" stroke-linecap="round" fill="none" stroke-linejoin="round" points="188.406,62.0312 187.929,63.5006 186.679,64.4088 185.134,64.4088 183.884,63.5006 183.406,62.0312 183.884,60.5617 185.134,59.6535 186.679,59.6535 187.929,60.5617 188.406,62.0312"/>
   <polygon shape-rendering="crispEdges" fill="#00007f" points="194.866,56.5631 193.616,57.4713 192.071,57.4713 190.821,56.5631 190.344,55.0937 190.821,53.6242 192.071,52.716 193.616,52.716 194.866,53.6242 195.344,55.0937"/>
   <polyline stroke-width="0.5" stroke="#000000" stroke-linecap="round" fill="none" stroke-linejoin="round" points="195.344,55.0937 194.866,56.5631 193.616,57.4713 192.071,57.4713 190.821,56.5631 190.344,55.0937 190.821,53.6242 192.071,52.716 193.616,52.716 194.866,53.6242 195.344,55.0937"/>
   <polygon shape-rendering="crispEdges" fill="#00007f" points="201.804,28.8132 200.554,29.7214 199.009,29.7214 197.759,28.8132 197.281,27.3437 197.759,25.8743 199.009,24.9661 200.554,24.9661 201.804,25.8743 202.281,27.3437"/>
   <polyline stroke-width="0.5" stroke="#000000" stroke-linecap="round" fill="none" stroke-linejoin="round" points="202.281,27.3437 201.804,28.8132 200.554,29.7214 199.009,29.7214 197.759,28.8132 197.281,27.3437 197.759,25.8743 199.009,24.9661 200.554,24.9661 201.804,25.8743 202.281,27.3437"/>
   <polygon shape-rendering="crispEdges" fill="#00007f" points="208.741,14.9382 207.491,15.8464 205.946,15.8464 204.696,14.9382 204.219,13.4688 204.696,11.9993 205.946,11.0911 207.491,11.0911 208.741,11.9993 209.219,13.4688"/>
   <polyline stroke-width="0.5" stroke="#000000" stroke-linecap="round" fill="none" stroke-linejoin="round" points="209.219,13.4688 208.741,14.9382 207.491,15.8464 205.946,15.8464 204.696,14.9382 204.219,13.4688 204.696,11.9993 205.946,11.0911 207.491,11.0911 208.741,11.9993 209.219,13.4688"/>
   <polygon shape-rendering="crispEdges" fill="#00007f" points="215.679,21.8757 214.429,22.7839 212.884,22.7839 211.634,21.8757 211.156,20.4062 211.634,18.9368 212.884,18.0286 214.429,18.0286 215.679,18.9368 216.156,20.4062"/>
   <polyline stroke-width="0.5" stroke="#000000" stroke-linecap="round" fill="none" stroke-linejoin="round" points="216.156,20.4062 215.679,21.8757 214.429,22.7839 212.884,22.7839 211.634,21.8757 211.156,20.4062 211.634,18.9368 212.884,18.0286 214.429,18.0286 215.679,18.9368 216.156,20.4062"/>
   <polygon shape-rendering="crispEdges" fill="#00007f" points="222.616,42.6882 221.366,43.5963 219.821,43.5963 218.571,42.6882 218.094,41.2187 218.571,39.7492 219.821,38.841 221.366,38.841 222.616,39.7492 223.094,41.2187"/>
   <polyline stroke-width="0.5" stroke="#000000" stroke-linecap="round" fill="none" stroke-linejoin="round" points="223.094,41.2187 222.616,42.6882 221.366,43.5963 219.821,43.5963 218.571,42.6882 218.094,41.2187 218.571,39.7492 219.821,38.841 221.366,38.841 222.616,39.7492 223.094,41.2187"/>
   <polygon shape-rendering="crispEdges" fill="#00007f" points="229.554,35.7507 228.304,36.6588 226.759,36.6588 225.509,35.7507 225.031,34.2812 225.509,32.8117 226.759,31.9036 228.304,31.9036 229.554,32.8117 230.031,34.2812"/>
   <polyline stroke-width="0.5" stroke="#000000" stroke-linecap="round" fill="none" stroke-linejoin="round" points="230.031,34.2812 229.554,35.7507 228.304,36.6588 226.759,36.6588 225.509,35.7507 225.031,34.2812 225.509,32.8117 226.759,31.9036 228.304,31.9036 229.554,32.8117 230.031,34.2812"/>
  </g>
 </g>
</svg>
