<?xml version='1.0' encoding='UTF-8' standalone='no'?>
<svg xmlns="http://www.w3.org/2000/svg" viewBox="0 0 240 240" xmlns:xlink="http://www.w3.org/1999/xlink" width="240pt" height="240pt">
 <title>Figure 1</title>
 <desc>
Creator: GL2PS 1.4.2, (C) 1999-2020 C. Geuzaine
For: Octave
CreationDate: Thu Dec  1 20:19:21 2022
</desc>
 <defs/>
 <polygon points="0,0 240,0 240,240 0,240" fill="#ffffff"/>
 <g>
  <polygon shape-rendering="crispEdges" points="0,240 240,240 240,0 0,0" fill="#ffffff"/>
  <clipPath id="cp00240240">
   <polygon points="0,240 240,240 240,0 0,0"/>
  </clipPath>
  <g clip-path="url(#cp00240240)">
   <polygon shape-rendering="crispEdges" points="9.00021,232 231,232 231,10 9.00021,10" fill="#ffffff"/>
   <polyline stroke-width="0.5" stroke="#262626" stroke-linejoin="miter" points="9.00021,232 231,232" fill="none" stroke-dasharray="16,0" stroke-linecap="square"/>
   <polyline stroke-width="0.5" stroke="#262626" stroke-linejoin="miter" points="9.00021,10 231,10" fill="none" stroke-dasharray="16,0" stroke-linecap="square"/>
   <polyline stroke-width="0.5" stroke="#262626" stroke-linejoin="miter" points="9.00021,232 9.00021,10" fill="none" stroke-dasharray="16,0" stroke-linecap="square"/>
   <polyline stroke-width="0.5" stroke="#262626" stroke-linejoin="miter" points="231,232 231,10" fill="none" stroke-dasharray="16,0" stroke-linecap="square"/>
   <polygon shape-rendering="crispEdges" points="14.4915,230 13.2415,230.908 11.6964,230.908 10.4464,230 9.96896,228.531 10.4464,227.061 11.6964,226.153 13.2415,226.153 14.4915,227.061 14.969,228.531" fill="#00007f"/>
   <polyline stroke-width="0.5" stroke="#000000" stroke-linejoin="round" points="14.969,228.531 14.4915,230 13.2415,230.908 11.6964,230.908 10.4464,230 9.96896,228.531 10.4464,227.061 11.6964,226.153 13.2415,226.153 14.4915,227.061 14.969,228.531" fill="none" stroke-linecap="round"/>
   <polygon shape-rendering="crispEdges" points="21.429,223.063 20.179,223.971 18.6339,223.971 17.3839,223.063 16.9065,221.593 17.3839,220.124 18.6339,219.216 20.179,219.216 21.429,220.124 21.9064,221.593" fill="#00007f"/>
   <polyline stroke-width="0.5" stroke="#000000" stroke-linejoin="round" points="21.9064,221.593 21.429,223.063 20.179,223.971 18.6339,223.971 17.3839,223.063 16.9065,221.593 17.3839,220.124 18.6339,219.216 20.179,219.216 21.429,220.124 21.9064,221.593" fill="none" stroke-linecap="round"/>
   <polygon shape-rendering="crispEdges" points="28.3665,216.125 27.1165,217.034 25.5714,217.034 24.3214,216.125 23.8439,214.656 24.3214,213.186 25.5714,212.278 27.1165,212.278 28.3665,213.186 28.8439,214.656" fill="#00007f"/>
   <polyline stroke-width="0.5" stroke="#000000" stroke-linejoin="round" points="28.8439,214.656 28.3665,216.125 27.1165,217.034 25.5714,217.034 24.3214,216.125 23.8439,214.656 24.3214,213.186 25.5714,212.278 27.1165,212.278 28.3665,213.186 28.8439,214.656" fill="none" stroke-linecap="round"/>
   <polygon shape-rendering="crispEdges" points="35.304,209.188 34.054,210.096 32.5089,210.096 31.2589,209.188 30.7814,207.718 31.2589,206.249 32.5089,205.341 34.054,205.341 35.304,206.249 35.7814,207.718" fill="#00007f"/>
   <polyline stroke-width="0.5" stroke="#000000" stroke-linejoin="round" points="35.7814,207.718 35.304,209.188 34.054,210.096 32.5089,210.096 31.2589,209.188 30.7814,207.718 31.2589,206.249 32.5089,205.341 34.054,205.341 35.304,206.249 35.7814,207.718" fill="none" stroke-linecap="round"/>
   <polygon shape-rendering="crispEdges" points="42.2414,202.25 40.9914,203.159 39.4464,203.159 38.1964,202.25 37.7189,200.781 38.1964,199.311 39.4464,198.403 40.9914,198.403 42.2414,199.311 42.7189,200.781" fill="#00007f"/>
   <polyline stroke-width="0.5" stroke="#000000" stroke-linejoin="round" points="42.7189,200.781 42.2414,202.25 40.9914,203.159 39.4464,203.159 38.1964,202.25 37.7189,200.781 38.1964,199.311 39.4464,198.403 40.9914,198.403 42.2414,199.311 42.7189,200.781" fill="none" stroke-linecap="round"/>
   <polygon shape-rendering="crispEdges" points="49.1789,195.313 47.9289,196.221 46.3839,196.221 45.1338,195.313 44.6564,193.843 45.1338,192.374 46.3839,191.466 47.9289,191.466 49.1789,192.374 49.6564,193.843" fill="#00007f"/>
   <polyline stroke-width="0.5" stroke="#000000" stroke-linejoin="round" points="49.6564,193.843 49.1789,195.313 47.9289,196.221 46.3839,196.221 45.1338,195.313 44.6564,193.843 45.1338,192.374 46.3839,191.466 47.9289,191.466 49.1789,192.374 49.6564,193.843" fill="none" stroke-linecap="round"/>
   <polygon shape-rendering="crispEdges" points="56.1164,188.375 54.8664,189.284 53.3213,189.284 52.0713,188.375 51.5939,186.906 52.0713,185.436 53.3213,184.528 54.8664,184.528 56.1164,185.436 56.5939,186.906" fill="#00007f"/>
   <polyline stroke-width="0.5" stroke="#000000" stroke-linejoin="round" points="56.5939,186.906 56.1164,188.375 54.8664,189.284 53.3213,189.284 52.0713,188.375 51.5939,186.906 52.0713,185.436 53.3213,184.528 54.8664,184.528 56.1164,185.436 56.5939,186.906" fill="none" stroke-linecap="round"/>
   <polygon shape-rendering="crispEdges" points="63.0539,181.438 61.8039,182.346 60.2588,182.346 59.0088,181.438 58.5314,179.968 59.0088,178.499 60.2588,177.591 61.8039,177.591 63.0539,178.499 63.5314,179.968" fill="#00007f"/>
   <polyline stroke-width="0.5" stroke="#000000" stroke-linejoin="round" points="63.5314,179.968 63.0539,181.438 61.8039,182.346 60.2588,182.346 59.0088,181.438 58.5314,179.968 59.0088,178.499 60.2588,177.591 61.8039,177.591 63.0539,178.499 63.5314,179.968" fill="none" stroke-linecap="round"/>
   <polygon shape-rendering="crispEdges" points="69.9914,167.563 68.7414,168.471 67.1963,168.471 65.9463,167.563 65.4688,166.093 65.9463,164.624 67.1963,163.716 68.7414,163.716 69.9914,164.624 70.4688,166.093" fill="#00007f"/>
   <polyline stroke-width="0.5" stroke="#000000" stroke-linejoin="round" points="70.4688,166.093 69.9914,167.563 68.7414,168.471 67.1963,168.471 65.9463,167.563 65.4688,166.093 65.9463,164.624 67.1963,163.716 68.7414,163.716 69.9914,164.624 70.4688,166.093" fill="none" stroke-linecap="round"/>
   <polygon shape-rendering="crispEdges" points="76.9289,153.688 75.6789,154.596 74.1338,154.596 72.8838,153.688 72.4063,152.218 72.8838,150.749 74.1338,149.841 75.6789,149.841 76.9289,150.749 77.4063,152.218" fill="#00007f"/>
   <polyline stroke-width="0.5" stroke="#000000" stroke-linejoin="round" points="77.4063,152.218 76.9289,153.688 75.6789,154.596 74.1338,154.596 72.8838,153.688 72.4063,152.218 72.8838,150.749 74.1338,149.841 75.6789,149.841 76.9289,150.749 77.4063,152.218" fill="none" stroke-linecap="round"/>
   <polygon shape-rendering="crispEdges" points="83.8664,146.75 82.6164,147.659 81.0713,147.659 79.8213,146.75 79.3438,145.281 79.8213,143.812 81.0713,142.903 82.6164,142.903 83.8664,143.812 84.3438,145.281" fill="#00007f"/>
   <polyline stroke-width="0.5" stroke="#000000" stroke-linejoin="round" points="84.3438,145.281 83.8664,146.75 82.6164,147.659 81.0713,147.659 79.8213,146.75 79.3438,145.281 79.8213,143.812 81.0713,142.903 82.6164,142.903 83.8664,143.812 84.3438,145.281" fill="none" stroke-linecap="round"/>
   <polygon shape-rendering="crispEdges" points="90.8039,112.063 89.5539,112.971 88.0088,112.971 86.7588,112.063 86.2813,110.594 86.7588,109.124 88.0088,108.216 89.5539,108.216 90.8039,109.124 91.2813,110.594" fill="#00007f"/>
   <polyline stroke-width="0.5" stroke="#000000" stroke-linejoin="round" points="91.2813,110.594 90.8039,112.063 89.5539,112.971 88.0088,112.971 86.7588,112.063 86.2813,110.594 86.7588,109.124 88.0088,108.216 89.5539,108.216 90.8039,109.124 91.2813,110.594" fill="none" stroke-linecap="round"/>
   <polygon shape-rendering="crispEdges" points="97.7413,105.126 96.4913,106.034 94.9463,106.034 93.6963,105.126 93.2188,103.656 93.6963,102.187 94.9463,101.278 96.4913,101.278 97.7413,102.187 98.2188,103.656" fill="#00007f"/>
   <polyline stroke-width="0.5" stroke="#000000" stroke-linejoin="round" points="98.2188,103.656 97.7413,105.126 96.4913,106.034 94.9463,106.034 93.6963,105.126 93.2188,103.656 93.6963,102.187 94.9463,101.278 96.4913,101.278 97.7413,102.187 98.2188,103.656" fill="none" stroke-linecap="round"/>
   <polygon shape-rendering="crispEdges" points="104.679,91.2506 103.429,92.1587 101.884,92.1587 100.634,91.2506 100.156,89.7811 100.634,88.3116 101.884,87.4035 103.429,87.4035 104.679,88.3116 105.156,89.7811" fill="#00007f"/>
   <polyline stroke-width="0.5" stroke="#000000" stroke-linejoin="round" points="105.156,89.7811 104.679,91.2506 103.429,92.1587 101.884,92.1587 100.634,91.2506 100.156,89.7811 100.634,88.3116 101.884,87.4035 103.429,87.4035 104.679,88.3116 105.156,89.7811" fill="none" stroke-linecap="round"/>
   <polygon shape-rendering="crispEdges" points="111.616,84.3131 110.366,85.2213 108.821,85.2213 107.571,84.3131 107.094,82.8436 107.571,81.3741 108.821,80.466 110.366,80.466 111.616,81.3741 112.094,82.8436" fill="#00007f"/>
   <polyline stroke-width="0.5" stroke="#000000" stroke-linejoin="round" points="112.094,82.8436 111.616,84.3131 110.366,85.2213 108.821,85.2213 107.571,84.3131 107.094,82.8436 107.571,81.3741 108.821,80.466 110.366,80.466 111.616,81.3741 112.094,82.8436" fill="none" stroke-linecap="round"/>
   <polygon shape-rendering="crispEdges" points="118.554,77.3756 117.304,78.2838 115.759,78.2838 114.509,77.3756 114.031,75.9061 114.509,74.4367 115.759,73.5285 117.304,73.5285 118.554,74.4367 119.031,75.9061" fill="#00007f"/>
   <polyline stroke-width="0.5" stroke="#000000" stroke-linejoin="round" points="119.031,75.9061 118.554,77.3756 117.304,78.2838 115.759,78.2838 114.509,77.3756 114.031,75.9061 114.509,74.4367 115.759,73.5285 117.304,73.5285 118.554,74.4367 119.031,75.9061" fill="none" stroke-linecap="round"/>
   <polygon shape-rendering="crispEdges" points="125.491,70.4381 124.241,71.3463 122.696,71.3463 121.446,70.4381 120.969,68.9686 121.446,67.4992 122.696,66.591 124.241,66.591 125.491,67.4992 125.969,68.9686" fill="#00007f"/>
   <polyline stroke-width="0.5" stroke="#000000" stroke-linejoin="round" points="125.969,68.9686 125.491,70.4381 124.241,71.3463 122.696,71.3463 121.446,70.4381 120.969,68.9686 121.446,67.4992 122.696,66.591 124.241,66.591 125.491,67.4992 125.969,68.9686" fill="none" stroke-linecap="round"/>
   <polygon shape-rendering="crispEdges" points="132.429,56.5631 131.179,57.4713 129.634,57.4713 128.384,56.5631 127.906,55.0937 128.384,53.6242 129.634,52.716 131.179,52.716 132.429,53.6242 132.906,55.0937" fill="#00007f"/>
   <polyline stroke-width="0.5" stroke="#000000" stroke-linejoin="round" points="132.906,55.0937 132.429,56.5631 131.179,57.4713 129.634,57.4713 128.384,56.5631 127.906,55.0937 128.384,53.6242 129.634,52.716 131.179,52.716 132.429,53.6242 132.906,55.0937" fill="none" stroke-linecap="round"/>
   <polygon shape-rendering="crispEdges" points="139.366,49.6256 138.116,50.5338 136.571,50.5338 135.321,49.6256 134.844,48.1562 135.321,46.6867 136.571,45.7785 138.116,45.7785 139.366,46.6867 139.844,48.1562" fill="#00007f"/>
   <polyline stroke-width="0.5" stroke="#000000" stroke-linejoin="round" points="139.844,48.1562 139.366,49.6256 138.116,50.5338 136.571,50.5338 135.321,49.6256 134.844,48.1562 135.321,46.6867 136.571,45.7785 138.116,45.7785 139.366,46.6867 139.844,48.1562" fill="none" stroke-linecap="round"/>
   <polygon shape-rendering="crispEdges" points="146.304,42.6882 145.054,43.5963 143.509,43.5963 142.259,42.6882 141.781,41.2187 142.259,39.7492 143.509,38.841 145.054,38.841 146.304,39.7492 146.781,41.2187" fill="#00007f"/>
   <polyline stroke-width="0.5" stroke="#000000" stroke-linejoin="round" points="146.781,41.2187 146.304,42.6882 145.054,43.5963 143.509,43.5963 142.259,42.6882 141.781,41.2187 142.259,39.7492 143.509,38.841 145.054,38.841 146.304,39.7492 146.781,41.2187" fill="none" stroke-linecap="round"/>
   <polygon shape-rendering="crispEdges" points="153.241,35.7507 151.991,36.6588 150.446,36.6588 149.196,35.7507 148.719,34.2812 149.196,32.8117 150.446,31.9036 151.991,31.9036 153.241,32.8117 153.719,34.2812" fill="#00007f"/>
   <polyline stroke-width="0.5" stroke="#000000" stroke-linejoin="round" points="153.719,34.2812 153.241,35.7507 151.991,36.6588 150.446,36.6588 149.196,35.7507 148.719,34.2812 149.196,32.8117 150.446,31.9036 151.991,31.9036 153.241,32.8117 153.719,34.2812" fill="none" stroke-linecap="round"/>
   <polygon shape-rendering="crispEdges" points="160.179,28.8132 158.929,29.7214 157.384,29.7214 156.134,28.8132 155.656,27.3437 156.134,25.8743 157.384,24.9661 158.929,24.9661 160.179,25.8743 160.656,27.3437" fill="#00007f"/>
   <polyline stroke-width="0.5" stroke="#000000" stroke-linejoin="round" points="160.656,27.3437 160.179,28.8132 158.929,29.7214 157.384,29.7214 156.134,28.8132 155.656,27.3437 156.134,25.8743 157.384,24.9661 158.929,24.9661 160.179,25.8743 160.656,27.3437" fill="none" stroke-linecap="round"/>
   <polygon shape-rendering="crispEdges" points="167.116,21.8757 165.866,22.7839 164.321,22.7839 163.071,21.8757 162.594,20.4062 163.071,18.9368 164.321,18.0286 165.866,18.0286 167.116,18.9368 167.594,20.4062" fill="#00007f"/>
   <polyline stroke-width="0.5" stroke="#000000" stroke-linejoin="round" points="167.594,20.4062 167.116,21.8757 165.866,22.7839 164.321,22.7839 163.071,21.8757 162.594,20.4062 163.071,18.9368 164.321,18.0286 165.866,18.0286 167.116,18.9368 167.594,20.4062" fill="none" stroke-linecap="round"/>
   <polygon shape-rendering="crispEdges" points="174.054,14.9382 172.804,15.8464 171.259,15.8464 170.009,14.9382 169.531,13.4688 170.009,11.9993 171.259,11.0911 172.804,11.0911 174.054,11.9993 174.531,13.4688" fill="#00007f"/>
   <polyline stroke-width="0.5" stroke="#000000" stroke-linejoin="round" points="174.531,13.4688 174.054,14.9382 172.804,15.8464 171.259,15.8464 170.009,14.9382 169.531,13.4688 170.009,11.9993 171.259,11.0911 172.804,11.0911 174.054,11.9993 174.531,13.4688" fill="none" stroke-linecap="round"/>
   <polygon shape-rendering="crispEdges" points="180.991,63.5006 179.741,64.4088 178.196,64.4088 176.946,63.5006 176.469,62.0312 176.946,60.5617 178.196,59.6535 179.741,59.6535 180.991,60.5617 181.469,62.0312" fill="#00007f"/>
   <polyline stroke-width="0.5" stroke="#000000" stroke-linejoin="round" points="181.469,62.0312 180.991,63.5006 179.741,64.4088 178.196,64.4088 176.946,63.5006 176.469,62.0312 176.946,60.5617 178.196,59.6535 179.741,59.6535 180.991,60.5617 181.469,62.0312" fill="none" stroke-linecap="round"/>
   <polygon shape-rendering="crispEdges" points="187.929,119.001 186.679,119.909 185.134,119.909 183.884,119.001 183.406,117.531 183.884,116.062 185.134,115.153 186.679,115.153 187.929,116.062 188.406,117.531" fill="#00007f"/>
   <polyline stroke-width="0.5" stroke="#000000" stroke-linejoin="round" points="188.406,117.531 187.929,119.001 186.679,119.909 185.134,119.909 183.884,119.001 183.406,117.531 183.884,116.062 185.134,115.153 186.679,115.153 187.929,116.062 188.406,117.531" fill="none" stroke-linecap="round"/>
   <polygon shape-rendering="crispEdges" points="194.866,139.813 193.616,140.721 192.071,140.721 190.821,139.813 190.344,138.344 190.821,136.874 192.071,135.966 193.616,135.966 194.866,136.874 195.344,138.344" fill="#00007f"/>
   <polyline stroke-width="0.5" stroke="#000000" stroke-linejoin="round" points="195.344,138.344 194.866,139.813 193.616,140.721 192.071,140.721 190.821,139.813 190.344,138.344 190.821,136.874 192.071,135.966 193.616,135.966 194.866,136.874 195.344,138.344" fill="none" stroke-linecap="round"/>
   <polygon shape-rendering="crispEdges" points="201.804,125.938 200.554,126.846 199.009,126.846 197.759,125.938 197.281,124.469 197.759,122.999 199.009,122.091 200.554,122.091 201.804,122.999 202.281,124.469" fill="#00007f"/>
   <polyline stroke-width="0.5" stroke="#000000" stroke-linejoin="round" points="202.281,124.469 201.804,125.938 200.554,126.846 199.009,126.846 197.759,125.938 197.281,124.469 197.759,122.999 199.009,122.091 200.554,122.091 201.804,122.999 202.281,124.469" fill="none" stroke-linecap="round"/>
   <polygon shape-rendering="crispEdges" points="208.741,98.188 207.491,99.0962 205.946,99.0962 204.696,98.188 204.219,96.7186 204.696,95.2491 205.946,94.3409 207.491,94.3409 208.741,95.2491 209.219,96.7186" fill="#00007f"/>
   <polyline stroke-width="0.5" stroke="#000000" stroke-linejoin="round" points="209.219,96.7186 208.741,98.188 207.491,99.0962 205.946,99.0962 204.696,98.188 204.219,96.7186 204.696,95.2491 205.946,94.3409 207.491,94.3409 208.741,95.2491 209.219,96.7186" fill="none" stroke-linecap="round"/>
   <polygon shape-rendering="crispEdges" points="215.679,160.625 214.429,161.534 212.884,161.534 211.634,160.625 211.156,159.156 211.634,157.687 212.884,156.778 214.429,156.778 215.679,157.687 216.156,159.156" fill="#00007f"/>
   <polyline stroke-width="0.5" stroke="#000000" stroke-linejoin="round" points="216.156,159.156 215.679,160.625 214.429,161.534 212.884,161.534 211.634,160.625 211.156,159.156 211.634,157.687 212.884,156.778 214.429,156.778 215.679,157.687 216.156,159.156" fill="none" stroke-linecap="round"/>
   <polygon shape-rendering="crispEdges" points="222.616,174.5 221.366,175.409 219.821,175.409 218.571,174.5 218.094,173.031 218.571,171.561 219.821,170.653 221.366,170.653 222.616,171.561 223.094,173.031" fill="#00007f"/>
   <polyline stroke-width="0.5" stroke="#000000" stroke-linejoin="round" points="223.094,173.031 222.616,174.5 221.366,175.409 219.821,175.409 218.571,174.5 218.094,173.031 218.571,171.561 219.821,170.653 221.366,170.653 222.616,171.561 223.094,173.031" fill="none" stroke-linecap="round"/>
   <polygon shape-rendering="crispEdges" points="229.554,132.875 228.304,133.784 226.759,133.784 225.509,132.875 225.031,131.406 225.509,129.937 226.759,129.028 228.304,129.028 229.554,129.937 230.031,131.406" fill="#00007f"/>
   <polyline stroke-width="0.5" stroke="#000000" stroke-linejoin="round" points="230.031,131.406 229.554,132.875 228.304,133.784 226.759,133.784 225.509,132.875 225.031,131.406 225.509,129.937 226.759,129.028 228.304,129.028 229.554,129.937 230.031,131.406" fill="none" stroke-linecap="round"/>
  </g>
 </g>
</svg>
