<?xml version='1.0' encoding='UTF-8' standalone='no'?>
<svg viewBox="0 0 240 240" xmlns:xlink="http://www.w3.org/1999/xlink" height="240pt" xmlns="http://www.w3.org/2000/svg" width="240pt">
 <title>Figure 1</title>
 <desc>
Creator: GL2PS 1.4.2, (C) 1999-2020 C. Geuzaine
For: Octave
CreationDate: Thu Dec  1 20:19:17 2022
</desc>
 <defs/>
 <polygon points="0,0 240,0 240,240 0,240" fill="#ffffff"/>
 <g>
  <polygon points="0,240 240,240 240,0 0,0" fill="#ffffff" shape-rendering="crispEdges"/>
  <clipPath id="cp00240240">
   <polygon points="0,240 240,240 240,0 0,0"/>
  </clipPath>
  <g clip-path="url(#cp00240240)">
   <polygon points="9.00021,232 231,232 231,10 9.00021,10" fill="#ffffff" shape-rendering="crispEdges"/>
   <polyline stroke-linecap="square" points="9.00021,232 231,232" fill="none" stroke-linejoin="miter" stroke-width="0.5" stroke="#262626" stroke-dasharray="16,0"/>
   <polyline stroke-linecap="square" points="9.00021,10 231,10" fill="none" stroke-linejoin="miter" stroke-width="0.5" stroke="#262626" stroke-dasharray="16,0"/>
   <polyline stroke-linecap="square" points="9.00021,232 9.00021,10" fill="none" stroke-linejoin="miter" stroke-width="0.5" stroke="#262626" stroke-dasharray="16,0"/>
   <polyline stroke-linecap="square" points="231,232 231,10" fill="none" stroke-linejoin="miter" stroke-width="0.5" stroke="#262626" stroke-dasharray="16,0"/>
   <polygon points="14.4915,98.188 13.2415,99.0962 11.6964,99.0962 10.4464,98.188 9.96896,96.7186 10.4464,95.2491 11.6964,94.3409 13.2415,94.3409 14.4915,95.2491 14.969,96.7186" fill="#00007f" shape-rendering="crispEdges"/>
   <polyline stroke-linecap="round" points="14.969,96.7186 14.4915,98.188 13.2415,99.0962 11.6964,99.0962 10.4464,98.188 9.96896,96.7186 10.4464,95.2491 11.6964,94.3409 13.2415,94.3409 14.4915,95.2491 14.969,96.7186" fill="none" stroke-linejoin="round" stroke-width="0.5" stroke="#000000"/>
   <polygon points="21.429,112.063 20.179,112.971 18.6339,112.971 17.3839,112.063 16.9065,110.594 17.3839,109.124 18.6339,108.216 20.179,108.216 21.429,109.124 21.9064,110.594" fill="#00007f" shape-rendering="crispEdges"/>
   <polyline stroke-linecap="round" points="21.9064,110.594 21.429,112.063 20.179,112.971 18.6339,112.971 17.3839,112.063 16.9065,110.594 17.3839,109.124 18.6339,108.216 20.179,108.216 21.429,109.124 21.9064,110.594" fill="none" stroke-linejoin="round" stroke-width="0.5" stroke="#000000"/>
   <polygon points="28.3665,84.3131 27.1165,85.2213 25.5714,85.2213 24.3214,84.3131 23.8439,82.8436 24.3214,81.3741 25.5714,80.466 27.1165,80.466 28.3665,81.3741 28.8439,82.8436" fill="#00007f" shape-rendering="crispEdges"/>
   <polyline stroke-linecap="round" points="28.8439,82.8436 28.3665,84.3131 27.1165,85.2213 25.5714,85.2213 24.3214,84.3131 23.8439,82.8436 24.3214,81.3741 25.5714,80.466 27.1165,80.466 28.3665,81.3741 28.8439,82.8436" fill="none" stroke-linejoin="round" stroke-width="0.5" stroke="#000000"/>
   <polygon points="35.304,77.3756 34.054,78.2838 32.5089,78.2838 31.2589,77.3756 30.7814,75.9061 31.2589,74.4367 32.5089,73.5285 34.054,73.5285 35.304,74.4367 35.7814,75.9061" fill="#00007f" shape-rendering="crispEdges"/>
   <polyline stroke-linecap="round" points="35.7814,75.9061 35.304,77.3756 34.054,78.2838 32.5089,78.2838 31.2589,77.3756 30.7814,75.9061 31.2589,74.4367 32.5089,73.5285 34.054,73.5285 35.304,74.4367 35.7814,75.9061" fill="none" stroke-linejoin="round" stroke-width="0.5" stroke="#000000"/>
   <polygon points="42.2414,70.4381 40.9914,71.3463 39.4464,71.3463 38.1964,70.4381 37.7189,68.9686 38.1964,67.4992 39.4464,66.591 40.9914,66.591 42.2414,67.4992 42.7189,68.9686" fill="#00007f" shape-rendering="crispEdges"/>
   <polyline stroke-linecap="round" points="42.7189,68.9686 42.2414,70.4381 40.9914,71.3463 39.4464,71.3463 38.1964,70.4381 37.7189,68.9686 38.1964,67.4992 39.4464,66.591 40.9914,66.591 42.2414,67.4992 42.7189,68.9686" fill="none" stroke-linejoin="round" stroke-width="0.5" stroke="#000000"/>
   <polygon points="49.1789,119.001 47.9289,119.909 46.3839,119.909 45.1338,119.001 44.6564,117.531 45.1338,116.062 46.3839,115.153 47.9289,115.153 49.1789,116.062 49.6564,117.531" fill="#00007f" shape-rendering="crispEdges"/>
   <polyline stroke-linecap="round" points="49.6564,117.531 49.1789,119.001 47.9289,119.909 46.3839,119.909 45.1338,119.001 44.6564,117.531 45.1338,116.062 46.3839,115.153 47.9289,115.153 49.1789,116.062 49.6564,117.531" fill="none" stroke-linejoin="round" stroke-width="0.5" stroke="#000000"/>
   <polygon points="56.1164,91.2506 54.8664,92.1587 53.3213,92.1587 52.0713,91.2506 51.5939,89.7811 52.0713,88.3116 53.3213,87.4035 54.8664,87.4035 56.1164,88.3116 56.5939,89.7811" fill="#00007f" shape-rendering="crispEdges"/>
   <polyline stroke-linecap="round" points="56.5939,89.7811 56.1164,91.2506 54.8664,92.1587 53.3213,92.1587 52.0713,91.2506 51.5939,89.7811 52.0713,88.3116 53.3213,87.4035 54.8664,87.4035 56.1164,88.3116 56.5939,89.7811" fill="none" stroke-linejoin="round" stroke-width="0.5" stroke="#000000"/>
   <polygon points="63.0539,105.126 61.8039,106.034 60.2588,106.034 59.0088,105.126 58.5314,103.656 59.0088,102.187 60.2588,101.278 61.8039,101.278 63.0539,102.187 63.5314,103.656" fill="#00007f" shape-rendering="crispEdges"/>
   <polyline stroke-linecap="round" points="63.5314,103.656 63.0539,105.126 61.8039,106.034 60.2588,106.034 59.0088,105.126 58.5314,103.656 59.0088,102.187 60.2588,101.278 61.8039,101.278 63.0539,102.187 63.5314,103.656" fill="none" stroke-linejoin="round" stroke-width="0.5" stroke="#000000"/>
   <polygon points="69.9914,14.9382 68.7414,15.8464 67.1963,15.8464 65.9463,14.9382 65.4688,13.4688 65.9463,11.9993 67.1963,11.0911 68.7414,11.0911 69.9914,11.9993 70.4688,13.4688" fill="#00007f" shape-rendering="crispEdges"/>
   <polyline stroke-linecap="round" points="70.4688,13.4688 69.9914,14.9382 68.7414,15.8464 67.1963,15.8464 65.9463,14.9382 65.4688,13.4688 65.9463,11.9993 67.1963,11.0911 68.7414,11.0911 69.9914,11.9993 70.4688,13.4688" fill="none" stroke-linejoin="round" stroke-width="0.5" stroke="#000000"/>
   <polygon points="76.9289,21.8757 75.6789,22.7839 74.1338,22.7839 72.8838,21.8757 72.4063,20.4062 72.8838,18.9368 74.1338,18.0286 75.6789,18.0286 76.9289,18.9368 77.4063,20.4062" fill="#00007f" shape-rendering="crispEdges"/>
   <polyline stroke-linecap="round" points="77.4063,20.4062 76.9289,21.8757 75.6789,22.7839 74.1338,22.7839 72.8838,21.8757 72.4063,20.4062 72.8838,18.9368 74.1338,18.0286 75.6789,18.0286 76.9289,18.9368 77.4063,20.4062" fill="none" stroke-linejoin="round" stroke-width="0.5" stroke="#000000"/>
   <polygon points="83.8664,49.6256 82.6164,50.5338 81.0713,50.5338 79.8213,49.6256 79.3438,48.1562 79.8213,46.6867 81.0713,45.7785 82.6164,45.7785 83.8664,46.6867 84.3438,48.1562" fill="#00007f" shape-rendering="crispEdges"/>
   <polyline stroke-linecap="round" points="84.3438,48.1562 83.8664,49.6256 82.6164,50.5338 81.0713,50.5338 79.8213,49.6256 79.3438,48.1562 79.8213,46.6867 81.0713,45.7785 82.6164,45.7785 83.8664,46.6867 84.3438,48.1562" fill="none" stroke-linejoin="round" stroke-width="0.5" stroke="#000000"/>
   <polygon points="90.8039,63.5006 89.5539,64.4088 88.0088,64.4088 86.7588,63.5006 86.2813,62.0312 86.7588,60.5617 88.0088,59.6535 89.5539,59.6535 90.8039,60.5617 91.2813,62.0312" fill="#00007f" shape-rendering="crispEdges"/>
   <polyline stroke-linecap="round" points="91.2813,62.0312 90.8039,63.5006 89.5539,64.4088 88.0088,64.4088 86.7588,63.5006 86.2813,62.0312 86.7588,60.5617 88.0088,59.6535 89.5539,59.6535 90.8039,60.5617 91.2813,62.0312" fill="none" stroke-linejoin="round" stroke-width="0.5" stroke="#000000"/>
   <polygon points="97.7413,42.6882 96.4913,43.5963 94.9463,43.5963 93.6963,42.6882 93.2188,41.2187 93.6963,39.7492 94.9463,38.841 96.4913,38.841 97.7413,39.7492 98.2188,41.2187" fill="#00007f" shape-rendering="crispEdges"/>
   <polyline stroke-linecap="round" points="98.2188,41.2187 97.7413,42.6882 96.4913,43.5963 94.9463,43.5963 93.6963,42.6882 93.2188,41.2187 93.6963,39.7492 94.9463,38.841 96.4913,38.841 97.7413,39.7492 98.2188,41.2187" fill="none" stroke-linejoin="round" stroke-width="0.5" stroke="#000000"/>
   <polygon points="104.679,35.7507 103.429,36.6588 101.884,36.6588 100.634,35.7507 100.156,34.2812 100.634,32.8117 101.884,31.9036 103.429,31.9036 104.679,32.8117 105.156,34.2812" fill="#00007f" shape-rendering="crispEdges"/>
   <polyline stroke-linecap="round" points="105.156,34.2812 104.679,35.7507 103.429,36.6588 101.884,36.6588 100.634,35.7507 100.156,34.2812 100.634,32.8117 101.884,31.9036 103.429,31.9036 104.679,32.8117 105.156,34.2812" fill="none" stroke-linejoin="round" stroke-width="0.5" stroke="#000000"/>
   <polygon points="111.616,56.5631 110.366,57.4713 108.821,57.4713 107.571,56.5631 107.094,55.0937 107.571,53.6242 108.821,52.716 110.366,52.716 111.616,53.6242 112.094,55.0937" fill="#00007f" shape-rendering="crispEdges"/>
   <polyline stroke-linecap="round" points="112.094,55.0937 111.616,56.5631 110.366,57.4713 108.821,57.4713 107.571,56.5631 107.094,55.0937 107.571,53.6242 108.821,52.716 110.366,52.716 111.616,53.6242 112.094,55.0937" fill="none" stroke-linejoin="round" stroke-width="0.5" stroke="#000000"/>
   <polygon points="118.554,28.8132 117.304,29.7214 115.759,29.7214 114.509,28.8132 114.031,27.3437 114.509,25.8743 115.759,24.9661 117.304,24.9661 118.554,25.8743 119.031,27.3437" fill="#00007f" shape-rendering="crispEdges"/>
   <polyline stroke-linecap="round" points="119.031,27.3437 118.554,28.8132 117.304,29.7214 115.759,29.7214 114.509,28.8132 114.031,27.3437 114.509,25.8743 115.759,24.9661 117.304,24.9661 118.554,25.8743 119.031,27.3437" fill="none" stroke-linejoin="round" stroke-width="0.5" stroke="#000000"/>
   <polygon points="125.491,153.688 124.241,154.596 122.696,154.596 121.446,153.688 120.969,152.218 121.446,150.749 122.696,149.841 124.241,149.841 125.491,150.749 125.969,152.218" fill="#00007f" shape-rendering="crispEdges"/>
   <polyline stroke-linecap="round" points="125.969,152.218 125.491,153.688 124.241,154.596 122.696,154.596 121.446,153.688 120.969,152.218 121.446,150.749 122.696,149.841 124.241,149.841 125.491,150.749 125.969,152.218" fill="none" stroke-linejoin="round" stroke-width="0.5" stroke="#000000"/>
   <polygon points="132.429,146.75 131.179,147.659 129.634,147.659 128.384,146.75 127.906,145.281 128.384,143.812 129.634,142.903 131.179,142.903 132.429,143.812 132.906,145.281" fill="#00007f" shape-rendering="crispEdges"/>
   <polyline stroke-linecap="round" points="132.906,145.281 132.429,146.75 131.179,147.659 129.634,147.659 128.384,146.75 127.906,145.281 128.384,143.812 129.634,142.903 131.179,142.903 132.429,143.812 132.906,145.281" fill="none" stroke-linejoin="round" stroke-width="0.5" stroke="#000000"/>
   <polygon points="139.366,167.563 138.116,168.471 136.571,168.471 135.321,167.563 134.844,166.093 135.321,164.624 136.571,163.716 138.116,163.716 139.366,164.624 139.844,166.093" fill="#00007f" shape-rendering="crispEdges"/>
   <polyline stroke-linecap="round" points="139.844,166.093 139.366,167.563 138.116,168.471 136.571,168.471 135.321,167.563 134.844,166.093 135.321,164.624 136.571,163.716 138.116,163.716 139.366,164.624 139.844,166.093" fill="none" stroke-linejoin="round" stroke-width="0.5" stroke="#000000"/>
   <polygon points="146.304,132.875 145.054,133.784 143.509,133.784 142.259,132.875 141.781,131.406 142.259,129.937 143.509,129.028 145.054,129.028 146.304,129.937 146.781,131.406" fill="#00007f" shape-rendering="crispEdges"/>
   <polyline stroke-linecap="round" points="146.781,131.406 146.304,132.875 145.054,133.784 143.509,133.784 142.259,132.875 141.781,131.406 142.259,129.937 143.509,129.028 145.054,129.028 146.304,129.937 146.781,131.406" fill="none" stroke-linejoin="round" stroke-width="0.5" stroke="#000000"/>
   <polygon points="153.241,125.938 151.991,126.846 150.446,126.846 149.196,125.938 148.719,124.469 149.196,122.999 150.446,122.091 151.991,122.091 153.241,122.999 153.719,124.469" fill="#00007f" shape-rendering="crispEdges"/>
   <polyline stroke-linecap="round" points="153.719,124.469 153.241,125.938 151.991,126.846 150.446,126.846 149.196,125.938 148.719,124.469 149.196,122.999 150.446,122.091 151.991,122.091 153.241,122.999 153.719,124.469" fill="none" stroke-linejoin="round" stroke-width="0.5" stroke="#000000"/>
   <polygon points="160.179,160.625 158.929,161.534 157.384,161.534 156.134,160.625 155.656,159.156 156.134,157.687 157.384,156.778 158.929,156.778 160.179,157.687 160.656,159.156" fill="#00007f" shape-rendering="crispEdges"/>
   <polyline stroke-linecap="round" points="160.656,159.156 160.179,160.625 158.929,161.534 157.384,161.534 156.134,160.625 155.656,159.156 156.134,157.687 157.384,156.778 158.929,156.778 160.179,157.687 160.656,159.156" fill="none" stroke-linejoin="round" stroke-width="0.5" stroke="#000000"/>
   <polygon points="167.116,174.5 165.866,175.409 164.321,175.409 163.071,174.5 162.594,173.031 163.071,171.561 164.321,170.653 165.866,170.653 167.116,171.561 167.594,173.031" fill="#00007f" shape-rendering="crispEdges"/>
   <polyline stroke-linecap="round" points="167.594,173.031 167.116,174.5 165.866,175.409 164.321,175.409 163.071,174.5 162.594,173.031 163.071,171.561 164.321,170.653 165.866,170.653 167.116,171.561 167.594,173.031" fill="none" stroke-linejoin="round" stroke-width="0.5" stroke="#000000"/>
   <polygon points="174.054,139.813 172.804,140.721 171.259,140.721 170.009,139.813 169.531,138.344 170.009,136.874 171.259,135.966 172.804,135.966 174.054,136.874 174.531,138.344" fill="#00007f" shape-rendering="crispEdges"/>
   <polyline stroke-linecap="round" points="174.531,138.344 174.054,139.813 172.804,140.721 171.259,140.721 170.009,139.813 169.531,138.344 170.009,136.874 171.259,135.966 172.804,135.966 174.054,136.874 174.531,138.344" fill="none" stroke-linejoin="round" stroke-width="0.5" stroke="#000000"/>
   <polygon points="180.991,230 179.741,230.908 178.196,230.908 176.946,230 176.469,228.531 176.946,227.061 178.196,226.153 179.741,226.153 180.991,227.061 181.469,228.531" fill="#00007f" shape-rendering="crispEdges"/>
   <polyline stroke-linecap="round" points="181.469,228.531 180.991,230 179.741,230.908 178.196,230.908 176.946,230 176.469,228.531 176.946,227.061 178.196,226.153 179.741,226.153 180.991,227.061 181.469,228.531" fill="none" stroke-linejoin="round" stroke-width="0.5" stroke="#000000"/>
   <polygon points="187.929,209.188 186.679,210.096 185.134,210.096 183.884,209.188 183.406,207.718 183.884,206.249 185.134,205.341 186.679,205.341 187.929,206.249 188.406,207.718" fill="#00007f" shape-rendering="crispEdges"/>
   <polyline stroke-linecap="round" points="188.406,207.718 187.929,209.188 186.679,210.096 185.134,210.096 183.884,209.188 183.406,207.718 183.884,206.249 185.134,205.341 186.679,205.341 187.929,206.249 188.406,207.718" fill="none" stroke-linejoin="round" stroke-width="0.5" stroke="#000000"/>
   <polygon points="194.866,202.25 193.616,203.159 192.071,203.159 190.821,202.25 190.344,200.781 190.821,199.311 192.071,198.403 193.616,198.403 194.866,199.311 195.344,200.781" fill="#00007f" shape-rendering="crispEdges"/>
   <polyline stroke-linecap="round" points="195.344,200.781 194.866,202.25 193.616,203.159 192.071,203.159 190.821,202.25 190.344,200.781 190.821,199.311 192.071,198.403 193.616,198.403 194.866,199.311 195.344,200.781" fill="none" stroke-linejoin="round" stroke-width="0.5" stroke="#000000"/>
   <polygon points="201.804,188.375 200.554,189.284 199.009,189.284 197.759,188.375 197.281,186.906 197.759,185.436 199.009,184.528 200.554,184.528 201.804,185.436 202.281,186.906" fill="#00007f" shape-rendering="crispEdges"/>
   <polyline stroke-linecap="round" points="202.281,186.906 201.804,188.375 200.554,189.284 199.009,189.284 197.759,188.375 197.281,186.906 197.759,185.436 199.009,184.528 200.554,184.528 201.804,185.436 202.281,186.906" fill="none" stroke-linejoin="round" stroke-width="0.5" stroke="#000000"/>
   <polygon points="208.741,216.125 207.491,217.034 205.946,217.034 204.696,216.125 204.219,214.656 204.696,213.186 205.946,212.278 207.491,212.278 208.741,213.186 209.219,214.656" fill="#00007f" shape-rendering="crispEdges"/>
   <polyline stroke-linecap="round" points="209.219,214.656 208.741,216.125 207.491,217.034 205.946,217.034 204.696,216.125 204.219,214.656 204.696,213.186 205.946,212.278 207.491,212.278 208.741,213.186 209.219,214.656" fill="none" stroke-linejoin="round" stroke-width="0.5" stroke="#000000"/>
   <polygon points="215.679,195.313 214.429,196.221 212.884,196.221 211.634,195.313 211.156,193.843 211.634,192.374 212.884,191.466 214.429,191.466 215.679,192.374 216.156,193.843" fill="#00007f" shape-rendering="crispEdges"/>
   <polyline stroke-linecap="round" points="216.156,193.843 215.679,195.313 214.429,196.221 212.884,196.221 211.634,195.313 211.156,193.843 211.634,192.374 212.884,191.466 214.429,191.466 215.679,192.374 216.156,193.843" fill="none" stroke-linejoin="round" stroke-width="0.5" stroke="#000000"/>
   <polygon points="222.616,223.063 221.366,223.971 219.821,223.971 218.571,223.063 218.094,221.593 218.571,220.124 219.821,219.216 221.366,219.216 222.616,220.124 223.094,221.593" fill="#00007f" shape-rendering="crispEdges"/>
   <polyline stroke-linecap="round" points="223.094,221.593 222.616,223.063 221.366,223.971 219.821,223.971 218.571,223.063 218.094,221.593 218.571,220.124 219.821,219.216 221.366,219.216 222.616,220.124 223.094,221.593" fill="none" stroke-linejoin="round" stroke-width="0.5" stroke="#000000"/>
   <polygon points="229.554,181.438 228.304,182.346 226.759,182.346 225.509,181.438 225.031,179.968 225.509,178.499 226.759,177.591 228.304,177.591 229.554,178.499 230.031,179.968" fill="#00007f" shape-rendering="crispEdges"/>
   <polyline stroke-linecap="round" points="230.031,179.968 229.554,181.438 228.304,182.346 226.759,182.346 225.509,181.438 225.031,179.968 225.509,178.499 226.759,177.591 228.304,177.591 229.554,178.499 230.031,179.968" fill="none" stroke-linejoin="round" stroke-width="0.5" stroke="#000000"/>
  </g>
 </g>
</svg>
