<?xml version='1.0' encoding='UTF-8' standalone='no'?>
<svg height="240pt" viewBox="0 0 240 240" width="240pt" xmlns:xlink="http://www.w3.org/1999/xlink" xmlns="http://www.w3.org/2000/svg">
 <title>Figure 1</title>
 <desc>
Creator: GL2PS 1.4.2, (C) 1999-2020 C. Geuzaine
For: Octave
CreationDate: Thu Dec  1 20:19:21 2022
</desc>
 <defs/>
 <polygon fill="#ffffff" points="0,0 240,0 240,240 0,240"/>
 <g>
  <polygon fill="#ffffff" shape-rendering="crispEdges" points="0,240 240,240 240,0 0,0"/>
  <clipPath id="cp00240240">
   <polygon points="0,240 240,240 240,0 0,0"/>
  </clipPath>
  <g clip-path="url(#cp00240240)">
   <polygon fill="#ffffff" shape-rendering="crispEdges" points="9.00021,232 231,232 231,10 9.00021,10"/>
   <polyline fill="none" stroke-width="0.5" stroke-linecap="square" stroke="#262626" stroke-linejoin="miter" stroke-dasharray="16,0" points="9.00021,232 231,232"/>
   <polyline fill="none" stroke-width="0.5" stroke-linecap="square" stroke="#262626" stroke-linejoin="miter" stroke-dasharray="16,0" points="9.00021,10 231,10"/>
   <polyline fill="none" stroke-width="0.5" stroke-linecap="square" stroke="#262626" stroke-linejoin="miter" stroke-dasharray="16,0" points="9.00021,232 9.00021,10"/>
   <polyline fill="none" stroke-width="0.5" stroke-linecap="square" stroke="#262626" stroke-linejoin="miter" stroke-dasharray="16,0" points="231,232 231,10"/>
   <polygon fill="#00007f" shape-rendering="crispEdges" points="14.4915,230 13.2415,230.908 11.6964,230.908 10.4464,230 9.96896,228.531 10.4464,227.061 11.6964,226.153 13.2415,226.153 14.4915,227.061 14.969,228.531"/>
   <polyline fill="none" stroke-width="0.5" stroke-linecap="round" stroke="#000000" stroke-linejoin="round" points="14.969,228.531 14.4915,230 13.2415,230.908 11.6964,230.908 10.4464,230 9.96896,228.531 10.4464,227.061 11.6964,226.153 13.2415,226.153 14.4915,227.061 14.969,228.531"/>
   <polygon fill="#00007f" shape-rendering="crispEdges" points="21.429,223.063 20.179,223.971 18.6339,223.971 17.3839,223.063 16.9065,221.593 17.3839,220.124 18.6339,219.216 20.179,219.216 21.429,220.124 21.9064,221.593"/>
   <polyline fill="none" stroke-width="0.5" stroke-linecap="round" stroke="#000000" stroke-linejoin="round" points="21.9064,221.593 21.429,223.063 20.179,223.971 18.6339,223.971 17.3839,223.063 16.9065,221.593 17.3839,220.124 18.6339,219.216 20.179,219.216 21.429,220.124 21.9064,221.593"/>
   <polygon fill="#00007f" shape-rendering="crispEdges" points="28.3665,195.313 27.1165,196.221 25.5714,196.221 24.3214,195.313 23.8439,193.843 24.3214,192.374 25.5714,191.466 27.1165,191.466 28.3665,192.374 28.8439,193.843"/>
   <polyline fill="none" stroke-width="0.5" stroke-linecap="round" stroke="#000000" stroke-linejoin="round" points="28.8439,193.843 28.3665,195.313 27.1165,196.221 25.5714,196.221 24.3214,195.313 23.8439,193.843 24.3214,192.374 25.5714,191.466 27.1165,191.466 28.3665,192.374 28.8439,193.843"/>
   <polygon fill="#00007f" shape-rendering="crispEdges" points="35.304,153.688 34.054,154.596 32.5089,154.596 31.2589,153.688 30.7814,152.218 31.2589,150.749 32.5089,149.841 34.054,149.841 35.304,150.749 35.7814,152.218"/>
   <polyline fill="none" stroke-width="0.5" stroke-linecap="round" stroke="#000000" stroke-linejoin="round" points="35.7814,152.218 35.304,153.688 34.054,154.596 32.5089,154.596 31.2589,153.688 30.7814,152.218 31.2589,150.749 32.5089,149.841 34.054,149.841 35.304,150.749 35.7814,152.218"/>
   <polygon fill="#00007f" shape-rendering="crispEdges" points="42.2414,132.875 40.9914,133.784 39.4464,133.784 38.1964,132.875 37.7189,131.406 38.1964,129.937 39.4464,129.028 40.9914,129.028 42.2414,129.937 42.7189,131.406"/>
   <polyline fill="none" stroke-width="0.5" stroke-linecap="round" stroke="#000000" stroke-linejoin="round" points="42.7189,131.406 42.2414,132.875 40.9914,133.784 39.4464,133.784 38.1964,132.875 37.7189,131.406 38.1964,129.937 39.4464,129.028 40.9914,129.028 42.2414,129.937 42.7189,131.406"/>
   <polygon fill="#00007f" shape-rendering="crispEdges" points="49.1789,70.4381 47.9289,71.3463 46.3839,71.3463 45.1338,70.4381 44.6564,68.9686 45.1338,67.4992 46.3839,66.591 47.9289,66.591 49.1789,67.4992 49.6564,68.9686"/>
   <polyline fill="none" stroke-width="0.5" stroke-linecap="round" stroke="#000000" stroke-linejoin="round" points="49.6564,68.9686 49.1789,70.4381 47.9289,71.3463 46.3839,71.3463 45.1338,70.4381 44.6564,68.9686 45.1338,67.4992 46.3839,66.591 47.9289,66.591 49.1789,67.4992 49.6564,68.9686"/>
   <polygon fill="#00007f" shape-rendering="crispEdges" points="56.1164,49.6256 54.8664,50.5338 53.3213,50.5338 52.0713,49.6256 51.5939,48.1562 52.0713,46.6867 53.3213,45.7785 54.8664,45.7785 56.1164,46.6867 56.5939,48.1562"/>
   <polyline fill="none" stroke-width="0.5" stroke-linecap="round" stroke="#000000" stroke-linejoin="round" points="56.5939,48.1562 56.1164,49.6256 54.8664,50.5338 53.3213,50.5338 52.0713,49.6256 51.5939,48.1562 52.0713,46.6867 53.3213,45.7785 54.8664,45.7785 56.1164,46.6867 56.5939,48.1562"/>
   <polygon fill="#00007f" shape-rendering="crispEdges" points="63.0539,42.6882 61.8039,43.5963 60.2588,43.5963 59.0088,42.6882 58.5314,41.2187 59.0088,39.7492 60.2588,38.841 61.8039,38.841 63.0539,39.7492 63.5314,41.2187"/>
   <polyline fill="none" stroke-width="0.5" stroke-linecap="round" stroke="#000000" stroke-linejoin="round" points="63.5314,41.2187 63.0539,42.6882 61.8039,43.5963 60.2588,43.5963 59.0088,42.6882 58.5314,41.2187 59.0088,39.7492 60.2588,38.841 61.8039,38.841 63.0539,39.7492 63.5314,41.2187"/>
   <polygon fill="#00007f" shape-rendering="crispEdges" points="69.9914,209.188 68.7414,210.096 67.1963,210.096 65.9463,209.188 65.4688,207.718 65.9463,206.249 67.1963,205.341 68.7414,205.341 69.9914,206.249 70.4688,207.718"/>
   <polyline fill="none" stroke-width="0.5" stroke-linecap="round" stroke="#000000" stroke-linejoin="round" points="70.4688,207.718 69.9914,209.188 68.7414,210.096 67.1963,210.096 65.9463,209.188 65.4688,207.718 65.9463,206.249 67.1963,205.341 68.7414,205.341 69.9914,206.249 70.4688,207.718"/>
   <polygon fill="#00007f" shape-rendering="crispEdges" points="76.9289,188.375 75.6789,189.284 74.1338,189.284 72.8838,188.375 72.4063,186.906 72.8838,185.436 74.1338,184.528 75.6789,184.528 76.9289,185.436 77.4063,186.906"/>
   <polyline fill="none" stroke-width="0.5" stroke-linecap="round" stroke="#000000" stroke-linejoin="round" points="77.4063,186.906 76.9289,188.375 75.6789,189.284 74.1338,189.284 72.8838,188.375 72.4063,186.906 72.8838,185.436 74.1338,184.528 75.6789,184.528 76.9289,185.436 77.4063,186.906"/>
   <polygon fill="#00007f" shape-rendering="crispEdges" points="83.8664,181.438 82.6164,182.346 81.0713,182.346 79.8213,181.438 79.3438,179.968 79.8213,178.499 81.0713,177.591 82.6164,177.591 83.8664,178.499 84.3438,179.968"/>
   <polyline fill="none" stroke-width="0.5" stroke-linecap="round" stroke="#000000" stroke-linejoin="round" points="84.3438,179.968 83.8664,181.438 82.6164,182.346 81.0713,182.346 79.8213,181.438 79.3438,179.968 79.8213,178.499 81.0713,177.591 82.6164,177.591 83.8664,178.499 84.3438,179.968"/>
   <polygon fill="#00007f" shape-rendering="crispEdges" points="90.8039,160.625 89.5539,161.534 88.0088,161.534 86.7588,160.625 86.2813,159.156 86.7588,157.687 88.0088,156.778 89.5539,156.778 90.8039,157.687 91.2813,159.156"/>
   <polyline fill="none" stroke-width="0.5" stroke-linecap="round" stroke="#000000" stroke-linejoin="round" points="91.2813,159.156 90.8039,160.625 89.5539,161.534 88.0088,161.534 86.7588,160.625 86.2813,159.156 86.7588,157.687 88.0088,156.778 89.5539,156.778 90.8039,157.687 91.2813,159.156"/>
   <polygon fill="#00007f" shape-rendering="crispEdges" points="97.7413,139.813 96.4913,140.721 94.9463,140.721 93.6963,139.813 93.2188,138.344 93.6963,136.874 94.9463,135.966 96.4913,135.966 97.7413,136.874 98.2188,138.344"/>
   <polyline fill="none" stroke-width="0.5" stroke-linecap="round" stroke="#000000" stroke-linejoin="round" points="98.2188,138.344 97.7413,139.813 96.4913,140.721 94.9463,140.721 93.6963,139.813 93.2188,138.344 93.6963,136.874 94.9463,135.966 96.4913,135.966 97.7413,136.874 98.2188,138.344"/>
   <polygon fill="#00007f" shape-rendering="crispEdges" points="104.679,125.938 103.429,126.846 101.884,126.846 100.634,125.938 100.156,124.469 100.634,122.999 101.884,122.091 103.429,122.091 104.679,122.999 105.156,124.469"/>
   <polyline fill="none" stroke-width="0.5" stroke-linecap="round" stroke="#000000" stroke-linejoin="round" points="105.156,124.469 104.679,125.938 103.429,126.846 101.884,126.846 100.634,125.938 100.156,124.469 100.634,122.999 101.884,122.091 103.429,122.091 104.679,122.999 105.156,124.469"/>
   <polygon fill="#00007f" shape-rendering="crispEdges" points="111.616,98.188 110.366,99.0962 108.821,99.0962 107.571,98.188 107.094,96.7186 107.571,95.2491 108.821,94.3409 110.366,94.3409 111.616,95.2491 112.094,96.7186"/>
   <polyline fill="none" stroke-width="0.5" stroke-linecap="round" stroke="#000000" stroke-linejoin="round" points="112.094,96.7186 111.616,98.188 110.366,99.0962 108.821,99.0962 107.571,98.188 107.094,96.7186 107.571,95.2491 108.821,94.3409 110.366,94.3409 111.616,95.2491 112.094,96.7186"/>
   <polygon fill="#00007f" shape-rendering="crispEdges" points="118.554,28.8132 117.304,29.7214 115.759,29.7214 114.509,28.8132 114.031,27.3437 114.509,25.8743 115.759,24.9661 117.304,24.9661 118.554,25.8743 119.031,27.3437"/>
   <polyline fill="none" stroke-width="0.5" stroke-linecap="round" stroke="#000000" stroke-linejoin="round" points="119.031,27.3437 118.554,28.8132 117.304,29.7214 115.759,29.7214 114.509,28.8132 114.031,27.3437 114.509,25.8743 115.759,24.9661 117.304,24.9661 118.554,25.8743 119.031,27.3437"/>
   <polygon fill="#00007f" shape-rendering="crispEdges" points="125.491,216.125 124.241,217.034 122.696,217.034 121.446,216.125 120.969,214.656 121.446,213.186 122.696,212.278 124.241,212.278 125.491,213.186 125.969,214.656"/>
   <polyline fill="none" stroke-width="0.5" stroke-linecap="round" stroke="#000000" stroke-linejoin="round" points="125.969,214.656 125.491,216.125 124.241,217.034 122.696,217.034 121.446,216.125 120.969,214.656 121.446,213.186 122.696,212.278 124.241,212.278 125.491,213.186 125.969,214.656"/>
   <polygon fill="#00007f" shape-rendering="crispEdges" points="132.429,202.25 131.179,203.159 129.634,203.159 128.384,202.25 127.906,200.781 128.384,199.311 129.634,198.403 131.179,198.403 132.429,199.311 132.906,200.781"/>
   <polyline fill="none" stroke-width="0.5" stroke-linecap="round" stroke="#000000" stroke-linejoin="round" points="132.906,200.781 132.429,202.25 131.179,203.159 129.634,203.159 128.384,202.25 127.906,200.781 128.384,199.311 129.634,198.403 131.179,198.403 132.429,199.311 132.906,200.781"/>
   <polygon fill="#00007f" shape-rendering="crispEdges" points="139.366,146.75 138.116,147.659 136.571,147.659 135.321,146.75 134.844,145.281 135.321,143.812 136.571,142.903 138.116,142.903 139.366,143.812 139.844,145.281"/>
   <polyline fill="none" stroke-width="0.5" stroke-linecap="round" stroke="#000000" stroke-linejoin="round" points="139.844,145.281 139.366,146.75 138.116,147.659 136.571,147.659 135.321,146.75 134.844,145.281 135.321,143.812 136.571,142.903 138.116,142.903 139.366,143.812 139.844,145.281"/>
   <polygon fill="#00007f" shape-rendering="crispEdges" points="146.304,119.001 145.054,119.909 143.509,119.909 142.259,119.001 141.781,117.531 142.259,116.062 143.509,115.153 145.054,115.153 146.304,116.062 146.781,117.531"/>
   <polyline fill="none" stroke-width="0.5" stroke-linecap="round" stroke="#000000" stroke-linejoin="round" points="146.781,117.531 146.304,119.001 145.054,119.909 143.509,119.909 142.259,119.001 141.781,117.531 142.259,116.062 143.509,115.153 145.054,115.153 146.304,116.062 146.781,117.531"/>
   <polygon fill="#00007f" shape-rendering="crispEdges" points="153.241,105.126 151.991,106.034 150.446,106.034 149.196,105.126 148.719,103.656 149.196,102.187 150.446,101.278 151.991,101.278 153.241,102.187 153.719,103.656"/>
   <polyline fill="none" stroke-width="0.5" stroke-linecap="round" stroke="#000000" stroke-linejoin="round" points="153.719,103.656 153.241,105.126 151.991,106.034 150.446,106.034 149.196,105.126 148.719,103.656 149.196,102.187 150.446,101.278 151.991,101.278 153.241,102.187 153.719,103.656"/>
   <polygon fill="#00007f" shape-rendering="crispEdges" points="160.179,63.5006 158.929,64.4088 157.384,64.4088 156.134,63.5006 155.656,62.0312 156.134,60.5617 157.384,59.6535 158.929,59.6535 160.179,60.5617 160.656,62.0312"/>
   <polyline fill="none" stroke-width="0.5" stroke-linecap="round" stroke="#000000" stroke-linejoin="round" points="160.656,62.0312 160.179,63.5006 158.929,64.4088 157.384,64.4088 156.134,63.5006 155.656,62.0312 156.134,60.5617 157.384,59.6535 158.929,59.6535 160.179,60.5617 160.656,62.0312"/>
   <polygon fill="#00007f" shape-rendering="crispEdges" points="167.116,56.5631 165.866,57.4713 164.321,57.4713 163.071,56.5631 162.594,55.0937 163.071,53.6242 164.321,52.716 165.866,52.716 167.116,53.6242 167.594,55.0937"/>
   <polyline fill="none" stroke-width="0.5" stroke-linecap="round" stroke="#000000" stroke-linejoin="round" points="167.594,55.0937 167.116,56.5631 165.866,57.4713 164.321,57.4713 163.071,56.5631 162.594,55.0937 163.071,53.6242 164.321,52.716 165.866,52.716 167.116,53.6242 167.594,55.0937"/>
   <polygon fill="#00007f" shape-rendering="crispEdges" points="174.054,21.8757 172.804,22.7839 171.259,22.7839 170.009,21.8757 169.531,20.4062 170.009,18.9368 171.259,18.0286 172.804,18.0286 174.054,18.9368 174.531,20.4062"/>
   <polyline fill="none" stroke-width="0.5" stroke-linecap="round" stroke="#000000" stroke-linejoin="round" points="174.531,20.4062 174.054,21.8757 172.804,22.7839 171.259,22.7839 170.009,21.8757 169.531,20.4062 170.009,18.9368 171.259,18.0286 172.804,18.0286 174.054,18.9368 174.531,20.4062"/>
   <polygon fill="#00007f" shape-rendering="crispEdges" points="180.991,174.5 179.741,175.409 178.196,175.409 176.946,174.5 176.469,173.031 176.946,171.561 178.196,170.653 179.741,170.653 180.991,171.561 181.469,173.031"/>
   <polyline fill="none" stroke-width="0.5" stroke-linecap="round" stroke="#000000" stroke-linejoin="round" points="181.469,173.031 180.991,174.5 179.741,175.409 178.196,175.409 176.946,174.5 176.469,173.031 176.946,171.561 178.196,170.653 179.741,170.653 180.991,171.561 181.469,173.031"/>
   <polygon fill="#00007f" shape-rendering="crispEdges" points="187.929,167.563 186.679,168.471 185.134,168.471 183.884,167.563 183.406,166.093 183.884,164.624 185.134,163.716 186.679,163.716 187.929,164.624 188.406,166.093"/>
   <polyline fill="none" stroke-width="0.5" stroke-linecap="round" stroke="#000000" stroke-linejoin="round" points="188.406,166.093 187.929,167.563 186.679,168.471 185.134,168.471 183.884,167.563 183.406,166.093 183.884,164.624 185.134,163.716 186.679,163.716 187.929,164.624 188.406,166.093"/>
   <polygon fill="#00007f" shape-rendering="crispEdges" points="194.866,112.063 193.616,112.971 192.071,112.971 190.821,112.063 190.344,110.594 190.821,109.124 192.071,108.216 193.616,108.216 194.866,109.124 195.344,110.594"/>
   <polyline fill="none" stroke-width="0.5" stroke-linecap="round" stroke="#000000" stroke-linejoin="round" points="195.344,110.594 194.866,112.063 193.616,112.971 192.071,112.971 190.821,112.063 190.344,110.594 190.821,109.124 192.071,108.216 193.616,108.216 194.866,109.124 195.344,110.594"/>
   <polygon fill="#00007f" shape-rendering="crispEdges" points="201.804,91.2506 200.554,92.1587 199.009,92.1587 197.759,91.2506 197.281,89.7811 197.759,88.3116 199.009,87.4035 200.554,87.4035 201.804,88.3116 202.281,89.7811"/>
   <polyline fill="none" stroke-width="0.5" stroke-linecap="round" stroke="#000000" stroke-linejoin="round" points="202.281,89.7811 201.804,91.2506 200.554,92.1587 199.009,92.1587 197.759,91.2506 197.281,89.7811 197.759,88.3116 199.009,87.4035 200.554,87.4035 201.804,88.3116 202.281,89.7811"/>
   <polygon fill="#00007f" shape-rendering="crispEdges" points="208.741,84.3131 207.491,85.2213 205.946,85.2213 204.696,84.3131 204.219,82.8436 204.696,81.3741 205.946,80.466 207.491,80.466 208.741,81.3741 209.219,82.8436"/>
   <polyline fill="none" stroke-width="0.5" stroke-linecap="round" stroke="#000000" stroke-linejoin="round" points="209.219,82.8436 208.741,84.3131 207.491,85.2213 205.946,85.2213 204.696,84.3131 204.219,82.8436 204.696,81.3741 205.946,80.466 207.491,80.466 208.741,81.3741 209.219,82.8436"/>
   <polygon fill="#00007f" shape-rendering="crispEdges" points="215.679,77.3756 214.429,78.2838 212.884,78.2838 211.634,77.3756 211.156,75.9061 211.634,74.4367 212.884,73.5285 214.429,73.5285 215.679,74.4367 216.156,75.9061"/>
   <polyline fill="none" stroke-width="0.5" stroke-linecap="round" stroke="#000000" stroke-linejoin="round" points="216.156,75.9061 215.679,77.3756 214.429,78.2838 212.884,78.2838 211.634,77.3756 211.156,75.9061 211.634,74.4367 212.884,73.5285 214.429,73.5285 215.679,74.4367 216.156,75.9061"/>
   <polygon fill="#00007f" shape-rendering="crispEdges" points="222.616,35.7507 221.366,36.6588 219.821,36.6588 218.571,35.7507 218.094,34.2812 218.571,32.8117 219.821,31.9036 221.366,31.9036 222.616,32.8117 223.094,34.2812"/>
   <polyline fill="none" stroke-width="0.5" stroke-linecap="round" stroke="#000000" stroke-linejoin="round" points="223.094,34.2812 222.616,35.7507 221.366,36.6588 219.821,36.6588 218.571,35.7507 218.094,34.2812 218.571,32.8117 219.821,31.9036 221.366,31.9036 222.616,32.8117 223.094,34.2812"/>
   <polygon fill="#00007f" shape-rendering="crispEdges" points="229.554,14.9382 228.304,15.8464 226.759,15.8464 225.509,14.9382 225.031,13.4688 225.509,11.9993 226.759,11.0911 228.304,11.0911 229.554,11.9993 230.031,13.4688"/>
   <polyline fill="none" stroke-width="0.5" stroke-linecap="round" stroke="#000000" stroke-linejoin="round" points="230.031,13.4688 229.554,14.9382 228.304,15.8464 226.759,15.8464 225.509,14.9382 225.031,13.4688 225.509,11.9993 226.759,11.0911 228.304,11.0911 229.554,11.9993 230.031,13.4688"/>
  </g>
 </g>
</svg>
