<?xml version='1.0' encoding='UTF-8' standalone='no'?>
<svg width="240pt" xmlns="http://www.w3.org/2000/svg" height="240pt" xmlns:xlink="http://www.w3.org/1999/xlink" viewBox="0 0 240 240">
 <title>Figure 1</title>
 <desc>
Creator: GL2PS 1.4.2, (C) 1999-2020 C. Geuzaine
For: Octave
CreationDate: Thu Dec  1 20:19:26 2022
</desc>
 <defs/>
 <polygon points="0,0 240,0 240,240 0,240" fill="#ffffff"/>
 <g>
  <polygon points="0,240 240,240 240,0 0,0" shape-rendering="crispEdges" fill="#ffffff"/>
  <clipPath id="cp00240240">
   <polygon points="0,240 240,240 240,0 0,0"/>
  </clipPath>
  <g clip-path="url(#cp00240240)">
   <polygon shape-rendering="crispEdges" points="9.00021,232 231,232 231,10 9.00021,10" fill="#ffffff"/>
   <polyline stroke="#262626" stroke-width="0.5" stroke-linejoin="miter" stroke-dasharray="16,0" points="9.00021,232 231,232" fill="none" stroke-linecap="square"/>
   <polyline stroke="#262626" stroke-width="0.5" stroke-linejoin="miter" stroke-dasharray="16,0" points="9.00021,10 231,10" fill="none" stroke-linecap="square"/>
   <polyline stroke="#262626" stroke-width="0.5" stroke-linejoin="miter" stroke-dasharray="16,0" points="9.00021,232 9.00021,10" fill="none" stroke-linecap="square"/>
   <polyline stroke="#262626" stroke-width="0.5" stroke-linejoin="miter" stroke-dasharray="16,0" points="231,232 231,10" fill="none" stroke-linecap="square"/>
   <polygon shape-rendering="crispEdges" points="10.373,231.5 10.0605,231.727 9.67426,231.727 9.36176,231.5 9.2424,231.132 9.36176,230.765 9.67426,230.538 10.0605,230.538 10.373,230.765 10.4924,231.132" fill="#00007f"/>
   <polyline stroke="#000000" stroke-width="0.5" stroke-linejoin="round" points="10.4924,231.132 10.373,231.5 10.0605,231.727 9.67426,231.727 9.36176,231.5 9.2424,231.132 9.36176,230.765 9.67426,230.538 10.0605,230.538 10.373,230.765 10.4924,231.132" fill="none" stroke-linecap="round"/>
   <polygon shape-rendering="crispEdges" points="12.1074,229.765 11.7949,229.992 11.4086,229.992 11.0961,229.765 10.9768,229.398 11.0961,229.031 11.4086,228.804 11.7949,228.804 12.1074,229.031 12.2268,229.398" fill="#00007f"/>
   <polyline stroke="#000000" stroke-width="0.5" stroke-linejoin="round" points="12.2268,229.398 12.1074,229.765 11.7949,229.992 11.4086,229.992 11.0961,229.765 10.9768,229.398 11.0961,229.031 11.4086,228.804 11.7949,228.804 12.1074,229.031 12.2268,229.398" fill="none" stroke-linecap="round"/>
   <polygon shape-rendering="crispEdges" points="13.8418,228.031 13.5293,228.258 13.143,228.258 12.8305,228.031 12.7111,227.664 12.8305,227.296 13.143,227.069 13.5293,227.069 13.8418,227.296 13.9611,227.664" fill="#00007f"/>
   <polyline stroke="#000000" stroke-width="0.5" stroke-linejoin="round" points="13.9611,227.664 13.8418,228.031 13.5293,228.258 13.143,228.258 12.8305,228.031 12.7111,227.664 12.8305,227.296 13.143,227.069 13.5293,227.069 13.8418,227.296 13.9611,227.664" fill="none" stroke-linecap="round"/>
   <polygon shape-rendering="crispEdges" points="15.5761,226.297 15.2636,226.524 14.8774,226.524 14.5649,226.297 14.4455,225.929 14.5649,225.562 14.8774,225.335 15.2636,225.335 15.5761,225.562 15.6955,225.929" fill="#00007f"/>
   <polyline stroke="#000000" stroke-width="0.5" stroke-linejoin="round" points="15.6955,225.929 15.5761,226.297 15.2636,226.524 14.8774,226.524 14.5649,226.297 14.4455,225.929 14.5649,225.562 14.8774,225.335 15.2636,225.335 15.5761,225.562 15.6955,225.929" fill="none" stroke-linecap="round"/>
   <polygon shape-rendering="crispEdges" points="17.3105,224.562 16.998,224.789 16.6117,224.789 16.2992,224.562 16.1799,224.195 16.2992,223.828 16.6117,223.6 16.998,223.6 17.3105,223.828 17.4299,224.195" fill="#00007f"/>
   <polyline stroke="#000000" stroke-width="0.5" stroke-linejoin="round" points="17.4299,224.195 17.3105,224.562 16.998,224.789 16.6117,224.789 16.2992,224.562 16.1799,224.195 16.2992,223.828 16.6117,223.6 16.998,223.6 17.3105,223.828 17.4299,224.195" fill="none" stroke-linecap="round"/>
   <polygon shape-rendering="crispEdges" points="19.0449,222.828 18.7324,223.055 18.3461,223.055 18.0336,222.828 17.9143,222.461 18.0336,222.093 18.3461,221.866 18.7324,221.866 19.0449,222.093 19.1643,222.461" fill="#00007f"/>
   <polyline stroke="#000000" stroke-width="0.5" stroke-linejoin="round" points="19.1643,222.461 19.0449,222.828 18.7324,223.055 18.3461,223.055 18.0336,222.828 17.9143,222.461 18.0336,222.093 18.3461,221.866 18.7324,221.866 19.0449,222.093 19.1643,222.461" fill="none" stroke-linecap="round"/>
   <polygon shape-rendering="crispEdges" points="20.7793,221.094 20.4668,221.321 20.0805,221.321 19.768,221.094 19.6486,220.726 19.768,220.359 20.0805,220.132 20.4668,220.132 20.7793,220.359 20.8986,220.726" fill="#00007f"/>
   <polyline stroke="#000000" stroke-width="0.5" stroke-linejoin="round" points="20.8986,220.726 20.7793,221.094 20.4668,221.321 20.0805,221.321 19.768,221.094 19.6486,220.726 19.768,220.359 20.0805,220.132 20.4668,220.132 20.7793,220.359 20.8986,220.726" fill="none" stroke-linecap="round"/>
   <polygon shape-rendering="crispEdges" points="22.5136,219.359 22.2011,219.586 21.8149,219.586 21.5024,219.359 21.383,218.992 21.5024,218.624 21.8149,218.397 22.2011,218.397 22.5136,218.624 22.633,218.992" fill="#00007f"/>
   <polyline stroke="#000000" stroke-width="0.5" stroke-linejoin="round" points="22.633,218.992 22.5136,219.359 22.2011,219.586 21.8149,219.586 21.5024,219.359 21.383,218.992 21.5024,218.624 21.8149,218.397 22.2011,218.397 22.5136,218.624 22.633,218.992" fill="none" stroke-linecap="round"/>
   <polygon shape-rendering="crispEdges" points="24.248,217.625 23.9355,217.852 23.5492,217.852 23.2367,217.625 23.1174,217.257 23.2367,216.89 23.5492,216.663 23.9355,216.663 24.248,216.89 24.3674,217.257" fill="#00007f"/>
   <polyline stroke="#000000" stroke-width="0.5" stroke-linejoin="round" points="24.3674,217.257 24.248,217.625 23.9355,217.852 23.5492,217.852 23.2367,217.625 23.1174,217.257 23.2367,216.89 23.5492,216.663 23.9355,216.663 24.248,216.89 24.3674,217.257" fill="none" stroke-linecap="round"/>
   <polygon shape-rendering="crispEdges" points="25.9824,215.89 25.6699,216.117 25.2836,216.117 24.9711,215.89 24.8517,215.523 24.9711,215.156 25.2836,214.929 25.6699,214.929 25.9824,215.156 26.1017,215.523" fill="#00007f"/>
   <polyline stroke="#000000" stroke-width="0.5" stroke-linejoin="round" points="26.1017,215.523 25.9824,215.89 25.6699,216.117 25.2836,216.117 24.9711,215.89 24.8517,215.523 24.9711,215.156 25.2836,214.929 25.6699,214.929 25.9824,215.156 26.1017,215.523" fill="none" stroke-linecap="round"/>
   <polygon shape-rendering="crispEdges" points="27.7168,122.234 27.4043,122.461 27.018,122.461 26.7055,122.234 26.5861,121.867 26.7055,121.5 27.018,121.273 27.4043,121.273 27.7168,121.5 27.8361,121.867" fill="#00007f"/>
   <polyline stroke="#000000" stroke-width="0.5" stroke-linejoin="round" points="27.8361,121.867 27.7168,122.234 27.4043,122.461 27.018,122.461 26.7055,122.234 26.5861,121.867 26.7055,121.5 27.018,121.273 27.4043,121.273 27.7168,121.5 27.8361,121.867" fill="none" stroke-linecap="round"/>
   <polygon shape-rendering="crispEdges" points="29.4511,214.156 29.1386,214.383 28.7523,214.383 28.4398,214.156 28.3205,213.789 28.4398,213.421 28.7523,213.194 29.1386,213.194 29.4511,213.421 29.5705,213.789" fill="#00007f"/>
   <polyline stroke="#000000" stroke-width="0.5" stroke-linejoin="round" points="29.5705,213.789 29.4511,214.156 29.1386,214.383 28.7523,214.383 28.4398,214.156 28.3205,213.789 28.4398,213.421 28.7523,213.194 29.1386,213.194 29.4511,213.421 29.5705,213.789" fill="none" stroke-linecap="round"/>
   <polygon shape-rendering="crispEdges" points="31.1855,212.422 30.873,212.649 30.4867,212.649 30.1742,212.422 30.0549,212.054 30.1742,211.687 30.4867,211.46 30.873,211.46 31.1855,211.687 31.3049,212.054" fill="#00007f"/>
   <polyline stroke="#000000" stroke-width="0.5" stroke-linejoin="round" points="31.3049,212.054 31.1855,212.422 30.873,212.649 30.4867,212.649 30.1742,212.422 30.0549,212.054 30.1742,211.687 30.4867,211.46 30.873,211.46 31.1855,211.687 31.3049,212.054" fill="none" stroke-linecap="round"/>
   <polygon shape-rendering="crispEdges" points="32.9199,208.953 32.6074,209.18 32.2211,209.18 31.9086,208.953 31.7892,208.586 31.9086,208.218 32.2211,207.991 32.6074,207.991 32.9199,208.218 33.0392,208.586" fill="#00007f"/>
   <polyline stroke="#000000" stroke-width="0.5" stroke-linejoin="round" points="33.0392,208.586 32.9199,208.953 32.6074,209.18 32.2211,209.18 31.9086,208.953 31.7892,208.586 31.9086,208.218 32.2211,207.991 32.6074,207.991 32.9199,208.218 33.0392,208.586" fill="none" stroke-linecap="round"/>
   <polygon shape-rendering="crispEdges" points="34.6542,207.219 34.3417,207.446 33.9555,207.446 33.643,207.219 33.5236,206.851 33.643,206.484 33.9555,206.257 34.3417,206.257 34.6542,206.484 34.7736,206.851" fill="#00007f"/>
   <polyline stroke="#000000" stroke-width="0.5" stroke-linejoin="round" points="34.7736,206.851 34.6542,207.219 34.3417,207.446 33.9555,207.446 33.643,207.219 33.5236,206.851 33.643,206.484 33.9555,206.257 34.3417,206.257 34.6542,206.484 34.7736,206.851" fill="none" stroke-linecap="round"/>
   <polygon shape-rendering="crispEdges" points="36.3886,205.484 36.0761,205.711 35.6898,205.711 35.3773,205.484 35.258,205.117 35.3773,204.749 35.6898,204.522 36.0761,204.522 36.3886,204.749 36.508,205.117" fill="#00007f"/>
   <polyline stroke="#000000" stroke-width="0.5" stroke-linejoin="round" points="36.508,205.117 36.3886,205.484 36.0761,205.711 35.6898,205.711 35.3773,205.484 35.258,205.117 35.3773,204.749 35.6898,204.522 36.0761,204.522 36.3886,204.749 36.508,205.117" fill="none" stroke-linecap="round"/>
   <polygon shape-rendering="crispEdges" points="38.123,203.75 37.8105,203.977 37.4242,203.977 37.1117,203.75 36.9923,203.382 37.1117,203.015 37.4242,202.788 37.8105,202.788 38.123,203.015 38.2423,203.382" fill="#00007f"/>
   <polyline stroke="#000000" stroke-width="0.5" stroke-linejoin="round" points="38.2423,203.382 38.123,203.75 37.8105,203.977 37.4242,203.977 37.1117,203.75 36.9923,203.382 37.1117,203.015 37.4242,202.788 37.8105,202.788 38.123,203.015 38.2423,203.382" fill="none" stroke-linecap="round"/>
   <polygon shape-rendering="crispEdges" points="39.8574,202.015 39.5449,202.242 39.1586,202.242 38.8461,202.015 38.7267,201.648 38.8461,201.281 39.1586,201.054 39.5449,201.054 39.8574,201.281 39.9767,201.648" fill="#00007f"/>
   <polyline stroke="#000000" stroke-width="0.5" stroke-linejoin="round" points="39.9767,201.648 39.8574,202.015 39.5449,202.242 39.1586,202.242 38.8461,202.015 38.7267,201.648 38.8461,201.281 39.1586,201.054 39.5449,201.054 39.8574,201.281 39.9767,201.648" fill="none" stroke-linecap="round"/>
   <polygon shape-rendering="crispEdges" points="41.5917,200.281 41.2792,200.508 40.893,200.508 40.5805,200.281 40.4611,199.914 40.5805,199.546 40.893,199.319 41.2792,199.319 41.5917,199.546 41.7111,199.914" fill="#00007f"/>
   <polyline stroke="#000000" stroke-width="0.5" stroke-linejoin="round" points="41.7111,199.914 41.5917,200.281 41.2792,200.508 40.893,200.508 40.5805,200.281 40.4611,199.914 40.5805,199.546 40.893,199.319 41.2792,199.319 41.5917,199.546 41.7111,199.914" fill="none" stroke-linecap="round"/>
   <polygon shape-rendering="crispEdges" points="43.3261,210.687 43.0136,210.914 42.6273,210.914 42.3148,210.687 42.1955,210.32 42.3148,209.953 42.6273,209.726 43.0136,209.726 43.3261,209.953 43.4455,210.32" fill="#00007f"/>
   <polyline stroke="#000000" stroke-width="0.5" stroke-linejoin="round" points="43.4455,210.32 43.3261,210.687 43.0136,210.914 42.6273,210.914 42.3148,210.687 42.1955,210.32 42.3148,209.953 42.6273,209.726 43.0136,209.726 43.3261,209.953 43.4455,210.32" fill="none" stroke-linecap="round"/>
   <polygon shape-rendering="crispEdges" points="45.0605,198.547 44.748,198.774 44.3617,198.774 44.0492,198.547 43.9298,198.179 44.0492,197.812 44.3617,197.585 44.748,197.585 45.0605,197.812 45.1798,198.179" fill="#00007f"/>
   <polyline stroke="#000000" stroke-width="0.5" stroke-linejoin="round" points="45.1798,198.179 45.0605,198.547 44.748,198.774 44.3617,198.774 44.0492,198.547 43.9298,198.179 44.0492,197.812 44.3617,197.585 44.748,197.585 45.0605,197.812 45.1798,198.179" fill="none" stroke-linecap="round"/>
   <polygon shape-rendering="crispEdges" points="46.7948,196.812 46.4823,197.039 46.0961,197.039 45.7836,196.812 45.6642,196.445 45.7836,196.078 46.0961,195.851 46.4823,195.851 46.7948,196.078 46.9142,196.445" fill="#00007f"/>
   <polyline stroke="#000000" stroke-width="0.5" stroke-linejoin="round" points="46.9142,196.445 46.7948,196.812 46.4823,197.039 46.0961,197.039 45.7836,196.812 45.6642,196.445 45.7836,196.078 46.0961,195.851 46.4823,195.851 46.7948,196.078 46.9142,196.445" fill="none" stroke-linecap="round"/>
   <polygon shape-rendering="crispEdges" points="48.5292,195.078 48.2167,195.305 47.8304,195.305 47.5179,195.078 47.3986,194.711 47.5179,194.343 47.8304,194.116 48.2167,194.116 48.5292,194.343 48.6486,194.711" fill="#00007f"/>
   <polyline stroke="#000000" stroke-width="0.5" stroke-linejoin="round" points="48.6486,194.711 48.5292,195.078 48.2167,195.305 47.8304,195.305 47.5179,195.078 47.3986,194.711 47.5179,194.343 47.8304,194.116 48.2167,194.116 48.5292,194.343 48.6486,194.711" fill="none" stroke-linecap="round"/>
   <polygon shape-rendering="crispEdges" points="50.2636,193.344 49.9511,193.571 49.5648,193.571 49.2523,193.344 49.133,192.976 49.2523,192.609 49.5648,192.382 49.9511,192.382 50.2636,192.609 50.3829,192.976" fill="#00007f"/>
   <polyline stroke="#000000" stroke-width="0.5" stroke-linejoin="round" points="50.3829,192.976 50.2636,193.344 49.9511,193.571 49.5648,193.571 49.2523,193.344 49.133,192.976 49.2523,192.609 49.5648,192.382 49.9511,192.382 50.2636,192.609 50.3829,192.976" fill="none" stroke-linecap="round"/>
   <polygon shape-rendering="crispEdges" points="51.998,191.609 51.6855,191.836 51.2992,191.836 50.9867,191.609 50.8673,191.242 50.9867,190.874 51.2992,190.647 51.6855,190.647 51.998,190.874 52.1173,191.242" fill="#00007f"/>
   <polyline stroke="#000000" stroke-width="0.5" stroke-linejoin="round" points="52.1173,191.242 51.998,191.609 51.6855,191.836 51.2992,191.836 50.9867,191.609 50.8673,191.242 50.9867,190.874 51.2992,190.647 51.6855,190.647 51.998,190.874 52.1173,191.242" fill="none" stroke-linecap="round"/>
   <polygon shape-rendering="crispEdges" points="53.7323,189.875 53.4198,190.102 53.0336,190.102 52.7211,189.875 52.6017,189.507 52.7211,189.14 53.0336,188.913 53.4198,188.913 53.7323,189.14 53.8517,189.507" fill="#00007f"/>
   <polyline stroke="#000000" stroke-width="0.5" stroke-linejoin="round" points="53.8517,189.507 53.7323,189.875 53.4198,190.102 53.0336,190.102 52.7211,189.875 52.6017,189.507 52.7211,189.14 53.0336,188.913 53.4198,188.913 53.7323,189.14 53.8517,189.507" fill="none" stroke-linecap="round"/>
   <polygon shape-rendering="crispEdges" points="55.4667,188.14 55.1542,188.368 54.7679,188.368 54.4554,188.14 54.3361,187.773 54.4554,187.406 54.7679,187.179 55.1542,187.179 55.4667,187.406 55.5861,187.773" fill="#00007f"/>
   <polyline stroke="#000000" stroke-width="0.5" stroke-linejoin="round" points="55.5861,187.773 55.4667,188.14 55.1542,188.368 54.7679,188.368 54.4554,188.14 54.3361,187.773 54.4554,187.406 54.7679,187.179 55.1542,187.179 55.4667,187.406 55.5861,187.773" fill="none" stroke-linecap="round"/>
   <polygon shape-rendering="crispEdges" points="57.2011,186.406 56.8886,186.633 56.5023,186.633 56.1898,186.406 56.0704,186.039 56.1898,185.671 56.5023,185.444 56.8886,185.444 57.2011,185.671 57.3204,186.039" fill="#00007f"/>
   <polyline stroke="#000000" stroke-width="0.5" stroke-linejoin="round" points="57.3204,186.039 57.2011,186.406 56.8886,186.633 56.5023,186.633 56.1898,186.406 56.0704,186.039 56.1898,185.671 56.5023,185.444 56.8886,185.444 57.2011,185.671 57.3204,186.039" fill="none" stroke-linecap="round"/>
   <polygon shape-rendering="crispEdges" points="58.9354,184.672 58.6229,184.899 58.2367,184.899 57.9242,184.672 57.8048,184.304 57.9242,183.937 58.2367,183.71 58.6229,183.71 58.9354,183.937 59.0548,184.304" fill="#00007f"/>
   <polyline stroke="#000000" stroke-width="0.5" stroke-linejoin="round" points="59.0548,184.304 58.9354,184.672 58.6229,184.899 58.2367,184.899 57.9242,184.672 57.8048,184.304 57.9242,183.937 58.2367,183.71 58.6229,183.71 58.9354,183.937 59.0548,184.304" fill="none" stroke-linecap="round"/>
   <polygon shape-rendering="crispEdges" points="60.6698,182.937 60.3573,183.164 59.971,183.164 59.6585,182.937 59.5392,182.57 59.6585,182.203 59.971,181.976 60.3573,181.976 60.6698,182.203 60.7892,182.57" fill="#00007f"/>
   <polyline stroke="#000000" stroke-width="0.5" stroke-linejoin="round" points="60.7892,182.57 60.6698,182.937 60.3573,183.164 59.971,183.164 59.6585,182.937 59.5392,182.57 59.6585,182.203 59.971,181.976 60.3573,181.976 60.6698,182.203 60.7892,182.57" fill="none" stroke-linecap="round"/>
   <polygon shape-rendering="crispEdges" points="62.4042,181.203 62.0917,181.43 61.7054,181.43 61.3929,181.203 61.2736,180.836 61.3929,180.468 61.7054,180.241 62.0917,180.241 62.4042,180.468 62.5236,180.836" fill="#00007f"/>
   <polyline stroke="#000000" stroke-width="0.5" stroke-linejoin="round" points="62.5236,180.836 62.4042,181.203 62.0917,181.43 61.7054,181.43 61.3929,181.203 61.2736,180.836 61.3929,180.468 61.7054,180.241 62.0917,180.241 62.4042,180.468 62.5236,180.836" fill="none" stroke-linecap="round"/>
   <polygon shape-rendering="crispEdges" points="64.1386,179.469 63.8261,179.696 63.4398,179.696 63.1273,179.469 63.0079,179.101 63.1273,178.734 63.4398,178.507 63.8261,178.507 64.1386,178.734 64.2579,179.101" fill="#00007f"/>
   <polyline stroke="#000000" stroke-width="0.5" stroke-linejoin="round" points="64.2579,179.101 64.1386,179.469 63.8261,179.696 63.4398,179.696 63.1273,179.469 63.0079,179.101 63.1273,178.734 63.4398,178.507 63.8261,178.507 64.1386,178.734 64.2579,179.101" fill="none" stroke-linecap="round"/>
   <polygon shape-rendering="crispEdges" points="65.8729,177.734 65.5604,177.961 65.1742,177.961 64.8617,177.734 64.7423,177.367 64.8617,177 65.1742,176.772 65.5604,176.772 65.8729,177 65.9923,177.367" fill="#00007f"/>
   <polyline stroke="#000000" stroke-width="0.5" stroke-linejoin="round" points="65.9923,177.367 65.8729,177.734 65.5604,177.961 65.1742,177.961 64.8617,177.734 64.7423,177.367 64.8617,177 65.1742,176.772 65.5604,176.772 65.8729,177 65.9923,177.367" fill="none" stroke-linecap="round"/>
   <polygon shape-rendering="crispEdges" points="67.6073,176 67.2948,176.227 66.9085,176.227 66.596,176 66.4767,175.633 66.596,175.265 66.9085,175.038 67.2948,175.038 67.6073,175.265 67.7267,175.633" fill="#00007f"/>
   <polyline stroke="#000000" stroke-width="0.5" stroke-linejoin="round" points="67.7267,175.633 67.6073,176 67.2948,176.227 66.9085,176.227 66.596,176 66.4767,175.633 66.596,175.265 66.9085,175.038 67.2948,175.038 67.6073,175.265 67.7267,175.633" fill="none" stroke-linecap="round"/>
   <polygon shape-rendering="crispEdges" points="69.3417,12.9689 69.0292,13.196 68.6429,13.196 68.3304,12.9689 68.211,12.6016 68.3304,12.2342 68.6429,12.0071 69.0292,12.0071 69.3417,12.2342 69.461,12.6016" fill="#00007f"/>
   <polyline stroke="#000000" stroke-width="0.5" stroke-linejoin="round" points="69.461,12.6016 69.3417,12.9689 69.0292,13.196 68.6429,13.196 68.3304,12.9689 68.211,12.6016 68.3304,12.2342 68.6429,12.0071 69.0292,12.0071 69.3417,12.2342 69.461,12.6016" fill="none" stroke-linecap="round"/>
   <polygon shape-rendering="crispEdges" points="71.076,174.265 70.7635,174.493 70.3773,174.493 70.0648,174.265 69.9454,173.898 70.0648,173.531 70.3773,173.304 70.7635,173.304 71.076,173.531 71.1954,173.898" fill="#00007f"/>
   <polyline stroke="#000000" stroke-width="0.5" stroke-linejoin="round" points="71.1954,173.898 71.076,174.265 70.7635,174.493 70.3773,174.493 70.0648,174.265 69.9454,173.898 70.0648,173.531 70.3773,173.304 70.7635,173.304 71.076,173.531 71.1954,173.898" fill="none" stroke-linecap="round"/>
   <polygon shape-rendering="crispEdges" points="72.8104,170.797 72.4979,171.024 72.1116,171.024 71.7991,170.797 71.6798,170.429 71.7991,170.062 72.1116,169.835 72.4979,169.835 72.8104,170.062 72.9298,170.429" fill="#00007f"/>
   <polyline stroke="#000000" stroke-width="0.5" stroke-linejoin="round" points="72.9298,170.429 72.8104,170.797 72.4979,171.024 72.1116,171.024 71.7991,170.797 71.6798,170.429 71.7991,170.062 72.1116,169.835 72.4979,169.835 72.8104,170.062 72.9298,170.429" fill="none" stroke-linecap="round"/>
   <polygon shape-rendering="crispEdges" points="74.5448,169.062 74.2323,169.289 73.846,169.289 73.5335,169.062 73.4142,168.695 73.5335,168.328 73.846,168.101 74.2323,168.101 74.5448,168.328 74.6642,168.695" fill="#00007f"/>
   <polyline stroke="#000000" stroke-width="0.5" stroke-linejoin="round" points="74.6642,168.695 74.5448,169.062 74.2323,169.289 73.846,169.289 73.5335,169.062 73.4142,168.695 73.5335,168.328 73.846,168.101 74.2323,168.101 74.5448,168.328 74.6642,168.695" fill="none" stroke-linecap="round"/>
   <polygon shape-rendering="crispEdges" points="76.2792,167.328 75.9667,167.555 75.5804,167.555 75.2679,167.328 75.1485,166.961 75.2679,166.593 75.5804,166.366 75.9667,166.366 76.2792,166.593 76.3985,166.961" fill="#00007f"/>
   <polyline stroke="#000000" stroke-width="0.5" stroke-linejoin="round" points="76.3985,166.961 76.2792,167.328 75.9667,167.555 75.5804,167.555 75.2679,167.328 75.1485,166.961 75.2679,166.593 75.5804,166.366 75.9667,166.366 76.2792,166.593 76.3985,166.961" fill="none" stroke-linecap="round"/>
   <polygon shape-rendering="crispEdges" points="78.0135,165.594 77.701,165.821 77.3148,165.821 77.0023,165.594 76.8829,165.226 77.0023,164.859 77.3148,164.632 77.701,164.632 78.0135,164.859 78.1329,165.226" fill="#00007f"/>
   <polyline stroke="#000000" stroke-width="0.5" stroke-linejoin="round" points="78.1329,165.226 78.0135,165.594 77.701,165.821 77.3148,165.821 77.0023,165.594 76.8829,165.226 77.0023,164.859 77.3148,164.632 77.701,164.632 78.0135,164.859 78.1329,165.226" fill="none" stroke-linecap="round"/>
   <polygon shape-rendering="crispEdges" points="79.7479,163.859 79.4354,164.086 79.0491,164.086 78.7366,163.859 78.6173,163.492 78.7366,163.125 79.0491,162.897 79.4354,162.897 79.7479,163.125 79.8673,163.492" fill="#00007f"/>
   <polyline stroke="#000000" stroke-width="0.5" stroke-linejoin="round" points="79.8673,163.492 79.7479,163.859 79.4354,164.086 79.0491,164.086 78.7366,163.859 78.6173,163.492 78.7366,163.125 79.0491,162.897 79.4354,162.897 79.7479,163.125 79.8673,163.492" fill="none" stroke-linecap="round"/>
   <polygon shape-rendering="crispEdges" points="81.4823,162.125 81.1698,162.352 80.7835,162.352 80.471,162.125 80.3516,161.758 80.471,161.39 80.7835,161.163 81.1698,161.163 81.4823,161.39 81.6016,161.758" fill="#00007f"/>
   <polyline stroke="#000000" stroke-width="0.5" stroke-linejoin="round" points="81.6016,161.758 81.4823,162.125 81.1698,162.352 80.7835,162.352 80.471,162.125 80.3516,161.758 80.471,161.39 80.7835,161.163 81.1698,161.163 81.4823,161.39 81.6016,161.758" fill="none" stroke-linecap="round"/>
   <polygon shape-rendering="crispEdges" points="83.2166,160.391 82.9041,160.618 82.5179,160.618 82.2054,160.391 82.086,160.023 82.2054,159.656 82.5179,159.429 82.9041,159.429 83.2166,159.656 83.336,160.023" fill="#00007f"/>
   <polyline stroke="#000000" stroke-width="0.5" stroke-linejoin="round" points="83.336,160.023 83.2166,160.391 82.9041,160.618 82.5179,160.618 82.2054,160.391 82.086,160.023 82.2054,159.656 82.5179,159.429 82.9041,159.429 83.2166,159.656 83.336,160.023" fill="none" stroke-linecap="round"/>
   <polygon shape-rendering="crispEdges" points="84.951,158.656 84.6385,158.883 84.2523,158.883 83.9398,158.656 83.8204,158.289 83.9398,157.921 84.2523,157.694 84.6385,157.694 84.951,157.921 85.0704,158.289" fill="#00007f"/>
   <polyline stroke="#000000" stroke-width="0.5" stroke-linejoin="round" points="85.0704,158.289 84.951,158.656 84.6385,158.883 84.2523,158.883 83.9398,158.656 83.8204,158.289 83.9398,157.921 84.2523,157.694 84.6385,157.694 84.951,157.921 85.0704,158.289" fill="none" stroke-linecap="round"/>
   <polygon shape-rendering="crispEdges" points="86.6854,156.922 86.3729,157.149 85.9866,157.149 85.6741,156.922 85.5548,156.554 85.6741,156.187 85.9866,155.96 86.3729,155.96 86.6854,156.187 86.8048,156.554" fill="#00007f"/>
   <polyline stroke="#000000" stroke-width="0.5" stroke-linejoin="round" points="86.8048,156.554 86.6854,156.922 86.3729,157.149 85.9866,157.149 85.6741,156.922 85.5548,156.554 85.6741,156.187 85.9866,155.96 86.3729,155.96 86.6854,156.187 86.8048,156.554" fill="none" stroke-linecap="round"/>
   <polygon shape-rendering="crispEdges" points="88.4198,155.187 88.1073,155.414 87.721,155.414 87.4085,155.187 87.2891,154.82 87.4085,154.453 87.721,154.226 88.1073,154.226 88.4198,154.453 88.5391,154.82" fill="#00007f"/>
   <polyline stroke="#000000" stroke-width="0.5" stroke-linejoin="round" points="88.5391,154.82 88.4198,155.187 88.1073,155.414 87.721,155.414 87.4085,155.187 87.2891,154.82 87.4085,154.453 87.721,154.226 88.1073,154.226 88.4198,154.453 88.5391,154.82" fill="none" stroke-linecap="round"/>
   <polygon shape-rendering="crispEdges" points="90.1541,153.453 89.8416,153.68 89.4554,153.68 89.1429,153.453 89.0235,153.086 89.1429,152.718 89.4554,152.491 89.8416,152.491 90.1541,152.718 90.2735,153.086" fill="#00007f"/>
   <polyline stroke="#000000" stroke-width="0.5" stroke-linejoin="round" points="90.2735,153.086 90.1541,153.453 89.8416,153.68 89.4554,153.68 89.1429,153.453 89.0235,153.086 89.1429,152.718 89.4554,152.491 89.8416,152.491 90.1541,152.718 90.2735,153.086" fill="none" stroke-linecap="round"/>
   <polygon shape-rendering="crispEdges" points="91.8885,75.4063 91.576,75.6334 91.1897,75.6334 90.8772,75.4063 90.7579,75.0389 90.8772,74.6716 91.1897,74.4445 91.576,74.4445 91.8885,74.6716 92.0079,75.0389" fill="#00007f"/>
   <polyline stroke="#000000" stroke-width="0.5" stroke-linejoin="round" points="92.0079,75.0389 91.8885,75.4063 91.576,75.6334 91.1897,75.6334 90.8772,75.4063 90.7579,75.0389 90.8772,74.6716 91.1897,74.4445 91.576,74.4445 91.8885,74.6716 92.0079,75.0389" fill="none" stroke-linecap="round"/>
   <polygon shape-rendering="crispEdges" points="93.6229,151.719 93.3104,151.946 92.9241,151.946 92.6116,151.719 92.4922,151.351 92.6116,150.984 92.9241,150.757 93.3104,150.757 93.6229,150.984 93.7422,151.351" fill="#00007f"/>
   <polyline stroke="#000000" stroke-width="0.5" stroke-linejoin="round" points="93.7422,151.351 93.6229,151.719 93.3104,151.946 92.9241,151.946 92.6116,151.719 92.4922,151.351 92.6116,150.984 92.9241,150.757 93.3104,150.757 93.6229,150.984 93.7422,151.351" fill="none" stroke-linecap="round"/>
   <polygon shape-rendering="crispEdges" points="95.3573,149.984 95.0448,150.211 94.6585,150.211 94.346,149.984 94.2266,149.617 94.346,149.25 94.6585,149.023 95.0448,149.023 95.3573,149.25 95.4766,149.617" fill="#00007f"/>
   <polyline stroke="#000000" stroke-width="0.5" stroke-linejoin="round" points="95.4766,149.617 95.3573,149.984 95.0448,150.211 94.6585,150.211 94.346,149.984 94.2266,149.617 94.346,149.25 94.6585,149.023 95.0448,149.023 95.3573,149.25 95.4766,149.617" fill="none" stroke-linecap="round"/>
   <polygon shape-rendering="crispEdges" points="97.0916,148.25 96.7791,148.477 96.3929,148.477 96.0804,148.25 95.961,147.883 96.0804,147.515 96.3929,147.288 96.7791,147.288 97.0916,147.515 97.211,147.883" fill="#00007f"/>
   <polyline stroke="#000000" stroke-width="0.5" stroke-linejoin="round" points="97.211,147.883 97.0916,148.25 96.7791,148.477 96.3929,148.477 96.0804,148.25 95.961,147.883 96.0804,147.515 96.3929,147.288 96.7791,147.288 97.0916,147.515 97.211,147.883" fill="none" stroke-linecap="round"/>
   <polygon shape-rendering="crispEdges" points="98.826,146.516 98.5135,146.743 98.1272,146.743 97.8147,146.516 97.6954,146.148 97.8147,145.781 98.1272,145.554 98.5135,145.554 98.826,145.781 98.9454,146.148" fill="#00007f"/>
   <polyline stroke="#000000" stroke-width="0.5" stroke-linejoin="round" points="98.9454,146.148 98.826,146.516 98.5135,146.743 98.1272,146.743 97.8147,146.516 97.6954,146.148 97.8147,145.781 98.1272,145.554 98.5135,145.554 98.826,145.781 98.9454,146.148" fill="none" stroke-linecap="round"/>
   <polygon shape-rendering="crispEdges" points="100.56,144.781 100.248,145.008 99.8616,145.008 99.5491,144.781 99.4297,144.414 99.5491,144.046 99.8616,143.819 100.248,143.819 100.56,144.046 100.68,144.414" fill="#00007f"/>
   <polyline stroke="#000000" stroke-width="0.5" stroke-linejoin="round" points="100.68,144.414 100.56,144.781 100.248,145.008 99.8616,145.008 99.5491,144.781 99.4297,144.414 99.5491,144.046 99.8616,143.819 100.248,143.819 100.56,144.046 100.68,144.414" fill="none" stroke-linecap="round"/>
   <polygon shape-rendering="crispEdges" points="102.295,143.047 101.982,143.274 101.596,143.274 101.283,143.047 101.164,142.679 101.283,142.312 101.596,142.085 101.982,142.085 102.295,142.312 102.414,142.679" fill="#00007f"/>
   <polyline stroke="#000000" stroke-width="0.5" stroke-linejoin="round" points="102.414,142.679 102.295,143.047 101.982,143.274 101.596,143.274 101.283,143.047 101.164,142.679 101.283,142.312 101.596,142.085 101.982,142.085 102.295,142.312 102.414,142.679" fill="none" stroke-linecap="round"/>
   <polygon shape-rendering="crispEdges" points="104.029,141.312 103.717,141.539 103.33,141.539 103.018,141.312 102.898,140.945 103.018,140.578 103.33,140.351 103.717,140.351 104.029,140.578 104.148,140.945" fill="#00007f"/>
   <polyline stroke="#000000" stroke-width="0.5" stroke-linejoin="round" points="104.148,140.945 104.029,141.312 103.717,141.539 103.33,141.539 103.018,141.312 102.898,140.945 103.018,140.578 103.33,140.351 103.717,140.351 104.029,140.578 104.148,140.945" fill="none" stroke-linecap="round"/>
   <polygon shape-rendering="crispEdges" points="105.763,172.531 105.451,172.758 105.065,172.758 104.752,172.531 104.633,172.164 104.752,171.796 105.065,171.569 105.451,171.569 105.763,171.796 105.883,172.164" fill="#00007f"/>
   <polyline stroke="#000000" stroke-width="0.5" stroke-linejoin="round" points="105.883,172.164 105.763,172.531 105.451,172.758 105.065,172.758 104.752,172.531 104.633,172.164 104.752,171.796 105.065,171.569 105.451,171.569 105.763,171.796 105.883,172.164" fill="none" stroke-linecap="round"/>
   <polygon shape-rendering="crispEdges" points="107.498,139.578 107.185,139.805 106.799,139.805 106.487,139.578 106.367,139.211 106.487,138.843 106.799,138.616 107.185,138.616 107.498,138.843 107.617,139.211" fill="#00007f"/>
   <polyline stroke="#000000" stroke-width="0.5" stroke-linejoin="round" points="107.617,139.211 107.498,139.578 107.185,139.805 106.799,139.805 106.487,139.578 106.367,139.211 106.487,138.843 106.799,138.616 107.185,138.616 107.498,138.843 107.617,139.211" fill="none" stroke-linecap="round"/>
   <polygon shape-rendering="crispEdges" points="109.232,137.844 108.92,138.071 108.533,138.071 108.221,137.844 108.102,137.476 108.221,137.109 108.533,136.882 108.92,136.882 109.232,137.109 109.352,137.476" fill="#00007f"/>
   <polyline stroke="#000000" stroke-width="0.5" stroke-linejoin="round" points="109.352,137.476 109.232,137.844 108.92,138.071 108.533,138.071 108.221,137.844 108.102,137.476 108.221,137.109 108.533,136.882 108.92,136.882 109.232,137.109 109.352,137.476" fill="none" stroke-linecap="round"/>
   <polygon shape-rendering="crispEdges" points="110.967,136.109 110.654,136.336 110.268,136.336 109.955,136.109 109.836,135.742 109.955,135.375 110.268,135.148 110.654,135.148 110.967,135.375 111.086,135.742" fill="#00007f"/>
   <polyline stroke="#000000" stroke-width="0.5" stroke-linejoin="round" points="111.086,135.742 110.967,136.109 110.654,136.336 110.268,136.336 109.955,136.109 109.836,135.742 109.955,135.375 110.268,135.148 110.654,135.148 110.967,135.375 111.086,135.742" fill="none" stroke-linecap="round"/>
   <polygon shape-rendering="crispEdges" points="112.701,134.375 112.388,134.602 112.002,134.602 111.69,134.375 111.57,134.008 111.69,133.64 112.002,133.413 112.388,133.413 112.701,133.64 112.82,134.008" fill="#00007f"/>
   <polyline stroke="#000000" stroke-width="0.5" stroke-linejoin="round" points="112.82,134.008 112.701,134.375 112.388,134.602 112.002,134.602 111.69,134.375 111.57,134.008 111.69,133.64 112.002,133.413 112.388,133.413 112.701,133.64 112.82,134.008" fill="none" stroke-linecap="round"/>
   <polygon shape-rendering="crispEdges" points="114.435,132.641 114.123,132.868 113.737,132.868 113.424,132.641 113.305,132.273 113.424,131.906 113.737,131.679 114.123,131.679 114.435,131.906 114.555,132.273" fill="#00007f"/>
   <polyline stroke="#000000" stroke-width="0.5" stroke-linejoin="round" points="114.555,132.273 114.435,132.641 114.123,132.868 113.737,132.868 113.424,132.641 113.305,132.273 113.424,131.906 113.737,131.679 114.123,131.679 114.435,131.906 114.555,132.273" fill="none" stroke-linecap="round"/>
   <polygon shape-rendering="crispEdges" points="116.17,130.906 115.857,131.133 115.471,131.133 115.158,130.906 115.039,130.539 115.158,130.171 115.471,129.944 115.857,129.944 116.17,130.171 116.289,130.539" fill="#00007f"/>
   <polyline stroke="#000000" stroke-width="0.5" stroke-linejoin="round" points="116.289,130.539 116.17,130.906 115.857,131.133 115.471,131.133 115.158,130.906 115.039,130.539 115.158,130.171 115.471,129.944 115.857,129.944 116.17,130.171 116.289,130.539" fill="none" stroke-linecap="round"/>
   <polygon shape-rendering="crispEdges" points="117.904,129.172 117.592,129.399 117.205,129.399 116.893,129.172 116.773,128.804 116.893,128.437 117.205,128.21 117.592,128.21 117.904,128.437 118.023,128.804" fill="#00007f"/>
   <polyline stroke="#000000" stroke-width="0.5" stroke-linejoin="round" points="118.023,128.804 117.904,129.172 117.592,129.399 117.205,129.399 116.893,129.172 116.773,128.804 116.893,128.437 117.205,128.21 117.592,128.21 117.904,128.437 118.023,128.804" fill="none" stroke-linecap="round"/>
   <polygon shape-rendering="crispEdges" points="119.638,127.437 119.326,127.665 118.94,127.665 118.627,127.437 118.508,127.07 118.627,126.703 118.94,126.476 119.326,126.476 119.638,126.703 119.758,127.07" fill="#00007f"/>
   <polyline stroke="#000000" stroke-width="0.5" stroke-linejoin="round" points="119.758,127.07 119.638,127.437 119.326,127.665 118.94,127.665 118.627,127.437 118.508,127.07 118.627,126.703 118.94,126.476 119.326,126.476 119.638,126.703 119.758,127.07" fill="none" stroke-linecap="round"/>
   <polygon shape-rendering="crispEdges" points="121.373,125.703 121.06,125.93 120.674,125.93 120.362,125.703 120.242,125.336 120.362,124.968 120.674,124.741 121.06,124.741 121.373,124.968 121.492,125.336" fill="#00007f"/>
   <polyline stroke="#000000" stroke-width="0.5" stroke-linejoin="round" points="121.492,125.336 121.373,125.703 121.06,125.93 120.674,125.93 120.362,125.703 120.242,125.336 120.362,124.968 120.674,124.741 121.06,124.741 121.373,124.968 121.492,125.336" fill="none" stroke-linecap="round"/>
   <polygon shape-rendering="crispEdges" points="123.107,123.969 122.795,124.196 122.408,124.196 122.096,123.969 121.977,123.601 122.096,123.234 122.408,123.007 122.795,123.007 123.107,123.234 123.227,123.601" fill="#00007f"/>
   <polyline stroke="#000000" stroke-width="0.5" stroke-linejoin="round" points="123.227,123.601 123.107,123.969 122.795,124.196 122.408,124.196 122.096,123.969 121.977,123.601 122.096,123.234 122.408,123.007 122.795,123.007 123.107,123.234 123.227,123.601" fill="none" stroke-linecap="round"/>
   <polygon shape-rendering="crispEdges" points="124.842,120.5 124.529,120.727 124.143,120.727 123.83,120.5 123.711,120.133 123.83,119.765 124.143,119.538 124.529,119.538 124.842,119.765 124.961,120.133" fill="#00007f"/>
   <polyline stroke="#000000" stroke-width="0.5" stroke-linejoin="round" points="124.961,120.133 124.842,120.5 124.529,120.727 124.143,120.727 123.83,120.5 123.711,120.133 123.83,119.765 124.143,119.538 124.529,119.538 124.842,119.765 124.961,120.133" fill="none" stroke-linecap="round"/>
   <polygon shape-rendering="crispEdges" points="126.576,118.766 126.263,118.993 125.877,118.993 125.565,118.766 125.445,118.398 125.565,118.031 125.877,117.804 126.263,117.804 126.576,118.031 126.695,118.398" fill="#00007f"/>
   <polyline stroke="#000000" stroke-width="0.5" stroke-linejoin="round" points="126.695,118.398 126.576,118.766 126.263,118.993 125.877,118.993 125.565,118.766 125.445,118.398 125.565,118.031 125.877,117.804 126.263,117.804 126.576,118.031 126.695,118.398" fill="none" stroke-linecap="round"/>
   <polygon shape-rendering="crispEdges" points="128.31,117.031 127.998,117.258 127.612,117.258 127.299,117.031 127.18,116.664 127.299,116.296 127.612,116.069 127.998,116.069 128.31,116.296 128.43,116.664" fill="#00007f"/>
   <polyline stroke="#000000" stroke-width="0.5" stroke-linejoin="round" points="128.43,116.664 128.31,117.031 127.998,117.258 127.612,117.258 127.299,117.031 127.18,116.664 127.299,116.296 127.612,116.069 127.998,116.069 128.31,116.296 128.43,116.664" fill="none" stroke-linecap="round"/>
   <polygon shape-rendering="crispEdges" points="130.045,115.297 129.732,115.524 129.346,115.524 129.033,115.297 128.914,114.929 129.033,114.562 129.346,114.335 129.732,114.335 130.045,114.562 130.164,114.929" fill="#00007f"/>
   <polyline stroke="#000000" stroke-width="0.5" stroke-linejoin="round" points="130.164,114.929 130.045,115.297 129.732,115.524 129.346,115.524 129.033,115.297 128.914,114.929 129.033,114.562 129.346,114.335 129.732,114.335 130.045,114.562 130.164,114.929" fill="none" stroke-linecap="round"/>
   <polygon shape-rendering="crispEdges" points="131.779,113.562 131.467,113.79 131.08,113.79 130.768,113.562 130.648,113.195 130.768,112.828 131.08,112.601 131.467,112.601 131.779,112.828 131.898,113.195" fill="#00007f"/>
   <polyline stroke="#000000" stroke-width="0.5" stroke-linejoin="round" points="131.898,113.195 131.779,113.562 131.467,113.79 131.08,113.79 130.768,113.562 130.648,113.195 130.768,112.828 131.08,112.601 131.467,112.601 131.779,112.828 131.898,113.195" fill="none" stroke-linecap="round"/>
   <polygon shape-rendering="crispEdges" points="133.513,111.828 133.201,112.055 132.815,112.055 132.502,111.828 132.383,111.461 132.502,111.093 132.815,110.866 133.201,110.866 133.513,111.093 133.633,111.461" fill="#00007f"/>
   <polyline stroke="#000000" stroke-width="0.5" stroke-linejoin="round" points="133.633,111.461 133.513,111.828 133.201,112.055 132.815,112.055 132.502,111.828 132.383,111.461 132.502,111.093 132.815,110.866 133.201,110.866 133.513,111.093 133.633,111.461" fill="none" stroke-linecap="round"/>
   <polygon shape-rendering="crispEdges" points="135.248,110.094 134.935,110.321 134.549,110.321 134.237,110.094 134.117,109.726 134.237,109.359 134.549,109.132 134.935,109.132 135.248,109.359 135.367,109.726" fill="#00007f"/>
   <polyline stroke="#000000" stroke-width="0.5" stroke-linejoin="round" points="135.367,109.726 135.248,110.094 134.935,110.321 134.549,110.321 134.237,110.094 134.117,109.726 134.237,109.359 134.549,109.132 134.935,109.132 135.248,109.359 135.367,109.726" fill="none" stroke-linecap="round"/>
   <polygon shape-rendering="crispEdges" points="136.982,108.359 136.67,108.586 136.283,108.586 135.971,108.359 135.852,107.992 135.971,107.625 136.283,107.398 136.67,107.398 136.982,107.625 137.102,107.992" fill="#00007f"/>
   <polyline stroke="#000000" stroke-width="0.5" stroke-linejoin="round" points="137.102,107.992 136.982,108.359 136.67,108.586 136.283,108.586 135.971,108.359 135.852,107.992 135.971,107.625 136.283,107.398 136.67,107.398 136.982,107.625 137.102,107.992" fill="none" stroke-linecap="round"/>
   <polygon shape-rendering="crispEdges" points="138.717,106.625 138.404,106.852 138.018,106.852 137.705,106.625 137.586,106.258 137.705,105.89 138.018,105.663 138.404,105.663 138.717,105.89 138.836,106.258" fill="#00007f"/>
   <polyline stroke="#000000" stroke-width="0.5" stroke-linejoin="round" points="138.836,106.258 138.717,106.625 138.404,106.852 138.018,106.852 137.705,106.625 137.586,106.258 137.705,105.89 138.018,105.663 138.404,105.663 138.717,105.89 138.836,106.258" fill="none" stroke-linecap="round"/>
   <polygon shape-rendering="crispEdges" points="140.451,104.891 140.138,105.118 139.752,105.118 139.44,104.891 139.32,104.523 139.44,104.156 139.752,103.929 140.138,103.929 140.451,104.156 140.57,104.523" fill="#00007f"/>
   <polyline stroke="#000000" stroke-width="0.5" stroke-linejoin="round" points="140.57,104.523 140.451,104.891 140.138,105.118 139.752,105.118 139.44,104.891 139.32,104.523 139.44,104.156 139.752,103.929 140.138,103.929 140.451,104.156 140.57,104.523" fill="none" stroke-linecap="round"/>
   <polygon shape-rendering="crispEdges" points="142.185,103.156 141.873,103.383 141.487,103.383 141.174,103.156 141.055,102.789 141.174,102.422 141.487,102.194 141.873,102.194 142.185,102.422 142.305,102.789" fill="#00007f"/>
   <polyline stroke="#000000" stroke-width="0.5" stroke-linejoin="round" points="142.305,102.789 142.185,103.156 141.873,103.383 141.487,103.383 141.174,103.156 141.055,102.789 141.174,102.422 141.487,102.194 141.873,102.194 142.185,102.422 142.305,102.789" fill="none" stroke-linecap="round"/>
   <polygon shape-rendering="crispEdges" points="143.92,101.422 143.607,101.649 143.221,101.649 142.908,101.422 142.789,101.055 142.908,100.687 143.221,100.46 143.607,100.46 143.92,100.687 144.039,101.055" fill="#00007f"/>
   <polyline stroke="#000000" stroke-width="0.5" stroke-linejoin="round" points="144.039,101.055 143.92,101.422 143.607,101.649 143.221,101.649 142.908,101.422 142.789,101.055 142.908,100.687 143.221,100.46 143.607,100.46 143.92,100.687 144.039,101.055" fill="none" stroke-linecap="round"/>
   <polygon shape-rendering="crispEdges" points="145.654,99.6875 145.342,99.9146 144.955,99.9146 144.643,99.6875 144.523,99.3201 144.643,98.9528 144.955,98.7257 145.342,98.7257 145.654,98.9528 145.773,99.3201" fill="#00007f"/>
   <polyline stroke="#000000" stroke-width="0.5" stroke-linejoin="round" points="145.773,99.3201 145.654,99.6875 145.342,99.9146 144.955,99.9146 144.643,99.6875 144.523,99.3201 144.643,98.9528 144.955,98.7257 145.342,98.7257 145.654,98.9528 145.773,99.3201" fill="none" stroke-linecap="round"/>
   <polygon shape-rendering="crispEdges" points="147.388,40.7189 147.076,40.9459 146.69,40.9459 146.377,40.7189 146.258,40.3515 146.377,39.9841 146.69,39.7571 147.076,39.7571 147.388,39.9841 147.508,40.3515" fill="#00007f"/>
   <polyline stroke="#000000" stroke-width="0.5" stroke-linejoin="round" points="147.508,40.3515 147.388,40.7189 147.076,40.9459 146.69,40.9459 146.377,40.7189 146.258,40.3515 146.377,39.9841 146.69,39.7571 147.076,39.7571 147.388,39.9841 147.508,40.3515" fill="none" stroke-linecap="round"/>
   <polygon shape-rendering="crispEdges" points="149.123,97.9531 148.81,98.1802 148.424,98.1802 148.111,97.9531 147.992,97.5858 148.111,97.2184 148.424,96.9914 148.81,96.9914 149.123,97.2184 149.242,97.5858" fill="#00007f"/>
   <polyline stroke="#000000" stroke-width="0.5" stroke-linejoin="round" points="149.242,97.5858 149.123,97.9531 148.81,98.1802 148.424,98.1802 148.111,97.9531 147.992,97.5858 148.111,97.2184 148.424,96.9914 148.81,96.9914 149.123,97.2184 149.242,97.5858" fill="none" stroke-linecap="round"/>
   <polygon shape-rendering="crispEdges" points="150.857,96.2188 150.545,96.4458 150.158,96.4458 149.846,96.2188 149.727,95.8514 149.846,95.484 150.158,95.257 150.545,95.257 150.857,95.484 150.977,95.8514" fill="#00007f"/>
   <polyline stroke="#000000" stroke-width="0.5" stroke-linejoin="round" points="150.977,95.8514 150.857,96.2188 150.545,96.4458 150.158,96.4458 149.846,96.2188 149.727,95.8514 149.846,95.484 150.158,95.257 150.545,95.257 150.857,95.484 150.977,95.8514" fill="none" stroke-linecap="round"/>
   <polygon shape-rendering="crispEdges" points="152.592,94.4844 152.279,94.7114 151.893,94.7114 151.58,94.4844 151.461,94.117 151.58,93.7497 151.893,93.5226 152.279,93.5226 152.592,93.7497 152.711,94.117" fill="#00007f"/>
   <polyline stroke="#000000" stroke-width="0.5" stroke-linejoin="round" points="152.711,94.117 152.592,94.4844 152.279,94.7114 151.893,94.7114 151.58,94.4844 151.461,94.117 151.58,93.7497 151.893,93.5226 152.279,93.5226 152.592,93.7497 152.711,94.117" fill="none" stroke-linecap="round"/>
   <polygon shape-rendering="crispEdges" points="154.326,92.75 154.013,92.9771 153.627,92.9771 153.315,92.75 153.195,92.3827 153.315,92.0153 153.627,91.7883 154.013,91.7883 154.326,92.0153 154.445,92.3827" fill="#00007f"/>
   <polyline stroke="#000000" stroke-width="0.5" stroke-linejoin="round" points="154.445,92.3827 154.326,92.75 154.013,92.9771 153.627,92.9771 153.315,92.75 153.195,92.3827 153.315,92.0153 153.627,91.7883 154.013,91.7883 154.326,92.0153 154.445,92.3827" fill="none" stroke-linecap="round"/>
   <polygon shape-rendering="crispEdges" points="156.06,91.0157 155.748,91.2427 155.361,91.2427 155.049,91.0157 154.93,90.6483 155.049,90.2809 155.361,90.0539 155.748,90.0539 156.06,90.2809 156.18,90.6483" fill="#00007f"/>
   <polyline stroke="#000000" stroke-width="0.5" stroke-linejoin="round" points="156.18,90.6483 156.06,91.0157 155.748,91.2427 155.361,91.2427 155.049,91.0157 154.93,90.6483 155.049,90.2809 155.361,90.0539 155.748,90.0539 156.06,90.2809 156.18,90.6483" fill="none" stroke-linecap="round"/>
   <polygon shape-rendering="crispEdges" points="157.795,89.2813 157.482,89.5083 157.096,89.5083 156.783,89.2813 156.664,88.9139 156.783,88.5465 157.096,88.3195 157.482,88.3195 157.795,88.5465 157.914,88.9139" fill="#00007f"/>
   <polyline stroke="#000000" stroke-width="0.5" stroke-linejoin="round" points="157.914,88.9139 157.795,89.2813 157.482,89.5083 157.096,89.5083 156.783,89.2813 156.664,88.9139 156.783,88.5465 157.096,88.3195 157.482,88.3195 157.795,88.5465 157.914,88.9139" fill="none" stroke-linecap="round"/>
   <polygon shape-rendering="crispEdges" points="159.529,87.5469 159.217,87.774 158.83,87.774 158.518,87.5469 158.398,87.1796 158.518,86.8122 158.83,86.5851 159.217,86.5851 159.529,86.8122 159.648,87.1796" fill="#00007f"/>
   <polyline stroke="#000000" stroke-width="0.5" stroke-linejoin="round" points="159.648,87.1796 159.529,87.5469 159.217,87.774 158.83,87.774 158.518,87.5469 158.398,87.1796 158.518,86.8122 158.83,86.5851 159.217,86.5851 159.529,86.8122 159.648,87.1796" fill="none" stroke-linecap="round"/>
   <polygon shape-rendering="crispEdges" points="161.263,85.8125 160.951,86.0396 160.565,86.0396 160.252,85.8125 160.133,85.4452 160.252,85.0778 160.565,84.8508 160.951,84.8508 161.263,85.0778 161.383,85.4452" fill="#00007f"/>
   <polyline stroke="#000000" stroke-width="0.5" stroke-linejoin="round" points="161.383,85.4452 161.263,85.8125 160.951,86.0396 160.565,86.0396 160.252,85.8125 160.133,85.4452 160.252,85.0778 160.565,84.8508 160.951,84.8508 161.263,85.0778 161.383,85.4452" fill="none" stroke-linecap="round"/>
   <polygon shape-rendering="crispEdges" points="162.998,84.0782 162.685,84.3052 162.299,84.3052 161.986,84.0782 161.867,83.7108 161.986,83.3434 162.299,83.1164 162.685,83.1164 162.998,83.3434 163.117,83.7108" fill="#00007f"/>
   <polyline stroke="#000000" stroke-width="0.5" stroke-linejoin="round" points="163.117,83.7108 162.998,84.0782 162.685,84.3052 162.299,84.3052 161.986,84.0782 161.867,83.7108 161.986,83.3434 162.299,83.1164 162.685,83.1164 162.998,83.3434 163.117,83.7108" fill="none" stroke-linecap="round"/>
   <polygon shape-rendering="crispEdges" points="164.732,82.3438 164.42,82.5708 164.033,82.5708 163.721,82.3438 163.601,81.9764 163.721,81.6091 164.033,81.382 164.42,81.382 164.732,81.6091 164.851,81.9764" fill="#00007f"/>
   <polyline stroke="#000000" stroke-width="0.5" stroke-linejoin="round" points="164.851,81.9764 164.732,82.3438 164.42,82.5708 164.033,82.5708 163.721,82.3438 163.601,81.9764 163.721,81.6091 164.033,81.382 164.42,81.382 164.732,81.6091 164.851,81.9764" fill="none" stroke-linecap="round"/>
   <polygon shape-rendering="crispEdges" points="166.466,80.6094 166.154,80.8365 165.768,80.8365 165.455,80.6094 165.336,80.2421 165.455,79.8747 165.768,79.6476 166.154,79.6476 166.466,79.8747 166.586,80.2421" fill="#00007f"/>
   <polyline stroke="#000000" stroke-width="0.5" stroke-linejoin="round" points="166.586,80.2421 166.466,80.6094 166.154,80.8365 165.768,80.8365 165.455,80.6094 165.336,80.2421 165.455,79.8747 165.768,79.6476 166.154,79.6476 166.466,79.8747 166.586,80.2421" fill="none" stroke-linecap="round"/>
   <polygon shape-rendering="crispEdges" points="168.201,78.875 167.888,79.1021 167.502,79.1021 167.19,78.875 167.07,78.5077 167.19,78.1403 167.502,77.9133 167.888,77.9133 168.201,78.1403 168.32,78.5077" fill="#00007f"/>
   <polyline stroke="#000000" stroke-width="0.5" stroke-linejoin="round" points="168.32,78.5077 168.201,78.875 167.888,79.1021 167.502,79.1021 167.19,78.875 167.07,78.5077 167.19,78.1403 167.502,77.9133 167.888,77.9133 168.201,78.1403 168.32,78.5077" fill="none" stroke-linecap="round"/>
   <polygon shape-rendering="crispEdges" points="169.935,77.1407 169.623,77.3677 169.236,77.3677 168.924,77.1407 168.805,76.7733 168.924,76.4059 169.236,76.1789 169.623,76.1789 169.935,76.4059 170.055,76.7733" fill="#00007f"/>
   <polyline stroke="#000000" stroke-width="0.5" stroke-linejoin="round" points="170.055,76.7733 169.935,77.1407 169.623,77.3677 169.236,77.3677 168.924,77.1407 168.805,76.7733 168.924,76.4059 169.236,76.1789 169.623,76.1789 169.935,76.4059 170.055,76.7733" fill="none" stroke-linecap="round"/>
   <polygon shape-rendering="crispEdges" points="171.67,73.6719 171.357,73.899 170.971,73.899 170.658,73.6719 170.539,73.3046 170.658,72.9372 170.971,72.7102 171.357,72.7102 171.67,72.9372 171.789,73.3046" fill="#00007f"/>
   <polyline stroke="#000000" stroke-width="0.5" stroke-linejoin="round" points="171.789,73.3046 171.67,73.6719 171.357,73.899 170.971,73.899 170.658,73.6719 170.539,73.3046 170.658,72.9372 170.971,72.7102 171.357,72.7102 171.67,72.9372 171.789,73.3046" fill="none" stroke-linecap="round"/>
   <polygon shape-rendering="crispEdges" points="173.404,71.9376 173.091,72.1646 172.705,72.1646 172.393,71.9376 172.273,71.5702 172.393,71.2028 172.705,70.9758 173.091,70.9758 173.404,71.2028 173.523,71.5702" fill="#00007f"/>
   <polyline stroke="#000000" stroke-width="0.5" stroke-linejoin="round" points="173.523,71.5702 173.404,71.9376 173.091,72.1646 172.705,72.1646 172.393,71.9376 172.273,71.5702 172.393,71.2028 172.705,70.9758 173.091,70.9758 173.404,71.2028 173.523,71.5702" fill="none" stroke-linecap="round"/>
   <polygon shape-rendering="crispEdges" points="175.138,70.2032 174.826,70.4302 174.44,70.4302 174.127,70.2032 174.008,69.8358 174.127,69.4685 174.44,69.2414 174.826,69.2414 175.138,69.4685 175.258,69.8358" fill="#00007f"/>
   <polyline stroke="#000000" stroke-width="0.5" stroke-linejoin="round" points="175.258,69.8358 175.138,70.2032 174.826,70.4302 174.44,70.4302 174.127,70.2032 174.008,69.8358 174.127,69.4685 174.44,69.2414 174.826,69.2414 175.138,69.4685 175.258,69.8358" fill="none" stroke-linecap="round"/>
   <polygon shape-rendering="crispEdges" points="176.873,68.4688 176.56,68.6959 176.174,68.6959 175.861,68.4688 175.742,68.1015 175.861,67.7341 176.174,67.507 176.56,67.507 176.873,67.7341 176.992,68.1015" fill="#00007f"/>
   <polyline stroke="#000000" stroke-width="0.5" stroke-linejoin="round" points="176.992,68.1015 176.873,68.4688 176.56,68.6959 176.174,68.6959 175.861,68.4688 175.742,68.1015 175.861,67.7341 176.174,67.507 176.56,67.507 176.873,67.7341 176.992,68.1015" fill="none" stroke-linecap="round"/>
   <polygon shape-rendering="crispEdges" points="178.607,66.7345 178.295,66.9615 177.908,66.9615 177.596,66.7345 177.476,66.3671 177.596,65.9997 177.908,65.7727 178.295,65.7727 178.607,65.9997 178.726,66.3671" fill="#00007f"/>
   <polyline stroke="#000000" stroke-width="0.5" stroke-linejoin="round" points="178.726,66.3671 178.607,66.7345 178.295,66.9615 177.908,66.9615 177.596,66.7345 177.476,66.3671 177.596,65.9997 177.908,65.7727 178.295,65.7727 178.607,65.9997 178.726,66.3671" fill="none" stroke-linecap="round"/>
   <polygon shape-rendering="crispEdges" points="180.341,65.0001 180.029,65.2271 179.643,65.2271 179.33,65.0001 179.211,64.6327 179.33,64.2654 179.643,64.0383 180.029,64.0383 180.341,64.2654 180.461,64.6327" fill="#00007f"/>
   <polyline stroke="#000000" stroke-width="0.5" stroke-linejoin="round" points="180.461,64.6327 180.341,65.0001 180.029,65.2271 179.643,65.2271 179.33,65.0001 179.211,64.6327 179.33,64.2654 179.643,64.0383 180.029,64.0383 180.341,64.2654 180.461,64.6327" fill="none" stroke-linecap="round"/>
   <polygon shape-rendering="crispEdges" points="182.076,63.2657 181.763,63.4928 181.377,63.4928 181.065,63.2657 180.945,62.8983 181.065,62.531 181.377,62.3039 181.763,62.3039 182.076,62.531 182.195,62.8983" fill="#00007f"/>
   <polyline stroke="#000000" stroke-width="0.5" stroke-linejoin="round" points="182.195,62.8983 182.076,63.2657 181.763,63.4928 181.377,63.4928 181.065,63.2657 180.945,62.8983 181.065,62.531 181.377,62.3039 181.763,62.3039 182.076,62.531 182.195,62.8983" fill="none" stroke-linecap="round"/>
   <polygon shape-rendering="crispEdges" points="183.81,61.5313 183.498,61.7584 183.111,61.7584 182.799,61.5313 182.68,61.164 182.799,60.7966 183.111,60.5695 183.498,60.5695 183.81,60.7966 183.93,61.164" fill="#00007f"/>
   <polyline stroke="#000000" stroke-width="0.5" stroke-linejoin="round" points="183.93,61.164 183.81,61.5313 183.498,61.7584 183.111,61.7584 182.799,61.5313 182.68,61.164 182.799,60.7966 183.111,60.5695 183.498,60.5695 183.81,60.7966 183.93,61.164" fill="none" stroke-linecap="round"/>
   <polygon shape-rendering="crispEdges" points="185.545,59.797 185.232,60.024 184.846,60.024 184.533,59.797 184.414,59.4296 184.533,59.0622 184.846,58.8352 185.232,58.8352 185.545,59.0622 185.664,59.4296" fill="#00007f"/>
   <polyline stroke="#000000" stroke-width="0.5" stroke-linejoin="round" points="185.664,59.4296 185.545,59.797 185.232,60.024 184.846,60.024 184.533,59.797 184.414,59.4296 184.533,59.0622 184.846,58.8352 185.232,58.8352 185.545,59.0622 185.664,59.4296" fill="none" stroke-linecap="round"/>
   <polygon shape-rendering="crispEdges" points="187.279,58.0626 186.966,58.2896 186.58,58.2896 186.268,58.0626 186.148,57.6952 186.268,57.3279 186.58,57.1008 186.966,57.1008 187.279,57.3279 187.398,57.6952" fill="#00007f"/>
   <polyline stroke="#000000" stroke-width="0.5" stroke-linejoin="round" points="187.398,57.6952 187.279,58.0626 186.966,58.2896 186.58,58.2896 186.268,58.0626 186.148,57.6952 186.268,57.3279 186.58,57.1008 186.966,57.1008 187.279,57.3279 187.398,57.6952" fill="none" stroke-linecap="round"/>
   <polygon shape-rendering="crispEdges" points="189.013,56.3282 188.701,56.5553 188.315,56.5553 188.002,56.3282 187.883,55.9608 188.002,55.5935 188.315,55.3664 188.701,55.3664 189.013,55.5935 189.133,55.9608" fill="#00007f"/>
   <polyline stroke="#000000" stroke-width="0.5" stroke-linejoin="round" points="189.133,55.9608 189.013,56.3282 188.701,56.5553 188.315,56.5553 188.002,56.3282 187.883,55.9608 188.002,55.5935 188.315,55.3664 188.701,55.3664 189.013,55.5935 189.133,55.9608" fill="none" stroke-linecap="round"/>
   <polygon shape-rendering="crispEdges" points="190.748,54.5938 190.435,54.8209 190.049,54.8209 189.736,54.5938 189.617,54.2265 189.736,53.8591 190.049,53.6321 190.435,53.6321 190.748,53.8591 190.867,54.2265" fill="#00007f"/>
   <polyline stroke="#000000" stroke-width="0.5" stroke-linejoin="round" points="190.867,54.2265 190.748,54.5938 190.435,54.8209 190.049,54.8209 189.736,54.5938 189.617,54.2265 189.736,53.8591 190.049,53.6321 190.435,53.6321 190.748,53.8591 190.867,54.2265" fill="none" stroke-linecap="round"/>
   <polygon shape-rendering="crispEdges" points="192.482,52.8595 192.17,53.0865 191.783,53.0865 191.471,52.8595 191.351,52.4921 191.471,52.1248 191.783,51.8977 192.17,51.8977 192.482,52.1248 192.601,52.4921" fill="#00007f"/>
   <polyline stroke="#000000" stroke-width="0.5" stroke-linejoin="round" points="192.601,52.4921 192.482,52.8595 192.17,53.0865 191.783,53.0865 191.471,52.8595 191.351,52.4921 191.471,52.1248 191.783,51.8977 192.17,51.8977 192.482,52.1248 192.601,52.4921" fill="none" stroke-linecap="round"/>
   <polygon shape-rendering="crispEdges" points="194.216,51.1251 193.904,51.3522 193.518,51.3522 193.205,51.1251 193.086,50.7577 193.205,50.3904 193.518,50.1633 193.904,50.1633 194.216,50.3904 194.336,50.7577" fill="#00007f"/>
   <polyline stroke="#000000" stroke-width="0.5" stroke-linejoin="round" points="194.336,50.7577 194.216,51.1251 193.904,51.3522 193.518,51.3522 193.205,51.1251 193.086,50.7577 193.205,50.3904 193.518,50.1633 193.904,50.1633 194.216,50.3904 194.336,50.7577" fill="none" stroke-linecap="round"/>
   <polygon shape-rendering="crispEdges" points="195.951,49.3907 195.638,49.6178 195.252,49.6178 194.94,49.3907 194.82,49.0234 194.94,48.656 195.252,48.429 195.638,48.429 195.951,48.656 196.07,49.0234" fill="#00007f"/>
   <polyline stroke="#000000" stroke-width="0.5" stroke-linejoin="round" points="196.07,49.0234 195.951,49.3907 195.638,49.6178 195.252,49.6178 194.94,49.3907 194.82,49.0234 194.94,48.656 195.252,48.429 195.638,48.429 195.951,48.656 196.07,49.0234" fill="none" stroke-linecap="round"/>
   <polygon shape-rendering="crispEdges" points="197.685,47.6564 197.373,47.8834 196.986,47.8834 196.674,47.6564 196.555,47.289 196.674,46.9216 196.986,46.6946 197.373,46.6946 197.685,46.9216 197.805,47.289" fill="#00007f"/>
   <polyline stroke="#000000" stroke-width="0.5" stroke-linejoin="round" points="197.805,47.289 197.685,47.6564 197.373,47.8834 196.986,47.8834 196.674,47.6564 196.555,47.289 196.674,46.9216 196.986,46.6946 197.373,46.6946 197.685,46.9216 197.805,47.289" fill="none" stroke-linecap="round"/>
   <polygon shape-rendering="crispEdges" points="199.42,45.922 199.107,46.149 198.721,46.149 198.408,45.922 198.289,45.5546 198.408,45.1873 198.721,44.9602 199.107,44.9602 199.42,45.1873 199.539,45.5546" fill="#00007f"/>
   <polyline stroke="#000000" stroke-width="0.5" stroke-linejoin="round" points="199.539,45.5546 199.42,45.922 199.107,46.149 198.721,46.149 198.408,45.922 198.289,45.5546 198.408,45.1873 198.721,44.9602 199.107,44.9602 199.42,45.1873 199.539,45.5546" fill="none" stroke-linecap="round"/>
   <polygon shape-rendering="crispEdges" points="201.154,44.1876 200.841,44.4147 200.455,44.4147 200.143,44.1876 200.023,43.8203 200.143,43.4529 200.455,43.2258 200.841,43.2258 201.154,43.4529 201.273,43.8203" fill="#00007f"/>
   <polyline stroke="#000000" stroke-width="0.5" stroke-linejoin="round" points="201.273,43.8203 201.154,44.1876 200.841,44.4147 200.455,44.4147 200.143,44.1876 200.023,43.8203 200.143,43.4529 200.455,43.2258 200.841,43.2258 201.154,43.4529 201.273,43.8203" fill="none" stroke-linecap="round"/>
   <polygon shape-rendering="crispEdges" points="202.888,42.4532 202.576,42.6803 202.19,42.6803 201.877,42.4532 201.758,42.0859 201.877,41.7185 202.19,41.4915 202.576,41.4915 202.888,41.7185 203.008,42.0859" fill="#00007f"/>
   <polyline stroke="#000000" stroke-width="0.5" stroke-linejoin="round" points="203.008,42.0859 202.888,42.4532 202.576,42.6803 202.19,42.6803 201.877,42.4532 201.758,42.0859 201.877,41.7185 202.19,41.4915 202.576,41.4915 202.888,41.7185 203.008,42.0859" fill="none" stroke-linecap="round"/>
   <polygon shape-rendering="crispEdges" points="204.623,38.9845 204.31,39.2115 203.924,39.2115 203.611,38.9845 203.492,38.6171 203.611,38.2498 203.924,38.0227 204.31,38.0227 204.623,38.2498 204.742,38.6171" fill="#00007f"/>
   <polyline stroke="#000000" stroke-width="0.5" stroke-linejoin="round" points="204.742,38.6171 204.623,38.9845 204.31,39.2115 203.924,39.2115 203.611,38.9845 203.492,38.6171 203.611,38.2498 203.924,38.0227 204.31,38.0227 204.623,38.2498 204.742,38.6171" fill="none" stroke-linecap="round"/>
   <polygon shape-rendering="crispEdges" points="206.357,37.2501 206.045,37.4772 205.658,37.4772 205.346,37.2501 205.226,36.8828 205.346,36.5154 205.658,36.2883 206.045,36.2883 206.357,36.5154 206.476,36.8828" fill="#00007f"/>
   <polyline stroke="#000000" stroke-width="0.5" stroke-linejoin="round" points="206.476,36.8828 206.357,37.2501 206.045,37.4772 205.658,37.4772 205.346,37.2501 205.226,36.8828 205.346,36.5154 205.658,36.2883 206.045,36.2883 206.357,36.5154 206.476,36.8828" fill="none" stroke-linecap="round"/>
   <polygon shape-rendering="crispEdges" points="208.091,35.5157 207.779,35.7428 207.393,35.7428 207.08,35.5157 206.961,35.1484 207.08,34.781 207.393,34.554 207.779,34.554 208.091,34.781 208.211,35.1484" fill="#00007f"/>
   <polyline stroke="#000000" stroke-width="0.5" stroke-linejoin="round" points="208.211,35.1484 208.091,35.5157 207.779,35.7428 207.393,35.7428 207.08,35.5157 206.961,35.1484 207.08,34.781 207.393,34.554 207.779,34.554 208.091,34.781 208.211,35.1484" fill="none" stroke-linecap="round"/>
   <polygon shape-rendering="crispEdges" points="209.826,33.7814 209.513,34.0084 209.127,34.0084 208.815,33.7814 208.695,33.414 208.815,33.0466 209.127,32.8196 209.513,32.8196 209.826,33.0466 209.945,33.414" fill="#00007f"/>
   <polyline stroke="#000000" stroke-width="0.5" stroke-linejoin="round" points="209.945,33.414 209.826,33.7814 209.513,34.0084 209.127,34.0084 208.815,33.7814 208.695,33.414 208.815,33.0466 209.127,32.8196 209.513,32.8196 209.826,33.0466 209.945,33.414" fill="none" stroke-linecap="round"/>
   <polygon shape-rendering="crispEdges" points="211.56,32.047 211.248,32.2741 210.861,32.2741 210.549,32.047 210.43,31.6797 210.549,31.3123 210.861,31.0852 211.248,31.0852 211.56,31.3123 211.68,31.6797" fill="#00007f"/>
   <polyline stroke="#000000" stroke-width="0.5" stroke-linejoin="round" points="211.68,31.6797 211.56,32.047 211.248,32.2741 210.861,32.2741 210.549,32.047 210.43,31.6797 210.549,31.3123 210.861,31.0852 211.248,31.0852 211.56,31.3123 211.68,31.6797" fill="none" stroke-linecap="round"/>
   <polygon shape-rendering="crispEdges" points="213.295,30.3126 212.982,30.5397 212.596,30.5397 212.283,30.3126 212.164,29.9453 212.283,29.5779 212.596,29.3509 212.982,29.3509 213.295,29.5779 213.414,29.9453" fill="#00007f"/>
   <polyline stroke="#000000" stroke-width="0.5" stroke-linejoin="round" points="213.414,29.9453 213.295,30.3126 212.982,30.5397 212.596,30.5397 212.283,30.3126 212.164,29.9453 212.283,29.5779 212.596,29.3509 212.982,29.3509 213.295,29.5779 213.414,29.9453" fill="none" stroke-linecap="round"/>
   <polygon shape-rendering="crispEdges" points="215.029,28.5783 214.716,28.8053 214.33,28.8053 214.018,28.5783 213.898,28.2109 214.018,27.8435 214.33,27.6165 214.716,27.6165 215.029,27.8435 215.148,28.2109" fill="#00007f"/>
   <polyline stroke="#000000" stroke-width="0.5" stroke-linejoin="round" points="215.148,28.2109 215.029,28.5783 214.716,28.8053 214.33,28.8053 214.018,28.5783 213.898,28.2109 214.018,27.8435 214.33,27.6165 214.716,27.6165 215.029,27.8435 215.148,28.2109" fill="none" stroke-linecap="round"/>
   <polygon shape-rendering="crispEdges" points="216.763,26.8439 216.451,27.071 216.065,27.071 215.752,26.8439 215.633,26.4765 215.752,26.1092 216.065,25.8821 216.451,25.8821 216.763,26.1092 216.883,26.4765" fill="#00007f"/>
   <polyline stroke="#000000" stroke-width="0.5" stroke-linejoin="round" points="216.883,26.4765 216.763,26.8439 216.451,27.071 216.065,27.071 215.752,26.8439 215.633,26.4765 215.752,26.1092 216.065,25.8821 216.451,25.8821 216.763,26.1092 216.883,26.4765" fill="none" stroke-linecap="round"/>
   <polygon shape-rendering="crispEdges" points="218.498,25.1095 218.185,25.3366 217.799,25.3366 217.486,25.1095 217.367,24.7422 217.486,24.3748 217.799,24.1478 218.185,24.1478 218.498,24.3748 218.617,24.7422" fill="#00007f"/>
   <polyline stroke="#000000" stroke-width="0.5" stroke-linejoin="round" points="218.617,24.7422 218.498,25.1095 218.185,25.3366 217.799,25.3366 217.486,25.1095 217.367,24.7422 217.486,24.3748 217.799,24.1478 218.185,24.1478 218.498,24.3748 218.617,24.7422" fill="none" stroke-linecap="round"/>
   <polygon shape-rendering="crispEdges" points="220.232,23.3752 219.92,23.6022 219.533,23.6022 219.221,23.3752 219.101,23.0078 219.221,22.6404 219.533,22.4134 219.92,22.4134 220.232,22.6404 220.351,23.0078" fill="#00007f"/>
   <polyline stroke="#000000" stroke-width="0.5" stroke-linejoin="round" points="220.351,23.0078 220.232,23.3752 219.92,23.6022 219.533,23.6022 219.221,23.3752 219.101,23.0078 219.221,22.6404 219.533,22.4134 219.92,22.4134 220.232,22.6404 220.351,23.0078" fill="none" stroke-linecap="round"/>
   <polygon shape-rendering="crispEdges" points="221.966,21.6408 221.654,21.8678 221.268,21.8678 220.955,21.6408 220.836,21.2734 220.955,20.9061 221.268,20.679 221.654,20.679 221.966,20.9061 222.086,21.2734" fill="#00007f"/>
   <polyline stroke="#000000" stroke-width="0.5" stroke-linejoin="round" points="222.086,21.2734 221.966,21.6408 221.654,21.8678 221.268,21.8678 220.955,21.6408 220.836,21.2734 220.955,20.9061 221.268,20.679 221.654,20.679 221.966,20.9061 222.086,21.2734" fill="none" stroke-linecap="round"/>
   <polygon shape-rendering="crispEdges" points="223.701,19.9064 223.388,20.1335 223.002,20.1335 222.689,19.9064 222.57,19.539 222.689,19.1717 223.002,18.9446 223.388,18.9446 223.701,19.1717 223.82,19.539" fill="#00007f"/>
   <polyline stroke="#000000" stroke-width="0.5" stroke-linejoin="round" points="223.82,19.539 223.701,19.9064 223.388,20.1335 223.002,20.1335 222.689,19.9064 222.57,19.539 222.689,19.1717 223.002,18.9446 223.388,18.9446 223.701,19.1717 223.82,19.539" fill="none" stroke-linecap="round"/>
   <polygon shape-rendering="crispEdges" points="225.435,18.172 225.123,18.3991 224.736,18.3991 224.424,18.172 224.305,17.8047 224.424,17.4373 224.736,17.2103 225.123,17.2103 225.435,17.4373 225.555,17.8047" fill="#00007f"/>
   <polyline stroke="#000000" stroke-width="0.5" stroke-linejoin="round" points="225.555,17.8047 225.435,18.172 225.123,18.3991 224.736,18.3991 224.424,18.172 224.305,17.8047 224.424,17.4373 224.736,17.2103 225.123,17.2103 225.435,17.4373 225.555,17.8047" fill="none" stroke-linecap="round"/>
   <polygon shape-rendering="crispEdges" points="227.17,16.4377 226.857,16.6647 226.471,16.6647 226.158,16.4377 226.039,16.0703 226.158,15.7029 226.471,15.4759 226.857,15.4759 227.17,15.7029 227.289,16.0703" fill="#00007f"/>
   <polyline stroke="#000000" stroke-width="0.5" stroke-linejoin="round" points="227.289,16.0703 227.17,16.4377 226.857,16.6647 226.471,16.6647 226.158,16.4377 226.039,16.0703 226.158,15.7029 226.471,15.4759 226.857,15.4759 227.17,15.7029 227.289,16.0703" fill="none" stroke-linecap="round"/>
   <polygon shape-rendering="crispEdges" points="228.904,14.7033 228.591,14.9303 228.205,14.9303 227.893,14.7033 227.773,14.3359 227.893,13.9686 228.205,13.7415 228.591,13.7415 228.904,13.9686 229.023,14.3359" fill="#00007f"/>
   <polyline stroke="#000000" stroke-width="0.5" stroke-linejoin="round" points="229.023,14.3359 228.904,14.7033 228.591,14.9303 228.205,14.9303 227.893,14.7033 227.773,14.3359 227.893,13.9686 228.205,13.7415 228.591,13.7415 228.904,13.9686 229.023,14.3359" fill="none" stroke-linecap="round"/>
   <polygon shape-rendering="crispEdges" points="230.638,11.2346 230.326,11.4616 229.939,11.4616 229.627,11.2346 229.508,10.8672 229.627,10.4998 229.939,10.2728 230.326,10.2728 230.638,10.4998 230.758,10.8672" fill="#00007f"/>
   <polyline stroke="#000000" stroke-width="0.5" stroke-linejoin="round" points="230.758,10.8672 230.638,11.2346 230.326,11.4616 229.939,11.4616 229.627,11.2346 229.508,10.8672 229.627,10.4998 229.939,10.2728 230.326,10.2728 230.638,10.4998 230.758,10.8672" fill="none" stroke-linecap="round"/>
  </g>
 </g>
</svg>
