<?xml version="1.0" encoding="UTF-8"?>
<!DOCTYPE svg PUBLIC "-//W3C//DTD SVG 1.1//EN" "http://www.w3.org/Graphics/SVG/1.1/DTD/svg11.dtd">
<svg xmlns="http://www.w3.org/2000/svg" xmlns:xlink="http://www.w3.org/1999/xlink" version="1.1" width="638px" height="263px" viewBox="-0.5 -0.5 638 263" style="background-color: rgb(255, 255, 255);"><defs/><g><ellipse cx="371.04" cy="250.2" rx="7.044797687861272" ry="7.044797687861272" fill="rgb(255, 255, 255)" stroke="rgb(0, 0, 0)" stroke-width="2" transform="rotate(-405,371.04,250.2)" pointer-events="all"/><path d="M 419 35.57 L 454.8 159.02" fill="none" stroke="rgb(0, 0, 0)" stroke-width="2" stroke-miterlimit="10" pointer-events="stroke"/><path d="M 449.35 154.6 L 455.42 161.17 L 457.04 152.37" fill="none" stroke="rgb(0, 0, 0)" stroke-width="2" stroke-miterlimit="10" pointer-events="all"/><ellipse cx="520.04" cy="70.79" rx="7.044797687861272" ry="7.044797687861272" fill="rgb(255, 255, 255)" stroke="rgb(0, 0, 0)" stroke-width="2" transform="rotate(-405,520.04,70.79)" pointer-events="all"/><ellipse cx="435.04" cy="230.48" rx="7.044797687861272" ry="7.044797687861272" fill="rgb(255, 255, 255)" stroke="rgb(0, 0, 0)" stroke-width="2" transform="rotate(-405,435.04,230.48)" pointer-events="all"/><ellipse cx="392.04" cy="110.24" rx="7.044797687861272" ry="7.044797687861272" fill="rgb(255, 255, 255)" stroke="rgb(0, 0, 0)" stroke-width="2" transform="rotate(-405,392.04,110.24)" pointer-events="all"/><path d="M 392.04 117.29 L 428.58 221.27" fill="none" stroke="rgb(0, 0, 0)" stroke-width="2" stroke-miterlimit="10" pointer-events="stroke"/><path d="M 422.9 217.16 L 429.32 223.38 L 430.44 214.51" fill="none" stroke="rgb(0, 0, 0)" stroke-width="2" stroke-miterlimit="10" pointer-events="all"/><ellipse cx="414.04" cy="30.4" rx="7.044797687861272" ry="7.044797687861272" fill="rgb(255, 255, 255)" stroke="rgb(0, 0, 0)" stroke-width="2" transform="rotate(-405,414.04,30.4)" pointer-events="all"/><ellipse cx="456.04" cy="170.36" rx="7.044797687861272" ry="7.044797687861272" fill="rgb(255, 255, 255)" stroke="rgb(0, 0, 0)" stroke-width="2" transform="rotate(-405,456.04,170.36)" pointer-events="all"/><path d="M 397.03 115.23 L 447.79 162.34" fill="none" stroke="rgb(0, 0, 0)" stroke-width="2" stroke-miterlimit="10" pointer-events="stroke"/><path d="M 440.84 161.35 L 449.42 163.86 L 446.28 155.48" fill="none" stroke="rgb(0, 0, 0)" stroke-width="2" stroke-miterlimit="10" pointer-events="all"/><ellipse cx="477.04" cy="90.52" rx="7.044797687861272" ry="7.044797687861272" fill="rgb(255, 255, 255)" stroke="rgb(0, 0, 0)" stroke-width="2" transform="rotate(-405,477.04,90.52)" pointer-events="all"/><path d="M 419.03 35.38 L 468.81 82.46" fill="none" stroke="rgb(0, 0, 0)" stroke-width="2" stroke-miterlimit="10" pointer-events="stroke"/><path d="M 461.88 81.41 L 470.44 84 L 467.37 75.6" fill="none" stroke="rgb(0, 0, 0)" stroke-width="2" stroke-miterlimit="10" pointer-events="all"/><ellipse cx="499.04" cy="130.91" rx="7.044797687861272" ry="7.044797687861272" fill="rgb(255, 255, 255)" stroke="rgb(0, 0, 0)" stroke-width="2" transform="rotate(-315,499.04,130.91)" pointer-events="all"/><path d="M 461.03 175.34 L 552.79 203.52" fill="none" stroke="rgb(0, 0, 0)" stroke-width="2" stroke-miterlimit="10" pointer-events="stroke"/><path d="M 546.1 205.65 L 554.93 204.17 L 548.45 198" fill="none" stroke="rgb(0, 0, 0)" stroke-width="2" stroke-miterlimit="10" pointer-events="all"/><ellipse cx="541.04" cy="150.63" rx="7.044797687861272" ry="7.044797687861272" fill="rgb(255, 255, 255)" stroke="rgb(0, 0, 0)" stroke-width="2" transform="rotate(-405,541.04,150.63)" pointer-events="all"/><path d="M 482.03 95.5 L 492.42 121.77" fill="none" stroke="rgb(0, 0, 0)" stroke-width="2" stroke-miterlimit="10" pointer-events="stroke"/><path d="M 486.58 117.88 L 493.24 123.85 L 494.02 114.94" fill="none" stroke="rgb(0, 0, 0)" stroke-width="2" stroke-miterlimit="10" pointer-events="all"/><ellipse cx="583.04" cy="51.07" rx="7.044797687861272" ry="7.044797687861272" fill="rgb(255, 255, 255)" stroke="rgb(0, 0, 0)" stroke-width="2" transform="rotate(-405,583.04,51.07)" pointer-events="all"/><ellipse cx="605.04" cy="190.09" rx="7.044797687861272" ry="7.044797687861272" fill="rgb(255, 255, 255)" stroke="rgb(0, 0, 0)" stroke-width="2" transform="rotate(-405,605.04,190.09)" pointer-events="all"/><path d="M 419.03 35.38 L 508.82 69.22" fill="none" stroke="rgb(0, 0, 0)" stroke-width="2" stroke-miterlimit="10" pointer-events="stroke"/><path d="M 502.01 70.93 L 510.91 70 L 504.83 63.44" fill="none" stroke="rgb(0, 0, 0)" stroke-width="2" stroke-miterlimit="10" pointer-events="all"/><path d="M 546.03 155.62 L 596.14 182.96" fill="none" stroke="rgb(0, 0, 0)" stroke-width="2" stroke-miterlimit="10" pointer-events="stroke"/><path d="M 589.16 183.71 L 598.1 184.03 L 592.99 176.69" fill="none" stroke="rgb(0, 0, 0)" stroke-width="2" stroke-miterlimit="10" pointer-events="all"/><path d="M 520.04 77.84 L 539.68 139.33" fill="none" stroke="rgb(0, 0, 0)" stroke-width="2" stroke-miterlimit="10" pointer-events="stroke"/><path d="M 534.12 135.06 L 540.36 141.46 L 541.74 132.62" fill="none" stroke="rgb(0, 0, 0)" stroke-width="2" stroke-miterlimit="10" pointer-events="all"/><path d="M 504.03 135.89 L 529.99 148.66" fill="none" stroke="rgb(0, 0, 0)" stroke-width="2" stroke-miterlimit="10" pointer-events="stroke"/><path d="M 523.05 149.71 L 531.99 149.65 L 526.58 142.53" fill="none" stroke="rgb(0, 0, 0)" stroke-width="2" stroke-miterlimit="10" pointer-events="all"/><path d="M 414.04 37.45 L 434.54 218.99" fill="none" stroke="rgb(0, 0, 0)" stroke-width="2" stroke-miterlimit="10" pointer-events="stroke"/><path d="M 429.92 213.71 L 434.79 221.21 L 437.87 212.81" fill="none" stroke="rgb(0, 0, 0)" stroke-width="2" stroke-miterlimit="10" pointer-events="all"/><ellipse cx="626.04" cy="10.68" rx="7.044797687861272" ry="7.044797687861272" fill="rgb(255, 255, 255)" stroke="rgb(0, 0, 0)" stroke-width="2" transform="rotate(-405,626.04,10.68)" pointer-events="all"/><path d="M 421.09 30.4 L 573.61 45.64" fill="none" stroke="rgb(0, 0, 0)" stroke-width="2" stroke-miterlimit="10" pointer-events="stroke"/><path d="M 567.48 49.05 L 575.84 45.86 L 568.28 41.09" fill="none" stroke="rgb(0, 0, 0)" stroke-width="2" stroke-miterlimit="10" pointer-events="all"/><ellipse cx="562.04" cy="209.81" rx="7.044797687861272" ry="7.044797687861272" fill="rgb(255, 255, 255)" stroke="rgb(0, 0, 0)" stroke-width="2" transform="rotate(-405,562.04,209.81)" pointer-events="all"/><path d="M 463.09 170.36 L 593.58 189.44" fill="none" stroke="rgb(0, 0, 0)" stroke-width="2" stroke-miterlimit="10" pointer-events="stroke"/><path d="M 587.29 192.56 L 595.79 189.76 L 588.45 184.65" fill="none" stroke="rgb(0, 0, 0)" stroke-width="2" stroke-miterlimit="10" pointer-events="all"/><path d="M 399.09 110.24 L 487.63 129.94" fill="none" stroke="rgb(0, 0, 0)" stroke-width="2" stroke-miterlimit="10" pointer-events="stroke"/><path d="M 481.14 132.59 L 489.82 130.42 L 482.88 124.78" fill="none" stroke="rgb(0, 0, 0)" stroke-width="2" stroke-miterlimit="10" pointer-events="all"/><path d="M 541.04 157.68 L 560.16 198.71" fill="none" stroke="rgb(0, 0, 0)" stroke-width="2" stroke-miterlimit="10" pointer-events="stroke"/><path d="M 554.1 195.18 L 561.1 200.74 L 561.35 191.8" fill="none" stroke="rgb(0, 0, 0)" stroke-width="2" stroke-miterlimit="10" pointer-events="all"/><path d="M 583.04 58.11 L 604.27 178.64" fill="none" stroke="rgb(0, 0, 0)" stroke-width="2" stroke-miterlimit="10" pointer-events="stroke"/><path d="M 599.33 173.65 L 604.66 180.84 L 607.21 172.27" fill="none" stroke="rgb(0, 0, 0)" stroke-width="2" stroke-miterlimit="10" pointer-events="all"/><ellipse cx="11.04" cy="250.2" rx="7.044797687861272" ry="7.044797687861272" fill="rgb(255, 255, 255)" stroke="rgb(0, 0, 0)" stroke-width="2" transform="rotate(-405,11.04,250.2)" pointer-events="all"/><ellipse cx="160.04" cy="70.79" rx="7.044797687861272" ry="7.044797687861272" fill="rgb(255, 255, 255)" stroke="rgb(0, 0, 0)" stroke-width="2" transform="rotate(-405,160.04,70.79)" pointer-events="all"/><ellipse cx="75.04" cy="230.48" rx="7.044797687861272" ry="7.044797687861272" fill="rgb(255, 255, 255)" stroke="rgb(0, 0, 0)" stroke-width="2" transform="rotate(-405,75.04,230.48)" pointer-events="all"/><path d="M 16.03 245.22 L 63.7 231.7" fill="none" stroke="rgb(0, 0, 0)" stroke-width="2" stroke-miterlimit="10" pointer-events="stroke"/><path d="M 59.24 237.12 L 65.85 231.09 L 57.06 229.42" fill="none" stroke="rgb(0, 0, 0)" stroke-width="2" stroke-miterlimit="10" pointer-events="all"/><ellipse cx="32.04" cy="110.24" rx="7.044797687861272" ry="7.044797687861272" fill="rgb(255, 255, 255)" stroke="rgb(0, 0, 0)" stroke-width="2" transform="rotate(-405,32.04,110.24)" pointer-events="all"/><path d="M 11.04 243.16 L 30.27 121.62" fill="none" stroke="rgb(0, 0, 0)" stroke-width="2" stroke-miterlimit="10" pointer-events="stroke"/><path d="M 33.32 127.94 L 30.62 119.41 L 25.42 126.69" fill="none" stroke="rgb(0, 0, 0)" stroke-width="2" stroke-miterlimit="10" pointer-events="all"/><ellipse cx="54.04" cy="30.4" rx="7.044797687861272" ry="7.044797687861272" fill="rgb(255, 255, 255)" stroke="rgb(0, 0, 0)" stroke-width="2" transform="rotate(-405,54.04,30.4)" pointer-events="all"/><path d="M 37.03 105.26 L 48.3 39.79" fill="none" stroke="rgb(0, 0, 0)" stroke-width="2" stroke-miterlimit="10" pointer-events="stroke"/><path d="M 51.27 46.15 L 48.68 37.59 L 43.38 44.79" fill="none" stroke="rgb(0, 0, 0)" stroke-width="2" stroke-miterlimit="10" pointer-events="all"/><ellipse cx="96.04" cy="170.36" rx="7.044797687861272" ry="7.044797687861272" fill="rgb(255, 255, 255)" stroke="rgb(0, 0, 0)" stroke-width="2" transform="rotate(-405,96.04,170.36)" pointer-events="all"/><path d="M 75.04 223.43 L 89.65 179.58" fill="none" stroke="rgb(0, 0, 0)" stroke-width="2" stroke-miterlimit="10" pointer-events="stroke"/><path d="M 91.62 186.32 L 90.36 177.46 L 84.03 183.79" fill="none" stroke="rgb(0, 0, 0)" stroke-width="2" stroke-miterlimit="10" pointer-events="all"/><ellipse cx="117.04" cy="90.52" rx="7.044797687861272" ry="7.044797687861272" fill="rgb(255, 255, 255)" stroke="rgb(0, 0, 0)" stroke-width="2" transform="rotate(-405,117.04,90.52)" pointer-events="all"/><ellipse cx="139.04" cy="130.91" rx="7.044797687861272" ry="7.044797687861272" fill="rgb(255, 255, 255)" stroke="rgb(0, 0, 0)" stroke-width="2" transform="rotate(-315,139.04,130.91)" pointer-events="all"/><path d="M 101.03 165.38 L 130.73 138.87" fill="none" stroke="rgb(0, 0, 0)" stroke-width="2" stroke-miterlimit="10" pointer-events="stroke"/><path d="M 129.09 145.69 L 132.4 137.38 L 123.76 139.72" fill="none" stroke="rgb(0, 0, 0)" stroke-width="2" stroke-miterlimit="10" pointer-events="all"/><ellipse cx="181.04" cy="150.63" rx="7.044797687861272" ry="7.044797687861272" fill="rgb(255, 255, 255)" stroke="rgb(0, 0, 0)" stroke-width="2" transform="rotate(-405,181.04,150.63)" pointer-events="all"/><path d="M 96.04 163.32 L 115.68 101.82" fill="none" stroke="rgb(0, 0, 0)" stroke-width="2" stroke-miterlimit="10" pointer-events="stroke"/><path d="M 117.74 108.53 L 116.36 99.69 L 110.12 106.1" fill="none" stroke="rgb(0, 0, 0)" stroke-width="2" stroke-miterlimit="10" pointer-events="all"/><ellipse cx="223.04" cy="51.07" rx="7.044797687861272" ry="7.044797687861272" fill="rgb(255, 255, 255)" stroke="rgb(0, 0, 0)" stroke-width="2" transform="rotate(-405,223.04,51.07)" pointer-events="all"/><ellipse cx="245.04" cy="190.09" rx="7.044797687861272" ry="7.044797687861272" fill="rgb(255, 255, 255)" stroke="rgb(0, 0, 0)" stroke-width="2" transform="rotate(-405,245.04,190.09)" pointer-events="all"/><path d="M 144.03 125.93 L 158.63 82.08" fill="none" stroke="rgb(0, 0, 0)" stroke-width="2" stroke-miterlimit="10" pointer-events="stroke"/><path d="M 160.6 88.81 L 159.34 79.96 L 153.01 86.29" fill="none" stroke="rgb(0, 0, 0)" stroke-width="2" stroke-miterlimit="10" pointer-events="all"/><path d="M 186.03 145.65 L 216.56 60.26" fill="none" stroke="rgb(0, 0, 0)" stroke-width="2" stroke-miterlimit="10" pointer-events="stroke"/><path d="M 218.38 67.03 L 217.31 58.15 L 210.85 64.34" fill="none" stroke="rgb(0, 0, 0)" stroke-width="2" stroke-miterlimit="10" pointer-events="all"/><path d="M 122.03 85.54 L 150.77 77.04" fill="none" stroke="rgb(0, 0, 0)" stroke-width="2" stroke-miterlimit="10" pointer-events="stroke"/><path d="M 146.38 82.51 L 152.92 76.41 L 144.11 74.84" fill="none" stroke="rgb(0, 0, 0)" stroke-width="2" stroke-miterlimit="10" pointer-events="all"/><path d="M 167.09 70.79 L 214.69 57.44" fill="none" stroke="rgb(0, 0, 0)" stroke-width="2" stroke-miterlimit="10" pointer-events="stroke"/><path d="M 210.22 62.85 L 216.85 56.84 L 208.06 55.15" fill="none" stroke="rgb(0, 0, 0)" stroke-width="2" stroke-miterlimit="10" pointer-events="all"/><path d="M 103.09 170.36 L 169.69 151.83" fill="none" stroke="rgb(0, 0, 0)" stroke-width="2" stroke-miterlimit="10" pointer-events="stroke"/><path d="M 165.21 157.23 L 171.85 151.23 L 163.07 149.52" fill="none" stroke="rgb(0, 0, 0)" stroke-width="2" stroke-miterlimit="10" pointer-events="all"/><path d="M 39.09 110.24 L 105.69 91.72" fill="none" stroke="rgb(0, 0, 0)" stroke-width="2" stroke-miterlimit="10" pointer-events="stroke"/><path d="M 101.21 97.12 L 107.85 91.12 L 99.07 89.41" fill="none" stroke="rgb(0, 0, 0)" stroke-width="2" stroke-miterlimit="10" pointer-events="all"/><ellipse cx="266.04" cy="10.68" rx="7.044797687861272" ry="7.044797687861272" fill="rgb(255, 255, 255)" stroke="rgb(0, 0, 0)" stroke-width="2" transform="rotate(-405,266.04,10.68)" pointer-events="all"/><path d="M 61.09 30.4 L 254.58 11.79" fill="none" stroke="rgb(0, 0, 0)" stroke-width="2" stroke-miterlimit="10" pointer-events="stroke"/><path d="M 249.23 16.32 L 256.81 11.57 L 248.46 8.36" fill="none" stroke="rgb(0, 0, 0)" stroke-width="2" stroke-miterlimit="10" pointer-events="all"/><ellipse cx="202.04" cy="209.81" rx="7.044797687861272" ry="7.044797687861272" fill="rgb(255, 255, 255)" stroke="rgb(0, 0, 0)" stroke-width="2" transform="rotate(-405,202.04,209.81)" pointer-events="all"/><path d="M 245.04 183.04 L 265.48 22.16" fill="none" stroke="rgb(0, 0, 0)" stroke-width="2" stroke-miterlimit="10" pointer-events="stroke"/><path d="M 268.72 28.38 L 265.76 19.94 L 260.79 27.37" fill="none" stroke="rgb(0, 0, 0)" stroke-width="2" stroke-miterlimit="10" pointer-events="all"/><path d="M 228.03 46.09 L 257.77 18.69" fill="none" stroke="rgb(0, 0, 0)" stroke-width="2" stroke-miterlimit="10" pointer-events="stroke"/><path d="M 256.24 25.54 L 259.42 17.17 L 250.82 19.65" fill="none" stroke="rgb(0, 0, 0)" stroke-width="2" stroke-miterlimit="10" pointer-events="all"/><path d="M 202.04 202.77 L 222.4 62.54" fill="none" stroke="rgb(0, 0, 0)" stroke-width="2" stroke-miterlimit="10" pointer-events="stroke"/><path d="M 225.53 68.82 L 222.72 60.33 L 217.62 67.67" fill="none" stroke="rgb(0, 0, 0)" stroke-width="2" stroke-miterlimit="10" pointer-events="all"/><path d="M 82.09 230.48 L 190.6 210.62" fill="none" stroke="rgb(0, 0, 0)" stroke-width="2" stroke-miterlimit="10" pointer-events="stroke"/><path d="M 185.65 215.59 L 192.8 210.21 L 184.21 207.72" fill="none" stroke="rgb(0, 0, 0)" stroke-width="2" stroke-miterlimit="10" pointer-events="all"/><path d="M 207.03 204.83 L 235.77 196.33" fill="none" stroke="rgb(0, 0, 0)" stroke-width="2" stroke-miterlimit="10" pointer-events="stroke"/><path d="M 231.38 201.8 L 237.92 195.7 L 229.11 194.13" fill="none" stroke="rgb(0, 0, 0)" stroke-width="2" stroke-miterlimit="10" pointer-events="all"/></g></svg>
