<?xml version="1.0" encoding="UTF-8"?>
<!DOCTYPE svg PUBLIC "-//W3C//DTD SVG 1.1//EN" "http://www.w3.org/Graphics/SVG/1.1/DTD/svg11.dtd">
<svg xmlns="http://www.w3.org/2000/svg" xmlns:xlink="http://www.w3.org/1999/xlink" version="1.1" width="638px" height="450px" viewBox="-0.5 -0.5 638 450" style="background-color: rgb(255, 255, 255);"><defs/><g><rect x="173" y="408" width="430" height="30" fill="none" stroke="none" pointer-events="all"/><g fill="rgb(0, 0, 0)" font-family="Helvetica" font-style="italic" text-anchor="middle" font-size="16px"><text x="387.5" y="429.5">All curves are preliminary, and will be redrawn exactly later.</text></g><path d="M 528.5 38 C 556.02 38.42 578.14 72.1 578 113.37 C 577.86 154.65 555.52 188 528 188" fill="none" stroke="rgb(0, 0, 0)" stroke-width="2" stroke-miterlimit="10" pointer-events="all"/><path d="M 540 33 L 550 43" fill="none" stroke="rgb(0, 0, 0)" stroke-miterlimit="10" pointer-events="none"/><path d="M 540 43 L 550 33" fill="none" stroke="rgb(0, 0, 0)" stroke-miterlimit="10" pointer-events="none"/><g fill="rgb(0, 0, 0)" font-family="Helvetica" pointer-events="none" text-anchor="middle" font-size="16px"><text x="527.5" y="27.5">p3</text></g><g fill="rgb(0, 0, 0)" font-family="Helvetica" pointer-events="none" text-anchor="middle" font-size="16px"><text x="545.5" y="27.5">p2</text></g><g fill="rgb(0, 0, 0)" font-family="Helvetica" pointer-events="none" text-anchor="middle" font-size="16px"><text x="527.5" y="209.5">p0</text></g><g fill="rgb(0, 0, 0)" font-family="Helvetica" pointer-events="none" text-anchor="middle" font-size="16px"><text x="594.5" y="209.5">p1</text></g><path d="M 590 183 L 600 193" fill="none" stroke="rgb(0, 0, 0)" stroke-miterlimit="10" pointer-events="none"/><path d="M 590 193 L 600 183" fill="none" stroke="rgb(0, 0, 0)" stroke-miterlimit="10" pointer-events="none"/><ellipse cx="528" cy="188" rx="5" ry="5" fill="none" stroke="rgb(0, 0, 0)" stroke-width="2" pointer-events="none"/><ellipse cx="528" cy="38" rx="5" ry="5" fill="none" stroke="rgb(0, 0, 0)" stroke-width="2" pointer-events="none"/><path d="M 628 14.87 L 628 211.63" fill="none" stroke="rgb(0, 0, 0)" stroke-miterlimit="10" pointer-events="none"/><path d="M 628 9.62 L 630.33 16.62 L 628 14.87 L 625.67 16.62 Z" fill="rgb(0, 0, 0)" stroke="rgb(0, 0, 0)" stroke-miterlimit="10" pointer-events="none"/><path d="M 628 216.88 L 625.67 209.88 L 628 211.63 L 630.33 209.88 Z" fill="rgb(0, 0, 0)" stroke="rgb(0, 0, 0)" stroke-miterlimit="10" pointer-events="none"/><path d="M 623 188 L 633 188" fill="none" stroke="rgb(0, 0, 0)" stroke-width="2" stroke-miterlimit="10" pointer-events="none"/><path d="M 623 99.88 L 633 99.88" fill="none" stroke="rgb(0, 0, 0)" stroke-width="2" stroke-miterlimit="10" pointer-events="none"/><path d="M 623 67.88 L 633 67.88" fill="none" stroke="rgb(0, 0, 0)" stroke-width="2" stroke-miterlimit="10" pointer-events="none"/><path d="M 623 141.88 L 633 141.88" fill="none" stroke="rgb(0, 0, 0)" stroke-width="2" stroke-miterlimit="10" pointer-events="none"/><path d="M 623 176.88 L 633 176.88" fill="none" stroke="rgb(0, 0, 0)" stroke-width="2" stroke-miterlimit="10" pointer-events="none"/><path d="M 623 50.88 L 633 50.88" fill="none" stroke="rgb(0, 0, 0)" stroke-width="2" stroke-miterlimit="10" pointer-events="none"/><path d="M 623 41.88 L 633 41.88" fill="none" stroke="rgb(0, 0, 0)" stroke-width="2" stroke-miterlimit="10" pointer-events="none"/><path d="M 623 38.88 L 633 38.88" fill="none" stroke="rgb(0, 0, 0)" stroke-width="2" stroke-miterlimit="10" pointer-events="none"/><path d="M 623 37.87 L 633 37.87" fill="none" stroke="rgb(0, 0, 0)" stroke-width="2" stroke-miterlimit="10" pointer-events="none"/><ellipse cx="574" cy="142" rx="5" ry="5" fill="none" stroke="rgb(0, 0, 0)" stroke-width="2" pointer-events="none"/><path d="M 528 38 L 528 188" fill="none" stroke="rgb(0, 0, 0)" stroke-miterlimit="10" stroke-dasharray="3 3" pointer-events="none"/><ellipse cx="535" cy="39" rx="5" ry="5" fill="none" stroke="rgb(0, 0, 0)" stroke-width="2" pointer-events="none"/><ellipse cx="544" cy="42" rx="5" ry="5" fill="none" stroke="rgb(0, 0, 0)" stroke-width="2" pointer-events="none"/><ellipse cx="556" cy="50" rx="5" ry="5" fill="none" stroke="rgb(0, 0, 0)" stroke-width="2" pointer-events="none"/><ellipse cx="568" cy="68" rx="5" ry="5" fill="none" stroke="rgb(0, 0, 0)" stroke-width="2" pointer-events="none"/><ellipse cx="577" cy="100" rx="5" ry="5" fill="none" stroke="rgb(0, 0, 0)" stroke-width="2" pointer-events="none"/><ellipse cx="555" cy="177" rx="5" ry="5" fill="none" stroke="rgb(0, 0, 0)" stroke-width="2" pointer-events="none"/><path d="M 300.5 298 L 300.5 373" fill="none" stroke="rgb(0, 0, 0)" stroke-miterlimit="10" stroke-dasharray="3 3" pointer-events="none"/><path d="M 150.5 298 L 300.5 298" fill="none" stroke="rgb(0, 0, 0)" stroke-miterlimit="10" stroke-dasharray="3 3" pointer-events="none"/><path d="M 600.5 298 L 600.5 373" fill="none" stroke="rgb(0, 0, 0)" stroke-miterlimit="10" stroke-dasharray="3 3" pointer-events="none"/><path d="M 450.5 298 L 600.5 298" fill="none" stroke="rgb(0, 0, 0)" stroke-miterlimit="10" stroke-dasharray="3 3" pointer-events="none"/><path d="M 150.5 298 C 190.54 298 228.92 306.01 257.1 320.23 C 285.27 334.46 300.89 353.73 300.49 373.75" fill="none" stroke="rgb(0, 0, 0)" stroke-width="2" stroke-miterlimit="10" pointer-events="none"/><path d="M 450.5 298 C 490.54 298 528.92 306.01 557.1 320.23 C 585.27 334.46 600.89 353.73 600.49 373.75" fill="none" stroke="rgb(0, 0, 0)" stroke-width="2" stroke-miterlimit="10" pointer-events="none"/><ellipse cx="300.5" cy="373" rx="5" ry="5" fill="none" stroke="rgb(0, 0, 0)" stroke-width="2" pointer-events="none"/><ellipse cx="450.5" cy="298" rx="5" ry="5" fill="none" stroke="rgb(0, 0, 0)" stroke-width="2" pointer-events="none"/><ellipse cx="150.5" cy="298" rx="5" ry="5" fill="none" stroke="rgb(0, 0, 0)" stroke-width="2" pointer-events="none"/><ellipse cx="600.5" cy="373" rx="5" ry="5" fill="none" stroke="rgb(0, 0, 0)" stroke-width="2" pointer-events="none"/><ellipse cx="288.5" cy="344" rx="5" ry="5" fill="none" stroke="rgb(0, 0, 0)" stroke-width="2" pointer-events="none"/><ellipse cx="270.5" cy="328" rx="5" ry="5" fill="none" stroke="rgb(0, 0, 0)" stroke-width="2" pointer-events="none"/><ellipse cx="240.5" cy="313" rx="5" ry="5" fill="none" stroke="rgb(0, 0, 0)" stroke-width="2" pointer-events="none"/><ellipse cx="199.5" cy="302" rx="5" ry="5" fill="none" stroke="rgb(0, 0, 0)" stroke-width="2" pointer-events="none"/><ellipse cx="477.5" cy="299" rx="5" ry="5" fill="none" stroke="rgb(0, 0, 0)" stroke-width="2" pointer-events="none"/><ellipse cx="507.5" cy="304" rx="5" ry="5" fill="none" stroke="rgb(0, 0, 0)" stroke-width="2" pointer-events="none"/><ellipse cx="540.5" cy="313" rx="5" ry="5" fill="none" stroke="rgb(0, 0, 0)" stroke-width="2" pointer-events="none"/><ellipse cx="570.5" cy="328" rx="5" ry="5" fill="none" stroke="rgb(0, 0, 0)" stroke-width="2" pointer-events="none"/><ellipse cx="592.5" cy="349" rx="5" ry="5" fill="none" stroke="rgb(0, 0, 0)" stroke-width="2" pointer-events="none"/><g fill="rgb(0, 0, 0)" font-family="Helvetica" pointer-events="none" text-anchor="middle" font-size="16px"><text x="450" y="284.5">p0</text></g><g fill="rgb(0, 0, 0)" font-family="Helvetica" pointer-events="none" text-anchor="middle" font-size="16px"><text x="150" y="284.5">p0</text></g><g fill="rgb(0, 0, 0)" font-family="Helvetica" pointer-events="none" text-anchor="middle" font-size="16px"><text x="620" y="374.5">p3</text></g><g fill="rgb(0, 0, 0)" font-family="Helvetica" pointer-events="none" text-anchor="middle" font-size="16px"><text x="320" y="374.5">p3</text></g><g fill="rgb(0, 0, 0)" font-family="Helvetica" pointer-events="none" text-anchor="middle" font-size="16px"><text x="315" y="290">pm</text></g><g fill="rgb(0, 0, 0)" font-family="Helvetica" pointer-events="none" text-anchor="middle" font-size="16px"><text x="615" y="290">pm</text></g><ellipse cx="298.5" cy="360" rx="5" ry="5" fill="none" stroke="rgb(0, 0, 0)" stroke-width="2" pointer-events="none"/><path d="M 338.5 38 C 366.02 38.42 388.14 72.1 388 113.37 C 387.86 154.65 365.52 188 338 188" fill="none" stroke="rgb(0, 0, 0)" stroke-width="2" stroke-miterlimit="10" pointer-events="none"/><path d="M 366 33 L 376 43" fill="none" stroke="rgb(0, 0, 0)" stroke-miterlimit="10" pointer-events="none"/><path d="M 366 43 L 376 33" fill="none" stroke="rgb(0, 0, 0)" stroke-miterlimit="10" pointer-events="none"/><g fill="rgb(0, 0, 0)" font-family="Helvetica" pointer-events="none" text-anchor="middle" font-size="16px"><text x="337.5" y="27.5">p3</text></g><g fill="rgb(0, 0, 0)" font-family="Helvetica" pointer-events="none" text-anchor="middle" font-size="16px"><text x="370.5" y="27.5">p2</text></g><g fill="rgb(0, 0, 0)" font-family="Helvetica" pointer-events="none" text-anchor="middle" font-size="16px"><text x="337.5" y="209.5">p0</text></g><g fill="rgb(0, 0, 0)" font-family="Helvetica" pointer-events="none" text-anchor="middle" font-size="16px"><text x="370.5" y="209.5">p1</text></g><path d="M 366 183 L 376 193" fill="none" stroke="rgb(0, 0, 0)" stroke-miterlimit="10" pointer-events="none"/><path d="M 366 193 L 376 183" fill="none" stroke="rgb(0, 0, 0)" stroke-miterlimit="10" pointer-events="none"/><ellipse cx="338" cy="188" rx="5" ry="5" fill="none" stroke="rgb(0, 0, 0)" stroke-width="2" pointer-events="none"/><ellipse cx="338" cy="38" rx="5" ry="5" fill="none" stroke="rgb(0, 0, 0)" stroke-width="2" pointer-events="none"/><path d="M 438 14.37 L 438 211.63" fill="none" stroke="rgb(0, 0, 0)" stroke-miterlimit="10" pointer-events="none"/><path d="M 438 9.12 L 440.33 16.12 L 438 14.37 L 435.67 16.12 Z" fill="rgb(0, 0, 0)" stroke="rgb(0, 0, 0)" stroke-miterlimit="10" pointer-events="none"/><path d="M 438 216.88 L 435.67 209.88 L 438 211.63 L 440.33 209.88 Z" fill="rgb(0, 0, 0)" stroke="rgb(0, 0, 0)" stroke-miterlimit="10" pointer-events="none"/><path d="M 433 188 L 443 188" fill="none" stroke="rgb(0, 0, 0)" stroke-width="2" stroke-miterlimit="10" pointer-events="none"/><path d="M 433 148.94 L 443 148.94" fill="none" stroke="rgb(0, 0, 0)" stroke-width="2" stroke-miterlimit="10" pointer-events="none"/><path d="M 433 112.94 L 443 112.94" fill="none" stroke="rgb(0, 0, 0)" stroke-width="2" stroke-miterlimit="10" pointer-events="none"/><path d="M 433 172.94 L 443 172.94" fill="none" stroke="rgb(0, 0, 0)" stroke-width="2" stroke-miterlimit="10" pointer-events="none"/><path d="M 433 184.94 L 443 184.94" fill="none" stroke="rgb(0, 0, 0)" stroke-width="2" stroke-miterlimit="10" pointer-events="none"/><path d="M 433 77.94 L 443 77.94" fill="none" stroke="rgb(0, 0, 0)" stroke-width="2" stroke-miterlimit="10" pointer-events="none"/><path d="M 433 52.94 L 443 52.94" fill="none" stroke="rgb(0, 0, 0)" stroke-width="2" stroke-miterlimit="10" pointer-events="none"/><path d="M 433 41.94 L 443 41.94" fill="none" stroke="rgb(0, 0, 0)" stroke-width="2" stroke-miterlimit="10" pointer-events="none"/><path d="M 433 37.87 L 443 37.87" fill="none" stroke="rgb(0, 0, 0)" stroke-width="2" stroke-miterlimit="10" pointer-events="none"/><ellipse cx="368" cy="173" rx="5" ry="5" fill="none" stroke="rgb(0, 0, 0)" stroke-width="2" pointer-events="none"/><ellipse cx="352" cy="185" rx="5" ry="5" fill="none" stroke="rgb(0, 0, 0)" stroke-width="2" pointer-events="none"/><ellipse cx="352" cy="41" rx="5" ry="5" fill="none" stroke="rgb(0, 0, 0)" stroke-width="2" pointer-events="none"/><path d="M 338 38 L 338 188" fill="none" stroke="rgb(0, 0, 0)" stroke-miterlimit="10" stroke-dasharray="3 3" pointer-events="none"/><ellipse cx="368" cy="54" rx="5" ry="5" fill="none" stroke="rgb(0, 0, 0)" stroke-width="2" pointer-events="none"/><ellipse cx="382" cy="78" rx="5" ry="5" fill="none" stroke="rgb(0, 0, 0)" stroke-width="2" pointer-events="none"/><ellipse cx="388" cy="113" rx="5" ry="5" fill="none" stroke="rgb(0, 0, 0)" stroke-width="2" pointer-events="none"/><ellipse cx="382" cy="149" rx="5" ry="5" fill="none" stroke="rgb(0, 0, 0)" stroke-width="2" pointer-events="none"/><path d="M 123.75 38 C 165.02 38.42 198.21 72.1 198 113.37 C 197.79 154.65 164.27 188 123 188" fill="none" stroke="rgb(0, 0, 0)" stroke-width="2" stroke-miterlimit="10" pointer-events="none"/><path d="M 128 38 L 173 38" fill="none" stroke="rgb(0, 0, 0)" stroke-miterlimit="10" stroke-dasharray="3 3" pointer-events="none"/><path d="M 123 38 L 123 188" fill="none" stroke="rgb(0, 0, 0)" stroke-miterlimit="10" stroke-dasharray="3 3" pointer-events="none"/><path d="M 168 33 L 178 43" fill="none" stroke="rgb(0, 0, 0)" stroke-miterlimit="10" pointer-events="none"/><path d="M 168 43 L 178 33" fill="none" stroke="rgb(0, 0, 0)" stroke-miterlimit="10" pointer-events="none"/><g fill="rgb(0, 0, 0)" font-family="Helvetica" pointer-events="none" text-anchor="middle" font-size="16px"><text x="122.5" y="27.5">p3</text></g><g fill="rgb(0, 0, 0)" font-family="Helvetica" pointer-events="none" text-anchor="middle" font-size="16px"><text x="172.5" y="27.5">p2</text></g><g fill="rgb(0, 0, 0)" font-family="Helvetica" pointer-events="none" text-anchor="middle" font-size="16px"><text x="122.5" y="209.5">p0</text></g><g fill="rgb(0, 0, 0)" font-family="Helvetica" pointer-events="none" text-anchor="middle" font-size="16px"><text x="172.5" y="209.5">p1</text></g><path d="M 123 188 L 173 188" fill="none" stroke="rgb(0, 0, 0)" stroke-miterlimit="10" stroke-dasharray="3 3" pointer-events="none"/><path d="M 168 183 L 178 193" fill="none" stroke="rgb(0, 0, 0)" stroke-miterlimit="10" pointer-events="none"/><path d="M 168 193 L 178 183" fill="none" stroke="rgb(0, 0, 0)" stroke-miterlimit="10" pointer-events="none"/><ellipse cx="198" cy="113" rx="5" ry="5" fill="none" stroke="rgb(0, 0, 0)" stroke-width="2" pointer-events="none"/><ellipse cx="123" cy="188" rx="5" ry="5" fill="none" stroke="rgb(0, 0, 0)" stroke-width="2" pointer-events="none"/><ellipse cx="123" cy="38" rx="5" ry="5" fill="none" stroke="rgb(0, 0, 0)" stroke-width="2" pointer-events="none"/><ellipse cx="189" cy="78" rx="5" ry="5" fill="none" stroke="rgb(0, 0, 0)" stroke-width="2" pointer-events="none"/><ellipse cx="189" cy="149" rx="5" ry="5" fill="none" stroke="rgb(0, 0, 0)" stroke-width="2" pointer-events="none"/><path d="M 248 14.37 L 248 211.63" fill="none" stroke="rgb(0, 0, 0)" stroke-miterlimit="10" pointer-events="none"/><path d="M 248 9.12 L 250.33 16.12 L 248 14.37 L 245.67 16.12 Z" fill="rgb(0, 0, 0)" stroke="rgb(0, 0, 0)" stroke-miterlimit="10" pointer-events="none"/><path d="M 248 216.88 L 245.67 209.88 L 248 211.63 L 250.33 209.88 Z" fill="rgb(0, 0, 0)" stroke="rgb(0, 0, 0)" stroke-miterlimit="10" pointer-events="none"/><path d="M 243 188 L 253 188" fill="none" stroke="rgb(0, 0, 0)" stroke-width="2" stroke-miterlimit="10" pointer-events="none"/><path d="M 243 148.94 L 253 148.94" fill="none" stroke="rgb(0, 0, 0)" stroke-width="2" stroke-miterlimit="10" pointer-events="none"/><path d="M 243 112.94 L 253 112.94" fill="none" stroke="rgb(0, 0, 0)" stroke-width="2" stroke-miterlimit="10" pointer-events="none"/><path d="M 243 172.94 L 253 172.94" fill="none" stroke="rgb(0, 0, 0)" stroke-width="2" stroke-miterlimit="10" pointer-events="none"/><path d="M 243 184.94 L 253 184.94" fill="none" stroke="rgb(0, 0, 0)" stroke-width="2" stroke-miterlimit="10" pointer-events="none"/><path d="M 243 77.94 L 253 77.94" fill="none" stroke="rgb(0, 0, 0)" stroke-width="2" stroke-miterlimit="10" pointer-events="none"/><path d="M 243 52.94 L 253 52.94" fill="none" stroke="rgb(0, 0, 0)" stroke-width="2" stroke-miterlimit="10" pointer-events="none"/><path d="M 243 41.94 L 253 41.94" fill="none" stroke="rgb(0, 0, 0)" stroke-width="2" stroke-miterlimit="10" pointer-events="none"/><path d="M 243 37.87 L 253 37.87" fill="none" stroke="rgb(0, 0, 0)" stroke-width="2" stroke-miterlimit="10" pointer-events="none"/><ellipse cx="168" cy="173" rx="5" ry="5" fill="none" stroke="rgb(0, 0, 0)" stroke-width="2" pointer-events="none"/><ellipse cx="144" cy="185" rx="5" ry="5" fill="none" stroke="rgb(0, 0, 0)" stroke-width="2" pointer-events="none"/><ellipse cx="168" cy="53" rx="5" ry="5" fill="none" stroke="rgb(0, 0, 0)" stroke-width="2" pointer-events="none"/><ellipse cx="144" cy="42" rx="5" ry="5" fill="none" stroke="rgb(0, 0, 0)" stroke-width="2" pointer-events="none"/><path d="M 338 38 L 371.33 38" fill="none" stroke="rgb(0, 0, 0)" stroke-miterlimit="10" stroke-dasharray="3 3" pointer-events="none"/><path d="M 338 188 L 371.33 188" fill="none" stroke="rgb(0, 0, 0)" stroke-miterlimit="10" stroke-dasharray="3 3" pointer-events="none"/><path d="M 528 38 L 544.67 38" fill="none" stroke="rgb(0, 0, 0)" stroke-miterlimit="10" stroke-dasharray="3 3" pointer-events="none"/><path d="M 528 188 L 594.67 188" fill="none" stroke="rgb(0, 0, 0)" stroke-miterlimit="10" stroke-dasharray="3 3" pointer-events="none"/></g></svg>