<?xml version="1.0" encoding="UTF-8"?>
<!DOCTYPE svg PUBLIC "-//W3C//DTD SVG 1.1//EN" "http://www.w3.org/Graphics/SVG/1.1/DTD/svg11.dtd">
<svg xmlns="http://www.w3.org/2000/svg" xmlns:xlink="http://www.w3.org/1999/xlink" version="1.1" width="1072px" height="632px" viewBox="-0.5 -0.5 1072 632" style="background-color: rgb(255, 255, 255);"><defs/><g><rect x="446" y="405" width="430" height="30" fill="none" stroke="none" pointer-events="all"/><g fill="rgb(0, 0, 0)" font-family="Helvetica" font-style="italic" text-anchor="middle" font-size="16px"><text x="660.5" y="426.5">All curves are preliminary, and will be redrawn exactly later.</text></g><rect x="586" y="330" width="30" height="30" fill="none" stroke="none" pointer-events="all"/><g fill="rgb(0, 0, 0)" font-family="Helvetica" text-anchor="middle" font-size="16px"><text x="600.5" y="351.5">p0</text></g><rect x="456.5" y="60" width="30" height="30" fill="none" stroke="none" pointer-events="all"/><g fill="rgb(0, 0, 0)" font-family="Helvetica" text-anchor="middle" font-size="16px"><text x="471" y="81.5">p3</text></g><rect x="601" y="155" width="30" height="30" fill="none" stroke="none" pointer-events="all"/><g fill="rgb(0, 0, 0)" font-family="Helvetica" text-anchor="middle" font-size="16px"><text x="615.5" y="167">pm</text></g><rect x="981" y="225" width="30" height="30" fill="none" stroke="none" pointer-events="all"/><g fill="rgb(0, 0, 0)" font-family="Helvetica" text-anchor="middle" font-size="16px"><text x="995.5" y="246.5">p1</text></g><rect x="926" y="115" width="30" height="30" fill="none" stroke="none" pointer-events="all"/><g fill="rgb(0, 0, 0)" font-family="Helvetica" text-anchor="middle" font-size="16px"><text x="940.5" y="136.5">p2</text></g><path d="M 601 330 L 301 330" fill="none" stroke="rgb(0, 0, 0)" stroke-width="2" stroke-miterlimit="10" pointer-events="stroke"/><path d="M 601 180 L 301 330" fill="none" stroke="rgb(0, 0, 0)" stroke-width="2" stroke-miterlimit="10" stroke-dasharray="6 6" pointer-events="stroke"/><path d="M 481 90 L 301 330" fill="none" stroke="rgb(0, 0, 0)" stroke-width="2" stroke-miterlimit="10" pointer-events="stroke"/><path d="M 601 180 L 481 90" fill="none" stroke="rgb(0, 0, 0)" stroke-width="2" stroke-miterlimit="10" stroke-dasharray="6 6" pointer-events="stroke"/><path d="M 601 180 L 601 330" fill="none" stroke="rgb(0, 0, 0)" stroke-width="2" stroke-miterlimit="10" stroke-dasharray="6 6" pointer-events="stroke"/><rect x="440.99" y="330" width="30" height="30" fill="none" stroke="none" pointer-events="all"/><g fill="rgb(0, 0, 0)" font-family="Helvetica" text-anchor="middle" font-size="16px"><text x="455.49" y="351.5">r</text></g><rect x="606" y="245" width="30" height="30" fill="none" stroke="none" pointer-events="all"/><g fill="rgb(0, 0, 0)" font-family="Helvetica" text-anchor="middle" font-size="16px"><text x="620.5" y="266.5">rδ</text></g><rect x="351" y="300" width="30" height="30" fill="none" stroke="none" pointer-events="all"/><g fill="rgb(0, 0, 0)" font-family="Helvetica" text-anchor="middle" font-size="16px"><text x="365.5" y="321.5">φ</text></g><rect x="336" y="270" width="30" height="30" fill="none" stroke="none" pointer-events="all"/><g fill="rgb(0, 0, 0)" font-family="Helvetica" text-anchor="middle" font-size="16px"><text x="350.5" y="291.5">φ</text></g><path d="M 801 180 L 681 90" fill="none" stroke="rgb(0, 0, 0)" stroke-width="2" stroke-miterlimit="10" stroke-dasharray="6 6" pointer-events="none"/><path d="M 801 180 L 801 330" fill="none" stroke="rgb(0, 0, 0)" stroke-width="2" stroke-miterlimit="10" stroke-dasharray="6 6" pointer-events="none"/><path d="M 681 90 L 801 330" fill="none" stroke="rgb(0, 0, 0)" stroke-width="2" stroke-miterlimit="10" stroke-dasharray="6 6" pointer-events="none"/><g fill="rgb(0, 0, 0)" font-family="Helvetica" pointer-events="none" text-anchor="middle" font-size="16px"><text x="785.5" y="196.5">Ω</text></g><g fill="rgb(0, 0, 0)" font-family="Helvetica" pointer-events="none" text-anchor="middle" font-size="16px"><text x="755.5" y="131.5">c</text></g><g fill="rgb(0, 0, 0)" font-family="Helvetica" pointer-events="none" text-anchor="middle" font-size="16px"><text x="815.5" y="256.5">b</text></g><g fill="rgb(0, 0, 0)" font-family="Helvetica" pointer-events="none" text-anchor="middle" font-size="16px"><text x="725.5" y="221.5">a</text></g><path d="M 981 180 L 861 90" fill="none" stroke="rgb(0, 0, 0)" stroke-width="2" stroke-miterlimit="10" stroke-dasharray="6 6" pointer-events="none"/><g fill="rgb(0, 0, 0)" font-family="Helvetica" pointer-events="none" text-anchor="middle" font-size="16px"><text x="980.5" y="351.5">p0</text></g><g fill="rgb(0, 0, 0)" font-family="Helvetica" pointer-events="none" text-anchor="middle" font-size="16px"><text x="850.5" y="81.5">p3</text></g><path d="M 861 90 L 981 330" fill="none" stroke="rgb(0, 0, 0)" stroke-width="2" stroke-miterlimit="10" stroke-dasharray="6 6" pointer-events="none"/><g fill="rgb(0, 0, 0)" font-family="Helvetica" pointer-events="none" text-anchor="middle" font-size="16px"><text x="995.5" y="167">pm</text></g><path d="M 933.22 143.7 C 924.73 155.13 913.65 164.37 900.89 170.68" fill="none" stroke="rgb(0, 0, 0)" stroke-miterlimit="10" stroke-dasharray="3 3" pointer-events="none"/><path d="M 941.11 249.32 C 953.52 243.19 967.16 240 981 240" fill="none" stroke="rgb(0, 0, 0)" stroke-miterlimit="10" stroke-dasharray="3 3" pointer-events="none"/><path d="M 981 180 L 981 330" fill="none" stroke="rgb(0, 0, 0)" stroke-width="2" stroke-miterlimit="10" stroke-dasharray="6 6" pointer-events="none"/><path d="M 480.51 89.64 C 556.34 146.27 601 235.36 601 330" fill="none" stroke="rgb(0, 0, 0)" stroke-width="2" stroke-miterlimit="10" pointer-events="none"/><path d="M 680.51 89.64 C 756.34 146.27 801 235.36 801 330" fill="none" stroke="rgb(0, 0, 0)" stroke-width="2" stroke-miterlimit="10" pointer-events="none"/><path d="M 876 130 L 886 125" fill="none" stroke="rgb(0, 0, 0)" stroke-miterlimit="10" pointer-events="none"/><path d="M 876 135 L 886 130" fill="none" stroke="rgb(0, 0, 0)" stroke-miterlimit="10" pointer-events="none"/><path d="M 916 210 L 926 205" fill="none" stroke="rgb(0, 0, 0)" stroke-miterlimit="10" pointer-events="none"/><path d="M 916 215 L 926 210" fill="none" stroke="rgb(0, 0, 0)" stroke-miterlimit="10" pointer-events="none"/><path d="M 956 290 L 966 285" fill="none" stroke="rgb(0, 0, 0)" stroke-miterlimit="10" pointer-events="none"/><path d="M 956 295 L 966 290" fill="none" stroke="rgb(0, 0, 0)" stroke-miterlimit="10" pointer-events="none"/></g></svg>