<?xml version="1.0" encoding="UTF-8"?>
<svg xmlns="http://www.w3.org/2000/svg" xmlns:xlink="http://www.w3.org/1999/xlink" width="145.177972pt" height="212.61627pt" viewBox="0 0 145.177972 212.61627" version="1.1">
<g id="surface1">
<path style="fill:none;stroke-width:1.5;stroke-linecap:butt;stroke-linejoin:miter;stroke:rgb(0%,0%,0%);stroke-opacity:1;stroke-miterlimit:10;" d="M 10.498743 0 C 10.498743 5.800781 5.799525 10.5 -0.00125663 10.5 C -5.798132 10.5 -10.501257 5.800781 -10.501257 0 C -10.501257 -5.800781 -5.798132 -10.5 -0.00125663 -10.5 C 5.799525 -10.5 10.498743 -5.800781 10.498743 0 " transform="matrix(1,0,0,1,73.630163,22.5)"/>
<path style="fill:none;stroke-width:1.5;stroke-linecap:butt;stroke-linejoin:miter;stroke:rgb(0%,0%,0%);stroke-opacity:1;stroke-miterlimit:10;" d="M -18.130163 90.445312 C -18.130163 96.242188 -22.829382 100.945312 -28.630163 100.945312 C -34.430944 100.945312 -39.130163 96.242188 -39.130163 90.445312 C -39.130163 84.644531 -34.430944 79.945312 -28.630163 79.945312 C -22.829382 79.945312 -18.130163 84.644531 -18.130163 90.445312 " transform="matrix(1,0,0,1,73.630163,22.5)"/>
<path style="fill:none;stroke-width:1.5;stroke-linecap:butt;stroke-linejoin:miter;stroke:rgb(0%,0%,0%);stroke-opacity:1;stroke-miterlimit:10;" d="M 37.049525 167.617188 C 37.049525 173.414062 32.3464 178.117188 26.549525 178.117188 C 20.748743 178.117188 16.049525 173.414062 16.049525 167.617188 C 16.049525 161.816406 20.748743 157.117188 26.549525 157.117188 C 32.3464 157.117188 37.049525 161.816406 37.049525 167.617188 " transform="matrix(1,0,0,1,73.630163,22.5)"/>
<path style="fill:none;stroke-width:1.5;stroke-linecap:butt;stroke-linejoin:miter;stroke:rgb(0%,0%,0%);stroke-opacity:1;stroke-miterlimit:10;" d="M -25.462194 80.433594 L -3.169225 10.011719 " transform="matrix(1,0,0,1,73.630163,22.5)"/>
<path style="fill:none;stroke-width:1.5;stroke-linecap:butt;stroke-linejoin:miter;stroke:rgb(0%,0%,0%);stroke-opacity:1;stroke-miterlimit:10;" d="M -25.462194 80.433594 L -27.012975 68.535156 " transform="matrix(1,0,0,1,73.630163,22.5)"/>
<path style="fill:none;stroke-width:1.5;stroke-linecap:butt;stroke-linejoin:miter;stroke:rgb(0%,0%,0%);stroke-opacity:1;stroke-miterlimit:10;" d="M -25.462194 80.433594 L -17.345007 71.597656 " transform="matrix(1,0,0,1,73.630163,22.5)"/>
<path style="fill:none;stroke-width:1.5;stroke-linecap:butt;stroke-linejoin:miter;stroke:rgb(0%,0%,0%);stroke-opacity:1;stroke-miterlimit:10;" d="M 13.272181 83.808594 L 1.643275 10.371094 " transform="matrix(1,0,0,1,73.630163,22.5)"/>
<path style="fill:none;stroke-width:1.5;stroke-linecap:butt;stroke-linejoin:miter;stroke:rgb(0%,0%,0%);stroke-opacity:1;stroke-miterlimit:10;" d="M 24.904993 157.246094 L 13.272181 83.808594 " transform="matrix(1,0,0,1,73.630163,22.5)"/>
<path style="fill:none;stroke-width:1.5;stroke-linecap:butt;stroke-linejoin:miter;stroke:rgb(0%,0%,0%);stroke-opacity:1;stroke-miterlimit:10;" d="M 24.904993 157.246094 L 18.194056 147.296875 " transform="matrix(1,0,0,1,73.630163,22.5)"/>
<path style="fill:none;stroke-width:1.5;stroke-linecap:butt;stroke-linejoin:miter;stroke:rgb(0%,0%,0%);stroke-opacity:1;stroke-miterlimit:10;" d="M 24.904993 157.246094 L 28.213587 145.710938 " transform="matrix(1,0,0,1,73.630163,22.5)"/>
<path style="fill:none;stroke-width:1.5;stroke-linecap:butt;stroke-linejoin:miter;stroke:rgb(0%,0%,0%);stroke-opacity:1;stroke-miterlimit:10;" d="M 20.44015 159.074219 L -22.524694 98.988281 " transform="matrix(1,0,0,1,73.630163,22.5)"/>
<path style="fill:none;stroke-width:1.5;stroke-linecap:butt;stroke-linejoin:miter;stroke:rgb(0%,0%,0%);stroke-opacity:1;stroke-miterlimit:10;" d="M 20.44015 159.074219 L 9.990931 153.179688 " transform="matrix(1,0,0,1,73.630163,22.5)"/>
<path style="fill:none;stroke-width:1.5;stroke-linecap:butt;stroke-linejoin:miter;stroke:rgb(0%,0%,0%);stroke-opacity:1;stroke-miterlimit:10;" d="M 20.44015 159.074219 L 18.240931 147.277344 " transform="matrix(1,0,0,1,73.630163,22.5)"/>
</g>
</svg>
