<?xml version="1.0" encoding="UTF-8"?>
<svg xmlns="http://www.w3.org/2000/svg" xmlns:xlink="http://www.w3.org/1999/xlink" width="705.1829pt" height="893.528137pt" viewBox="0 0 705.1829 893.528137" version="1.1">
<g id="surface1">
<path style="fill:none;stroke-width:1.5;stroke-linecap:butt;stroke-linejoin:miter;stroke:rgb(0%,0%,0%);stroke-opacity:1;stroke-miterlimit:10;" d="M 10.499527 -0.000793674 C 10.499527 5.799988 5.800308 10.499206 -0.000473098 10.499206 C -5.797348 10.499206 -10.500473 5.799988 -10.500473 -0.000793674 C -10.500473 -5.797669 -5.797348 -10.500794 -0.000473098 -10.500794 C 5.800308 -10.500794 10.499527 -5.797669 10.499527 -0.000793674 " transform="matrix(1,0,0,1,341.984848,871.028137)"/>
<path style="fill:none;stroke-width:1.5;stroke-linecap:butt;stroke-linejoin:miter;stroke:rgb(0%,0%,0%);stroke-opacity:1;stroke-miterlimit:10;" d="M -137.992661 -190.918762 C -137.992661 -185.117981 -142.691879 -180.418762 -148.492661 -180.418762 C -154.289536 -180.418762 -158.992661 -185.117981 -158.992661 -190.918762 C -158.992661 -196.719544 -154.289536 -201.418762 -148.492661 -201.418762 C -142.691879 -201.418762 -137.992661 -196.719544 -137.992661 -190.918762 " transform="matrix(1,0,0,1,341.984848,871.028137)"/>
<path style="fill:none;stroke-width:1.5;stroke-linecap:butt;stroke-linejoin:miter;stroke:rgb(0%,0%,0%);stroke-opacity:1;stroke-miterlimit:10;" d="M -286.484848 -381.836731 C -286.484848 -376.039856 -291.184067 -371.336731 -296.984848 -371.336731 C -302.785629 -371.336731 -307.484848 -376.039856 -307.484848 -381.836731 C -307.484848 -387.637512 -302.785629 -392.336731 -296.984848 -392.336731 C -291.184067 -392.336731 -286.484848 -387.637512 -286.484848 -381.836731 " transform="matrix(1,0,0,1,341.984848,871.028137)"/>
<path style="fill:none;stroke-width:1.5;stroke-linecap:butt;stroke-linejoin:miter;stroke:rgb(0%,0%,0%);stroke-opacity:1;stroke-miterlimit:10;" d="M -159.207504 -296.985169 C -159.207504 -291.184387 -163.906723 -286.485169 -169.707504 -286.485169 C -175.504379 -286.485169 -180.207504 -291.184387 -180.207504 -296.985169 C -180.207504 -302.782044 -175.504379 -307.485169 -169.707504 -307.485169 C -163.906723 -307.485169 -159.207504 -302.782044 -159.207504 -296.985169 " transform="matrix(1,0,0,1,341.984848,871.028137)"/>
<path style="fill:none;stroke-width:1.5;stroke-linecap:butt;stroke-linejoin:miter;stroke:rgb(0%,0%,0%);stroke-opacity:1;stroke-miterlimit:10;" d="M -286.484848 -466.6922 C -286.484848 -460.891419 -291.184067 -456.1922 -296.984848 -456.1922 C -302.785629 -456.1922 -307.484848 -460.891419 -307.484848 -466.6922 C -307.484848 -472.489075 -302.785629 -477.1922 -296.984848 -477.1922 C -291.184067 -477.1922 -286.484848 -472.489075 -286.484848 -466.6922 " transform="matrix(1,0,0,1,341.984848,871.028137)"/>
<path style="fill:none;stroke-width:1.5;stroke-linecap:butt;stroke-linejoin:miter;stroke:rgb(0%,0%,0%);stroke-opacity:1;stroke-miterlimit:10;" d="M -74.352036 -296.985169 C -74.352036 -291.184387 -79.055161 -286.485169 -84.852036 -286.485169 C -90.652817 -286.485169 -95.352036 -291.184387 -95.352036 -296.985169 C -95.352036 -302.782044 -90.652817 -307.485169 -84.852036 -307.485169 C -79.055161 -307.485169 -74.352036 -302.782044 -74.352036 -296.985169 " transform="matrix(1,0,0,1,341.984848,871.028137)"/>
<path style="fill:none;stroke-width:1.5;stroke-linecap:butt;stroke-linejoin:miter;stroke:rgb(0%,0%,0%);stroke-opacity:1;stroke-miterlimit:10;" d="M -222.844223 -487.903137 C -222.844223 -482.106262 -227.547348 -477.403137 -233.344223 -477.403137 C -239.145004 -477.403137 -243.844223 -482.106262 -243.844223 -487.903137 C -243.844223 -493.703919 -239.145004 -498.403137 -233.344223 -498.403137 C -227.547348 -498.403137 -222.844223 -493.703919 -222.844223 -487.903137 " transform="matrix(1,0,0,1,341.984848,871.028137)"/>
<path style="fill:none;stroke-width:1.5;stroke-linecap:butt;stroke-linejoin:miter;stroke:rgb(0%,0%,0%);stroke-opacity:1;stroke-miterlimit:10;" d="M -244.059067 -551.543762 C -244.059067 -545.742981 -248.758286 -541.043762 -254.559067 -541.043762 C -260.355942 -541.043762 -265.059067 -545.742981 -265.059067 -551.543762 C -265.059067 -557.340637 -260.355942 -562.043762 -254.559067 -562.043762 C -248.758286 -562.043762 -244.059067 -557.340637 -244.059067 -551.543762 " transform="matrix(1,0,0,1,341.984848,871.028137)"/>
<path style="fill:none;stroke-width:1.5;stroke-linecap:butt;stroke-linejoin:miter;stroke:rgb(0%,0%,0%);stroke-opacity:1;stroke-miterlimit:10;" d="M -116.777817 -466.6922 C -116.777817 -460.891419 -121.480942 -456.1922 -127.277817 -456.1922 C -133.078598 -456.1922 -137.777817 -460.891419 -137.777817 -466.6922 C -137.777817 -472.489075 -133.078598 -477.1922 -127.277817 -477.1922 C -121.480942 -477.1922 -116.777817 -472.489075 -116.777817 -466.6922 " transform="matrix(1,0,0,1,341.984848,871.028137)"/>
<path style="fill:none;stroke-width:1.5;stroke-linecap:butt;stroke-linejoin:miter;stroke:rgb(0%,0%,0%);stroke-opacity:1;stroke-miterlimit:10;" d="M 180.206558 -212.133606 C 180.206558 -206.332825 175.503433 -201.633606 169.706558 -201.633606 C 163.905777 -201.633606 159.206558 -206.332825 159.206558 -212.133606 C 159.206558 -217.930481 163.905777 -222.633606 169.706558 -222.633606 C 175.503433 -222.633606 180.206558 -217.930481 180.206558 -212.133606 " transform="matrix(1,0,0,1,341.984848,871.028137)"/>
<path style="fill:none;stroke-width:1.5;stroke-linecap:butt;stroke-linejoin:miter;stroke:rgb(0%,0%,0%);stroke-opacity:1;stroke-miterlimit:10;" d="M 137.780777 -296.985169 C 137.780777 -291.184387 133.077652 -286.485169 127.280777 -286.485169 C 121.479996 -286.485169 116.780777 -291.184387 116.780777 -296.985169 C 116.780777 -302.782044 121.479996 -307.485169 127.280777 -307.485169 C 133.077652 -307.485169 137.780777 -302.782044 137.780777 -296.985169 " transform="matrix(1,0,0,1,341.984848,871.028137)"/>
<path style="fill:none;stroke-width:1.5;stroke-linecap:butt;stroke-linejoin:miter;stroke:rgb(0%,0%,0%);stroke-opacity:1;stroke-miterlimit:10;" d="M -10.711411 -487.903137 C -10.711411 -482.106262 -15.414536 -477.403137 -21.211411 -477.403137 C -27.012192 -477.403137 -31.711411 -482.106262 -31.711411 -487.903137 C -31.711411 -493.703919 -27.012192 -498.403137 -21.211411 -498.403137 C -15.414536 -498.403137 -10.711411 -493.703919 -10.711411 -487.903137 " transform="matrix(1,0,0,1,341.984848,871.028137)"/>
<path style="fill:none;stroke-width:1.5;stroke-linecap:butt;stroke-linejoin:miter;stroke:rgb(0%,0%,0%);stroke-opacity:1;stroke-miterlimit:10;" d="M 158.991714 -360.625794 C 158.991714 -354.825012 154.292496 -350.125794 148.491714 -350.125794 C 142.694839 -350.125794 137.991714 -354.825012 137.991714 -360.625794 C 137.991714 -366.422669 142.694839 -371.125794 148.491714 -371.125794 C 154.292496 -371.125794 158.991714 -366.422669 158.991714 -360.625794 " transform="matrix(1,0,0,1,341.984848,871.028137)"/>
<path style="fill:none;stroke-width:1.5;stroke-linecap:butt;stroke-linejoin:miter;stroke:rgb(0%,0%,0%);stroke-opacity:1;stroke-miterlimit:10;" d="M 74.140152 -487.903137 C 74.140152 -482.106262 69.437027 -477.403137 63.640152 -477.403137 C 57.839371 -477.403137 53.140152 -482.106262 53.140152 -487.903137 C 53.140152 -493.703919 57.839371 -498.403137 63.640152 -498.403137 C 69.437027 -498.403137 74.140152 -493.703919 74.140152 -487.903137 " transform="matrix(1,0,0,1,341.984848,871.028137)"/>
<path style="fill:none;stroke-width:1.5;stroke-linecap:butt;stroke-linejoin:miter;stroke:rgb(0%,0%,0%);stroke-opacity:1;stroke-miterlimit:10;" d="M 31.714371 -572.7547 C 31.714371 -566.957825 27.011246 -562.2547 21.214371 -562.2547 C 15.413589 -562.2547 10.714371 -566.957825 10.714371 -572.7547 C 10.714371 -578.555481 15.413589 -583.2547 21.214371 -583.2547 C 27.011246 -583.2547 31.714371 -578.555481 31.714371 -572.7547 " transform="matrix(1,0,0,1,341.984848,871.028137)"/>
<path style="fill:none;stroke-width:1.5;stroke-linecap:butt;stroke-linejoin:miter;stroke:rgb(0%,0%,0%);stroke-opacity:1;stroke-miterlimit:10;" d="M 10.499527 -636.395325 C 10.499527 -630.59845 5.800308 -625.895325 -0.000473098 -625.895325 C -5.797348 -625.895325 -10.500473 -630.59845 -10.500473 -636.395325 C -10.500473 -642.196106 -5.797348 -646.895325 -0.000473098 -646.895325 C 5.800308 -646.895325 10.499527 -642.196106 10.499527 -636.395325 " transform="matrix(1,0,0,1,341.984848,871.028137)"/>
<path style="fill:none;stroke-width:1.5;stroke-linecap:butt;stroke-linejoin:miter;stroke:rgb(0%,0%,0%);stroke-opacity:1;stroke-miterlimit:10;" d="M 222.632339 -466.6922 C 222.632339 -460.891419 217.929214 -456.1922 212.132339 -456.1922 C 206.331558 -456.1922 201.632339 -460.891419 201.632339 -466.6922 C 201.632339 -472.489075 206.331558 -477.1922 212.132339 -477.1922 C 217.929214 -477.1922 222.632339 -472.489075 222.632339 -466.6922 " transform="matrix(1,0,0,1,341.984848,871.028137)"/>
<path style="fill:none;stroke-width:1.5;stroke-linecap:butt;stroke-linejoin:miter;stroke:rgb(0%,0%,0%);stroke-opacity:1;stroke-miterlimit:10;" d="M 328.698746 -403.051575 C 328.698746 -397.250794 323.995621 -392.551575 318.198746 -392.551575 C 312.397964 -392.551575 307.698746 -397.250794 307.698746 -403.051575 C 307.698746 -408.84845 312.397964 -413.551575 318.198746 -413.551575 C 323.995621 -413.551575 328.698746 -408.84845 328.698746 -403.051575 " transform="matrix(1,0,0,1,341.984848,871.028137)"/>
<path style="fill:none;stroke-width:1.5;stroke-linecap:butt;stroke-linejoin:miter;stroke:rgb(0%,0%,0%);stroke-opacity:1;stroke-miterlimit:10;" d="M 328.698746 -445.477356 C 328.698746 -439.676575 323.995621 -434.977356 318.198746 -434.977356 C 312.397964 -434.977356 307.698746 -439.676575 307.698746 -445.477356 C 307.698746 -451.278137 312.397964 -455.977356 318.198746 -455.977356 C 323.995621 -455.977356 328.698746 -451.278137 328.698746 -445.477356 " transform="matrix(1,0,0,1,341.984848,871.028137)"/>
<path style="fill:none;stroke-width:1.5;stroke-linecap:butt;stroke-linejoin:miter;stroke:rgb(0%,0%,0%);stroke-opacity:1;stroke-miterlimit:10;" d="M 265.058121 -551.543762 C 265.058121 -545.742981 260.358902 -541.043762 254.558121 -541.043762 C 248.761246 -541.043762 244.058121 -545.742981 244.058121 -551.543762 C 244.058121 -557.340637 248.761246 -562.043762 254.558121 -562.043762 C 260.358902 -562.043762 265.058121 -557.340637 265.058121 -551.543762 " transform="matrix(1,0,0,1,341.984848,871.028137)"/>
<path style="fill:none;stroke-width:1.5;stroke-linecap:butt;stroke-linejoin:miter;stroke:rgb(0%,0%,0%);stroke-opacity:1;stroke-miterlimit:10;" d="M 10.499527 -848.528137 C 10.499527 -842.727356 5.800308 -838.028137 -0.000473098 -838.028137 C -5.797348 -838.028137 -10.500473 -842.727356 -10.500473 -848.528137 C -10.500473 -854.328919 -5.797348 -859.028137 -0.000473098 -859.028137 C 5.800308 -859.028137 10.499527 -854.328919 10.499527 -848.528137 " transform="matrix(1,0,0,1,341.984848,871.028137)"/>
<path style="fill:none;stroke-width:1.5;stroke-linecap:butt;stroke-linejoin:miter;stroke:rgb(0%,0%,0%);stroke-opacity:1;stroke-miterlimit:10;" d="M 163.147964 -203.934387 L 6.558121 -8.200012 " transform="matrix(1,0,0,1,341.984848,871.028137)"/>
<path style="fill:none;stroke-width:1.5;stroke-linecap:butt;stroke-linejoin:miter;stroke:rgb(0%,0%,0%);stroke-opacity:1;stroke-miterlimit:10;" d="M 163.147964 -203.934387 L 160.312027 -192.274231 " transform="matrix(1,0,0,1,341.984848,871.028137)"/>
<path style="fill:none;stroke-width:1.5;stroke-linecap:butt;stroke-linejoin:miter;stroke:rgb(0%,0%,0%);stroke-opacity:1;stroke-miterlimit:10;" d="M 163.147964 -203.934387 L 152.394058 -198.610169 " transform="matrix(1,0,0,1,341.984848,871.028137)"/>
<path style="fill:none;stroke-width:1.5;stroke-linecap:butt;stroke-linejoin:miter;stroke:rgb(0%,0%,0%);stroke-opacity:1;stroke-miterlimit:10;" d="M -142.047348 -182.6297 L -6.445786 -8.289856 " transform="matrix(1,0,0,1,341.984848,871.028137)"/>
<path style="fill:none;stroke-width:1.5;stroke-linecap:butt;stroke-linejoin:miter;stroke:rgb(0%,0%,0%);stroke-opacity:1;stroke-miterlimit:10;" d="M -142.047348 -182.6297 L -131.367661 -177.16095 " transform="matrix(1,0,0,1,341.984848,871.028137)"/>
<path style="fill:none;stroke-width:1.5;stroke-linecap:butt;stroke-linejoin:miter;stroke:rgb(0%,0%,0%);stroke-opacity:1;stroke-miterlimit:10;" d="M -142.047348 -182.6297 L -139.371567 -170.930481 " transform="matrix(1,0,0,1,341.984848,871.028137)"/>
<path style="fill:none;stroke-width:1.5;stroke-linecap:butt;stroke-linejoin:miter;stroke:rgb(0%,0%,0%);stroke-opacity:1;stroke-miterlimit:10;" d="M -90.254379 -287.981262 L -143.090317 -199.922669 " transform="matrix(1,0,0,1,341.984848,871.028137)"/>
<path style="fill:none;stroke-width:1.5;stroke-linecap:butt;stroke-linejoin:miter;stroke:rgb(0%,0%,0%);stroke-opacity:1;stroke-miterlimit:10;" d="M -90.254379 -287.981262 L -91.500473 -276.047669 " transform="matrix(1,0,0,1,341.984848,871.028137)"/>
<path style="fill:none;stroke-width:1.5;stroke-linecap:butt;stroke-linejoin:miter;stroke:rgb(0%,0%,0%);stroke-opacity:1;stroke-miterlimit:10;" d="M -90.254379 -287.981262 L -100.199692 -281.266419 " transform="matrix(1,0,0,1,341.984848,871.028137)"/>
<path style="fill:none;stroke-width:1.5;stroke-linecap:butt;stroke-linejoin:miter;stroke:rgb(0%,0%,0%);stroke-opacity:1;stroke-miterlimit:10;" d="M -167.645004 -286.688294 L -150.551254 -201.215637 " transform="matrix(1,0,0,1,341.984848,871.028137)"/>
<path style="fill:none;stroke-width:1.5;stroke-linecap:butt;stroke-linejoin:miter;stroke:rgb(0%,0%,0%);stroke-opacity:1;stroke-miterlimit:10;" d="M -167.645004 -286.688294 L -160.539536 -277.020325 " transform="matrix(1,0,0,1,341.984848,871.028137)"/>
<path style="fill:none;stroke-width:1.5;stroke-linecap:butt;stroke-linejoin:miter;stroke:rgb(0%,0%,0%);stroke-opacity:1;stroke-miterlimit:10;" d="M -167.645004 -286.688294 L -170.484848 -275.028137 " transform="matrix(1,0,0,1,341.984848,871.028137)"/>
<path style="fill:none;stroke-width:1.5;stroke-linecap:butt;stroke-linejoin:miter;stroke:rgb(0%,0%,0%);stroke-opacity:1;stroke-miterlimit:10;" d="M -290.539536 -373.547669 L -154.937973 -199.207825 " transform="matrix(1,0,0,1,341.984848,871.028137)"/>
<path style="fill:none;stroke-width:1.5;stroke-linecap:butt;stroke-linejoin:miter;stroke:rgb(0%,0%,0%);stroke-opacity:1;stroke-miterlimit:10;" d="M -290.539536 -373.547669 L -279.859848 -368.078919 " transform="matrix(1,0,0,1,341.984848,871.028137)"/>
<path style="fill:none;stroke-width:1.5;stroke-linecap:butt;stroke-linejoin:miter;stroke:rgb(0%,0%,0%);stroke-opacity:1;stroke-miterlimit:10;" d="M -290.539536 -373.547669 L -287.863754 -361.852356 " transform="matrix(1,0,0,1,341.984848,871.028137)"/>
<path style="fill:none;stroke-width:1.5;stroke-linecap:butt;stroke-linejoin:miter;stroke:rgb(0%,0%,0%);stroke-opacity:1;stroke-miterlimit:10;" d="M -238.746567 -478.899231 L -291.582504 -390.840637 " transform="matrix(1,0,0,1,341.984848,871.028137)"/>
<path style="fill:none;stroke-width:1.5;stroke-linecap:butt;stroke-linejoin:miter;stroke:rgb(0%,0%,0%);stroke-opacity:1;stroke-miterlimit:10;" d="M -238.746567 -478.899231 L -239.992661 -466.965637 " transform="matrix(1,0,0,1,341.984848,871.028137)"/>
<path style="fill:none;stroke-width:1.5;stroke-linecap:butt;stroke-linejoin:miter;stroke:rgb(0%,0%,0%);stroke-opacity:1;stroke-miterlimit:10;" d="M -238.746567 -478.899231 L -248.691879 -472.184387 " transform="matrix(1,0,0,1,341.984848,871.028137)"/>
<path style="fill:none;stroke-width:1.5;stroke-linecap:butt;stroke-linejoin:miter;stroke:rgb(0%,0%,0%);stroke-opacity:1;stroke-miterlimit:10;" d="M -296.984848 -456.1922 L -296.984848 -392.336731 " transform="matrix(1,0,0,1,341.984848,871.028137)"/>
<path style="fill:none;stroke-width:1.5;stroke-linecap:butt;stroke-linejoin:miter;stroke:rgb(0%,0%,0%);stroke-opacity:1;stroke-miterlimit:10;" d="M -296.984848 -456.1922 L -291.914536 -445.313294 " transform="matrix(1,0,0,1,341.984848,871.028137)"/>
<path style="fill:none;stroke-width:1.5;stroke-linecap:butt;stroke-linejoin:miter;stroke:rgb(0%,0%,0%);stroke-opacity:1;stroke-miterlimit:10;" d="M -296.984848 -456.1922 L -302.055161 -445.313294 " transform="matrix(1,0,0,1,341.984848,871.028137)"/>
<path style="fill:none;stroke-width:1.5;stroke-linecap:butt;stroke-linejoin:miter;stroke:rgb(0%,0%,0%);stroke-opacity:1;stroke-miterlimit:10;" d="M -27.660629 -479.614075 L -163.258286 -305.274231 " transform="matrix(1,0,0,1,341.984848,871.028137)"/>
<path style="fill:none;stroke-width:1.5;stroke-linecap:butt;stroke-linejoin:miter;stroke:rgb(0%,0%,0%);stroke-opacity:1;stroke-miterlimit:10;" d="M -27.660629 -479.614075 L -30.332504 -467.918762 " transform="matrix(1,0,0,1,341.984848,871.028137)"/>
<path style="fill:none;stroke-width:1.5;stroke-linecap:butt;stroke-linejoin:miter;stroke:rgb(0%,0%,0%);stroke-opacity:1;stroke-miterlimit:10;" d="M -27.660629 -479.614075 L -38.340317 -474.145325 " transform="matrix(1,0,0,1,341.984848,871.028137)"/>
<path style="fill:none;stroke-width:1.5;stroke-linecap:butt;stroke-linejoin:miter;stroke:rgb(0%,0%,0%);stroke-opacity:1;stroke-miterlimit:10;" d="M -129.824692 -456.5047 L -167.160629 -307.172669 " transform="matrix(1,0,0,1,341.984848,871.028137)"/>
<path style="fill:none;stroke-width:1.5;stroke-linecap:butt;stroke-linejoin:miter;stroke:rgb(0%,0%,0%);stroke-opacity:1;stroke-miterlimit:10;" d="M -129.824692 -456.5047 L -127.543442 -444.72345 " transform="matrix(1,0,0,1,341.984848,871.028137)"/>
<path style="fill:none;stroke-width:1.5;stroke-linecap:butt;stroke-linejoin:miter;stroke:rgb(0%,0%,0%);stroke-opacity:1;stroke-miterlimit:10;" d="M -129.824692 -456.5047 L -137.383286 -447.184387 " transform="matrix(1,0,0,1,341.984848,871.028137)"/>
<path style="fill:none;stroke-width:1.5;stroke-linecap:butt;stroke-linejoin:miter;stroke:rgb(0%,0%,0%);stroke-opacity:1;stroke-miterlimit:10;" d="M -230.023911 -477.9422 L -173.027817 -306.946106 " transform="matrix(1,0,0,1,341.984848,871.028137)"/>
<path style="fill:none;stroke-width:1.5;stroke-linecap:butt;stroke-linejoin:miter;stroke:rgb(0%,0%,0%);stroke-opacity:1;stroke-miterlimit:10;" d="M -230.023911 -477.9422 L -221.773911 -469.227356 " transform="matrix(1,0,0,1,341.984848,871.028137)"/>
<path style="fill:none;stroke-width:1.5;stroke-linecap:butt;stroke-linejoin:miter;stroke:rgb(0%,0%,0%);stroke-opacity:1;stroke-miterlimit:10;" d="M -230.023911 -477.9422 L -231.395004 -466.020325 " transform="matrix(1,0,0,1,341.984848,871.028137)"/>
<path style="fill:none;stroke-width:1.5;stroke-linecap:butt;stroke-linejoin:miter;stroke:rgb(0%,0%,0%);stroke-opacity:1;stroke-miterlimit:10;" d="M -290.684067 -458.289856 L -176.004379 -305.383606 " transform="matrix(1,0,0,1,341.984848,871.028137)"/>
<path style="fill:none;stroke-width:1.5;stroke-linecap:butt;stroke-linejoin:miter;stroke:rgb(0%,0%,0%);stroke-opacity:1;stroke-miterlimit:10;" d="M -290.684067 -458.289856 L -280.102036 -452.633606 " transform="matrix(1,0,0,1,341.984848,871.028137)"/>
<path style="fill:none;stroke-width:1.5;stroke-linecap:butt;stroke-linejoin:miter;stroke:rgb(0%,0%,0%);stroke-opacity:1;stroke-miterlimit:10;" d="M -290.684067 -458.289856 L -288.215317 -446.547669 " transform="matrix(1,0,0,1,341.984848,871.028137)"/>
<path style="fill:none;stroke-width:1.5;stroke-linecap:butt;stroke-linejoin:miter;stroke:rgb(0%,0%,0%);stroke-opacity:1;stroke-miterlimit:10;" d="M -259.254379 -542.153137 L -292.289536 -476.082825 " transform="matrix(1,0,0,1,341.984848,871.028137)"/>
<path style="fill:none;stroke-width:1.5;stroke-linecap:butt;stroke-linejoin:miter;stroke:rgb(0%,0%,0%);stroke-opacity:1;stroke-miterlimit:10;" d="M -259.254379 -542.153137 L -259.582504 -530.157044 " transform="matrix(1,0,0,1,341.984848,871.028137)"/>
<path style="fill:none;stroke-width:1.5;stroke-linecap:butt;stroke-linejoin:miter;stroke:rgb(0%,0%,0%);stroke-opacity:1;stroke-miterlimit:10;" d="M -259.254379 -542.153137 L -268.652817 -534.6922 " transform="matrix(1,0,0,1,341.984848,871.028137)"/>
<path style="fill:none;stroke-width:1.5;stroke-linecap:butt;stroke-linejoin:miter;stroke:rgb(0%,0%,0%);stroke-opacity:1;stroke-miterlimit:10;" d="M 57.194839 -479.614075 L -78.406723 -305.274231 " transform="matrix(1,0,0,1,341.984848,871.028137)"/>
<path style="fill:none;stroke-width:1.5;stroke-linecap:butt;stroke-linejoin:miter;stroke:rgb(0%,0%,0%);stroke-opacity:1;stroke-miterlimit:10;" d="M 57.194839 -479.614075 L 54.519058 -467.918762 " transform="matrix(1,0,0,1,341.984848,871.028137)"/>
<path style="fill:none;stroke-width:1.5;stroke-linecap:butt;stroke-linejoin:miter;stroke:rgb(0%,0%,0%);stroke-opacity:1;stroke-miterlimit:10;" d="M 57.194839 -479.614075 L 46.511246 -474.145325 " transform="matrix(1,0,0,1,341.984848,871.028137)"/>
<path style="fill:none;stroke-width:1.5;stroke-linecap:butt;stroke-linejoin:miter;stroke:rgb(0%,0%,0%);stroke-opacity:1;stroke-miterlimit:10;" d="M -24.531723 -477.9422 L -81.531723 -306.946106 " transform="matrix(1,0,0,1,341.984848,871.028137)"/>
<path style="fill:none;stroke-width:1.5;stroke-linecap:butt;stroke-linejoin:miter;stroke:rgb(0%,0%,0%);stroke-opacity:1;stroke-miterlimit:10;" d="M -24.531723 -477.9422 L -23.160629 -466.020325 " transform="matrix(1,0,0,1,341.984848,871.028137)"/>
<path style="fill:none;stroke-width:1.5;stroke-linecap:butt;stroke-linejoin:miter;stroke:rgb(0%,0%,0%);stroke-opacity:1;stroke-miterlimit:10;" d="M -24.531723 -477.9422 L -32.785629 -469.227356 " transform="matrix(1,0,0,1,341.984848,871.028137)"/>
<path style="fill:none;stroke-width:1.5;stroke-linecap:butt;stroke-linejoin:miter;stroke:rgb(0%,0%,0%);stroke-opacity:1;stroke-miterlimit:10;" d="M -124.730942 -456.5047 L -87.398911 -307.172669 " transform="matrix(1,0,0,1,341.984848,871.028137)"/>
<path style="fill:none;stroke-width:1.5;stroke-linecap:butt;stroke-linejoin:miter;stroke:rgb(0%,0%,0%);stroke-opacity:1;stroke-miterlimit:10;" d="M -124.730942 -456.5047 L -117.176254 -447.184387 " transform="matrix(1,0,0,1,341.984848,871.028137)"/>
<path style="fill:none;stroke-width:1.5;stroke-linecap:butt;stroke-linejoin:miter;stroke:rgb(0%,0%,0%);stroke-opacity:1;stroke-miterlimit:10;" d="M -124.730942 -456.5047 L -127.016098 -444.72345 " transform="matrix(1,0,0,1,341.984848,871.028137)"/>
<path style="fill:none;stroke-width:1.5;stroke-linecap:butt;stroke-linejoin:miter;stroke:rgb(0%,0%,0%);stroke-opacity:1;stroke-miterlimit:10;" d="M -226.898911 -479.614075 L -91.297348 -305.274231 " transform="matrix(1,0,0,1,341.984848,871.028137)"/>
<path style="fill:none;stroke-width:1.5;stroke-linecap:butt;stroke-linejoin:miter;stroke:rgb(0%,0%,0%);stroke-opacity:1;stroke-miterlimit:10;" d="M -226.898911 -479.614075 L -216.219223 -474.145325 " transform="matrix(1,0,0,1,341.984848,871.028137)"/>
<path style="fill:none;stroke-width:1.5;stroke-linecap:butt;stroke-linejoin:miter;stroke:rgb(0%,0%,0%);stroke-opacity:1;stroke-miterlimit:10;" d="M -226.898911 -479.614075 L -224.223129 -467.918762 " transform="matrix(1,0,0,1,341.984848,871.028137)"/>
<path style="fill:none;stroke-width:1.5;stroke-linecap:butt;stroke-linejoin:miter;stroke:rgb(0%,0%,0%);stroke-opacity:1;stroke-miterlimit:10;" d="M -251.238754 -541.582825 L -236.664536 -497.864075 " transform="matrix(1,0,0,1,341.984848,871.028137)"/>
<path style="fill:none;stroke-width:1.5;stroke-linecap:butt;stroke-linejoin:miter;stroke:rgb(0%,0%,0%);stroke-opacity:1;stroke-miterlimit:10;" d="M -251.238754 -541.582825 L -242.988754 -532.867981 " transform="matrix(1,0,0,1,341.984848,871.028137)"/>
<path style="fill:none;stroke-width:1.5;stroke-linecap:butt;stroke-linejoin:miter;stroke:rgb(0%,0%,0%);stroke-opacity:1;stroke-miterlimit:10;" d="M -251.238754 -541.582825 L -252.609848 -529.66095 " transform="matrix(1,0,0,1,341.984848,871.028137)"/>
<path style="fill:none;stroke-width:1.5;stroke-linecap:butt;stroke-linejoin:miter;stroke:rgb(0%,0%,0%);stroke-opacity:1;stroke-miterlimit:10;" d="M -6.832504 -840.555481 L -247.727036 -559.516419 " transform="matrix(1,0,0,1,341.984848,871.028137)"/>
<path style="fill:none;stroke-width:1.5;stroke-linecap:butt;stroke-linejoin:miter;stroke:rgb(0%,0%,0%);stroke-opacity:1;stroke-miterlimit:10;" d="M -6.832504 -840.555481 L -10.059067 -828.996887 " transform="matrix(1,0,0,1,341.984848,871.028137)"/>
<path style="fill:none;stroke-width:1.5;stroke-linecap:butt;stroke-linejoin:miter;stroke:rgb(0%,0%,0%);stroke-opacity:1;stroke-miterlimit:10;" d="M -6.832504 -840.555481 L -17.762192 -835.59845 " transform="matrix(1,0,0,1,341.984848,871.028137)"/>
<path style="fill:none;stroke-width:1.5;stroke-linecap:butt;stroke-linejoin:miter;stroke:rgb(0%,0%,0%);stroke-opacity:1;stroke-miterlimit:10;" d="M -6.301254 -627.996887 L -120.980942 -475.090637 " transform="matrix(1,0,0,1,341.984848,871.028137)"/>
<path style="fill:none;stroke-width:1.5;stroke-linecap:butt;stroke-linejoin:miter;stroke:rgb(0%,0%,0%);stroke-opacity:1;stroke-miterlimit:10;" d="M -6.301254 -627.996887 L -8.770004 -616.250794 " transform="matrix(1,0,0,1,341.984848,871.028137)"/>
<path style="fill:none;stroke-width:1.5;stroke-linecap:butt;stroke-linejoin:miter;stroke:rgb(0%,0%,0%);stroke-opacity:1;stroke-miterlimit:10;" d="M -6.301254 -627.996887 L -16.883286 -622.336731 " transform="matrix(1,0,0,1,341.984848,871.028137)"/>
<path style="fill:none;stroke-width:1.5;stroke-linecap:butt;stroke-linejoin:miter;stroke:rgb(0%,0%,0%);stroke-opacity:1;stroke-miterlimit:10;" d="M 311.753433 -394.762512 L 176.151871 -220.418762 " transform="matrix(1,0,0,1,341.984848,871.028137)"/>
<path style="fill:none;stroke-width:1.5;stroke-linecap:butt;stroke-linejoin:miter;stroke:rgb(0%,0%,0%);stroke-opacity:1;stroke-miterlimit:10;" d="M 311.753433 -394.762512 L 309.077652 -383.063294 " transform="matrix(1,0,0,1,341.984848,871.028137)"/>
<path style="fill:none;stroke-width:1.5;stroke-linecap:butt;stroke-linejoin:miter;stroke:rgb(0%,0%,0%);stroke-opacity:1;stroke-miterlimit:10;" d="M 311.753433 -394.762512 L 301.069839 -389.289856 " transform="matrix(1,0,0,1,341.984848,871.028137)"/>
<path style="fill:none;stroke-width:1.5;stroke-linecap:butt;stroke-linejoin:miter;stroke:rgb(0%,0%,0%);stroke-opacity:1;stroke-miterlimit:10;" d="M 131.976089 -287.594544 L 165.011246 -221.524231 " transform="matrix(1,0,0,1,341.984848,871.028137)"/>
<path style="fill:none;stroke-width:1.5;stroke-linecap:butt;stroke-linejoin:miter;stroke:rgb(0%,0%,0%);stroke-opacity:1;stroke-miterlimit:10;" d="M 131.976089 -287.594544 L 141.374527 -280.133606 " transform="matrix(1,0,0,1,341.984848,871.028137)"/>
<path style="fill:none;stroke-width:1.5;stroke-linecap:butt;stroke-linejoin:miter;stroke:rgb(0%,0%,0%);stroke-opacity:1;stroke-miterlimit:10;" d="M 131.976089 -287.594544 L 132.304214 -275.59845 " transform="matrix(1,0,0,1,341.984848,871.028137)"/>
<path style="fill:none;stroke-width:1.5;stroke-linecap:butt;stroke-linejoin:miter;stroke:rgb(0%,0%,0%);stroke-opacity:1;stroke-miterlimit:10;" d="M 145.171402 -350.664856 L 130.601089 -306.946106 " transform="matrix(1,0,0,1,341.984848,871.028137)"/>
<path style="fill:none;stroke-width:1.5;stroke-linecap:butt;stroke-linejoin:miter;stroke:rgb(0%,0%,0%);stroke-opacity:1;stroke-miterlimit:10;" d="M 145.171402 -350.664856 L 146.542496 -338.742981 " transform="matrix(1,0,0,1,341.984848,871.028137)"/>
<path style="fill:none;stroke-width:1.5;stroke-linecap:butt;stroke-linejoin:miter;stroke:rgb(0%,0%,0%);stroke-opacity:1;stroke-miterlimit:10;" d="M 145.171402 -350.664856 L 136.921402 -341.950012 " transform="matrix(1,0,0,1,341.984848,871.028137)"/>
<path style="fill:none;stroke-width:1.5;stroke-linecap:butt;stroke-linejoin:miter;stroke:rgb(0%,0%,0%);stroke-opacity:1;stroke-miterlimit:10;" d="M -14.766098 -479.614075 L 120.831558 -305.274231 " transform="matrix(1,0,0,1,341.984848,871.028137)"/>
<path style="fill:none;stroke-width:1.5;stroke-linecap:butt;stroke-linejoin:miter;stroke:rgb(0%,0%,0%);stroke-opacity:1;stroke-miterlimit:10;" d="M -14.766098 -479.614075 L -4.086411 -474.145325 " transform="matrix(1,0,0,1,341.984848,871.028137)"/>
<path style="fill:none;stroke-width:1.5;stroke-linecap:butt;stroke-linejoin:miter;stroke:rgb(0%,0%,0%);stroke-opacity:1;stroke-miterlimit:10;" d="M -14.766098 -479.614075 L -12.094223 -467.918762 " transform="matrix(1,0,0,1,341.984848,871.028137)"/>
<path style="fill:none;stroke-width:1.5;stroke-linecap:butt;stroke-linejoin:miter;stroke:rgb(0%,0%,0%);stroke-opacity:1;stroke-miterlimit:10;" d="M 16.519058 -563.364075 L -16.516098 -497.293762 " transform="matrix(1,0,0,1,341.984848,871.028137)"/>
<path style="fill:none;stroke-width:1.5;stroke-linecap:butt;stroke-linejoin:miter;stroke:rgb(0%,0%,0%);stroke-opacity:1;stroke-miterlimit:10;" d="M 16.519058 -563.364075 L 16.190933 -551.367981 " transform="matrix(1,0,0,1,341.984848,871.028137)"/>
<path style="fill:none;stroke-width:1.5;stroke-linecap:butt;stroke-linejoin:miter;stroke:rgb(0%,0%,0%);stroke-opacity:1;stroke-miterlimit:10;" d="M 16.519058 -563.364075 L 7.116714 -555.907044 " transform="matrix(1,0,0,1,341.984848,871.028137)"/>
<path style="fill:none;stroke-width:1.5;stroke-linecap:butt;stroke-linejoin:miter;stroke:rgb(0%,0%,0%);stroke-opacity:1;stroke-miterlimit:10;" d="M 206.729996 -457.688294 L 153.894058 -369.6297 " transform="matrix(1,0,0,1,341.984848,871.028137)"/>
<path style="fill:none;stroke-width:1.5;stroke-linecap:butt;stroke-linejoin:miter;stroke:rgb(0%,0%,0%);stroke-opacity:1;stroke-miterlimit:10;" d="M 206.729996 -457.688294 L 205.483902 -445.750794 " transform="matrix(1,0,0,1,341.984848,871.028137)"/>
<path style="fill:none;stroke-width:1.5;stroke-linecap:butt;stroke-linejoin:miter;stroke:rgb(0%,0%,0%);stroke-opacity:1;stroke-miterlimit:10;" d="M 206.729996 -457.688294 L 196.784683 -450.969544 " transform="matrix(1,0,0,1,341.984848,871.028137)"/>
<path style="fill:none;stroke-width:1.5;stroke-linecap:butt;stroke-linejoin:miter;stroke:rgb(0%,0%,0%);stroke-opacity:1;stroke-miterlimit:10;" d="M 69.464371 -479.168762 L 142.667496 -369.360169 " transform="matrix(1,0,0,1,341.984848,871.028137)"/>
<path style="fill:none;stroke-width:1.5;stroke-linecap:butt;stroke-linejoin:miter;stroke:rgb(0%,0%,0%);stroke-opacity:1;stroke-miterlimit:10;" d="M 69.464371 -479.168762 L 79.718277 -472.930481 " transform="matrix(1,0,0,1,341.984848,871.028137)"/>
<path style="fill:none;stroke-width:1.5;stroke-linecap:butt;stroke-linejoin:miter;stroke:rgb(0%,0%,0%);stroke-opacity:1;stroke-miterlimit:10;" d="M 69.464371 -479.168762 L 71.276871 -467.305481 " transform="matrix(1,0,0,1,341.984848,871.028137)"/>
<path style="fill:none;stroke-width:1.5;stroke-linecap:butt;stroke-linejoin:miter;stroke:rgb(0%,0%,0%);stroke-opacity:1;stroke-miterlimit:10;" d="M 25.909683 -563.364075 L 58.944839 -497.293762 " transform="matrix(1,0,0,1,341.984848,871.028137)"/>
<path style="fill:none;stroke-width:1.5;stroke-linecap:butt;stroke-linejoin:miter;stroke:rgb(0%,0%,0%);stroke-opacity:1;stroke-miterlimit:10;" d="M 25.909683 -563.364075 L 35.308121 -555.907044 " transform="matrix(1,0,0,1,341.984848,871.028137)"/>
<path style="fill:none;stroke-width:1.5;stroke-linecap:butt;stroke-linejoin:miter;stroke:rgb(0%,0%,0%);stroke-opacity:1;stroke-miterlimit:10;" d="M 25.909683 -563.364075 L 26.237808 -551.367981 " transform="matrix(1,0,0,1,341.984848,871.028137)"/>
<path style="fill:none;stroke-width:1.5;stroke-linecap:butt;stroke-linejoin:miter;stroke:rgb(0%,0%,0%);stroke-opacity:1;stroke-miterlimit:10;" d="M 3.319839 -626.434387 L 17.894058 -582.719544 " transform="matrix(1,0,0,1,341.984848,871.028137)"/>
<path style="fill:none;stroke-width:1.5;stroke-linecap:butt;stroke-linejoin:miter;stroke:rgb(0%,0%,0%);stroke-opacity:1;stroke-miterlimit:10;" d="M 3.319839 -626.434387 L 11.569839 -617.719544 " transform="matrix(1,0,0,1,341.984848,871.028137)"/>
<path style="fill:none;stroke-width:1.5;stroke-linecap:butt;stroke-linejoin:miter;stroke:rgb(0%,0%,0%);stroke-opacity:1;stroke-miterlimit:10;" d="M 3.319839 -626.434387 L 1.948746 -614.512512 " transform="matrix(1,0,0,1,341.984848,871.028137)"/>
<path style="fill:none;stroke-width:1.5;stroke-linecap:butt;stroke-linejoin:miter;stroke:rgb(0%,0%,0%);stroke-opacity:1;stroke-miterlimit:10;" d="M -0.000473098 -838.028137 L -0.000473098 -646.895325 " transform="matrix(1,0,0,1,341.984848,871.028137)"/>
<path style="fill:none;stroke-width:1.5;stroke-linecap:butt;stroke-linejoin:miter;stroke:rgb(0%,0%,0%);stroke-opacity:1;stroke-miterlimit:10;" d="M -0.000473098 -838.028137 L 5.069839 -827.153137 " transform="matrix(1,0,0,1,341.984848,871.028137)"/>
<path style="fill:none;stroke-width:1.5;stroke-linecap:butt;stroke-linejoin:miter;stroke:rgb(0%,0%,0%);stroke-opacity:1;stroke-miterlimit:10;" d="M -0.000473098 -838.028137 L -5.070786 -827.153137 " transform="matrix(1,0,0,1,341.984848,871.028137)"/>
<path style="fill:none;stroke-width:1.5;stroke-linecap:butt;stroke-linejoin:miter;stroke:rgb(0%,0%,0%);stroke-opacity:1;stroke-miterlimit:10;" d="M 249.862808 -542.153137 L 216.827652 -476.082825 " transform="matrix(1,0,0,1,341.984848,871.028137)"/>
<path style="fill:none;stroke-width:1.5;stroke-linecap:butt;stroke-linejoin:miter;stroke:rgb(0%,0%,0%);stroke-opacity:1;stroke-miterlimit:10;" d="M 249.862808 -542.153137 L 249.534683 -530.157044 " transform="matrix(1,0,0,1,341.984848,871.028137)"/>
<path style="fill:none;stroke-width:1.5;stroke-linecap:butt;stroke-linejoin:miter;stroke:rgb(0%,0%,0%);stroke-opacity:1;stroke-miterlimit:10;" d="M 249.862808 -542.153137 L 240.464371 -534.6922 " transform="matrix(1,0,0,1,341.984848,871.028137)"/>
<path style="fill:none;stroke-width:1.5;stroke-linecap:butt;stroke-linejoin:miter;stroke:rgb(0%,0%,0%);stroke-opacity:1;stroke-miterlimit:10;" d="M 318.198746 -434.977356 L 318.198746 -413.551575 " transform="matrix(1,0,0,1,341.984848,871.028137)"/>
<path style="fill:none;stroke-width:1.5;stroke-linecap:butt;stroke-linejoin:miter;stroke:rgb(0%,0%,0%);stroke-opacity:1;stroke-miterlimit:10;" d="M 318.198746 -434.977356 L 323.269058 -424.102356 " transform="matrix(1,0,0,1,341.984848,871.028137)"/>
<path style="fill:none;stroke-width:1.5;stroke-linecap:butt;stroke-linejoin:miter;stroke:rgb(0%,0%,0%);stroke-opacity:1;stroke-miterlimit:10;" d="M 318.198746 -434.977356 L 313.128433 -424.102356 " transform="matrix(1,0,0,1,341.984848,871.028137)"/>
<path style="fill:none;stroke-width:1.5;stroke-linecap:butt;stroke-linejoin:miter;stroke:rgb(0%,0%,0%);stroke-opacity:1;stroke-miterlimit:10;" d="M 259.960464 -542.539856 L 312.796402 -454.481262 " transform="matrix(1,0,0,1,341.984848,871.028137)"/>
<path style="fill:none;stroke-width:1.5;stroke-linecap:butt;stroke-linejoin:miter;stroke:rgb(0%,0%,0%);stroke-opacity:1;stroke-miterlimit:10;" d="M 259.960464 -542.539856 L 269.905777 -535.821106 " transform="matrix(1,0,0,1,341.984848,871.028137)"/>
<path style="fill:none;stroke-width:1.5;stroke-linecap:butt;stroke-linejoin:miter;stroke:rgb(0%,0%,0%);stroke-opacity:1;stroke-miterlimit:10;" d="M 259.960464 -542.539856 L 261.206558 -530.606262 " transform="matrix(1,0,0,1,341.984848,871.028137)"/>
<path style="fill:none;stroke-width:1.5;stroke-linecap:butt;stroke-linejoin:miter;stroke:rgb(0%,0%,0%);stroke-opacity:1;stroke-miterlimit:10;" d="M 6.831558 -840.555481 L 247.726089 -559.516419 " transform="matrix(1,0,0,1,341.984848,871.028137)"/>
<path style="fill:none;stroke-width:1.5;stroke-linecap:butt;stroke-linejoin:miter;stroke:rgb(0%,0%,0%);stroke-opacity:1;stroke-miterlimit:10;" d="M 6.831558 -840.555481 L 17.761246 -835.59845 " transform="matrix(1,0,0,1,341.984848,871.028137)"/>
<path style="fill:none;stroke-width:1.5;stroke-linecap:butt;stroke-linejoin:miter;stroke:rgb(0%,0%,0%);stroke-opacity:1;stroke-miterlimit:10;" d="M 6.831558 -840.555481 L 10.062027 -828.996887 " transform="matrix(1,0,0,1,341.984848,871.028137)"/>
</g>
</svg>
