<?xml version="1.0" encoding="UTF-8"?>
<svg xmlns="http://www.w3.org/2000/svg" xmlns:xlink="http://www.w3.org/1999/xlink" width="1030.587012pt" height="362.558441pt" viewBox="0 0 1030.587012 362.558441" version="1.1">
<g id="surface1">
<path style="fill:none;stroke-width:1.5;stroke-linecap:butt;stroke-linejoin:miter;stroke:rgb(0%,0%,0%);stroke-opacity:1;stroke-miterlimit:10;" d="M 10.5 -0.000689736 C 10.5 5.800092 5.800781 10.49931 0 10.49931 C -5.800781 10.49931 -10.5 5.800092 -10.5 -0.000689736 C -10.5 -5.797565 -5.800781 -10.50069 0 -10.50069 C 5.800781 -10.50069 10.5 -5.797565 10.5 -0.000689736 " transform="matrix(1,0,0,1,108,206.735065)"/>
<path style="fill:none;stroke-width:1.5;stroke-linecap:butt;stroke-linejoin:miter;stroke:rgb(0%,0%,0%);stroke-opacity:1;stroke-miterlimit:10;" d="M 214.148438 -101.824908 C 214.148438 -96.024127 209.445312 -91.324908 203.648438 -91.324908 C 197.847656 -91.324908 193.148438 -96.024127 193.148438 -101.824908 C 193.148438 -107.621783 197.847656 -112.324908 203.648438 -112.324908 C 209.445312 -112.324908 214.148438 -107.621783 214.148438 -101.824908 " transform="matrix(1,0,0,1,108,206.735065)"/>
<path style="fill:none;stroke-width:1.5;stroke-linecap:butt;stroke-linejoin:miter;stroke:rgb(0%,0%,0%);stroke-opacity:1;stroke-miterlimit:10;" d="M 214.148438 -0.000689736 C 214.148438 5.800092 209.445312 10.49931 203.648438 10.49931 C 197.847656 10.49931 193.148438 5.800092 193.148438 -0.000689736 C 193.148438 -5.797565 197.847656 -10.50069 203.648438 -10.50069 C 209.445312 -10.50069 214.148438 -5.797565 214.148438 -0.000689736 " transform="matrix(1,0,0,1,108,206.735065)"/>
<path style="fill:none;stroke-width:1.5;stroke-linecap:butt;stroke-linejoin:miter;stroke:rgb(0%,0%,0%);stroke-opacity:1;stroke-miterlimit:10;" d="M 214.148438 101.823529 C 214.148438 107.62431 209.445312 112.323529 203.648438 112.323529 C 197.847656 112.323529 193.148438 107.62431 193.148438 101.823529 C 193.148438 96.022748 197.847656 91.323529 203.648438 91.323529 C 209.445312 91.323529 214.148438 96.022748 214.148438 101.823529 " transform="matrix(1,0,0,1,108,206.735065)"/>
<path style="fill:none;stroke-width:1.5;stroke-linecap:butt;stroke-linejoin:miter;stroke:rgb(0%,0%,0%);stroke-opacity:1;stroke-miterlimit:10;" d="M 570.527344 -152.735065 C 570.527344 -146.934283 565.828125 -142.235065 560.027344 -142.235065 C 554.230469 -142.235065 549.527344 -146.934283 549.527344 -152.735065 C 549.527344 -158.535846 554.230469 -163.235065 560.027344 -163.235065 C 565.828125 -163.235065 570.527344 -158.535846 570.527344 -152.735065 " transform="matrix(1,0,0,1,108,206.735065)"/>
<path style="fill:none;stroke-width:1.5;stroke-linecap:butt;stroke-linejoin:miter;stroke:rgb(0%,0%,0%);stroke-opacity:1;stroke-miterlimit:10;" d="M 519.617188 -0.000689736 C 519.617188 5.800092 514.914062 10.49931 509.117188 10.49931 C 503.316406 10.49931 498.617188 5.800092 498.617188 -0.000689736 C 498.617188 -5.797565 503.316406 -10.50069 509.117188 -10.50069 C 514.914062 -10.50069 519.617188 -5.797565 519.617188 -0.000689736 " transform="matrix(1,0,0,1,108,206.735065)"/>
<path style="fill:none;stroke-width:1.5;stroke-linecap:butt;stroke-linejoin:miter;stroke:rgb(0%,0%,0%);stroke-opacity:1;stroke-miterlimit:10;" d="M 519.617188 101.823529 C 519.617188 107.62431 514.914062 112.323529 509.117188 112.323529 C 503.316406 112.323529 498.617188 107.62431 498.617188 101.823529 C 498.617188 96.022748 503.316406 91.323529 509.117188 91.323529 C 514.914062 91.323529 519.617188 96.022748 519.617188 101.823529 " transform="matrix(1,0,0,1,108,206.735065)"/>
<path style="fill:none;stroke-width:1.5;stroke-linecap:butt;stroke-linejoin:miter;stroke:rgb(0%,0%,0%);stroke-opacity:1;stroke-miterlimit:10;" d="M 672.351562 50.913373 C 672.351562 56.710248 667.652344 61.413373 661.851562 61.413373 C 656.054688 61.413373 651.351562 56.710248 651.351562 50.913373 C 651.351562 45.112592 656.054688 40.413373 661.851562 40.413373 C 667.652344 40.413373 672.351562 45.112592 672.351562 50.913373 " transform="matrix(1,0,0,1,108,206.735065)"/>
<path style="fill:none;stroke-width:1.5;stroke-linecap:butt;stroke-linejoin:miter;stroke:rgb(0%,0%,0%);stroke-opacity:1;stroke-miterlimit:10;" d="M 825.085938 -0.000689736 C 825.085938 5.800092 820.386719 10.49931 814.585938 10.49931 C 808.789062 10.49931 804.085938 5.800092 804.085938 -0.000689736 C 804.085938 -5.797565 808.789062 -10.50069 814.585938 -10.50069 C 820.386719 -10.50069 825.085938 -5.797565 825.085938 -0.000689736 " transform="matrix(1,0,0,1,108,206.735065)"/>
<path style="fill:none;stroke-width:1.5;stroke-linecap:butt;stroke-linejoin:miter;stroke:rgb(0%,0%,0%);stroke-opacity:1;stroke-miterlimit:10;" d="M 194.253906 97.128217 L 9.390625 4.694623 " transform="matrix(1,0,0,1,108,206.735065)"/>
<path style="fill:none;stroke-width:1.5;stroke-linecap:butt;stroke-linejoin:miter;stroke:rgb(0%,0%,0%);stroke-opacity:1;stroke-miterlimit:10;" d="M 194.253906 97.128217 L 182.257812 96.800092 " transform="matrix(1,0,0,1,108,206.735065)"/>
<path style="fill:none;stroke-width:1.5;stroke-linecap:butt;stroke-linejoin:miter;stroke:rgb(0%,0%,0%);stroke-opacity:1;stroke-miterlimit:10;" d="M 194.253906 97.128217 L 186.796875 87.729779 " transform="matrix(1,0,0,1,108,206.735065)"/>
<path style="fill:none;stroke-width:1.5;stroke-linecap:butt;stroke-linejoin:miter;stroke:rgb(0%,0%,0%);stroke-opacity:1;stroke-miterlimit:10;" d="M 193.148438 -0.000689736 L 10.5 -0.000689736 " transform="matrix(1,0,0,1,108,206.735065)"/>
<path style="fill:none;stroke-width:1.5;stroke-linecap:butt;stroke-linejoin:miter;stroke:rgb(0%,0%,0%);stroke-opacity:1;stroke-miterlimit:10;" d="M 193.148438 -0.000689736 L 182.269531 5.069623 " transform="matrix(1,0,0,1,108,206.735065)"/>
<path style="fill:none;stroke-width:1.5;stroke-linecap:butt;stroke-linejoin:miter;stroke:rgb(0%,0%,0%);stroke-opacity:1;stroke-miterlimit:10;" d="M 193.148438 -0.000689736 L 182.269531 -5.071002 " transform="matrix(1,0,0,1,108,206.735065)"/>
<path style="fill:none;stroke-width:1.5;stroke-linecap:butt;stroke-linejoin:miter;stroke:rgb(0%,0%,0%);stroke-opacity:1;stroke-miterlimit:10;" d="M 194.253906 -97.12569 L 9.390625 -4.696002 " transform="matrix(1,0,0,1,108,206.735065)"/>
<path style="fill:none;stroke-width:1.5;stroke-linecap:butt;stroke-linejoin:miter;stroke:rgb(0%,0%,0%);stroke-opacity:1;stroke-miterlimit:10;" d="M 194.253906 -97.12569 L 186.796875 -87.727252 " transform="matrix(1,0,0,1,108,206.735065)"/>
<path style="fill:none;stroke-width:1.5;stroke-linecap:butt;stroke-linejoin:miter;stroke:rgb(0%,0%,0%);stroke-opacity:1;stroke-miterlimit:10;" d="M 194.253906 -97.12569 L 182.257812 -96.801471 " transform="matrix(1,0,0,1,108,206.735065)"/>
<path style="fill:none;stroke-width:1.5;stroke-linecap:butt;stroke-linejoin:miter;stroke:rgb(0%,0%,0%);stroke-opacity:1;stroke-miterlimit:10;" d="M 500.378906 95.99931 L 212.382812 -96.00069 " transform="matrix(1,0,0,1,108,206.735065)"/>
<path style="fill:none;stroke-width:1.5;stroke-linecap:butt;stroke-linejoin:miter;stroke:rgb(0%,0%,0%);stroke-opacity:1;stroke-miterlimit:10;" d="M 500.378906 95.99931 L 488.519531 94.18681 " transform="matrix(1,0,0,1,108,206.735065)"/>
<path style="fill:none;stroke-width:1.5;stroke-linecap:butt;stroke-linejoin:miter;stroke:rgb(0%,0%,0%);stroke-opacity:1;stroke-miterlimit:10;" d="M 500.378906 95.99931 L 494.144531 85.745404 " transform="matrix(1,0,0,1,108,206.735065)"/>
<path style="fill:none;stroke-width:1.5;stroke-linecap:butt;stroke-linejoin:miter;stroke:rgb(0%,0%,0%);stroke-opacity:1;stroke-miterlimit:10;" d="M 499.15625 -3.321002 L 213.609375 -98.504596 " transform="matrix(1,0,0,1,108,206.735065)"/>
<path style="fill:none;stroke-width:1.5;stroke-linecap:butt;stroke-linejoin:miter;stroke:rgb(0%,0%,0%);stroke-opacity:1;stroke-miterlimit:10;" d="M 499.15625 -3.321002 L 487.234375 -1.949908 " transform="matrix(1,0,0,1,108,206.735065)"/>
<path style="fill:none;stroke-width:1.5;stroke-linecap:butt;stroke-linejoin:miter;stroke:rgb(0%,0%,0%);stroke-opacity:1;stroke-miterlimit:10;" d="M 499.15625 -3.321002 L 490.441406 -11.571002 " transform="matrix(1,0,0,1,108,206.735065)"/>
<path style="fill:none;stroke-width:1.5;stroke-linecap:butt;stroke-linejoin:miter;stroke:rgb(0%,0%,0%);stroke-opacity:1;stroke-miterlimit:10;" d="M 549.632812 -151.25069 L 214.042969 -103.309283 " transform="matrix(1,0,0,1,108,206.735065)"/>
<path style="fill:none;stroke-width:1.5;stroke-linecap:butt;stroke-linejoin:miter;stroke:rgb(0%,0%,0%);stroke-opacity:1;stroke-miterlimit:10;" d="M 549.632812 -151.25069 L 539.585938 -144.692096 " transform="matrix(1,0,0,1,108,206.735065)"/>
<path style="fill:none;stroke-width:1.5;stroke-linecap:butt;stroke-linejoin:miter;stroke:rgb(0%,0%,0%);stroke-opacity:1;stroke-miterlimit:10;" d="M 549.632812 -151.25069 L 538.152344 -154.731158 " transform="matrix(1,0,0,1,108,206.735065)"/>
<path style="fill:none;stroke-width:1.5;stroke-linecap:butt;stroke-linejoin:miter;stroke:rgb(0%,0%,0%);stroke-opacity:1;stroke-miterlimit:10;" d="M 499.15625 98.503217 L 213.609375 3.319623 " transform="matrix(1,0,0,1,108,206.735065)"/>
<path style="fill:none;stroke-width:1.5;stroke-linecap:butt;stroke-linejoin:miter;stroke:rgb(0%,0%,0%);stroke-opacity:1;stroke-miterlimit:10;" d="M 499.15625 98.503217 L 487.234375 99.87431 " transform="matrix(1,0,0,1,108,206.735065)"/>
<path style="fill:none;stroke-width:1.5;stroke-linecap:butt;stroke-linejoin:miter;stroke:rgb(0%,0%,0%);stroke-opacity:1;stroke-miterlimit:10;" d="M 499.15625 98.503217 L 490.441406 90.253217 " transform="matrix(1,0,0,1,108,206.735065)"/>
<path style="fill:none;stroke-width:1.5;stroke-linecap:butt;stroke-linejoin:miter;stroke:rgb(0%,0%,0%);stroke-opacity:1;stroke-miterlimit:10;" d="M 498.617188 -0.000689736 L 214.148438 -0.000689736 " transform="matrix(1,0,0,1,108,206.735065)"/>
<path style="fill:none;stroke-width:1.5;stroke-linecap:butt;stroke-linejoin:miter;stroke:rgb(0%,0%,0%);stroke-opacity:1;stroke-miterlimit:10;" d="M 498.617188 -0.000689736 L 487.742188 5.069623 " transform="matrix(1,0,0,1,108,206.735065)"/>
<path style="fill:none;stroke-width:1.5;stroke-linecap:butt;stroke-linejoin:miter;stroke:rgb(0%,0%,0%);stroke-opacity:1;stroke-miterlimit:10;" d="M 498.617188 -0.000689736 L 487.742188 -5.071002 " transform="matrix(1,0,0,1,108,206.735065)"/>
<path style="fill:none;stroke-width:1.5;stroke-linecap:butt;stroke-linejoin:miter;stroke:rgb(0%,0%,0%);stroke-opacity:1;stroke-miterlimit:10;" d="M 550.378906 -148.598346 L 213.296875 -4.137408 " transform="matrix(1,0,0,1,108,206.735065)"/>
<path style="fill:none;stroke-width:1.5;stroke-linecap:butt;stroke-linejoin:miter;stroke:rgb(0%,0%,0%);stroke-opacity:1;stroke-miterlimit:10;" d="M 550.378906 -148.598346 L 542.378906 -139.653033 " transform="matrix(1,0,0,1,108,206.735065)"/>
<path style="fill:none;stroke-width:1.5;stroke-linecap:butt;stroke-linejoin:miter;stroke:rgb(0%,0%,0%);stroke-opacity:1;stroke-miterlimit:10;" d="M 550.378906 -148.598346 L 538.382812 -148.977252 " transform="matrix(1,0,0,1,108,206.735065)"/>
<path style="fill:none;stroke-width:1.5;stroke-linecap:butt;stroke-linejoin:miter;stroke:rgb(0%,0%,0%);stroke-opacity:1;stroke-miterlimit:10;" d="M 498.617188 101.823529 L 214.148438 101.823529 " transform="matrix(1,0,0,1,108,206.735065)"/>
<path style="fill:none;stroke-width:1.5;stroke-linecap:butt;stroke-linejoin:miter;stroke:rgb(0%,0%,0%);stroke-opacity:1;stroke-miterlimit:10;" d="M 498.617188 101.823529 L 487.742188 106.893842 " transform="matrix(1,0,0,1,108,206.735065)"/>
<path style="fill:none;stroke-width:1.5;stroke-linecap:butt;stroke-linejoin:miter;stroke:rgb(0%,0%,0%);stroke-opacity:1;stroke-miterlimit:10;" d="M 498.617188 101.823529 L 487.742188 96.753217 " transform="matrix(1,0,0,1,108,206.735065)"/>
<path style="fill:none;stroke-width:1.5;stroke-linecap:butt;stroke-linejoin:miter;stroke:rgb(0%,0%,0%);stroke-opacity:1;stroke-miterlimit:10;" d="M 499.15625 3.319623 L 213.609375 98.503217 " transform="matrix(1,0,0,1,108,206.735065)"/>
<path style="fill:none;stroke-width:1.5;stroke-linecap:butt;stroke-linejoin:miter;stroke:rgb(0%,0%,0%);stroke-opacity:1;stroke-miterlimit:10;" d="M 499.15625 3.319623 L 490.441406 11.569623 " transform="matrix(1,0,0,1,108,206.735065)"/>
<path style="fill:none;stroke-width:1.5;stroke-linecap:butt;stroke-linejoin:miter;stroke:rgb(0%,0%,0%);stroke-opacity:1;stroke-miterlimit:10;" d="M 499.15625 3.319623 L 487.234375 1.948529 " transform="matrix(1,0,0,1,108,206.735065)"/>
<path style="fill:none;stroke-width:1.5;stroke-linecap:butt;stroke-linejoin:miter;stroke:rgb(0%,0%,0%);stroke-opacity:1;stroke-miterlimit:10;" d="M 551.484375 -146.633502 L 212.191406 95.721967 " transform="matrix(1,0,0,1,108,206.735065)"/>
<path style="fill:none;stroke-width:1.5;stroke-linecap:butt;stroke-linejoin:miter;stroke:rgb(0%,0%,0%);stroke-opacity:1;stroke-miterlimit:10;" d="M 551.484375 -146.633502 L 545.582031 -136.184283 " transform="matrix(1,0,0,1,108,206.735065)"/>
<path style="fill:none;stroke-width:1.5;stroke-linecap:butt;stroke-linejoin:miter;stroke:rgb(0%,0%,0%);stroke-opacity:1;stroke-miterlimit:10;" d="M 551.484375 -146.633502 L 539.6875 -144.43819 " transform="matrix(1,0,0,1,108,206.735065)"/>
<path style="fill:none;stroke-width:1.5;stroke-linecap:butt;stroke-linejoin:miter;stroke:rgb(0%,0%,0%);stroke-opacity:1;stroke-miterlimit:10;" d="M 805.582031 -5.403033 L 569.03125 -147.332721 " transform="matrix(1,0,0,1,108,206.735065)"/>
<path style="fill:none;stroke-width:1.5;stroke-linecap:butt;stroke-linejoin:miter;stroke:rgb(0%,0%,0%);stroke-opacity:1;stroke-miterlimit:10;" d="M 805.582031 -5.403033 L 793.648438 -6.649127 " transform="matrix(1,0,0,1,108,206.735065)"/>
<path style="fill:none;stroke-width:1.5;stroke-linecap:butt;stroke-linejoin:miter;stroke:rgb(0%,0%,0%);stroke-opacity:1;stroke-miterlimit:10;" d="M 805.582031 -5.403033 L 798.867188 -15.348346 " transform="matrix(1,0,0,1,108,206.735065)"/>
<path style="fill:none;stroke-width:1.5;stroke-linecap:butt;stroke-linejoin:miter;stroke:rgb(0%,0%,0%);stroke-opacity:1;stroke-miterlimit:10;" d="M 651.890625 47.59306 L 519.078125 3.319623 " transform="matrix(1,0,0,1,108,206.735065)"/>
<path style="fill:none;stroke-width:1.5;stroke-linecap:butt;stroke-linejoin:miter;stroke:rgb(0%,0%,0%);stroke-opacity:1;stroke-miterlimit:10;" d="M 651.890625 47.59306 L 639.96875 48.964154 " transform="matrix(1,0,0,1,108,206.735065)"/>
<path style="fill:none;stroke-width:1.5;stroke-linecap:butt;stroke-linejoin:miter;stroke:rgb(0%,0%,0%);stroke-opacity:1;stroke-miterlimit:10;" d="M 651.890625 47.59306 L 643.175781 39.339154 " transform="matrix(1,0,0,1,108,206.735065)"/>
<path style="fill:none;stroke-width:1.5;stroke-linecap:butt;stroke-linejoin:miter;stroke:rgb(0%,0%,0%);stroke-opacity:1;stroke-miterlimit:10;" d="M 651.890625 54.233685 L 519.078125 98.503217 " transform="matrix(1,0,0,1,108,206.735065)"/>
<path style="fill:none;stroke-width:1.5;stroke-linecap:butt;stroke-linejoin:miter;stroke:rgb(0%,0%,0%);stroke-opacity:1;stroke-miterlimit:10;" d="M 651.890625 54.233685 L 643.175781 62.483685 " transform="matrix(1,0,0,1,108,206.735065)"/>
<path style="fill:none;stroke-width:1.5;stroke-linecap:butt;stroke-linejoin:miter;stroke:rgb(0%,0%,0%);stroke-opacity:1;stroke-miterlimit:10;" d="M 651.890625 54.233685 L 639.96875 52.858685 " transform="matrix(1,0,0,1,108,206.735065)"/>
<path style="fill:none;stroke-width:1.5;stroke-linecap:butt;stroke-linejoin:miter;stroke:rgb(0%,0%,0%);stroke-opacity:1;stroke-miterlimit:10;" d="M 804.625 3.319623 L 671.8125 47.59306 " transform="matrix(1,0,0,1,108,206.735065)"/>
<path style="fill:none;stroke-width:1.5;stroke-linecap:butt;stroke-linejoin:miter;stroke:rgb(0%,0%,0%);stroke-opacity:1;stroke-miterlimit:10;" d="M 804.625 3.319623 L 795.910156 11.569623 " transform="matrix(1,0,0,1,108,206.735065)"/>
<path style="fill:none;stroke-width:1.5;stroke-linecap:butt;stroke-linejoin:miter;stroke:rgb(0%,0%,0%);stroke-opacity:1;stroke-miterlimit:10;" d="M 804.625 3.319623 L 792.703125 1.948529 " transform="matrix(1,0,0,1,108,206.735065)"/>
</g>
</svg>
