<?xml version="1.0" encoding="UTF-8"?>
<!DOCTYPE svg PUBLIC "-//W3C//DTD SVG 1.1//EN" "http://www.w3.org/Graphics/SVG/1.1/DTD/svg11.dtd">
<svg xmlns="http://www.w3.org/2000/svg" xmlns:xlink="http://www.w3.org/1999/xlink" version="1.1" width="502px" height="365px" viewBox="-0.5 -0.5 502 365" style="background-color: rgb(255, 255, 255);"><defs/><g><path d="M 18.07 184.93 L 159.35 80.59" fill="none" stroke="#000000" stroke-width="2" stroke-miterlimit="10" stroke-dasharray="6 6" pointer-events="stroke"/><path d="M 155.06 91.22 L 161.15 79.26 L 147.93 81.56" fill="none" stroke="#000000" stroke-width="2" stroke-miterlimit="10" pointer-events="all"/><path d="M 98.07 224.93 L 157.04 194.07" fill="none" stroke="#000000" stroke-width="2" stroke-miterlimit="10" pointer-events="stroke"/><path d="M 151.17 203.92 L 159.02 193.04 L 145.6 193.28" fill="none" stroke="#000000" stroke-width="2" stroke-miterlimit="10" pointer-events="all"/><ellipse cx="11" cy="192" rx="10" ry="10" fill="#ffffff" stroke="#000000" stroke-width="2" pointer-events="all"/><path d="M 261 192 L 319.97 161.14" fill="none" stroke="#000000" stroke-width="2" stroke-miterlimit="10" pointer-events="stroke"/><path d="M 314.1 170.99 L 321.95 160.11 L 308.53 160.36" fill="none" stroke="#000000" stroke-width="2" stroke-miterlimit="10" pointer-events="all"/><path d="M 178.07 184.93 L 259.98 141.18" fill="none" stroke="#000000" stroke-width="2" stroke-miterlimit="10" pointer-events="stroke"/><path d="M 254.2 151.07 L 261.96 140.12 L 248.55 140.49" fill="none" stroke="#000000" stroke-width="2" stroke-miterlimit="10" pointer-events="all"/><path d="M 298.07 344.93 L 480.41 201.83" fill="none" stroke="#000000" stroke-width="2" stroke-miterlimit="10" stroke-dasharray="6 6" pointer-events="stroke"/><path d="M 476.43 212.58 L 482.17 200.45 L 469.03 203.14" fill="none" stroke="#000000" stroke-width="2" stroke-miterlimit="10" pointer-events="all"/><path d="M 98.07 239.07 L 220.23 322.41" fill="none" stroke="#000000" stroke-width="2" stroke-miterlimit="10" pointer-events="stroke"/><path d="M 208.79 321.86 L 222.08 323.67 L 215.55 311.95" fill="none" stroke="#000000" stroke-width="2" stroke-miterlimit="10" pointer-events="all"/><ellipse cx="331" cy="152" rx="10" ry="10" fill="#ffffff" stroke="#000000" stroke-width="2" pointer-events="all"/><ellipse cx="91" cy="232" rx="10" ry="10" fill="#ffffff" stroke="#000000" stroke-width="2" pointer-events="all"/><path d="M 281 252 L 397 194" fill="none" stroke="#000000" stroke-width="2" stroke-miterlimit="10" pointer-events="stroke"/><path d="M 390.95 203.73 L 399 193 L 385.58 193" fill="none" stroke="#000000" stroke-width="2" stroke-miterlimit="10" pointer-events="all"/><path d="M 241 332 L 277 350" fill="none" stroke="#000000" stroke-width="2" stroke-miterlimit="10" pointer-events="stroke"/><path d="M 265.58 351 L 279 351 L 270.95 340.27" fill="none" stroke="#000000" stroke-width="2" stroke-miterlimit="10" pointer-events="all"/><path d="M 181 72 L 257.42 14.68" fill="none" stroke="#000000" stroke-width="2" stroke-miterlimit="10" pointer-events="stroke"/><path d="M 253.21 25.34 L 259.21 13.34 L 246.01 15.74" fill="none" stroke="#000000" stroke-width="2" stroke-miterlimit="10" pointer-events="all"/><path d="M 21 192 L 79.97 222.86" fill="none" stroke="#000000" stroke-width="2" stroke-miterlimit="10" stroke-dasharray="6 6" pointer-events="stroke"/><path d="M 68.53 223.64 L 81.95 223.89 L 74.1 213.01" fill="none" stroke="#000000" stroke-width="2" stroke-miterlimit="10" pointer-events="all"/><ellipse cx="171" cy="72" rx="10" ry="10" fill="#ffffff" stroke="#000000" stroke-width="2" pointer-events="all"/><ellipse cx="271" cy="12" rx="10" ry="10" fill="#ffffff" stroke="#000000" stroke-width="2" pointer-events="all"/><ellipse cx="171" cy="192" rx="10" ry="10" fill="#ffffff" stroke="#000000" stroke-width="2" pointer-events="all"/><ellipse cx="271" cy="132" rx="10" ry="10" fill="#ffffff" stroke="#000000" stroke-width="2" pointer-events="all"/><ellipse cx="251" cy="192" rx="10" ry="10" fill="#ffffff" stroke="#000000" stroke-width="2" transform="rotate(90,251,192)" pointer-events="all"/><path d="M 181 192 L 236.53 192" fill="none" stroke="#000000" stroke-width="2" stroke-miterlimit="10" pointer-events="stroke"/><path d="M 226.76 198 L 238.76 192 L 226.76 186" fill="none" stroke="#000000" stroke-width="2" stroke-miterlimit="10" pointer-events="all"/><ellipse cx="271" cy="252" rx="10" ry="10" fill="#ffffff" stroke="#000000" stroke-width="2" pointer-events="all"/><ellipse cx="411" cy="192" rx="10" ry="10" fill="#ffffff" stroke="#000000" stroke-width="2" pointer-events="all"/><ellipse cx="291" cy="352" rx="10" ry="10" fill="#ffffff" stroke="#000000" stroke-width="2" pointer-events="all"/><path d="M 281 132 L 317 150" fill="none" stroke="#000000" stroke-width="2" stroke-miterlimit="10" pointer-events="stroke"/><path d="M 305.58 151 L 319 151 L 310.95 140.27" fill="none" stroke="#000000" stroke-width="2" stroke-miterlimit="10" pointer-events="all"/><path d="M 338.07 159.07 L 397.04 189.93" fill="none" stroke="#000000" stroke-width="2" stroke-miterlimit="10" pointer-events="stroke"/><path d="M 385.6 190.72 L 399.02 190.96 L 391.17 180.08" fill="none" stroke="#000000" stroke-width="2" stroke-miterlimit="10" pointer-events="all"/><path d="M 178.07 199.07 L 259.98 242.82" fill="none" stroke="#000000" stroke-width="2" stroke-miterlimit="10" pointer-events="stroke"/><path d="M 248.55 243.51 L 261.96 243.88 L 254.2 232.93" fill="none" stroke="#000000" stroke-width="2" stroke-miterlimit="10" pointer-events="all"/><path d="M 178.07 79.07 L 259.98 122.82" fill="none" stroke="#000000" stroke-width="2" stroke-miterlimit="10" pointer-events="stroke"/><path d="M 248.55 123.51 L 261.96 123.88 L 254.2 112.93" fill="none" stroke="#000000" stroke-width="2" stroke-miterlimit="10" pointer-events="all"/><ellipse cx="491" cy="192" rx="10" ry="10" fill="#ffffff" stroke="#000000" stroke-width="2" pointer-events="all"/><path d="M 278.07 19.07 L 479.76 182.88" fill="none" stroke="#000000" stroke-width="2" stroke-miterlimit="10" stroke-dasharray="6 6" pointer-events="stroke"/><path d="M 468.4 181.38 L 481.5 184.29 L 475.97 172.07" fill="none" stroke="#000000" stroke-width="2" stroke-miterlimit="10" pointer-events="all"/><ellipse cx="231" cy="332" rx="10" ry="10" fill="#ffffff" stroke="#000000" stroke-width="2" pointer-events="all"/><path d="M 421 192 L 476.53 192" fill="none" stroke="#000000" stroke-width="2" stroke-miterlimit="10" stroke-dasharray="6 6" pointer-events="stroke"/><path d="M 466.76 198 L 478.76 192 L 466.76 186" fill="none" stroke="#000000" stroke-width="2" stroke-miterlimit="10" pointer-events="all"/><path d="M 238.07 324.93 L 400.37 201.77" fill="none" stroke="#000000" stroke-width="2" stroke-miterlimit="10" pointer-events="stroke"/><path d="M 396.22 212.46 L 402.15 200.42 L 388.96 202.9" fill="none" stroke="#000000" stroke-width="2" stroke-miterlimit="10" pointer-events="all"/></g></svg>
