<?xml version="1.0" encoding="UTF-8"?>
<!DOCTYPE svg PUBLIC "-//W3C//DTD SVG 1.1//EN" "http://www.w3.org/Graphics/SVG/1.1/DTD/svg11.dtd">
<svg xmlns="http://www.w3.org/2000/svg" xmlns:xlink="http://www.w3.org/1999/xlink" version="1.1" width="329px" height="312px" viewBox="-0.5 -0.5 329 312" style="background-color: rgb(255, 255, 255);"><defs/><g><rect x="6" y="253.64" width="20" height="28.18" fill="none" stroke="none" pointer-events="all"/><g fill="rgb(0, 0, 0)" font-family="Helvetica" text-anchor="middle" font-size="16px"><text x="15.5" y="275.14">0</text></g><rect x="31" y="281.82" width="20" height="28.18" fill="none" stroke="none" pointer-events="all"/><g fill="rgb(0, 0, 0)" font-family="Helvetica" text-anchor="middle" font-size="16px"><text x="40.5" y="303.32">0</text></g><rect x="1" y="51.69" width="20" height="28.18" fill="none" stroke="none" pointer-events="all"/><g fill="rgb(0, 0, 0)" font-family="Helvetica" text-anchor="middle" font-size="16px"><text x="10.5" y="73.19">10</text></g><rect x="246" y="281.82" width="20" height="28.18" fill="none" stroke="none" pointer-events="all"/><g fill="rgb(0, 0, 0)" font-family="Helvetica" text-anchor="middle" font-size="16px"><text x="255.5" y="303.32">10</text></g><ellipse cx="41.04" cy="268.2" rx="7.044797687861272" ry="7.044797687861272" fill="rgb(255, 255, 255)" stroke="rgb(0, 0, 0)" stroke-width="2" transform="rotate(-405,41.04,268.2)" pointer-events="all"/><ellipse cx="190.04" cy="88.79" rx="7.044797687861272" ry="7.044797687861272" fill="rgb(255, 255, 255)" stroke="rgb(0, 0, 0)" stroke-width="2" transform="rotate(-405,190.04,88.79)" pointer-events="all"/><ellipse cx="105.04" cy="248.48" rx="7.044797687861272" ry="7.044797687861272" fill="rgb(255, 255, 255)" stroke="rgb(0, 0, 0)" stroke-width="2" transform="rotate(-405,105.04,248.48)" pointer-events="all"/><path d="M 46.03 263.22 L 93.7 249.7" fill="none" stroke="rgb(0, 0, 0)" stroke-width="2" stroke-miterlimit="10" pointer-events="stroke"/><path d="M 89.24 255.12 L 95.85 249.09 L 87.06 247.42" fill="none" stroke="rgb(0, 0, 0)" stroke-width="2" stroke-miterlimit="10" pointer-events="all"/><path d="M 42 288.4 L 42 19.54" fill="none" stroke="rgb(0, 0, 0)" stroke-miterlimit="10" pointer-events="stroke"/><path d="M 42 10.54 L 45 19.54 L 39 19.54 Z" fill="rgb(0, 0, 0)" stroke="rgb(0, 0, 0)" stroke-miterlimit="10" pointer-events="all"/><path d="M 21 267.73 L 307.88 267.73" fill="none" stroke="rgb(0, 0, 0)" stroke-miterlimit="10" pointer-events="stroke"/><path d="M 316.88 267.73 L 307.88 270.73 L 307.88 264.73 Z" fill="rgb(0, 0, 0)" stroke="rgb(0, 0, 0)" stroke-miterlimit="10" pointer-events="all"/><path d="M 126.1 181.32 L 127 9.42" fill="none" stroke="rgb(0, 0, 0)" stroke-miterlimit="10" stroke-dasharray="3 3" pointer-events="stroke"/><path d="M 169 288.4 L 169 9.42" fill="none" stroke="rgb(0, 0, 0)" stroke-miterlimit="10" stroke-dasharray="3 3" pointer-events="stroke"/><path d="M 211.04 161.59 L 211 9.42" fill="none" stroke="rgb(0, 0, 0)" stroke-miterlimit="10" stroke-dasharray="3 3" pointer-events="stroke"/><path d="M 253.13 62.02 L 254 9.42" fill="none" stroke="rgb(0, 0, 0)" stroke-miterlimit="10" stroke-dasharray="3 3" pointer-events="stroke"/><path d="M 239.09 227.87 L 318 228.28" fill="none" stroke="rgb(0, 0, 0)" stroke-miterlimit="10" stroke-dasharray="3 3" pointer-events="stroke"/><path d="M 21 187.89 L 318 187.89" fill="none" stroke="rgb(0, 0, 0)" stroke-miterlimit="10" stroke-dasharray="3 3" pointer-events="stroke"/><path d="M 21 148.44 L 318 148.44" fill="none" stroke="rgb(0, 0, 0)" stroke-miterlimit="10" stroke-dasharray="3 3" pointer-events="stroke"/><path d="M 154.09 108.55 L 318 108.99" fill="none" stroke="rgb(0, 0, 0)" stroke-miterlimit="10" stroke-dasharray="3 3" pointer-events="stroke"/><path d="M 21 68.6 L 318 68.6" fill="none" stroke="rgb(0, 0, 0)" stroke-miterlimit="10" stroke-dasharray="3 3" pointer-events="stroke"/><path d="M 21 29.15 L 318 29.15" fill="none" stroke="rgb(0, 0, 0)" stroke-miterlimit="10" stroke-dasharray="3 3" pointer-events="stroke"/><ellipse cx="62.04" cy="128.24" rx="7.044797687861272" ry="7.044797687861272" fill="rgb(255, 255, 255)" stroke="rgb(0, 0, 0)" stroke-width="2" transform="rotate(-405,62.04,128.24)" pointer-events="all"/><path d="M 41.04 261.16 L 60.27 139.62" fill="none" stroke="rgb(0, 0, 0)" stroke-width="2" stroke-miterlimit="10" pointer-events="stroke"/><path d="M 63.32 145.94 L 60.62 137.41 L 55.42 144.69" fill="none" stroke="rgb(0, 0, 0)" stroke-width="2" stroke-miterlimit="10" pointer-events="all"/><ellipse cx="84.04" cy="48.4" rx="7.044797687861272" ry="7.044797687861272" fill="rgb(255, 255, 255)" stroke="rgb(0, 0, 0)" stroke-width="2" transform="rotate(-405,84.04,48.4)" pointer-events="all"/><path d="M 67.03 123.26 L 78.3 57.79" fill="none" stroke="rgb(0, 0, 0)" stroke-width="2" stroke-miterlimit="10" pointer-events="stroke"/><path d="M 81.27 64.15 L 78.68 55.59 L 73.38 62.79" fill="none" stroke="rgb(0, 0, 0)" stroke-width="2" stroke-miterlimit="10" pointer-events="all"/><path d="M 84 288.4 L 84 9.42" fill="none" stroke="rgb(0, 0, 0)" stroke-miterlimit="10" stroke-dasharray="3 3" pointer-events="stroke"/><path d="M 296 288.4 L 296 9.42" fill="none" stroke="rgb(0, 0, 0)" stroke-miterlimit="10" stroke-dasharray="3 3" pointer-events="stroke"/><ellipse cx="126.04" cy="188.36" rx="7.044797687861272" ry="7.044797687861272" fill="rgb(255, 255, 255)" stroke="rgb(0, 0, 0)" stroke-width="2" transform="rotate(-405,126.04,188.36)" pointer-events="all"/><path d="M 105.04 241.43 L 119.65 197.58" fill="none" stroke="rgb(0, 0, 0)" stroke-width="2" stroke-miterlimit="10" pointer-events="stroke"/><path d="M 121.62 204.32 L 120.36 195.46 L 114.03 201.79" fill="none" stroke="rgb(0, 0, 0)" stroke-width="2" stroke-miterlimit="10" pointer-events="all"/><path d="M 127 288.4 L 126.09 195.4" fill="none" stroke="rgb(0, 0, 0)" stroke-miterlimit="10" stroke-dasharray="3 3" pointer-events="stroke"/><ellipse cx="147.04" cy="108.52" rx="7.044797687861272" ry="7.044797687861272" fill="rgb(255, 255, 255)" stroke="rgb(0, 0, 0)" stroke-width="2" transform="rotate(-405,147.04,108.52)" pointer-events="all"/><path d="M 21 108.99 L 140 108.56" fill="none" stroke="rgb(0, 0, 0)" stroke-miterlimit="10" stroke-dasharray="3 3" pointer-events="stroke"/><ellipse cx="169.04" cy="148.91" rx="7.044797687861272" ry="7.044797687861272" fill="rgb(255, 255, 255)" stroke="rgb(0, 0, 0)" stroke-width="2" transform="rotate(-315,169.04,148.91)" pointer-events="all"/><path d="M 131.03 183.38 L 160.73 156.87" fill="none" stroke="rgb(0, 0, 0)" stroke-width="2" stroke-miterlimit="10" pointer-events="stroke"/><path d="M 159.09 163.69 L 162.4 155.38 L 153.76 157.72" fill="none" stroke="rgb(0, 0, 0)" stroke-width="2" stroke-miterlimit="10" pointer-events="all"/><ellipse cx="211.04" cy="168.63" rx="7.044797687861272" ry="7.044797687861272" fill="rgb(255, 255, 255)" stroke="rgb(0, 0, 0)" stroke-width="2" transform="rotate(-405,211.04,168.63)" pointer-events="all"/><path d="M 126.04 181.32 L 145.68 119.82" fill="none" stroke="rgb(0, 0, 0)" stroke-width="2" stroke-miterlimit="10" pointer-events="stroke"/><path d="M 147.74 126.53 L 146.36 117.69 L 140.12 124.1" fill="none" stroke="rgb(0, 0, 0)" stroke-width="2" stroke-miterlimit="10" pointer-events="all"/><path d="M 211 288.4 L 211.04 175.68" fill="none" stroke="rgb(0, 0, 0)" stroke-miterlimit="10" stroke-dasharray="3 3" pointer-events="stroke"/><ellipse cx="253.04" cy="69.07" rx="7.044797687861272" ry="7.044797687861272" fill="rgb(255, 255, 255)" stroke="rgb(0, 0, 0)" stroke-width="2" transform="rotate(-405,253.04,69.07)" pointer-events="all"/><path d="M 254 288.4 L 253.07 76.11" fill="none" stroke="rgb(0, 0, 0)" stroke-miterlimit="10" stroke-dasharray="3 3" pointer-events="stroke"/><ellipse cx="275.04" cy="208.09" rx="7.044797687861272" ry="7.044797687861272" fill="rgb(255, 255, 255)" stroke="rgb(0, 0, 0)" stroke-width="2" transform="rotate(-405,275.04,208.09)" pointer-events="all"/><path d="M 174.03 143.93 L 188.63 100.08" fill="none" stroke="rgb(0, 0, 0)" stroke-width="2" stroke-miterlimit="10" pointer-events="stroke"/><path d="M 190.6 106.81 L 189.34 97.96 L 183.01 104.29" fill="none" stroke="rgb(0, 0, 0)" stroke-width="2" stroke-miterlimit="10" pointer-events="all"/><path d="M 216.03 163.65 L 246.56 78.26" fill="none" stroke="rgb(0, 0, 0)" stroke-width="2" stroke-miterlimit="10" pointer-events="stroke"/><path d="M 248.38 85.03 L 247.31 76.15 L 240.85 82.34" fill="none" stroke="rgb(0, 0, 0)" stroke-width="2" stroke-miterlimit="10" pointer-events="all"/><path d="M 152.03 103.54 L 180.77 95.04" fill="none" stroke="rgb(0, 0, 0)" stroke-width="2" stroke-miterlimit="10" pointer-events="stroke"/><path d="M 176.38 100.51 L 182.92 94.41 L 174.11 92.84" fill="none" stroke="rgb(0, 0, 0)" stroke-width="2" stroke-miterlimit="10" pointer-events="all"/><path d="M 197.09 88.79 L 244.69 75.44" fill="none" stroke="rgb(0, 0, 0)" stroke-width="2" stroke-miterlimit="10" pointer-events="stroke"/><path d="M 240.22 80.85 L 246.85 74.84 L 238.06 73.15" fill="none" stroke="rgb(0, 0, 0)" stroke-width="2" stroke-miterlimit="10" pointer-events="all"/><path d="M 133.09 188.36 L 199.69 169.83" fill="none" stroke="rgb(0, 0, 0)" stroke-width="2" stroke-miterlimit="10" pointer-events="stroke"/><path d="M 195.21 175.23 L 201.85 169.23 L 193.07 167.52" fill="none" stroke="rgb(0, 0, 0)" stroke-width="2" stroke-miterlimit="10" pointer-events="all"/><path d="M 69.09 128.24 L 135.69 109.72" fill="none" stroke="rgb(0, 0, 0)" stroke-width="2" stroke-miterlimit="10" pointer-events="stroke"/><path d="M 131.21 115.12 L 137.85 109.12 L 129.07 107.41" fill="none" stroke="rgb(0, 0, 0)" stroke-width="2" stroke-miterlimit="10" pointer-events="all"/><ellipse cx="296.04" cy="28.68" rx="7.044797687861272" ry="7.044797687861272" fill="rgb(255, 255, 255)" stroke="rgb(0, 0, 0)" stroke-width="2" transform="rotate(-405,296.04,28.68)" pointer-events="all"/><path d="M 91.09 48.4 L 284.58 29.79" fill="none" stroke="rgb(0, 0, 0)" stroke-width="2" stroke-miterlimit="10" pointer-events="stroke"/><path d="M 279.23 34.32 L 286.81 29.57 L 278.46 26.36" fill="none" stroke="rgb(0, 0, 0)" stroke-width="2" stroke-miterlimit="10" pointer-events="all"/><ellipse cx="232.04" cy="227.81" rx="7.044797687861272" ry="7.044797687861272" fill="rgb(255, 255, 255)" stroke="rgb(0, 0, 0)" stroke-width="2" transform="rotate(-405,232.04,227.81)" pointer-events="all"/><path d="M 21 228.28 L 225 227.83" fill="none" stroke="rgb(0, 0, 0)" stroke-miterlimit="10" stroke-dasharray="3 3" pointer-events="stroke"/><path d="M 275.04 201.04 L 295.48 40.16" fill="none" stroke="rgb(0, 0, 0)" stroke-width="2" stroke-miterlimit="10" pointer-events="stroke"/><path d="M 298.72 46.38 L 295.76 37.94 L 290.79 45.37" fill="none" stroke="rgb(0, 0, 0)" stroke-width="2" stroke-miterlimit="10" pointer-events="all"/><path d="M 258.03 64.09 L 287.77 36.69" fill="none" stroke="rgb(0, 0, 0)" stroke-width="2" stroke-miterlimit="10" pointer-events="stroke"/><path d="M 286.24 43.54 L 289.42 35.17 L 280.82 37.65" fill="none" stroke="rgb(0, 0, 0)" stroke-width="2" stroke-miterlimit="10" pointer-events="all"/><path d="M 232.04 220.77 L 252.4 80.54" fill="none" stroke="rgb(0, 0, 0)" stroke-width="2" stroke-miterlimit="10" pointer-events="stroke"/><path d="M 255.53 86.82 L 252.72 78.33 L 247.62 85.67" fill="none" stroke="rgb(0, 0, 0)" stroke-width="2" stroke-miterlimit="10" pointer-events="all"/><path d="M 112.09 248.48 L 220.6 228.62" fill="none" stroke="rgb(0, 0, 0)" stroke-width="2" stroke-miterlimit="10" pointer-events="stroke"/><path d="M 215.65 233.59 L 222.8 228.21 L 214.21 225.72" fill="none" stroke="rgb(0, 0, 0)" stroke-width="2" stroke-miterlimit="10" pointer-events="all"/><path d="M 237.03 222.83 L 265.77 214.33" fill="none" stroke="rgb(0, 0, 0)" stroke-width="2" stroke-miterlimit="10" pointer-events="stroke"/><path d="M 261.38 219.8 L 267.92 213.7 L 259.11 212.13" fill="none" stroke="rgb(0, 0, 0)" stroke-width="2" stroke-miterlimit="10" pointer-events="all"/></g></svg>
