<?xml version="1.0" encoding="UTF-8"?>
<!DOCTYPE svg PUBLIC "-//W3C//DTD SVG 1.1//EN" "http://www.w3.org/Graphics/SVG/1.1/DTD/svg11.dtd">
<svg xmlns="http://www.w3.org/2000/svg" xmlns:xlink="http://www.w3.org/1999/xlink" version="1.1" width="312px" height="342px" viewBox="-0.5 -0.5 312 342" style="background-color: rgb(255, 255, 255);"><defs/><g><path d="M 28.07 203.93 L 92.08 122.39" fill="none" stroke="rgb(0, 0, 0)" stroke-width="2" stroke-miterlimit="10" pointer-events="stroke"/><path d="M 90.77 133.78 L 93.46 120.63 L 81.33 126.37" fill="none" stroke="rgb(0, 0, 0)" stroke-width="2" stroke-miterlimit="10" pointer-events="all"/><path d="M 31 211 L 86.53 211" fill="none" stroke="rgb(0, 0, 0)" stroke-width="2" stroke-miterlimit="10" pointer-events="stroke"/><path d="M 76.76 217 L 88.76 211 L 76.76 205" fill="none" stroke="rgb(0, 0, 0)" stroke-width="2" stroke-miterlimit="10" pointer-events="all"/><ellipse cx="21" cy="211" rx="10" ry="10" fill="rgb(255, 255, 255)" stroke="rgb(0, 0, 0)" stroke-width="2" pointer-events="all"/><path d="M 111 211 L 167.03 208.93" fill="none" stroke="rgb(0, 0, 0)" stroke-width="2" stroke-miterlimit="10" pointer-events="stroke"/><path d="M 157.5 215.28 L 169.27 208.84 L 157.05 203.29" fill="none" stroke="rgb(0, 0, 0)" stroke-width="2" stroke-miterlimit="10" pointer-events="all"/><path d="M 108.07 203.93 L 170.26 160.63" fill="none" stroke="rgb(0, 0, 0)" stroke-width="2" stroke-miterlimit="10" pointer-events="stroke"/><path d="M 165.67 171.13 L 172.09 159.35 L 158.82 161.28" fill="none" stroke="rgb(0, 0, 0)" stroke-width="2" stroke-miterlimit="10" pointer-events="all"/><ellipse cx="101" cy="211" rx="10" ry="10" fill="rgb(255, 255, 255)" stroke="rgb(0, 0, 0)" stroke-width="2" pointer-events="all"/><path d="M 188.07 203.93 L 249.58 189.12" fill="none" stroke="rgb(0, 0, 0)" stroke-width="2" stroke-miterlimit="10" pointer-events="stroke"/><path d="M 241.49 197.24 L 251.76 188.59 L 238.68 185.57" fill="none" stroke="rgb(0, 0, 0)" stroke-width="2" stroke-miterlimit="10" pointer-events="all"/><ellipse cx="181" cy="211" rx="10" ry="10" fill="rgb(255, 255, 255)" stroke="rgb(0, 0, 0)" stroke-width="2" pointer-events="all"/><ellipse cx="181" cy="91" rx="10" ry="10" fill="rgb(255, 255, 255)" stroke="rgb(0, 0, 0)" stroke-width="2" pointer-events="all"/><ellipse cx="101" cy="111" rx="10" ry="10" fill="rgb(255, 255, 255)" stroke="rgb(0, 0, 0)" stroke-width="2" pointer-events="all"/><ellipse cx="181" cy="151" rx="10" ry="10" fill="rgb(255, 255, 255)" stroke="rgb(0, 0, 0)" stroke-width="2" pointer-events="all"/><rect x="191" y="1" width="50" height="30" fill="none" stroke="none" pointer-events="all"/><g fill="rgb(0, 0, 0)" font-family="Helvetica" font-size="16px"><text x="192.5" y="22.5">2</text></g><rect x="161" y="216" width="40" height="40" fill="none" stroke="none" pointer-events="all"/><g fill="rgb(0, 0, 0)" font-family="Helvetica" font-size="16px"><text x="162.5" y="237.5">6</text></g><ellipse cx="101" cy="311" rx="10" ry="10" fill="rgb(255, 255, 255)" stroke="rgb(0, 0, 0)" stroke-width="2" pointer-events="all"/><path d="M 28.07 218.07 L 91.21 300.38" fill="none" stroke="rgb(0, 0, 0)" stroke-width="2" stroke-miterlimit="10" pointer-events="stroke"/><path d="M 80.5 296.29 L 92.57 302.15 L 90.03 288.98" fill="none" stroke="rgb(0, 0, 0)" stroke-width="2" stroke-miterlimit="10" pointer-events="all"/><ellipse cx="261" cy="246" rx="10" ry="10" fill="rgb(255, 255, 255)" stroke="rgb(0, 0, 0)" stroke-width="2" pointer-events="all"/><ellipse cx="261" cy="181" rx="10" ry="10" fill="rgb(255, 255, 255)" stroke="rgb(0, 0, 0)" stroke-width="2" transform="rotate(90,261,181)" pointer-events="all"/><ellipse cx="181" cy="31" rx="10" ry="10" fill="rgb(255, 255, 255)" stroke="rgb(0, 0, 0)" stroke-width="2" pointer-events="all"/><path d="M 188.07 218.07 L 249.67 237.58" fill="none" stroke="rgb(0, 0, 0)" stroke-width="2" stroke-miterlimit="10" pointer-events="stroke"/><path d="M 238.55 240.35 L 251.8 238.25 L 242.17 228.91" fill="none" stroke="rgb(0, 0, 0)" stroke-width="2" stroke-miterlimit="10" pointer-events="all"/><ellipse cx="181" cy="271" rx="10" ry="10" fill="rgb(255, 255, 255)" stroke="rgb(0, 0, 0)" stroke-width="2" pointer-events="all"/><path d="M 108.07 218.07 L 170.26 261.37" fill="none" stroke="rgb(0, 0, 0)" stroke-width="2" stroke-miterlimit="10" pointer-events="stroke"/><path d="M 158.82 260.72 L 172.09 262.65 L 165.67 250.87" fill="none" stroke="rgb(0, 0, 0)" stroke-width="2" stroke-miterlimit="10" pointer-events="all"/><path d="M 111 111 L 166.76 92.41" fill="none" stroke="rgb(0, 0, 0)" stroke-width="2" stroke-miterlimit="10" pointer-events="stroke"/><path d="M 159.39 101.19 L 168.88 91.71 L 155.6 89.81" fill="none" stroke="rgb(0, 0, 0)" stroke-width="2" stroke-miterlimit="10" pointer-events="all"/><path d="M 108.07 103.93 L 170.77 41.23" fill="none" stroke="rgb(0, 0, 0)" stroke-width="2" stroke-miterlimit="10" pointer-events="stroke"/><path d="M 168.11 52.38 L 172.35 39.65 L 159.62 43.89" fill="none" stroke="rgb(0, 0, 0)" stroke-width="2" stroke-miterlimit="10" pointer-events="all"/><rect x="191" y="61" width="50" height="30" fill="none" stroke="none" pointer-events="all"/><g fill="rgb(0, 0, 0)" font-family="Helvetica" font-size="16px"><text x="192.5" y="82.5">3</text></g><rect x="191" y="121" width="40" height="30" fill="none" stroke="none" pointer-events="all"/><g fill="rgb(0, 0, 0)" font-family="Helvetica" font-size="16px"><text x="192.5" y="142.5">5</text></g><rect x="81" y="71" width="35" height="30" fill="none" stroke="none" pointer-events="all"/><g fill="rgb(0, 0, 0)" font-family="Helvetica" font-size="16px"><text x="82.5" y="92.5">1</text></g><rect x="191" y="271" width="50" height="30" fill="none" stroke="none" pointer-events="all"/><g fill="rgb(0, 0, 0)" font-family="Helvetica" font-size="16px"><text x="192.5" y="292.5">9</text></g><rect x="81" y="171" width="30" height="30" fill="none" stroke="none" pointer-events="all"/><g fill="rgb(0, 0, 0)" font-family="Helvetica" font-size="16px"><text x="82.5" y="192.5">4</text></g><rect x="111" y="311" width="50" height="30" fill="none" stroke="none" pointer-events="all"/><g fill="rgb(0, 0, 0)" font-family="Helvetica" font-size="16px"><text x="112.5" y="332.5">10</text></g><rect x="1" y="171" width="30" height="30" fill="none" stroke="none" pointer-events="all"/><g fill="rgb(0, 0, 0)" font-family="Helvetica" font-size="16px"><text x="2.5" y="192.5">0</text></g><rect x="271" y="151" width="40" height="30" fill="none" stroke="none" pointer-events="all"/><g fill="rgb(0, 0, 0)" font-family="Helvetica" font-size="16px"><text x="272.5" y="172.5">7</text></g><rect x="271" y="241" width="40" height="30" fill="none" stroke="none" pointer-events="all"/><g fill="rgb(0, 0, 0)" font-family="Helvetica" font-size="16px"><text x="272.5" y="262.5">8</text></g></g></svg>
