<?xml version="1.0" encoding="UTF-8" standalone="no"?>
<!-- Creator: fig2dev Version 3.2.7b -->
<!-- CreationDate: 2020-05-21 10:48:51 -->
<!-- Magnification: 0.5 -->
<svg	xmlns="http://www.w3.org/2000/svg"
	xmlns:xlink="http://www.w3.org/1999/xlink"
	width="216pt" height="216pt"
	viewBox="0 0 7200 7200">
<g fill="none">
<!-- Line -->
<rect x="1" y="1" width="7198" height="7198" fill="#2c3458"/>
<!-- Circle -->
<circle cx="3675" cy="4875" r="375" fill="#f8f4d0"/>
<!-- Circle -->
<circle cx="3525" cy="4875" r="375" fill="#f8f4d0"/>
<!-- Circle -->
<circle cx="3525" cy="5025" r="375" fill="#f8f4d0"/>
<!-- Circle -->
<circle cx="3675" cy="5025" r="375" fill="#f8f4d0"/>
<!-- Line -->
<rect x="3525" y="4500" width="150" height="900" fill="#f8f4d0"/>
<!-- Line -->
<rect x="3150" y="4875" width="900" height="150" fill="#f8f4d0"/>
<!-- Circle -->
<circle cx="3675" cy="3075" r="375" fill="#f8f4d0"/>
<!-- Circle -->
<circle cx="3525" cy="3075" r="375" fill="#f8f4d0"/>
<!-- Circle -->
<circle cx="3525" cy="3225" r="375" fill="#f8f4d0"/>
<!-- Circle -->
<circle cx="3675" cy="3225" r="375" fill="#f8f4d0"/>
<!-- Line -->
<rect x="3525" y="2700" width="150" height="900" fill="#f8f4d0"/>
<!-- Line -->
<rect x="3150" y="3075" width="900" height="150" fill="#f8f4d0"/>
<!-- Circle -->
<circle cx="1275" cy="1275" r="225" fill="#f8f4d0"/>
<!-- Circle -->
<circle cx="2475" cy="1425" r="225" fill="#f8f4d0"/>
<!-- Circle -->
<circle cx="5925" cy="5925" r="225" fill="#f8f4d0"/>
<!-- Circle -->
<circle cx="4725" cy="5925" r="225" fill="#f8f4d0"/>
<!-- Circle -->
<circle cx="4725" cy="5775" r="225" fill="#f8f4d0"/>
<!-- Circle -->
<circle cx="5775" cy="1275" r="225" fill="#f8f4d0"/>
<!-- Circle -->
<circle cx="5925" cy="1275" r="225" fill="#f8f4d0"/>
<!-- Circle -->
<circle cx="1425" cy="5925" r="225" fill="#f8f4d0"/>
<!-- Circle -->
<circle cx="1275" cy="5925" r="225" fill="#f8f4d0"/>
<!-- Circle -->
<circle cx="2475" cy="1275" r="225" fill="#f8f4d0"/>
<!-- Line -->
<rect x="1800" y="1275" width="900" height="150" fill="#f8f4d0"/>
<!-- Line -->
<rect x="1275" y="1050" width="1200" height="600" fill="#f8f4d0"/>
<!-- Line -->
<rect x="4500" y="5775" width="900" height="150" fill="#f8f4d0"/>
<!-- Line -->
<rect x="4725" y="5550" width="1200" height="600" fill="#f8f4d0"/>
<!-- Line -->
<rect x="5775" y="1050" width="150" height="600" fill="#f8f4d0"/>
<!-- Line -->
<rect x="1275" y="5550" width="150" height="600" fill="#f8f4d0"/>
<!-- Line -->
<rect x="1050" y="1275" width="600" height="4650" fill="#f8f4d0"/>
<!-- Line -->
<rect x="5550" y="1275" width="600" height="4575" fill="#f8f4d0"/>
</g>
</svg>
