<?xml version="1.0" encoding="UTF-8"?>
<!DOCTYPE svg PUBLIC "-//W3C//DTD SVG 1.1//EN" "http://www.w3.org/Graphics/SVG/1.1/DTD/svg11.dtd">
<svg xmlns="http://www.w3.org/2000/svg" xmlns:xlink="http://www.w3.org/1999/xlink" version="1.1" width="632px" height="247px" viewBox="-0.5 -0.5 632 247" style="background-color: rgb(255, 255, 255);"><defs/><g><rect x="105" y="215" width="430" height="30" fill="none" stroke="none" pointer-events="all"/><g fill="rgb(0, 0, 0)" font-family="Helvetica" font-style="italic" text-anchor="middle" font-size="16px"><text x="319.5" y="236.5">All curves are preliminary, and will be redrawn exactly later.</text></g><path d="M 20 90 L 80.3 89.76" fill="none" stroke="rgb(0, 0, 0)" stroke-width="2" stroke-miterlimit="10" pointer-events="none"/><ellipse cx="110" cy="90" rx="30" ry="30" fill="none" stroke="rgb(0, 0, 0)" stroke-width="2" pointer-events="none"/><path d="M 31 45 L 83 75" fill="none" stroke="rgb(0, 0, 0)" stroke-width="2" stroke-miterlimit="10" pointer-events="none"/><path d="M 140 90.24 L 200.3 90" fill="none" stroke="rgb(0, 0, 0)" stroke-width="2" stroke-miterlimit="10" pointer-events="none"/><path d="M 46 154 L 89 111" fill="none" stroke="rgb(0, 0, 0)" stroke-width="2" stroke-miterlimit="10" pointer-events="none"/><path d="M 137 75 L 189 45" fill="none" stroke="rgb(0, 0, 0)" stroke-width="2" stroke-miterlimit="10" pointer-events="none"/><g fill="rgb(0, 0, 0)" font-family="Helvetica" pointer-events="none" text-anchor="middle" font-size="16px"><text x="169.5" y="76.5">φ</text></g><path d="M 156.54 76.18 L 160 90" fill="none" stroke="rgb(0, 0, 0)" stroke-miterlimit="10" pointer-events="none"/><path d="M 155.27 71.08 L 159.23 77.31 L 156.54 76.18 L 154.71 78.44 Z" fill="rgb(0, 0, 0)" stroke="rgb(0, 0, 0)" stroke-miterlimit="10" pointer-events="none"/><path d="M 0 90 L 220 90" fill="none" stroke="rgb(0, 0, 0)" stroke-miterlimit="10" stroke-dasharray="3 3" pointer-events="none"/><path d="M 110 180 L 110 0" fill="none" stroke="rgb(0, 0, 0)" stroke-miterlimit="10" stroke-dasharray="3 3" pointer-events="none"/><path d="M 67.15 114.3 L 55 90" fill="none" stroke="rgb(0, 0, 0)" stroke-miterlimit="10" pointer-events="none"/><path d="M 69.5 119 L 64.28 113.78 L 67.15 114.3 L 68.46 111.7 Z" fill="rgb(0, 0, 0)" stroke="rgb(0, 0, 0)" stroke-miterlimit="10" pointer-events="none"/><path d="M 340 70 C 340 92.09 357.91 110 380 110 C 402.09 110 420 92.09 420 70 Z" fill="none" stroke="rgb(0, 0, 0)" stroke-width="2" stroke-miterlimit="10" transform="rotate(-90,380,90)" pointer-events="none"/><path d="M 310 130 L 310 50" fill="none" stroke="rgb(0, 0, 0)" stroke-width="2" stroke-miterlimit="10" pointer-events="none"/><path d="M 360 130 L 310 130" fill="none" stroke="rgb(0, 0, 0)" stroke-width="2" stroke-miterlimit="10" pointer-events="none"/><path d="M 360 130 L 360 50" fill="none" stroke="#ffffff" stroke-width="3" stroke-miterlimit="10" pointer-events="none"/><path d="M 360 50 L 310 50" fill="none" stroke="rgb(0, 0, 0)" stroke-width="2" stroke-miterlimit="10" pointer-events="none"/><path d="M 250 80.24 L 310.3 80" fill="none" stroke="rgb(0, 0, 0)" stroke-width="2" stroke-miterlimit="10" pointer-events="none"/><path d="M 250 60.24 L 310.3 60" fill="none" stroke="rgb(0, 0, 0)" stroke-width="2" stroke-miterlimit="10" pointer-events="none"/><path d="M 250 120.24 L 310.3 120" fill="none" stroke="rgb(0, 0, 0)" stroke-width="2" stroke-miterlimit="10" pointer-events="none"/><g fill="rgb(0, 0, 0)" font-family="Helvetica" pointer-events="none" text-anchor="middle" font-size="16px"><text x="279.5" y="106.5">u</text></g><path d="M 235 90 L 420 90" fill="none" stroke="rgb(0, 0, 0)" stroke-miterlimit="10" stroke-dasharray="3 3" pointer-events="none"/><path d="M 290 108.63 L 290 90" fill="none" stroke="rgb(0, 0, 0)" stroke-miterlimit="10" pointer-events="none"/><path d="M 290 113.88 L 287.67 106.88 L 290 108.63 L 292.33 106.88 Z" fill="rgb(0, 0, 0)" stroke="rgb(0, 0, 0)" stroke-miterlimit="10" pointer-events="none"/><ellipse cx="510" cy="90" rx="50" ry="50" fill="none" stroke="rgb(0, 0, 0)" stroke-width="2" pointer-events="none"/><path d="M 550 60.24 L 610.3 60" fill="none" stroke="rgb(0, 0, 0)" stroke-width="2" stroke-miterlimit="10" pointer-events="none"/><g fill="rgb(0, 0, 0)" font-family="Helvetica" pointer-events="none" text-anchor="middle" font-size="16px"><text x="594.5" y="81.5">φ/π</text></g><path d="M 575 71.37 L 575 90" fill="none" stroke="rgb(0, 0, 0)" stroke-miterlimit="10" pointer-events="none"/><path d="M 575 66.12 L 577.33 73.12 L 575 71.37 L 572.67 73.12 Z" fill="rgb(0, 0, 0)" stroke="rgb(0, 0, 0)" stroke-miterlimit="10" pointer-events="none"/><path d="M 500 90 L 630 90" fill="none" stroke="rgb(0, 0, 0)" stroke-miterlimit="10" stroke-dasharray="3 3" pointer-events="none"/><path d="M 510 100 L 510 80" fill="none" stroke="rgb(0, 0, 0)" stroke-miterlimit="10" stroke-dasharray="3 3" pointer-events="none"/><path d="M 510 90 L 550 60" fill="none" stroke="rgb(0, 0, 0)" stroke-miterlimit="10" stroke-dasharray="3 3" pointer-events="none"/><path d="M 540 50.24 L 600.3 50" fill="none" stroke="rgb(0, 0, 0)" stroke-width="2" stroke-miterlimit="10" pointer-events="none"/><path d="M 550 120.24 L 610.3 120" fill="none" stroke="rgb(0, 0, 0)" stroke-width="2" stroke-miterlimit="10" pointer-events="none"/><path d="M 540 130.24 L 600.3 130" fill="none" stroke="rgb(0, 0, 0)" stroke-width="2" stroke-miterlimit="10" pointer-events="none"/><path d="M 556 110.24 L 616.3 110" fill="none" stroke="rgb(0, 0, 0)" stroke-width="2" stroke-miterlimit="10" pointer-events="none"/><path d="M 559 100.24 L 619.3 100" fill="none" stroke="rgb(0, 0, 0)" stroke-width="2" stroke-miterlimit="10" pointer-events="none"/></g></svg>