<?xml version="1.0" encoding="UTF-8"?>
<!DOCTYPE svg PUBLIC "-//W3C//DTD SVG 1.1//EN" "http://www.w3.org/Graphics/SVG/1.1/DTD/svg11.dtd">
<svg xmlns="http://www.w3.org/2000/svg" xmlns:xlink="http://www.w3.org/1999/xlink" version="1.1" width="647px" height="467px" viewBox="-0.5 -0.5 647 467" style="background-color: rgb(255, 255, 255);"><defs/><g><rect x="111" y="435" width="430" height="30" fill="none" stroke="none" pointer-events="all"/><g fill="rgb(0, 0, 0)" font-family="Helvetica" font-style="italic" text-anchor="middle" font-size="16px"><text x="325.5" y="456.5">All curves are preliminary, and will be redrawn exactly later.</text></g><path d="M 466 70 C 466 92.09 483.91 110 506 110 C 528.09 110 546 92.09 546 70 Z" fill="none" stroke="rgb(0, 0, 0)" stroke-width="2" stroke-miterlimit="10" transform="rotate(-90,506,90)" pointer-events="none"/><path d="M 436 130 L 436 50" fill="none" stroke="rgb(0, 0, 0)" stroke-width="2" stroke-miterlimit="10" pointer-events="none"/><path d="M 486 130 L 436 130" fill="none" stroke="rgb(0, 0, 0)" stroke-width="2" stroke-miterlimit="10" pointer-events="none"/><path d="M 486 130 L 486 50" fill="none" stroke="#ffffff" stroke-width="3" stroke-miterlimit="10" pointer-events="none"/><path d="M 486 50 L 436 50" fill="none" stroke="rgb(0, 0, 0)" stroke-width="2" stroke-miterlimit="10" pointer-events="none"/><path d="M 376 90.24 L 436.3 90" fill="none" stroke="rgb(0, 0, 0)" stroke-width="2" stroke-miterlimit="10" pointer-events="none"/><path d="M 376 65.24 L 436.3 65" fill="none" stroke="rgb(0, 0, 0)" stroke-width="2" stroke-miterlimit="10" pointer-events="none"/><path d="M 376 115.24 L 436.3 115" fill="none" stroke="rgb(0, 0, 0)" stroke-width="2" stroke-miterlimit="10" pointer-events="none"/><path d="M 526 90.24 L 586.3 90" fill="none" stroke="rgb(0, 0, 0)" stroke-width="2" stroke-miterlimit="10" pointer-events="none"/><g fill="rgb(0, 0, 0)" font-family="Helvetica" pointer-events="none" text-anchor="middle" font-size="16px"><text x="360.5" y="121.5">0.4</text></g><g fill="rgb(0, 0, 0)" font-family="Helvetica" pointer-events="none" text-anchor="middle" font-size="16px"><text x="360.5" y="71.5">-0.4</text></g><g fill="rgb(0, 0, 0)" font-family="Helvetica" pointer-events="none" text-anchor="middle" font-size="16px"><text x="365.5" y="96.5">0</text></g><g fill="rgb(0, 0, 0)" font-family="Helvetica" pointer-events="none" text-anchor="middle" font-size="16px"><text x="595.5" y="96.5">0</text></g><path d="M 66 90 L 121.83 89.78" fill="none" stroke="rgb(0, 0, 0)" stroke-width="2" stroke-miterlimit="10" pointer-events="none"/><path d="M 116.08 93.8 L 124.06 89.77 L 116.05 85.8" fill="none" stroke="rgb(0, 0, 0)" stroke-width="2" stroke-miterlimit="10" pointer-events="none"/><ellipse cx="156" cy="90" rx="30" ry="30" fill="none" stroke="rgb(0, 0, 0)" stroke-width="2" pointer-events="none"/><path d="M 156 100 L 156 80" fill="none" stroke="rgb(0, 0, 0)" stroke-width="2" stroke-miterlimit="10" pointer-events="none"/><path d="M 166 90 L 146 90" fill="none" stroke="rgb(0, 0, 0)" stroke-width="2" stroke-miterlimit="10" pointer-events="none"/><path d="M 77 45 L 125.13 72.77" fill="none" stroke="rgb(0, 0, 0)" stroke-width="2" stroke-miterlimit="10" pointer-events="none"/><path d="M 118.13 73.35 L 127.06 73.88 L 122.13 66.42" fill="none" stroke="rgb(0, 0, 0)" stroke-width="2" stroke-miterlimit="10" pointer-events="none"/><path d="M 186 90.24 L 241.83 90.02" fill="none" stroke="rgb(0, 0, 0)" stroke-width="2" stroke-miterlimit="10" pointer-events="none"/><path d="M 236.08 94.04 L 244.06 90.01 L 236.05 86.04" fill="none" stroke="rgb(0, 0, 0)" stroke-width="2" stroke-miterlimit="10" pointer-events="none"/><path d="M 92 154 L 131.84 114.16" fill="none" stroke="rgb(0, 0, 0)" stroke-width="2" stroke-miterlimit="10" pointer-events="none"/><path d="M 130.59 121.07 L 133.42 112.58 L 124.93 115.41" fill="none" stroke="rgb(0, 0, 0)" stroke-width="2" stroke-miterlimit="10" pointer-events="none"/><path d="M 183 75 L 231.13 47.23" fill="none" stroke="rgb(0, 0, 0)" stroke-width="2" stroke-miterlimit="10" pointer-events="none"/><path d="M 228.13 53.58 L 233.06 46.12 L 224.13 46.65" fill="none" stroke="rgb(0, 0, 0)" stroke-width="2" stroke-miterlimit="10" pointer-events="none"/><g fill="rgb(0, 0, 0)" font-family="Helvetica" pointer-events="none" text-anchor="middle" font-size="16px"><text x="60.5" y="41.5">-30</text></g><g fill="rgb(0, 0, 0)" font-family="Helvetica" pointer-events="none" text-anchor="middle" font-size="16px"><text x="80.5" y="166.5">45</text></g><g fill="rgb(0, 0, 0)" font-family="Helvetica" pointer-events="none" text-anchor="middle" font-size="16px"><text x="245.5" y="46.5">30</text></g><g fill="rgb(0, 0, 0)" font-family="Helvetica" pointer-events="none" text-anchor="middle" font-size="16px"><text x="55.5" y="96.5">0</text></g><g fill="rgb(0, 0, 0)" font-family="Helvetica" pointer-events="none" text-anchor="middle" font-size="16px"><text x="255.5" y="96.5">0</text></g><path d="M 86 310 C 86 321.05 94.95 330 106 330 C 117.05 330 126 321.05 126 310 Z" fill="none" stroke="rgb(0, 0, 0)" stroke-width="2" stroke-miterlimit="10" pointer-events="none"/><path d="M 166 310 C 166 321.05 174.95 330 186 330 C 197.05 330 206 321.05 206 310 Z" fill="none" stroke="rgb(0, 0, 0)" stroke-width="2" stroke-miterlimit="10" pointer-events="none"/><path d="M 86 250 C 86 261.05 94.95 270 106 270 C 117.05 270 126 261.05 126 250 Z" fill="none" stroke="rgb(0, 0, 0)" stroke-width="2" stroke-miterlimit="10" transform="rotate(180,106,260)" pointer-events="none"/><path d="M 166 250 C 166 261.05 174.95 270 186 270 C 197.05 270 206 261.05 206 250 Z" fill="none" stroke="rgb(0, 0, 0)" stroke-width="2" stroke-miterlimit="10" transform="rotate(180,186,260)" pointer-events="none"/><rect x="86" y="270" width="120" height="40" fill="rgb(255, 255, 255)" stroke="#ffffff" stroke-width="3" pointer-events="none"/><path d="M 86 310 L 86 270" fill="none" stroke="rgb(0, 0, 0)" stroke-width="2" stroke-miterlimit="10" pointer-events="none"/><rect x="106" y="250" width="80" height="80" fill="rgb(255, 255, 255)" stroke="#ffffff" stroke-width="3" pointer-events="none"/><path d="M 186 330 L 106 330" fill="none" stroke="rgb(0, 0, 0)" stroke-width="2" stroke-miterlimit="10" pointer-events="none"/><path d="M 186 250 L 106 250" fill="none" stroke="rgb(0, 0, 0)" stroke-width="2" stroke-miterlimit="10" pointer-events="none"/><path d="M 206 310 L 206 270" fill="none" stroke="rgb(0, 0, 0)" stroke-width="2" stroke-miterlimit="10" pointer-events="none"/><path d="M 51 368 L 90.84 328.16" fill="none" stroke="rgb(0, 0, 0)" stroke-width="2" stroke-miterlimit="10" pointer-events="none"/><path d="M 89.59 335.07 L 92.42 326.58 L 83.93 329.41" fill="none" stroke="rgb(0, 0, 0)" stroke-width="2" stroke-miterlimit="10" pointer-events="none"/><g fill="rgb(0, 0, 0)" font-family="Helvetica" pointer-events="none" text-anchor="middle" font-size="16px"><text x="40.5" y="381.5">45</text></g><path d="M 26 290.24 L 81.83 290.02" fill="none" stroke="rgb(0, 0, 0)" stroke-width="2" stroke-miterlimit="10" pointer-events="none"/><path d="M 76.08 294.04 L 84.06 290.01 L 76.05 286.04" fill="none" stroke="rgb(0, 0, 0)" stroke-width="2" stroke-miterlimit="10" pointer-events="none"/><path d="M 206 290.24 L 261.83 290.02" fill="none" stroke="rgb(0, 0, 0)" stroke-width="2" stroke-miterlimit="10" pointer-events="none"/><path d="M 256.08 294.04 L 264.06 290.01 L 256.05 286.04" fill="none" stroke="rgb(0, 0, 0)" stroke-width="2" stroke-miterlimit="10" pointer-events="none"/><g fill="rgb(0, 0, 0)" font-family="Helvetica" pointer-events="none" text-anchor="middle" font-size="16px"><text x="15.5" y="296.5">0</text></g><g fill="rgb(0, 0, 0)" font-family="Helvetica" pointer-events="none" text-anchor="middle" font-size="16px"><text x="275.5" y="291.5">0</text></g><path d="M 416 310 C 416 326.57 428.31 340 443.5 340 C 458.69 340 471 326.57 471 310 Z" fill="none" stroke="rgb(0, 0, 0)" stroke-miterlimit="10" pointer-events="none"/><path d="M 420.02 336.97 L 404 357" fill="none" stroke="rgb(0, 0, 0)" stroke-miterlimit="10" pointer-events="none"/><path d="M 423.3 332.87 L 420.75 339.8 L 420.02 336.97 L 417.11 336.88 Z" fill="rgb(0, 0, 0)" stroke="rgb(0, 0, 0)" stroke-miterlimit="10" pointer-events="none"/><path d="M 426 310 C 426 321.05 434.95 330 446 330 C 457.05 330 466 321.05 466 310 Z" fill="none" stroke="rgb(0, 0, 0)" stroke-width="2" stroke-miterlimit="10" pointer-events="none"/><path d="M 506 310 C 506 321.05 514.95 330 526 330 C 537.05 330 546 321.05 546 310 Z" fill="none" stroke="rgb(0, 0, 0)" stroke-width="2" stroke-miterlimit="10" pointer-events="none"/><path d="M 426 250 C 426 261.05 434.95 270 446 270 C 457.05 270 466 261.05 466 250 Z" fill="none" stroke="rgb(0, 0, 0)" stroke-width="2" stroke-miterlimit="10" transform="rotate(180,446,260)" pointer-events="none"/><path d="M 506 250 C 506 261.05 514.95 270 526 270 C 537.05 270 546 261.05 546 250 Z" fill="none" stroke="rgb(0, 0, 0)" stroke-width="2" stroke-miterlimit="10" transform="rotate(180,526,260)" pointer-events="none"/><rect x="426" y="270" width="120" height="40" fill="rgb(255, 255, 255)" stroke="#ffffff" stroke-width="3" pointer-events="none"/><rect x="406" y="295" width="20" height="15" fill="rgb(255, 255, 255)" stroke="#ffffff" stroke-width="3" pointer-events="none"/><path d="M 426 310 L 426 270" fill="none" stroke="rgb(0, 0, 0)" stroke-width="2" stroke-miterlimit="10" pointer-events="none"/><rect x="446" y="250" width="80" height="80" fill="rgb(255, 255, 255)" stroke="#ffffff" stroke-width="3" pointer-events="none"/><rect x="446" y="330" width="20" height="15" fill="rgb(255, 255, 255)" stroke="#ffffff" stroke-width="3" pointer-events="none"/><path d="M 526 330 L 446 330" fill="none" stroke="rgb(0, 0, 0)" stroke-width="2" stroke-miterlimit="10" pointer-events="none"/><path d="M 526 250 L 446 250" fill="none" stroke="rgb(0, 0, 0)" stroke-width="2" stroke-miterlimit="10" pointer-events="none"/><path d="M 546 310 L 546 270" fill="none" stroke="rgb(0, 0, 0)" stroke-width="2" stroke-miterlimit="10" pointer-events="none"/><path d="M 546 275.24 L 601.83 275.02" fill="none" stroke="rgb(0, 0, 0)" stroke-width="2" stroke-miterlimit="10" pointer-events="none"/><path d="M 596.08 279.04 L 604.06 275.01 L 596.05 271.04" fill="none" stroke="rgb(0, 0, 0)" stroke-width="2" stroke-miterlimit="10" pointer-events="none"/><g fill="rgb(0, 0, 0)" font-family="Helvetica" pointer-events="none" text-anchor="middle" font-size="16px"><text x="355.5" y="296.5">0</text></g><g fill="rgb(0, 0, 0)" font-family="Helvetica" pointer-events="none" text-anchor="middle" font-size="16px"><text x="620.5" y="281.5"> 0.3</text></g><path d="M 366 210 L 486 210" fill="none" stroke="rgb(0, 0, 0)" stroke-width="2" stroke-miterlimit="10" pointer-events="none"/><path d="M 486 210 L 486 245.53" fill="none" stroke="rgb(0, 0, 0)" stroke-width="2" stroke-miterlimit="10" pointer-events="none"/><path d="M 482 239.76 L 486 247.76 L 490 239.76" fill="none" stroke="rgb(0, 0, 0)" stroke-width="2" stroke-miterlimit="10" pointer-events="none"/><g fill="rgb(0, 0, 0)" font-family="Helvetica" pointer-events="none" text-anchor="middle" font-size="16px"><text x="355.5" y="216.5">0</text></g><path d="M 546 305.24 L 601.83 305.02" fill="none" stroke="rgb(0, 0, 0)" stroke-width="2" stroke-miterlimit="10" pointer-events="none"/><path d="M 596.08 309.04 L 604.06 305.01 L 596.05 301.04" fill="none" stroke="rgb(0, 0, 0)" stroke-width="2" stroke-miterlimit="10" pointer-events="none"/><g fill="rgb(0, 0, 0)" font-family="Helvetica" pointer-events="none" text-anchor="middle" font-size="16px"><text x="620.5" y="311.5">-0.3</text></g><path d="M 366 290.24 L 421.83 290.02" fill="none" stroke="rgb(0, 0, 0)" stroke-width="2" stroke-miterlimit="10" pointer-events="none"/><path d="M 416.08 294.04 L 424.06 290.01 L 416.05 286.04" fill="none" stroke="rgb(0, 0, 0)" stroke-width="2" stroke-miterlimit="10" pointer-events="none"/><g fill="rgb(0, 0, 0)" font-family="Helvetica" pointer-events="none" text-anchor="middle" font-size="16px"><text x="419.5" y="369.5">Avoid this</text></g></g></svg>