<?xml version="1.0" encoding="UTF-8" standalone="no"?>
<!-- Creator: fig2dev Version 3.2.9 -->
<!-- CreationDate: 2026-07-02 09:49:31 -->
<!-- Magnification: 0.63 -->
<svg	xmlns="http://www.w3.org/2000/svg"
	xmlns:xlink="http://www.w3.org/1999/xlink"
	width="253pt" height="249pt"
	viewBox="-472 -2047 6683 6569">
<g fill="none">
<!-- Text -->
<text xml:space="preserve" x="675" y="977" fill="#000000" font-family="Helvetica" font-style="normal" font-weight="normal" font-size="192" text-anchor="middle">pairings</text>
<!-- Text -->
<text xml:space="preserve" x="675" y="675" fill="#000000" font-family="Helvetica" font-style="normal" font-weight="normal" font-size="192" text-anchor="middle">ANA</text>
<!-- Text -->
<text xml:space="preserve" x="1125" y="3677" fill="#000000" font-family="Helvetica" font-style="normal" font-weight="normal" font-size="192" text-anchor="end">ANB</text>
<!-- Text -->
<text xml:space="preserve" x="1125" y="3375" fill="#000000" font-family="Helvetica" font-style="normal" font-weight="normal" font-size="192" text-anchor="end">L segment</text>
<!-- Text -->
<text xml:space="preserve" x="4275" y="-1575" fill="#000000" font-family="Helvetica" font-style="normal" font-weight="normal" font-size="192" text-anchor="start">BNA</text>
<!-- Text -->
<text xml:space="preserve" x="4275" y="-1273" fill="#000000" font-family="Helvetica" font-style="normal" font-weight="normal" font-size="192" text-anchor="start">continuation</text>
<!-- Text -->
<text xml:space="preserve" x="4905" y="1112" fill="#000000" font-family="Helvetica" font-style="normal" font-weight="normal" font-size="192" text-anchor="start">BNA</text>
<!-- Text -->
<text xml:space="preserve" x="4905" y="810" fill="#000000" font-family="Helvetica" font-style="normal" font-weight="normal" font-size="192" text-anchor="start">R segment</text>
<!-- Circle -->
<circle cx="675" cy="2700" r="64"
	stroke="#000000" stroke-width="15px"/>
<!-- Circle -->
<circle cx="1575" cy="2925" r="64"
	stroke="#000000" stroke-width="15px"/>
<!-- Circle -->
<circle cx="2025" cy="3375" r="64"
	stroke="#000000" stroke-width="15px"/>
<!-- Circle -->
<circle cx="-225" cy="2025" r="64"
	stroke="#000000" stroke-width="15px"/>
<!-- Circle -->
<circle cx="2475" cy="-1350" r="64"
	stroke="#000000" stroke-width="15px"/>
<!-- Circle -->
<circle cx="0" cy="0" r="64"
	stroke="#000000" stroke-width="15px"/>
<!-- Circle -->
<circle cx="450" cy="-225" r="64"
	stroke="#000000" stroke-width="15px"/>
<!-- Circle -->
<circle cx="1800" cy="-900" r="64"
	stroke="#000000" stroke-width="15px"/>
<!-- Circle -->
<circle cx="5850" cy="1800" r="64"
	stroke="#000000" stroke-width="15px"/>
<!-- Circle -->
<circle cx="5175" cy="1350" r="64"
	stroke="#000000" stroke-width="15px"/>
<!-- Circle -->
<circle cx="4275" cy="1125" r="64"
	stroke="#000000" stroke-width="15px"/>
<!-- Circle -->
<circle cx="3600" cy="-675" r="64"
	stroke="#000000" stroke-width="15px"/>
<!-- Circle -->
<circle cx="4050" cy="-450" r="64"
	stroke="#000000" stroke-width="15px"/>
<!-- Circle -->
<circle cx="3375" cy="-1800" r="64"
	stroke="#000000" stroke-width="15px"/>
<!-- Line -->
<defs>
<clipPath id="cp0">
	<path clip-rule="evenodd" d="M -472,-2047 H 6211 V 4522 H -472 z
		M 1907,3193 1843,3257 2025,3390 2040,3375z"/>
</clipPath>
</defs>
<polyline points=" 1575,2925 2025,3375" clip-path="url(#cp0)"
	stroke="#000000" stroke-width="15px"/>
<!-- Forward arrow to point 2025,3375 -->
<polygon points=" 1843,3257 2002,3352 1907,3193 1843,3257"
	stroke="#000000" stroke-width="15px" stroke-miterlimit="8"/>
<!-- Line -->
<defs>
<clipPath id="cp1">
	<path clip-rule="evenodd" d="M -472,-2047 H 6211 V 4522 H -472 z
		M 1380,2830 1358,2917 1583,2938 1588,2917z"/>
</clipPath>
</defs>
<polyline points=" 675,2700 1575,2925" clip-path="url(#cp1)"
	stroke="#000000" stroke-width="15px"/>
<!-- Forward arrow to point 1575,2925 -->
<polygon points=" 1358,2917 1544,2917 1380,2830 1358,2917"
	stroke="#000000" stroke-width="15px" stroke-miterlimit="8"/>
<!-- Line -->
<polyline points=" 2025,1350 2025,3825"
	stroke="#000000" stroke-width="15px" stroke-dasharray="60 30 10 30"/>
<!-- Line -->
<polyline points=" -450,2025 2700,2025"
	stroke="#000000" stroke-width="15px" stroke-dasharray="60 30 10 30"/>
<!-- Line -->
<polyline points=" 2925,4500 2925,-2025"
	stroke="#000000" stroke-width="15px" stroke-dasharray="10 25"/>
<!-- Line -->
<defs>
<clipPath id="cp2">
	<path clip-rule="evenodd" d="M -472,-2047 H 6211 V 4522 H -472 z
		M 536,2540 482,2612 681,2719 694,2702z"/>
</clipPath>
</defs>
<polyline points=" -225,2025 679,2704" clip-path="url(#cp2)"
	stroke="#000000" stroke-width="15px"/>
<!-- Forward arrow to point 679,2704 -->
<polygon points=" 482,2612 653,2685 536,2540 482,2612"
	stroke="#000000" stroke-width="15px" stroke-miterlimit="8"/>
<!-- Line -->
<defs>
<clipPath id="cp3">
	<path clip-rule="evenodd" d="M -472,-2047 H 6211 V 4522 H -472 z
		M -210,55 -170,135 14,5 5,-14z"/>
</clipPath>
</defs>
<polyline points=" -450,225 0,0" clip-path="url(#cp3)"
	stroke="#000000" stroke-width="15px"/>
<!-- Forward arrow to point 0,0 -->
<polygon points=" -170,135 -29,14 -210,55 -170,135"
	stroke="#000000" stroke-width="15px" stroke-miterlimit="8" fill="#000000"/>
<!-- Line -->
<defs>
<clipPath id="cp4">
	<path clip-rule="evenodd" d="M -472,-2047 H 6211 V 4522 H -472 z
		M 240,-170 280,-90 464,-220 455,-239z"/>
</clipPath>
</defs>
<polyline points=" 0,0 450,-225" clip-path="url(#cp4)"
	stroke="#000000" stroke-width="15px"/>
<!-- Forward arrow to point 450,-225 -->
<polygon points=" 280,-90 421,-211 240,-170 280,-90"
	stroke="#000000" stroke-width="15px" stroke-miterlimit="8" fill="#000000"/>
<!-- Line -->
<defs>
<clipPath id="cp5">
	<path clip-rule="evenodd" d="M -472,-2047 H 6211 V 4522 H -472 z
		M 1590,-845 1630,-765 1814,-895 1805,-914z"/>
</clipPath>
</defs>
<polyline points=" 450,-225 1800,-900" clip-path="url(#cp5)"
	stroke="#000000" stroke-width="15px"/>
<!-- Forward arrow to point 1800,-900 -->
<polygon points=" 1630,-765 1771,-886 1590,-845 1630,-765"
	stroke="#000000" stroke-width="15px" stroke-miterlimit="8" fill="#000000"/>
<!-- Line -->
<defs>
<clipPath id="cp6">
	<path clip-rule="evenodd" d="M -472,-2047 H 6211 V 4522 H -472 z
		M 2273,-1270 2323,-1195 2490,-1347 2478,-1365z"/>
</clipPath>
</defs>
<polyline points=" 1800,-900 2475,-1350" clip-path="url(#cp6)"
	stroke="#000000" stroke-width="15px"/>
<!-- Forward arrow to point 2475,-1350 -->
<polygon points=" 2323,-1195 2448,-1332 2273,-1270 2323,-1195"
	stroke="#000000" stroke-width="15px" stroke-miterlimit="8" fill="#000000"/>
<!-- Line -->
<defs>
<clipPath id="cp7">
	<path clip-rule="evenodd" d="M -472,-2047 H 6211 V 4522 H -472 z
		M 2590,-1838 2676,-1809 2713,-2032 2693,-2038z"/>
</clipPath>
</defs>
<polyline points=" 2475,-1350 2700,-2025" clip-path="url(#cp7)"
	stroke="#000000" stroke-width="15px"/>
<!-- Forward arrow to point 2700,-2025 -->
<polygon points=" 2676,-1809 2690,-1994 2590,-1838 2676,-1809"
	stroke="#000000" stroke-width="15px" stroke-miterlimit="8" fill="#000000"/>
<!-- Line -->
<defs>
<clipPath id="cp8">
	<path clip-rule="evenodd" d="M -472,-2047 H 6211 V 4522 H -472 z
		M 1693,-710 1790,-868 1779,-683 1813,-907 1793,-913z"/>
</clipPath>
</defs>
<polyline points=" 675,2700 1800,-900" clip-path="url(#cp8)"
	stroke="#000000" stroke-width="15px"/>
<!-- Forward arrow to point 1800,-900 -->
<polyline points=" 1693,-710 1790,-868 1779,-683"
	stroke="#000000" stroke-width="15px" stroke-miterlimit="8"/>
<!-- Line -->
<defs>
<clipPath id="cp9">
	<path clip-rule="evenodd" d="M -472,-2047 H 6211 V 4522 H -472 z
		M 1743,-690 1798,-867 1832,-685 1811,-910 1790,-911z"/>
</clipPath>
</defs>
<polyline points=" 1575,2925 1800,-900" clip-path="url(#cp9)"
	stroke="#000000" stroke-width="15px"/>
<!-- Forward arrow to point 1800,-900 -->
<polyline points=" 1743,-690 1798,-867 1832,-685"
	stroke="#000000" stroke-width="15px" stroke-miterlimit="8"/>
<!-- Line -->
<defs>
<clipPath id="cp10">
	<path clip-rule="evenodd" d="M -472,-2047 H 6211 V 4522 H -472 z
		M 2410,-1142 2472,-1317 2500,-1134 2486,-1359 2466,-1361z"/>
</clipPath>
</defs>
<polyline points=" 2025,3375 2475,-1350" clip-path="url(#cp10)"
	stroke="#000000" stroke-width="15px"/>
<!-- Forward arrow to point 2475,-1350 -->
<polyline points=" 2410,-1142 2472,-1317 2500,-1134"
	stroke="#000000" stroke-width="15px" stroke-miterlimit="8"/>
<!-- Line -->
<defs>
<clipPath id="cp11">
	<path clip-rule="evenodd" d="M -472,-2047 H 6211 V 4522 H -472 z
		M -68,207 -4,33 21,217 12,-9 -9,-12z"/>
</clipPath>
</defs>
<polyline points=" -225,2025 0,0" clip-path="url(#cp11)"
	stroke="#000000" stroke-width="15px"/>
<!-- Forward arrow to point 0,0 -->
<polyline points=" -68,207 -4,33 21,217"
	stroke="#000000" stroke-width="15px" stroke-miterlimit="8"/>
<!-- Line -->
<polyline points=" 3600,1800 6075,1800"
	stroke="#000000" stroke-width="15px" stroke-dasharray="60 30 10 30"/>
<!-- Line -->
<polyline points=" 4275,-225 4275,2475"
	stroke="#000000" stroke-width="15px" stroke-dasharray="60 30 10 30"/>
<!-- Line -->
<polyline points=" 3600,450 6075,450"
	stroke="#000000" stroke-width="15px" stroke-dasharray="60 30 10 30"/>
<!-- Line -->
<defs>
<clipPath id="cp12">
	<path clip-rule="evenodd" d="M -472,-2047 H 6211 V 4522 H -472 z
		M 5327,1505 5377,1430 5172,1335 5160,1353z"/>
</clipPath>
</defs>
<polyline points=" 5850,1800 5175,1350" clip-path="url(#cp12)"
	stroke="#000000" stroke-width="15px"/>
<!-- Forward arrow to point 5175,1350 -->
<polygon points=" 5377,1430 5202,1368 5327,1505 5377,1430"
	stroke="#000000" stroke-width="15px" stroke-miterlimit="8"/>
<!-- Line -->
<defs>
<clipPath id="cp13">
	<path clip-rule="evenodd" d="M -472,-2047 H 6211 V 4522 H -472 z
		M 4470,1220 4492,1133 4267,1112 4262,1133z"/>
</clipPath>
</defs>
<polyline points=" 5175,1350 4275,1125" clip-path="url(#cp13)"
	stroke="#000000" stroke-width="15px"/>
<!-- Forward arrow to point 4275,1125 -->
<polygon points=" 4492,1133 4306,1133 4470,1220 4492,1133"
	stroke="#000000" stroke-width="15px" stroke-miterlimit="8"/>
<!-- Line -->
<defs>
<clipPath id="cp14">
	<path clip-rule="evenodd" d="M -472,-2047 H 6211 V 4522 H -472 z
		M 3770,-540 3810,-620 3595,-689 3586,-670z"/>
</clipPath>
</defs>
<polyline points=" 4275,1125 4050,-450 3600,-675" clip-path="url(#cp14)"
	stroke="#000000" stroke-width="15px"/>
<!-- Forward arrow to point 3600,-675 -->
<polygon points=" 3810,-620 3629,-661 3770,-540 3810,-620"
	stroke="#000000" stroke-width="15px" stroke-miterlimit="8"/>
<!-- Line -->
<defs>
<clipPath id="cp15">
	<path clip-rule="evenodd" d="M -472,-2047 H 6211 V 4522 H -472 z
		M 3373,-1583 3461,-1601 3383,-1812 3363,-1808z"/>
</clipPath>
</defs>
<polyline points=" 3600,-675 3375,-1800" clip-path="url(#cp15)"
	stroke="#000000" stroke-width="15px"/>
<!-- Forward arrow to point 3375,-1800 -->
<polygon points=" 3461,-1601 3381,-1768 3373,-1583 3461,-1601"
	stroke="#000000" stroke-width="15px" stroke-miterlimit="8"/>
<!-- Text -->
<text xml:space="preserve" x="1575" y="-900" fill="#000000" font-family="Helvetica" font-style="normal" font-weight="normal" font-size="192" text-anchor="end">ANA chain</text>
<!-- Text -->
<text xml:space="preserve" x="1935" y="3690" fill="#000000" font-family="Helvetica" font-style="normal" font-weight="normal" font-size="192" text-anchor="end">S</text>
<!-- Text -->
<text xml:space="preserve" x="1530" y="3240" fill="#000000" font-family="Helvetica" font-style="normal" font-weight="normal" font-size="192" text-anchor="end">R</text>
<!-- Text -->
<text xml:space="preserve" x="630" y="3015" fill="#000000" font-family="Helvetica" font-style="normal" font-weight="normal" font-size="192" text-anchor="end">Q</text>
<!-- Text -->
<text xml:space="preserve" x="-270" y="2340" fill="#000000" font-family="Helvetica" font-style="normal" font-weight="normal" font-size="192" text-anchor="end">P</text>
<!-- Text -->
<text xml:space="preserve" x="5805" y="2160" fill="#000000" font-family="Helvetica" font-style="normal" font-weight="normal" font-size="192" text-anchor="end">A</text>
<!-- Text -->
<text xml:space="preserve" x="5130" y="1710" fill="#000000" font-family="Helvetica" font-style="normal" font-weight="normal" font-size="192" text-anchor="end">B</text>
<!-- Text -->
<text xml:space="preserve" x="4140" y="1440" fill="#000000" font-family="Helvetica" font-style="normal" font-weight="normal" font-size="192" text-anchor="end">C</text>
<!-- Text -->
<text xml:space="preserve" x="3735" y="-765" fill="#000000" font-family="Helvetica" font-style="normal" font-weight="normal" font-size="192" text-anchor="start">E</text>
<!-- Text -->
<text xml:space="preserve" x="4185" y="-540" fill="#000000" font-family="Helvetica" font-style="normal" font-weight="normal" font-size="192" text-anchor="start">D</text>
<!-- Text -->
<text xml:space="preserve" x="3555" y="-1755" fill="#000000" font-family="Helvetica" font-style="normal" font-weight="normal" font-size="192" text-anchor="start">F</text>
</g>
</svg>
