<?xml version="1.0" encoding="UTF-8" standalone="no"?>
<!-- Creator: fig2dev Version 3.2.9 -->
<!-- CreationDate: 2026-06-29 18:39:40 -->
<!-- Magnification: 0.63 -->
<svg	xmlns="http://www.w3.org/2000/svg"
	xmlns:xlink="http://www.w3.org/1999/xlink"
	width="405pt" height="52pt"
	viewBox="11534 -7868 10703 1358">
<g fill="none">
<!-- Circle -->
<circle cx="12600" cy="-6750" r="225"
	stroke="#000000" stroke-width="15px"/>
<!-- Circle -->
<circle cx="14850" cy="-6750" r="225"
	stroke="#000000" stroke-width="15px"/>
<!-- Circle -->
<circle cx="17100" cy="-6750" r="225"
	stroke="#000000" stroke-width="15px"/>
<!-- Circle -->
<circle cx="19350" cy="-6750" r="225"
	stroke="#000000" stroke-width="15px"/>
<!-- Circle -->
<circle cx="21600" cy="-6750" r="225"
	stroke="#000000" stroke-width="15px"/>
<!-- Line -->
<defs>
<clipPath id="cp0">
	<path clip-rule="evenodd" d="M 11534,-7868 H 22237 V -6510 H 11534 z
		M 14352,-6810 14592,-6750 14352,-6690 14636,-6739 14636,-6760z"/>
</clipPath>
</defs>
<polyline points=" 12825,-6750 14625,-6750" clip-path="url(#cp0)"
	stroke="#000000" stroke-width="15px"/>
<!-- Forward arrow to point 14625,-6750 -->
<polyline points=" 14352,-6810 14592,-6750 14352,-6690"
	stroke="#000000" stroke-width="15px" stroke-miterlimit="8"/>
<!-- Line -->
<defs>
<clipPath id="cp1">
	<path clip-rule="evenodd" d="M 11534,-7868 H 22237 V -6510 H 11534 z
		M 16602,-6810 16842,-6750 16602,-6690 16886,-6739 16886,-6760z"/>
</clipPath>
</defs>
<polyline points=" 15075,-6750 16875,-6750" clip-path="url(#cp1)"
	stroke="#000000" stroke-width="15px"/>
<!-- Forward arrow to point 16875,-6750 -->
<polyline points=" 16602,-6810 16842,-6750 16602,-6690"
	stroke="#000000" stroke-width="15px" stroke-miterlimit="8"/>
<!-- Line -->
<defs>
<clipPath id="cp2">
	<path clip-rule="evenodd" d="M 11534,-7868 H 22237 V -6510 H 11534 z
		M 18852,-6810 19092,-6750 18852,-6690 19136,-6739 19136,-6760z"/>
</clipPath>
</defs>
<polyline points=" 17325,-6750 19125,-6750" clip-path="url(#cp2)"
	stroke="#000000" stroke-width="15px"/>
<!-- Forward arrow to point 19125,-6750 -->
<polyline points=" 18852,-6810 19092,-6750 18852,-6690"
	stroke="#000000" stroke-width="15px" stroke-miterlimit="8"/>
<!-- Line -->
<defs>
<clipPath id="cp3">
	<path clip-rule="evenodd" d="M 11534,-7868 H 22237 V -6510 H 11534 z
		M 21102,-6810 21342,-6750 21102,-6690 21386,-6739 21386,-6760z"/>
</clipPath>
</defs>
<polyline points=" 19575,-6750 21375,-6750" clip-path="url(#cp3)"
	stroke="#000000" stroke-width="15px"/>
<!-- Forward arrow to point 21375,-6750 -->
<polyline points=" 21102,-6810 21342,-6750 21102,-6690"
	stroke="#000000" stroke-width="15px" stroke-miterlimit="8"/>
<!-- Text -->
<text xml:space="preserve" x="14850" y="-7202" fill="#000000" font-family="Helvetica Narrow" font-style="normal" font-weight="normal" font-size="288" text-anchor="middle">pairs</text>
<!-- Text -->
<text xml:space="preserve" x="12600" y="-7202" fill="#000000" font-family="Helvetica Narrow" font-style="normal" font-weight="normal" font-size="288" text-anchor="middle">representation</text>
<!-- Text -->
<text xml:space="preserve" x="19350" y="-7202" fill="#000000" font-family="Helvetica Narrow" font-style="normal" font-weight="normal" font-size="288" text-anchor="middle">drawing</text>
<!-- Text -->
<text xml:space="preserve" x="21600" y="-7202" fill="#000000" font-family="Helvetica Narrow" font-style="normal" font-weight="normal" font-size="288" text-anchor="middle">drawing</text>
<!-- Text -->
<text xml:space="preserve" x="12600" y="-7560" fill="#000000" font-family="Helvetica Narrow" font-style="normal" font-weight="normal" font-size="288" text-anchor="middle">Text</text>
<!-- Text -->
<text xml:space="preserve" x="14850" y="-7560" fill="#000000" font-family="Helvetica Narrow" font-style="normal" font-weight="normal" font-size="288" text-anchor="middle">Rank</text>
<!-- Text -->
<text xml:space="preserve" x="17100" y="-7290" fill="#000000" font-family="Helvetica Narrow" font-style="normal" font-weight="normal" font-size="288" text-anchor="middle">DAG</text>
<!-- Text -->
<text xml:space="preserve" x="19350" y="-7560" fill="#000000" font-family="Helvetica Narrow" font-style="normal" font-weight="normal" font-size="288" text-anchor="middle">Dominance</text>
<!-- Text -->
<text xml:space="preserve" x="21600" y="-7560" fill="#000000" font-family="Helvetica Narrow" font-style="normal" font-weight="normal" font-size="288" text-anchor="middle">Polished</text>
</g>
</svg>
