<?xml version="1.0" encoding="UTF-8" standalone="no"?>
<!-- Creator: fig2dev Version 3.2.9 -->
<!-- CreationDate: 2026-06-29 09:16:12 -->
<!-- Magnification: 0.42 -->
<svg	xmlns="http://www.w3.org/2000/svg"
	xmlns:xlink="http://www.w3.org/1999/xlink"
	width="353pt" height="353pt"
	viewBox="5603 -24997 13994 13994">
<g fill="none">
<!-- Circle -->
<circle cx="14175" cy="-14625" r="64" fill="#000000"
	stroke="#000000" stroke-width="15px"/>
<!-- Circle -->
<circle cx="14625" cy="-16425" r="64" fill="#000000"
	stroke="#000000" stroke-width="15px"/>
<!-- Circle -->
<circle cx="13725" cy="-11475" r="64" fill="#000000"
	stroke="#000000" stroke-width="15px"/>
<!-- Circle -->
<circle cx="15075" cy="-11925" r="64" fill="#000000"
	stroke="#000000" stroke-width="15px"/>
<!-- Circle -->
<circle cx="15525" cy="-13275" r="64" fill="#000000"
	stroke="#000000" stroke-width="15px"/>
<!-- Circle -->
<circle cx="15975" cy="-15075" r="64" fill="#000000"
	stroke="#000000" stroke-width="15px"/>
<!-- Circle -->
<circle cx="16425" cy="-14175" r="64" fill="#000000"
	stroke="#000000" stroke-width="15px"/>
<!-- Circle -->
<circle cx="17325" cy="-13725" r="64" fill="#000000"
	stroke="#000000" stroke-width="15px"/>
<!-- Circle -->
<circle cx="16875" cy="-15525" r="64" fill="#000000"
	stroke="#000000" stroke-width="15px"/>
<!-- Circle -->
<circle cx="18225" cy="-15975" r="64" fill="#000000"
	stroke="#000000" stroke-width="15px"/>
<!-- Circle -->
<circle cx="19125" cy="-16875" r="64" fill="#000000"
	stroke="#000000" stroke-width="15px"/>
<!-- Circle -->
<circle cx="18675" cy="-12825" r="64" fill="#000000"
	stroke="#000000" stroke-width="15px"/>
<!-- Circle -->
<circle cx="17775" cy="-12375" r="64" fill="#000000"
	stroke="#000000" stroke-width="15px"/>
<!-- Circle -->
<circle cx="14175" cy="-22275" r="64" fill="#000000"
	stroke="#000000" stroke-width="15px"/>
<!-- Circle -->
<circle cx="14625" cy="-24075" r="64" fill="#000000"
	stroke="#000000" stroke-width="15px"/>
<!-- Circle -->
<circle cx="13725" cy="-19125" r="64" fill="#000000"
	stroke="#000000" stroke-width="15px"/>
<!-- Circle -->
<circle cx="15075" cy="-19575" r="64" fill="#000000"
	stroke="#000000" stroke-width="15px"/>
<!-- Circle -->
<circle cx="15525" cy="-20925" r="64" fill="#000000"
	stroke="#000000" stroke-width="15px"/>
<!-- Circle -->
<circle cx="15975" cy="-22725" r="64" fill="#000000"
	stroke="#000000" stroke-width="15px"/>
<!-- Circle -->
<circle cx="16425" cy="-21825" r="64" fill="#000000"
	stroke="#000000" stroke-width="15px"/>
<!-- Circle -->
<circle cx="17325" cy="-21375" r="64" fill="#000000"
	stroke="#000000" stroke-width="15px"/>
<!-- Circle -->
<circle cx="16875" cy="-23175" r="64" fill="#000000"
	stroke="#000000" stroke-width="15px"/>
<!-- Circle -->
<circle cx="18225" cy="-23625" r="64" fill="#000000"
	stroke="#000000" stroke-width="15px"/>
<!-- Circle -->
<circle cx="19125" cy="-24525" r="64" fill="#000000"
	stroke="#000000" stroke-width="15px"/>
<!-- Circle -->
<circle cx="18675" cy="-20475" r="64" fill="#000000"
	stroke="#000000" stroke-width="15px"/>
<!-- Circle -->
<circle cx="17775" cy="-20025" r="64" fill="#000000"
	stroke="#000000" stroke-width="15px"/>
<!-- Circle -->
<circle cx="6525" cy="-14625" r="64" fill="#000000"
	stroke="#000000" stroke-width="15px"/>
<!-- Circle -->
<circle cx="6975" cy="-16425" r="64" fill="#000000"
	stroke="#000000" stroke-width="15px"/>
<!-- Circle -->
<circle cx="6075" cy="-11475" r="64" fill="#000000"
	stroke="#000000" stroke-width="15px"/>
<!-- Circle -->
<circle cx="7425" cy="-11925" r="64" fill="#000000"
	stroke="#000000" stroke-width="15px"/>
<!-- Circle -->
<circle cx="7875" cy="-13275" r="64" fill="#000000"
	stroke="#000000" stroke-width="15px"/>
<!-- Circle -->
<circle cx="8325" cy="-15075" r="64" fill="#000000"
	stroke="#000000" stroke-width="15px"/>
<!-- Circle -->
<circle cx="8775" cy="-14175" r="64" fill="#000000"
	stroke="#000000" stroke-width="15px"/>
<!-- Circle -->
<circle cx="9675" cy="-13725" r="64" fill="#000000"
	stroke="#000000" stroke-width="15px"/>
<!-- Circle -->
<circle cx="9225" cy="-15525" r="64" fill="#000000"
	stroke="#000000" stroke-width="15px"/>
<!-- Circle -->
<circle cx="10575" cy="-15975" r="64" fill="#000000"
	stroke="#000000" stroke-width="15px"/>
<!-- Circle -->
<circle cx="11475" cy="-16875" r="64" fill="#000000"
	stroke="#000000" stroke-width="15px"/>
<!-- Circle -->
<circle cx="11025" cy="-12825" r="64" fill="#000000"
	stroke="#000000" stroke-width="15px"/>
<!-- Circle -->
<circle cx="10125" cy="-12375" r="64" fill="#000000"
	stroke="#000000" stroke-width="15px"/>
<!-- Circle -->
<circle cx="6525" cy="-22275" r="64" fill="#000000"
	stroke="#000000" stroke-width="15px"/>
<!-- Circle -->
<circle cx="6975" cy="-24075" r="64" fill="#000000"
	stroke="#000000" stroke-width="15px"/>
<!-- Circle -->
<circle cx="6075" cy="-19125" r="64" fill="#000000"
	stroke="#000000" stroke-width="15px"/>
<!-- Circle -->
<circle cx="7425" cy="-19575" r="64" fill="#000000"
	stroke="#000000" stroke-width="15px"/>
<!-- Circle -->
<circle cx="7875" cy="-20925" r="64" fill="#000000"
	stroke="#000000" stroke-width="15px"/>
<!-- Circle -->
<circle cx="8325" cy="-22725" r="64" fill="#000000"
	stroke="#000000" stroke-width="15px"/>
<!-- Circle -->
<circle cx="8775" cy="-21825" r="64" fill="#000000"
	stroke="#000000" stroke-width="15px"/>
<!-- Circle -->
<circle cx="9675" cy="-21375" r="64" fill="#000000"
	stroke="#000000" stroke-width="15px"/>
<!-- Circle -->
<circle cx="9225" cy="-23175" r="64" fill="#000000"
	stroke="#000000" stroke-width="15px"/>
<!-- Circle -->
<circle cx="10575" cy="-23625" r="64" fill="#000000"
	stroke="#000000" stroke-width="15px"/>
<!-- Circle -->
<circle cx="11475" cy="-24525" r="64" fill="#000000"
	stroke="#000000" stroke-width="15px"/>
<!-- Circle -->
<circle cx="11025" cy="-20475" r="64" fill="#000000"
	stroke="#000000" stroke-width="15px"/>
<!-- Circle -->
<circle cx="10125" cy="-20025" r="64" fill="#000000"
	stroke="#000000" stroke-width="15px"/>
<!-- Line -->
<polyline points=" 5625,-18000 19575,-18000"
	stroke="#000000" stroke-width="15px" stroke-dasharray="260 130 10 130"/>
<!-- Line -->
<polyline points=" 12600,-24975 12600,-11025"
	stroke="#000000" stroke-width="15px" stroke-dasharray="260 130 10 130"/>
<!-- Line -->
<defs>
<clipPath id="cp0">
	<path clip-rule="evenodd" d="M 5603,-24997 H 19597 V -11003 H 5603 z
		M 18696,-13104 18670,-12858 18577,-13087 18666,-12813 18687,-12816z"/>
</clipPath>
</defs>
<polyline points=" 18225,-15975 18675,-12825" clip-path="url(#cp0)"
	stroke="#000000" stroke-width="15px"/>
<!-- Forward arrow to point 18675,-12825 -->
<polyline points=" 18696,-13104 18670,-12858 18577,-13087"
	stroke="#000000" stroke-width="15px" stroke-miterlimit="8"/>
<!-- Line -->
<defs>
<clipPath id="cp1">
	<path clip-rule="evenodd" d="M 5603,-24997 H 19597 V -11003 H 5603 z
		M 17317,-14005 17317,-13757 17201,-13975 17317,-13712 17338,-13717z"/>
</clipPath>
</defs>
<polyline points=" 16875,-15525 17325,-13725" clip-path="url(#cp1)"
	stroke="#000000" stroke-width="15px"/>
<!-- Forward arrow to point 17325,-13725 -->
<polyline points=" 17317,-14005 17317,-13757 17201,-13975"
	stroke="#000000" stroke-width="15px" stroke-miterlimit="8"/>
<!-- Line -->
<defs>
<clipPath id="cp2">
	<path clip-rule="evenodd" d="M 5603,-24997 H 19597 V -11003 H 5603 z
		M 16357,-14446 16410,-14205 16249,-14392 16420,-14161 16439,-14170z"/>
</clipPath>
</defs>
<polyline points=" 15975,-15075 16425,-14175" clip-path="url(#cp2)"
	stroke="#000000" stroke-width="15px"/>
<!-- Forward arrow to point 16425,-14175 -->
<polyline points=" 16357,-14446 16410,-14205 16249,-14392"
	stroke="#000000" stroke-width="15px" stroke-miterlimit="8"/>
<!-- Line -->
<defs>
<clipPath id="cp3">
	<path clip-rule="evenodd" d="M 5603,-24997 H 19597 V -11003 H 5603 z
		M 17108,-13901 17295,-13740 17054,-13793 17330,-13711 17339,-13730z"/>
</clipPath>
</defs>
<polyline points=" 16425,-14175 17325,-13725" clip-path="url(#cp3)"
	stroke="#000000" stroke-width="15px"/>
<!-- Forward arrow to point 17325,-13725 -->
<polyline points=" 17108,-13901 17295,-13740 17054,-13793"
	stroke="#000000" stroke-width="15px" stroke-miterlimit="8"/>
<!-- Line -->
<defs>
<clipPath id="cp4">
	<path clip-rule="evenodd" d="M 5603,-24997 H 19597 V -11003 H 5603 z
		M 18481,-13026 18647,-12843 18414,-12927 18678,-12810 18690,-12828z"/>
</clipPath>
</defs>
<polyline points=" 17325,-13725 18675,-12825" clip-path="url(#cp4)"
	stroke="#000000" stroke-width="15px"/>
<!-- Forward arrow to point 18675,-12825 -->
<polyline points=" 18481,-13026 18647,-12843 18414,-12927"
	stroke="#000000" stroke-width="15px" stroke-miterlimit="8"/>
<!-- Line -->
<defs>
<clipPath id="cp5">
	<path clip-rule="evenodd" d="M 5603,-24997 H 19597 V -11003 H 5603 z
		M 18413,-12923 18642,-12830 18396,-12804 18684,-12813 18687,-12834z"/>
</clipPath>
</defs>
<polyline points=" 15525,-13275 18675,-12825" clip-path="url(#cp5)"
	stroke="#000000" stroke-width="15px"/>
<!-- Forward arrow to point 18675,-12825 -->
<polyline points=" 18413,-12923 18642,-12830 18396,-12804"
	stroke="#000000" stroke-width="15px" stroke-miterlimit="8"/>
<!-- Line -->
<defs>
<clipPath id="cp6">
	<path clip-rule="evenodd" d="M 5603,-24997 H 19597 V -11003 H 5603 z
		M 16169,-14287 16393,-14181 16145,-14170 16433,-14163 16437,-14183z"/>
</clipPath>
</defs>
<polyline points=" 14175,-14625 16425,-14175" clip-path="url(#cp6)"
	stroke="#000000" stroke-width="15px"/>
<!-- Forward arrow to point 16425,-14175 -->
<polyline points=" 16169,-14287 16393,-14181 16145,-14170"
	stroke="#000000" stroke-width="15px" stroke-miterlimit="8"/>
<!-- Line -->
<defs>
<clipPath id="cp7">
	<path clip-rule="evenodd" d="M 5603,-24997 H 19597 V -11003 H 5603 z
		M 14797,-19546 15044,-19565 14835,-19432 15088,-19568 15082,-19588z"/>
</clipPath>
</defs>
<polyline points=" 13725,-19125 15075,-19575" clip-path="url(#cp7)"
	stroke="#000000" stroke-width="15px"/>
<!-- Forward arrow to point 15075,-19575 -->
<polyline points=" 14797,-19546 15044,-19565 14835,-19432"
	stroke="#000000" stroke-width="15px" stroke-miterlimit="8"/>
<!-- Line -->
<defs>
<clipPath id="cp8">
	<path clip-rule="evenodd" d="M 5603,-24997 H 19597 V -11003 H 5603 z
		M 17496,-20039 17742,-20020 17515,-19921 17787,-20016 17784,-20037z"/>
</clipPath>
</defs>
<polyline points=" 15075,-19575 17775,-20025" clip-path="url(#cp8)"
	stroke="#000000" stroke-width="15px"/>
<!-- Forward arrow to point 17775,-20025 -->
<polyline points=" 17496,-20039 17742,-20020 17515,-19921"
	stroke="#000000" stroke-width="15px" stroke-miterlimit="8"/>
<!-- Line -->
<defs>
<clipPath id="cp9">
	<path clip-rule="evenodd" d="M 5603,-24997 H 19597 V -11003 H 5603 z
		M 18404,-20407 18645,-20460 18458,-20299 18689,-20470 18680,-20489z"/>
</clipPath>
</defs>
<polyline points=" 17775,-20025 18675,-20475" clip-path="url(#cp9)"
	stroke="#000000" stroke-width="15px"/>
<!-- Forward arrow to point 18675,-20475 -->
<polyline points=" 18404,-20407 18645,-20460 18458,-20299"
	stroke="#000000" stroke-width="15px" stroke-miterlimit="8"/>
<!-- Line -->
<defs>
<clipPath id="cp10">
	<path clip-rule="evenodd" d="M 5603,-24997 H 19597 V -11003 H 5603 z
		M 19035,-24260 19121,-24492 19154,-24247 19137,-24534 19116,-24537z"/>
</clipPath>
</defs>
<polyline points=" 18675,-20475 19125,-24525" clip-path="url(#cp10)"
	stroke="#000000" stroke-width="15px"/>
<!-- Forward arrow to point 19125,-24525 -->
<polyline points=" 19035,-24260 19121,-24492 19154,-24247"
	stroke="#000000" stroke-width="15px" stroke-miterlimit="8"/>
<!-- Line -->
<defs>
<clipPath id="cp11">
	<path clip-rule="evenodd" d="M 5603,-24997 H 19597 V -11003 H 5603 z
		M 18847,-24558 19092,-24522 18859,-24438 19136,-24516 19134,-24536z"/>
</clipPath>
</defs>
<polyline points=" 14625,-24075 19125,-24525" clip-path="url(#cp11)"
	stroke="#000000" stroke-width="15px"/>
<!-- Forward arrow to point 19125,-24525 -->
<polyline points=" 18847,-24558 19092,-24522 18859,-24438"
	stroke="#000000" stroke-width="15px" stroke-miterlimit="8"/>
<!-- Line -->
<defs>
<clipPath id="cp12">
	<path clip-rule="evenodd" d="M 5603,-24997 H 19597 V -11003 H 5603 z
		M 16604,-23107 16845,-23160 16658,-22999 16889,-23170 16880,-23189z"/>
</clipPath>
</defs>
<polyline points=" 15975,-22725 16875,-23175" clip-path="url(#cp12)"
	stroke="#000000" stroke-width="15px"/>
<!-- Forward arrow to point 16875,-23175 -->
<polyline points=" 16604,-23107 16845,-23160 16658,-22999"
	stroke="#000000" stroke-width="15px" stroke-miterlimit="8"/>
<!-- Line -->
<defs>
<clipPath id="cp13">
	<path clip-rule="evenodd" d="M 5603,-24997 H 19597 V -11003 H 5603 z
		M 17947,-23596 18194,-23615 17985,-23482 18238,-23618 18232,-23638z"/>
</clipPath>
</defs>
<polyline points=" 16875,-23175 18225,-23625" clip-path="url(#cp13)"
	stroke="#000000" stroke-width="15px"/>
<!-- Forward arrow to point 18225,-23625 -->
<polyline points=" 17947,-23596 18194,-23615 17985,-23482"
	stroke="#000000" stroke-width="15px" stroke-miterlimit="8"/>
<!-- Line -->
<defs>
<clipPath id="cp14">
	<path clip-rule="evenodd" d="M 5603,-24997 H 19597 V -11003 H 5603 z
		M 18889,-24374 19102,-24502 18974,-24289 19140,-24525 19125,-24540z"/>
</clipPath>
</defs>
<polyline points=" 18225,-23625 19125,-24525" clip-path="url(#cp14)"
	stroke="#000000" stroke-width="15px"/>
<!-- Forward arrow to point 19125,-24525 -->
<polyline points=" 18889,-24374 19102,-24502 18974,-24289"
	stroke="#000000" stroke-width="15px" stroke-miterlimit="8"/>
<!-- Line -->
<defs>
<clipPath id="cp15">
	<path clip-rule="evenodd" d="M 5603,-24997 H 19597 V -11003 H 5603 z
		M 17045,-21367 17293,-21367 17075,-21251 17338,-21367 17333,-21388z"/>
</clipPath>
</defs>
<polyline points=" 15525,-20925 17325,-21375" clip-path="url(#cp15)"
	stroke="#000000" stroke-width="15px"/>
<!-- Forward arrow to point 17325,-21375 -->
<polyline points=" 17045,-21367 17293,-21367 17075,-21251"
	stroke="#000000" stroke-width="15px" stroke-miterlimit="8"/>
<!-- Line -->
<defs>
<clipPath id="cp16">
	<path clip-rule="evenodd" d="M 5603,-24997 H 19597 V -11003 H 5603 z
		M 18068,-23394 18213,-23594 18179,-23349 18239,-23631 18219,-23639z"/>
</clipPath>
</defs>
<polyline points=" 17325,-21375 18225,-23625" clip-path="url(#cp16)"
	stroke="#000000" stroke-width="15px"/>
<!-- Forward arrow to point 18225,-23625 -->
<polyline points=" 18068,-23394 18213,-23594 18179,-23349"
	stroke="#000000" stroke-width="15px" stroke-miterlimit="8"/>
<!-- Line -->
<defs>
<clipPath id="cp17">
	<path clip-rule="evenodd" d="M 5603,-24997 H 19597 V -11003 H 5603 z
		M 16732,-22935 16865,-23144 16846,-22897 16888,-23182 16868,-23188z"/>
</clipPath>
</defs>
<polyline points=" 16425,-21825 16875,-23175" clip-path="url(#cp17)"
	stroke="#000000" stroke-width="15px"/>
<!-- Forward arrow to point 16875,-23175 -->
<polyline points=" 16732,-22935 16865,-23144 16846,-22897"
	stroke="#000000" stroke-width="15px" stroke-miterlimit="8"/>
<!-- Line -->
<defs>
<clipPath id="cp18">
	<path clip-rule="evenodd" d="M 5603,-24997 H 19597 V -11003 H 5603 z
		M 15695,-22717 15943,-22717 15725,-22601 15988,-22717 15983,-22738z"/>
</clipPath>
</defs>
<polyline points=" 14175,-22275 15975,-22725" clip-path="url(#cp18)"
	stroke="#000000" stroke-width="15px"/>
<!-- Forward arrow to point 15975,-22725 -->
<polyline points=" 15695,-22717 15943,-22717 15725,-22601"
	stroke="#000000" stroke-width="15px" stroke-miterlimit="8"/>
<!-- Line -->
<defs>
<clipPath id="cp19">
	<path clip-rule="evenodd" d="M 5603,-24997 H 19597 V -11003 H 5603 z
		M 15695,-22717 15943,-22717 15725,-22601 15988,-22717 15983,-22738z
		M 6353,-11504 6106,-11485 6315,-11618 6062,-11482 6068,-11462z"/>
</clipPath>
</defs>
<polyline points=" 6075,-11475 7425,-11925" clip-path="url(#cp19)"
	stroke="#000000" stroke-width="15px"/>
<!-- Backward arrow to point 6075,-11475 -->
<polyline points=" 6353,-11504 6106,-11485 6315,-11618"
	stroke="#000000" stroke-width="15px" stroke-miterlimit="8"/>
<!-- Line -->
<defs>
<clipPath id="cp20">
	<path clip-rule="evenodd" d="M 5603,-24997 H 19597 V -11003 H 5603 z
		M 15695,-22717 15943,-22717 15725,-22601 15988,-22717 15983,-22738z
		M 10396,-12443 10155,-12390 10342,-12551 10111,-12380 10120,-12361z"/>
</clipPath>
</defs>
<polyline points=" 10125,-12375 11025,-12825" clip-path="url(#cp20)"
	stroke="#000000" stroke-width="15px"/>
<!-- Backward arrow to point 10125,-12375 -->
<polyline points=" 10396,-12443 10155,-12390 10342,-12551"
	stroke="#000000" stroke-width="15px" stroke-miterlimit="8"/>
<!-- Line -->
<defs>
<clipPath id="cp21">
	<path clip-rule="evenodd" d="M 5603,-24997 H 19597 V -11003 H 5603 z
		M 15695,-22717 15943,-22717 15725,-22601 15988,-22717 15983,-22738z
		M 6173,-11737 6080,-11508 6054,-11754 6063,-11466 6084,-11463z"/>
</clipPath>
</defs>
<polyline points=" 6075,-11475 6525,-14625" clip-path="url(#cp21)"
	stroke="#000000" stroke-width="15px"/>
<!-- Backward arrow to point 6075,-11475 -->
<polyline points=" 6173,-11737 6080,-11508 6054,-11754"
	stroke="#000000" stroke-width="15px" stroke-miterlimit="8"/>
<!-- Line -->
<defs>
<clipPath id="cp22">
	<path clip-rule="evenodd" d="M 5603,-24997 H 19597 V -11003 H 5603 z
		M 15695,-22717 15943,-22717 15725,-22601 15988,-22717 15983,-22738z
		M 6649,-14875 6533,-14657 6533,-14905 6512,-14617 6533,-14612z"/>
</clipPath>
</defs>
<polyline points=" 6525,-14625 6975,-16425" clip-path="url(#cp22)"
	stroke="#000000" stroke-width="15px"/>
<!-- Backward arrow to point 6525,-14625 -->
<polyline points=" 6649,-14875 6533,-14657 6533,-14905"
	stroke="#000000" stroke-width="15px" stroke-miterlimit="8"/>
<!-- Line -->
<defs>
<clipPath id="cp23">
	<path clip-rule="evenodd" d="M 5603,-24997 H 19597 V -11003 H 5603 z
		M 15695,-22717 15943,-22717 15725,-22601 15988,-22717 15983,-22738z
		M 7568,-12165 7435,-11956 7454,-12203 7412,-11918 7432,-11912z"/>
</clipPath>
</defs>
<polyline points=" 7425,-11925 7875,-13275" clip-path="url(#cp23)"
	stroke="#000000" stroke-width="15px"/>
<!-- Backward arrow to point 7425,-11925 -->
<polyline points=" 7568,-12165 7435,-11956 7454,-12203"
	stroke="#000000" stroke-width="15px" stroke-miterlimit="8"/>
<!-- Line -->
<defs>
<clipPath id="cp24">
	<path clip-rule="evenodd" d="M 5603,-24997 H 19597 V -11003 H 5603 z
		M 15695,-22717 15943,-22717 15725,-22601 15988,-22717 15983,-22738z
		M 8596,-15143 8355,-15090 8542,-15251 8311,-15080 8320,-15061z"/>
</clipPath>
</defs>
<polyline points=" 8325,-15075 9225,-15525" clip-path="url(#cp24)"
	stroke="#000000" stroke-width="15px"/>
<!-- Backward arrow to point 8325,-15075 -->
<polyline points=" 8596,-15143 8355,-15090 8542,-15251"
	stroke="#000000" stroke-width="15px" stroke-miterlimit="8"/>
<!-- Line -->
<defs>
<clipPath id="cp25">
	<path clip-rule="evenodd" d="M 5603,-24997 H 19597 V -11003 H 5603 z
		M 15695,-22717 15943,-22717 15725,-22601 15988,-22717 15983,-22738z
		M 8155,-13283 7907,-13283 8125,-13399 7862,-13283 7867,-13262z"/>
</clipPath>
</defs>
<polyline points=" 7875,-13275 9675,-13725" clip-path="url(#cp25)"
	stroke="#000000" stroke-width="15px"/>
<!-- Backward arrow to point 7875,-13275 -->
<polyline points=" 8155,-13283 7907,-13283 8125,-13399"
	stroke="#000000" stroke-width="15px" stroke-miterlimit="8"/>
<!-- Line -->
<defs>
<clipPath id="cp26">
	<path clip-rule="evenodd" d="M 5603,-24997 H 19597 V -11003 H 5603 z
		M 15695,-22717 15943,-22717 15725,-22601 15988,-22717 15983,-22738z
		M 8111,-13426 7898,-13298 8026,-13511 7860,-13275 7875,-13260z"/>
</clipPath>
</defs>
<polyline points=" 7875,-13275 8775,-14175" clip-path="url(#cp26)"
	stroke="#000000" stroke-width="15px"/>
<!-- Backward arrow to point 7875,-13275 -->
<polyline points=" 8111,-13426 7898,-13298 8026,-13511"
	stroke="#000000" stroke-width="15px" stroke-miterlimit="8"/>
<!-- Line -->
<defs>
<clipPath id="cp27">
	<path clip-rule="evenodd" d="M 5603,-24997 H 19597 V -11003 H 5603 z
		M 15695,-22717 15943,-22717 15725,-22601 15988,-22717 15983,-22738z
		M 7704,-11911 7458,-11930 7685,-12029 7413,-11934 7416,-11913z"/>
</clipPath>
</defs>
<polyline points=" 7425,-11925 10125,-12375" clip-path="url(#cp27)"
	stroke="#000000" stroke-width="15px"/>
<!-- Backward arrow to point 7425,-11925 -->
<polyline points=" 7704,-11911 7458,-11930 7685,-12029"
	stroke="#000000" stroke-width="15px" stroke-miterlimit="8"/>
<!-- Line -->
<defs>
<clipPath id="cp28">
	<path clip-rule="evenodd" d="M 5603,-24997 H 19597 V -11003 H 5603 z
		M 15695,-22717 15943,-22717 15725,-22601 15988,-22717 15983,-22738z
		M 6805,-14633 6557,-14633 6775,-14749 6512,-14633 6517,-14612z"/>
</clipPath>
</defs>
<polyline points=" 6525,-14625 8325,-15075" clip-path="url(#cp28)"
	stroke="#000000" stroke-width="15px"/>
<!-- Backward arrow to point 6525,-14625 -->
<polyline points=" 6805,-14633 6557,-14633 6775,-14749"
	stroke="#000000" stroke-width="15px" stroke-miterlimit="8"/>
<!-- Line -->
<defs>
<clipPath id="cp29">
	<path clip-rule="evenodd" d="M 5603,-24997 H 19597 V -11003 H 5603 z
		M 15695,-22717 15943,-22717 15725,-22601 15988,-22717 15983,-22738z
		M 7253,-16392 7008,-16428 7241,-16512 6964,-16434 6966,-16414z"/>
</clipPath>
</defs>
<polyline points=" 6975,-16425 11475,-16875" clip-path="url(#cp29)"
	stroke="#000000" stroke-width="15px"/>
<!-- Backward arrow to point 6975,-16425 -->
<polyline points=" 7253,-16392 7008,-16428 7241,-16512"
	stroke="#000000" stroke-width="15px" stroke-miterlimit="8"/>
<!-- Line -->
<defs>
<clipPath id="cp30">
	<path clip-rule="evenodd" d="M 5603,-24997 H 19597 V -11003 H 5603 z
		M 17961,-16068 18192,-15979 17947,-15949 18234,-15963 18237,-15984z
		M 7253,-16392 7008,-16428 7241,-16512 6964,-16434 6966,-16414z"/>
</clipPath>
</defs>
<polyline points=" 14625,-16425 18225,-15975" clip-path="url(#cp30)"
	stroke="#000000" stroke-width="15px"/>
<!-- Forward arrow to point 18225,-15975 -->
<polyline points=" 17961,-16068 18192,-15979 17947,-15949"
	stroke="#000000" stroke-width="15px" stroke-miterlimit="8"/>
<!-- Line -->
<defs>
<clipPath id="cp31">
	<path clip-rule="evenodd" d="M 5603,-24997 H 19597 V -11003 H 5603 z
		M 17961,-16068 18192,-15979 17947,-15949 18234,-15963 18237,-15984z
		M 9503,-15554 9256,-15535 9465,-15668 9212,-15532 9218,-15512z"/>
</clipPath>
</defs>
<polyline points=" 9225,-15525 10575,-15975" clip-path="url(#cp31)"
	stroke="#000000" stroke-width="15px"/>
<!-- Backward arrow to point 9225,-15525 -->
<polyline points=" 9503,-15554 9256,-15535 9465,-15668"
	stroke="#000000" stroke-width="15px" stroke-miterlimit="8"/>
<!-- Line -->
<defs>
<clipPath id="cp32">
	<path clip-rule="evenodd" d="M 5603,-24997 H 19597 V -11003 H 5603 z
		M 17961,-16068 18192,-15979 17947,-15949 18234,-15963 18237,-15984z
		M 7239,-23982 7008,-24071 7253,-24101 6966,-24087 6963,-24066z"/>
</clipPath>
</defs>
<polyline points=" 6975,-24075 10575,-23625" clip-path="url(#cp32)"
	stroke="#000000" stroke-width="15px"/>
<!-- Backward arrow to point 6975,-24075 -->
<polyline points=" 7239,-23982 7008,-24071 7253,-24101"
	stroke="#000000" stroke-width="15px" stroke-miterlimit="8"/>
<!-- Line -->
<defs>
<clipPath id="cp33">
	<path clip-rule="evenodd" d="M 5603,-24997 H 19597 V -11003 H 5603 z
		M 17961,-16068 18192,-15979 17947,-15949 18234,-15963 18237,-15984z
		M 7206,-23918 7006,-24063 7251,-24029 6969,-24089 6961,-24069z"/>
</clipPath>
</defs>
<polyline points=" 6975,-24075 9225,-23175" clip-path="url(#cp33)"
	stroke="#000000" stroke-width="15px"/>
<!-- Backward arrow to point 6975,-24075 -->
<polyline points=" 7206,-23918 7006,-24063 7251,-24029"
	stroke="#000000" stroke-width="15px" stroke-miterlimit="8"/>
<!-- Line -->
<defs>
<clipPath id="cp34">
	<path clip-rule="evenodd" d="M 5603,-24997 H 19597 V -11003 H 5603 z
		M 17961,-16068 18192,-15979 17947,-15949 18234,-15963 18237,-15984z
		M 7126,-23839 6998,-24052 7211,-23924 6975,-24090 6960,-24075z"/>
</clipPath>
</defs>
<polyline points=" 6975,-24075 8325,-22725" clip-path="url(#cp34)"
	stroke="#000000" stroke-width="15px"/>
<!-- Backward arrow to point 6975,-24075 -->
<polyline points=" 7126,-23839 6998,-24052 7211,-23924"
	stroke="#000000" stroke-width="15px" stroke-miterlimit="8"/>
<!-- Line -->
<defs>
<clipPath id="cp35">
	<path clip-rule="evenodd" d="M 5603,-24997 H 19597 V -11003 H 5603 z
		M 17961,-16068 18192,-15979 17947,-15949 18234,-15963 18237,-15984z
		M 6676,-22039 6548,-22252 6761,-22124 6525,-22290 6510,-22275z"/>
</clipPath>
</defs>
<polyline points=" 6525,-22275 7875,-20925" clip-path="url(#cp35)"
	stroke="#000000" stroke-width="15px"/>
<!-- Backward arrow to point 6525,-22275 -->
<polyline points=" 6676,-22039 6548,-22252 6761,-22124"
	stroke="#000000" stroke-width="15px" stroke-miterlimit="8"/>
<!-- Line -->
<defs>
<clipPath id="cp36">
	<path clip-rule="evenodd" d="M 5603,-24997 H 19597 V -11003 H 5603 z
		M 17961,-16068 18192,-15979 17947,-15949 18234,-15963 18237,-15984z
		M 6554,-21997 6535,-22244 6668,-22035 6532,-22288 6512,-22282z"/>
</clipPath>
</defs>
<polyline points=" 6525,-22275 7425,-19575" clip-path="url(#cp36)"
	stroke="#000000" stroke-width="15px"/>
<!-- Backward arrow to point 6525,-22275 -->
<polyline points=" 6554,-21997 6535,-22244 6668,-22035"
	stroke="#000000" stroke-width="15px" stroke-miterlimit="8"/>
<!-- Line -->
<defs>
<clipPath id="cp37">
	<path clip-rule="evenodd" d="M 5603,-24997 H 19597 V -11003 H 5603 z
		M 17961,-16068 18192,-15979 17947,-15949 18234,-15963 18237,-15984z
		M 8992,-21649 8805,-21810 9046,-21757 8770,-21839 8761,-21820z"/>
</clipPath>
</defs>
<polyline points=" 8775,-21825 9675,-21375" clip-path="url(#cp37)"
	stroke="#000000" stroke-width="15px"/>
<!-- Backward arrow to point 8775,-21825 -->
<polyline points=" 8992,-21649 8805,-21810 9046,-21757"
	stroke="#000000" stroke-width="15px" stroke-miterlimit="8"/>
<!-- Line -->
<defs>
<clipPath id="cp38">
	<path clip-rule="evenodd" d="M 5603,-24997 H 19597 V -11003 H 5603 z
		M 17961,-16068 18192,-15979 17947,-15949 18234,-15963 18237,-15984z
		M 8137,-20827 7908,-20920 8154,-20946 7866,-20937 7863,-20916z"/>
</clipPath>
</defs>
<polyline points=" 7875,-20925 11025,-20475" clip-path="url(#cp38)"
	stroke="#000000" stroke-width="15px"/>
<!-- Backward arrow to point 7875,-20925 -->
<polyline points=" 8137,-20827 7908,-20920 8154,-20946"
	stroke="#000000" stroke-width="15px" stroke-miterlimit="8"/>
<!-- Line -->
<defs>
<clipPath id="cp39">
	<path clip-rule="evenodd" d="M 5603,-24997 H 19597 V -11003 H 5603 z
		M 17961,-16068 18192,-15979 17947,-15949 18234,-15963 18237,-15984z
		M 8106,-20768 7906,-20913 8151,-20879 7869,-20939 7861,-20919z"/>
</clipPath>
</defs>
<polyline points=" 7875,-20925 10125,-20025" clip-path="url(#cp39)"
	stroke="#000000" stroke-width="15px"/>
<!-- Backward arrow to point 7875,-20925 -->
<polyline points=" 8106,-20768 7906,-20913 8151,-20879"
	stroke="#000000" stroke-width="15px" stroke-miterlimit="8"/>
<!-- Line -->
<defs>
<clipPath id="cp40">
	<path clip-rule="evenodd" d="M 5603,-24997 H 19597 V -11003 H 5603 z
		M 17961,-16068 18192,-15979 17947,-15949 18234,-15963 18237,-15984z
		M 6781,-22163 6557,-22269 6805,-22280 6517,-22287 6513,-22267z"/>
</clipPath>
</defs>
<polyline points=" 6525,-22275 8775,-21825" clip-path="url(#cp40)"
	stroke="#000000" stroke-width="15px"/>
<!-- Backward arrow to point 6525,-22275 -->
<polyline points=" 6781,-22163 6557,-22269 6805,-22280"
	stroke="#000000" stroke-width="15px" stroke-miterlimit="8"/>
<!-- Text -->
<text xml:space="preserve" x="13500" y="-12780" fill="#000000" font-family="Helvetica Narrow" font-style="normal" font-weight="normal" font-size="432" text-anchor="start">ANB</text>
<!-- Text -->
<text xml:space="preserve" x="13500" y="-20700" fill="#000000" font-family="Helvetica Narrow" font-style="normal" font-weight="normal" font-size="432" text-anchor="start">ANA</text>
<!-- Text -->
<text xml:space="preserve" x="11700" y="-14400" fill="#000000" font-family="Helvetica Narrow" font-style="normal" font-weight="normal" font-size="432" text-anchor="end">BNB</text>
<!-- Text -->
<text xml:space="preserve" x="11700" y="-22050" fill="#000000" font-family="Helvetica Narrow" font-style="normal" font-weight="normal" font-size="432" text-anchor="end">BNA</text>
</g>
</svg>
