<?xml version="1.0" encoding="UTF-8" standalone="no"?>
<!-- Creator: fig2dev Version 3.2.9 -->
<!-- CreationDate: 2026-03-17 16:02:00 -->
<!-- Magnification: 1.05 -->
<svg	xmlns="http://www.w3.org/2000/svg"
	xmlns:xlink="http://www.w3.org/1999/xlink"
	width="1045pt" height="1028pt"
	viewBox="86 -18912 16576 16317">
<g fill="none">
<!-- Text -->
<text xml:space="preserve" x="540" y="-11160" fill="#000000" font-family="Helvetica Narrow" font-style="normal" font-weight="normal" font-size="384" text-anchor="end">8</text>
<!-- Text -->
<text xml:space="preserve" x="540" y="-7560" fill="#000000" font-family="Helvetica Narrow" font-style="normal" font-weight="normal" font-size="384" text-anchor="end">4</text>
<!-- Text -->
<text xml:space="preserve" x="540" y="-14760" fill="#000000" font-family="Helvetica Narrow" font-style="normal" font-weight="normal" font-size="384" text-anchor="end">12</text>
<!-- Text -->
<text xml:space="preserve" x="540" y="-3960" fill="#000000" font-family="Helvetica Narrow" font-style="normal" font-weight="normal" font-size="384" text-anchor="end">0</text>
<!-- Text -->
<text xml:space="preserve" x="540" y="-18360" fill="#000000" font-family="Helvetica Narrow" font-style="normal" font-weight="normal" font-size="384" text-anchor="end">16</text>
<!-- Line -->
<polyline points=" 675,-3150 16650,-3150"
	stroke="#000000" stroke-width="8px" stroke-dasharray="10 30"/>
<!-- Line -->
<polyline points=" 900,-2925 900,-18900"
	stroke="#000000" stroke-width="8px" stroke-dasharray="10 30"/>
<!-- Line -->
<polyline points=" 1035,-3285 1665,-3915"
	stroke="#000000" stroke-width="15px" stroke-dasharray="60 60"/>
<!-- Line -->
<polyline points=" 2700,-2925 2700,-18900"
	stroke="#000000" stroke-width="8px" stroke-dasharray="10 30"/>
<!-- Line -->
<polyline points=" 3600,-2925 3600,-18900"
	stroke="#000000" stroke-width="8px" stroke-dasharray="10 30"/>
<!-- Line -->
<polyline points=" 4500,-2925 4500,-18900"
	stroke="#000000" stroke-width="8px" stroke-dasharray="10 30"/>
<!-- Line -->
<polyline points=" 6300,-2925 6300,-18900"
	stroke="#000000" stroke-width="8px" stroke-dasharray="10 30"/>
<!-- Line -->
<polyline points=" 7200,-2925 7200,-18900"
	stroke="#000000" stroke-width="8px" stroke-dasharray="10 30"/>
<!-- Line -->
<polyline points=" 8100,-2925 8100,-18900"
	stroke="#000000" stroke-width="8px" stroke-dasharray="10 30"/>
<!-- Line -->
<polyline points=" 9900,-2925 9900,-18900"
	stroke="#000000" stroke-width="8px" stroke-dasharray="10 30"/>
<!-- Line -->
<polyline points=" 13500,-2925 13500,-18900"
	stroke="#000000" stroke-width="8px" stroke-dasharray="10 30"/>
<!-- Line -->
<polyline points=" 15300,-2925 15300,-18900"
	stroke="#000000" stroke-width="8px" stroke-dasharray="10 30"/>
<!-- Line -->
<polyline points=" 16200,-2925 16200,-18900"
	stroke="#000000" stroke-width="8px" stroke-dasharray="10 30"/>
<!-- Line -->
<polyline points=" 675,-4050 16650,-4050"
	stroke="#000000" stroke-width="8px" stroke-dasharray="10 30"/>
<!-- Line -->
<polyline points=" 675,-4950 16650,-4950"
	stroke="#000000" stroke-width="8px" stroke-dasharray="10 30"/>
<!-- Line -->
<polyline points=" 675,-5850 16650,-5850"
	stroke="#000000" stroke-width="8px" stroke-dasharray="10 30"/>
<!-- Line -->
<polyline points=" 675,-6750 16650,-6750"
	stroke="#000000" stroke-width="8px" stroke-dasharray="10 30"/>
<!-- Line -->
<polyline points=" 675,-7650 16650,-7650"
	stroke="#000000" stroke-width="8px" stroke-dasharray="10 30"/>
<!-- Line -->
<polyline points=" 675,-8550 16650,-8550"
	stroke="#000000" stroke-width="8px" stroke-dasharray="10 30"/>
<!-- Line -->
<polyline points=" 675,-9450 16650,-9450"
	stroke="#000000" stroke-width="8px" stroke-dasharray="10 30"/>
<!-- Line -->
<polyline points=" 675,-10350 16650,-10350"
	stroke="#000000" stroke-width="8px" stroke-dasharray="10 30"/>
<!-- Line -->
<polyline points=" 675,-11250 16650,-11250"
	stroke="#000000" stroke-width="8px" stroke-dasharray="10 30"/>
<!-- Line -->
<polyline points=" 675,-12150 16650,-12150"
	stroke="#000000" stroke-width="8px" stroke-dasharray="10 30"/>
<!-- Line -->
<polyline points=" 675,-13050 16650,-13050"
	stroke="#000000" stroke-width="8px" stroke-dasharray="10 30"/>
<!-- Line -->
<polyline points=" 675,-13950 16650,-13950"
	stroke="#000000" stroke-width="8px" stroke-dasharray="10 30"/>
<!-- Line -->
<polyline points=" 675,-14850 16650,-14850"
	stroke="#000000" stroke-width="8px" stroke-dasharray="10 30"/>
<!-- Line -->
<polyline points=" 675,-15750 16650,-15750"
	stroke="#000000" stroke-width="8px" stroke-dasharray="10 30"/>
<!-- Line -->
<polyline points=" 675,-16650 16650,-16650"
	stroke="#000000" stroke-width="8px" stroke-dasharray="10 30"/>
<!-- Line -->
<polyline points=" 675,-17550 16650,-17550"
	stroke="#000000" stroke-width="8px" stroke-dasharray="10 30"/>
<!-- Line -->
<polyline points=" 675,-18450 16650,-18450"
	stroke="#000000" stroke-width="8px" stroke-dasharray="10 30"/>
<!-- Line -->
<polyline points=" 5580,-16740 15975,-18450"
	stroke="#000000" stroke-width="15px" stroke-dasharray="60 60"/>
<!-- Line -->
<polyline points=" 10935,-15840 16020,-18360"
	stroke="#000000" stroke-width="15px" stroke-dasharray="60 60"/>
<!-- Line -->
<polyline points=" 11745,-9630 16065,-18315"
	stroke="#000000" stroke-width="15px" stroke-dasharray="60 60"/>
<!-- Line -->
<polyline points=" 12645,-8730 16110,-18270"
	stroke="#000000" stroke-width="15px" stroke-dasharray="60 60"/>
<!-- Line -->
<polyline points=" 14400,-6975 16200,-18225"
	stroke="#000000" stroke-width="15px" stroke-dasharray="60 60"/>
<!-- Line -->
<polyline points=" 15300,-6075 16200,-18225"
	stroke="#000000" stroke-width="15px" stroke-dasharray="60 60"/>
<!-- Line -->
<polyline points=" 4680,-17640 16020,-18540"
	stroke="#000000" stroke-width="15px" stroke-dasharray="60 60"/>
<!-- Line -->
<polyline points=" 14400,-2925 14400,-18900"
	stroke="#000000" stroke-width="8px" stroke-dasharray="10 30"/>
<!-- Line -->
<polyline points=" 11700,-2925 11700,-18900"
	stroke="#000000" stroke-width="8px" stroke-dasharray="10 30"/>
<!-- Line -->
<defs>
<clipPath id="cp0">
	<path clip-rule="evenodd" d="M 86,-18912 H 16662 V -2595 H 86 z
		M 14913,-5687 14941,-5634 15144,-5752 15128,-5784z"/>
</clipPath>
</defs>
<polyline points=" 13725,-5040 15120,-5760" clip-path="url(#cp0)"
	stroke="#000000" stroke-width="30px"/>
<!-- Forward arrow to point 15120,-5760 -->
<polygon points=" 14941,-5634 15034,-5715 14913,-5687 14941,-5634"
	stroke="#000000" stroke-width="45px" stroke-miterlimit="8" fill="#000000"/>
<!-- Line -->
<defs>
<clipPath id="cp1">
	<path clip-rule="evenodd" d="M 86,-18912 H 16662 V -2595 H 86 z
		M 12156,-8450 12167,-8391 12396,-8446 12389,-8481z"/>
</clipPath>
</defs>
<polyline points=" 8280,-7695 12375,-8460" clip-path="url(#cp1)"
	stroke="#000000" stroke-width="30px"/>
<!-- Forward arrow to point 12375,-8460 -->
<polygon points=" 12167,-8391 12280,-8442 12156,-8450 12167,-8391"
	stroke="#000000" stroke-width="45px" stroke-miterlimit="8" fill="#000000"/>
<!-- Line -->
<defs>
<clipPath id="cp2">
	<path clip-rule="evenodd" d="M 86,-18912 H 16662 V -2595 H 86 z
		M 9636,-14581 9679,-14539 9835,-14715 9810,-14740z"/>
</clipPath>
</defs>
<polyline points=" 7380,-12240 9810,-14715" clip-path="url(#cp2)"
	stroke="#000000" stroke-width="30px"/>
<!-- Forward arrow to point 9810,-14715 -->
<polygon points=" 9679,-14539 9742,-14646 9636,-14581 9679,-14539"
	stroke="#000000" stroke-width="45px" stroke-miterlimit="8" fill="#000000"/>
<!-- Line -->
<defs>
<clipPath id="cp3">
	<path clip-rule="evenodd" d="M 86,-18912 H 16662 V -2595 H 86 z
		M 9457,-14787 9470,-14728 9697,-14791 9689,-14827z"/>
</clipPath>
</defs>
<polyline points=" 6480,-14085 9675,-14805" clip-path="url(#cp3)"
	stroke="#000000" stroke-width="30px"/>
<!-- Forward arrow to point 9675,-14805 -->
<polygon points=" 9470,-14728 9580,-14784 9457,-14787 9470,-14728"
	stroke="#000000" stroke-width="45px" stroke-miterlimit="8" fill="#000000"/>
<!-- Line -->
<defs>
<clipPath id="cp4">
	<path clip-rule="evenodd" d="M 86,-18912 H 16662 V -2595 H 86 z
		M 10445,-15438 10488,-15395 10645,-15570 10620,-15595z"/>
</clipPath>
</defs>
<polyline points=" 10035,-14985 10620,-15570" clip-path="url(#cp4)"
	stroke="#000000" stroke-width="30px"/>
<!-- Forward arrow to point 10620,-15570 -->
<polygon points=" 10488,-15395 10551,-15501 10445,-15438 10488,-15395"
	stroke="#000000" stroke-width="45px" stroke-miterlimit="8" fill="#000000"/>
<!-- Line -->
<defs>
<clipPath id="cp5">
	<path clip-rule="evenodd" d="M 86,-18912 H 16662 V -2595 H 86 z
		M 9870,-14464 9928,-14451 9966,-14684 9931,-14691z"/>
</clipPath>
</defs>
<polyline points=" 9045,-10530 9945,-14670" clip-path="url(#cp5)"
	stroke="#000000" stroke-width="30px"/>
<!-- Forward arrow to point 9945,-14670 -->
<polygon points=" 9928,-14451 9924,-14575 9870,-14464 9928,-14451"
	stroke="#000000" stroke-width="45px" stroke-miterlimit="8" fill="#000000"/>
<!-- Line -->
<defs>
<clipPath id="cp6">
	<path clip-rule="evenodd" d="M 86,-18912 H 16662 V -2595 H 86 z
		M 6801,-12093 6813,-12034 7041,-12091 7034,-12126z"/>
</clipPath>
</defs>
<polyline points=" 2835,-11295 7020,-12105" clip-path="url(#cp6)"
	stroke="#000000" stroke-width="30px"/>
<!-- Forward arrow to point 7020,-12105 -->
<polygon points=" 6813,-12034 6925,-12087 6801,-12093 6813,-12034"
	stroke="#000000" stroke-width="45px" stroke-miterlimit="8" fill="#000000"/>
<!-- Line -->
<defs>
<clipPath id="cp7">
	<path clip-rule="evenodd" d="M 86,-18912 H 16662 V -2595 H 86 z
		M 5860,-13865 5878,-13808 6098,-13894 6086,-13928z"/>
</clipPath>
</defs>
<polyline points=" 3780,-13140 6075,-13905" clip-path="url(#cp7)"
	stroke="#000000" stroke-width="30px"/>
<!-- Forward arrow to point 6075,-13905 -->
<polygon points=" 5878,-13808 5983,-13874 5860,-13865 5878,-13808"
	stroke="#000000" stroke-width="45px" stroke-miterlimit="8" fill="#000000"/>
<!-- Line -->
<polyline points=" 10800,-2925 10800,-18900"
	stroke="#000000" stroke-width="8px" stroke-dasharray="10 30"/>
<!-- Line -->
<defs>
<clipPath id="cp8">
	<path clip-rule="evenodd" d="M 86,-18912 H 16662 V -2595 H 86 z
		M 7715,-7392 7744,-7340 7934,-7466 7924,-7484z"/>
</clipPath>
</defs>
<polyline points=" 1890,-4185 7920,-7470" clip-path="url(#cp8)"
	stroke="#000000" stroke-width="15px"/>
<!-- Forward arrow to point 7920,-7470 -->
<polygon points=" 7744,-7340 7835,-7424 7715,-7392 7744,-7340"
	stroke="#000000" stroke-width="45px" stroke-miterlimit="8" fill="#000000"/>
<!-- Line -->
<defs>
<clipPath id="cp9">
	<path clip-rule="evenodd" d="M 86,-18912 H 16662 V -2595 H 86 z
		M 2598,-10858 2658,-10851 2667,-11079 2646,-11082z"/>
</clipPath>
</defs>
<polyline points=" 1800,-4275 2655,-11070" clip-path="url(#cp9)"
	stroke="#000000" stroke-width="15px"/>
<!-- Forward arrow to point 2655,-11070 -->
<polygon points=" 2658,-10851 2643,-10974 2598,-10858 2658,-10851"
	stroke="#000000" stroke-width="45px" stroke-miterlimit="8" fill="#000000"/>
<!-- Line -->
<defs>
<clipPath id="cp10">
	<path clip-rule="evenodd" d="M 86,-18912 H 16662 V -2595 H 86 z
		M 8859,-9928 8916,-9909 8968,-10132 8948,-10138z"/>
</clipPath>
</defs>
<polyline points=" 8190,-7785 8955,-10125" clip-path="url(#cp10)"
	stroke="#000000" stroke-width="15px"/>
<!-- Forward arrow to point 8955,-10125 -->
<polygon points=" 8916,-9909 8925,-10033 8859,-9928 8916,-9909"
	stroke="#000000" stroke-width="45px" stroke-miterlimit="8" fill="#000000"/>
<!-- Line -->
<defs>
<clipPath id="cp11">
	<path clip-rule="evenodd" d="M 86,-18912 H 16662 V -2595 H 86 z
		M 11444,-9209 11469,-9154 11669,-9265 11660,-9284z"/>
</clipPath>
</defs>
<polyline points=" 8325,-7785 11655,-9270" clip-path="url(#cp11)"
	stroke="#000000" stroke-width="15px"/>
<!-- Forward arrow to point 11655,-9270 -->
<polygon points=" 11469,-9154 11566,-9230 11444,-9209 11469,-9154"
	stroke="#000000" stroke-width="45px" stroke-miterlimit="8" fill="#000000"/>
<!-- Line -->
<defs>
<clipPath id="cp12">
	<path clip-rule="evenodd" d="M 86,-18912 H 16662 V -2595 H 86 z
		M 14148,-6385 14202,-6360 14279,-6575 14260,-6584z"/>
</clipPath>
</defs>
<polyline points=" 13590,-5085 14265,-6570" clip-path="url(#cp12)"
	stroke="#000000" stroke-width="15px"/>
<!-- Forward arrow to point 14265,-6570 -->
<polygon points=" 14202,-6360 14225,-6482 14148,-6385 14202,-6360"
	stroke="#000000" stroke-width="45px" stroke-miterlimit="8" fill="#000000"/>
<!-- Line -->
<defs>
<clipPath id="cp13">
	<path clip-rule="evenodd" d="M 86,-18912 H 16662 V -2595 H 86 z
		M 5184,-16336 5237,-16308 5324,-16520 5305,-16529z"/>
</clipPath>
</defs>
<polyline points=" 3600,-13185 5310,-16515" clip-path="url(#cp13)"
	stroke="#000000" stroke-width="15px"/>
<!-- Forward arrow to point 5310,-16515 -->
<polygon points=" 5237,-16308 5266,-16429 5184,-16336 5237,-16308"
	stroke="#000000" stroke-width="45px" stroke-miterlimit="8" fill="#000000"/>
<!-- Line -->
<defs>
<clipPath id="cp14">
	<path clip-rule="evenodd" d="M 86,-18912 H 16662 V -2595 H 86 z
		M 4380,-17119 4439,-17106 4467,-17333 4447,-17337z"/>
</clipPath>
</defs>
<polyline points=" 3600,-13320 4455,-17325" clip-path="url(#cp14)"
	stroke="#000000" stroke-width="15px"/>
<!-- Forward arrow to point 4455,-17325 -->
<polygon points=" 4439,-17106 4435,-17230 4380,-17119 4439,-17106"
	stroke="#000000" stroke-width="45px" stroke-miterlimit="8" fill="#000000"/>
<!-- Line -->
<polyline points=" 1800,-2925 1800,-18900"
	stroke="#000000" stroke-width="8px" stroke-dasharray="10 30"/>
<!-- Line -->
<polyline points=" 9000,-2925 9000,-18900"
	stroke="#000000" stroke-width="8px" stroke-dasharray="10 30"/>
<!-- Line -->
<polyline points=" 12600,-2925 12600,-18900"
	stroke="#000000" stroke-width="8px" stroke-dasharray="10 30"/>
<!-- Line -->
<polyline points=" 5400,-2925 5400,-18900"
	stroke="#000000" stroke-width="8px" stroke-dasharray="10 30"/>
<!-- Text -->
<text xml:space="preserve" x="5400" y="-2610" fill="#000000" font-family="Helvetica Narrow" font-style="normal" font-weight="normal" font-size="384" text-anchor="middle">4</text>
<!-- Text -->
<text xml:space="preserve" x="9000" y="-2610" fill="#000000" font-family="Helvetica Narrow" font-style="normal" font-weight="normal" font-size="384" text-anchor="middle">8</text>
<!-- Text -->
<text xml:space="preserve" x="12600" y="-2610" fill="#000000" font-family="Helvetica Narrow" font-style="normal" font-weight="normal" font-size="384" text-anchor="middle">12</text>
<!-- Text -->
<text xml:space="preserve" x="16200" y="-2610" fill="#000000" font-family="Helvetica Narrow" font-style="normal" font-weight="normal" font-size="384" text-anchor="middle">16</text>
<!-- Text -->
<text xml:space="preserve" x="1800" y="-2610" fill="#000000" font-family="Helvetica Narrow" font-style="normal" font-weight="normal" font-size="384" text-anchor="middle">0</text>
<!-- Circle -->
<circle cx="2700" cy="-11250" r="180"
	stroke="#000000" stroke-width="15px"/>
<!-- Circle -->
<circle cx="1800" cy="-4050" r="180"
	stroke="#000000" stroke-width="15px"/>
<!-- Circle -->
<circle cx="900" cy="-3150" r="180"
	stroke="#000000" stroke-width="15px" stroke-dasharray="60 60"/>
<!-- Circle -->
<circle cx="3600" cy="-13050" r="180"
	stroke="#000000" stroke-width="15px"/>
<!-- Circle -->
<circle cx="16200" cy="-18450" r="180"
	stroke="#000000" stroke-width="15px" stroke-dasharray="60 60"/>
<!-- Circle -->
<circle cx="4500" cy="-17550" r="180"
	stroke="#000000" stroke-width="15px"/>
<!-- Circle -->
<circle cx="5400" cy="-16650" r="180"
	stroke="#000000" stroke-width="15px"/>
<!-- Circle -->
<circle cx="6300" cy="-13950" r="180"
	stroke="#000000" stroke-width="15px"/>
<!-- Circle -->
<circle cx="7200" cy="-12150" r="180"
	stroke="#000000" stroke-width="15px"/>
<!-- Circle -->
<circle cx="9000" cy="-10350" r="180"
	stroke="#000000" stroke-width="15px"/>
<!-- Circle -->
<circle cx="8100" cy="-7650" r="180"
	stroke="#000000" stroke-width="15px"/>
<!-- Circle -->
<circle cx="10800" cy="-15750" r="180"
	stroke="#000000" stroke-width="15px"/>
<!-- Circle -->
<circle cx="11700" cy="-9450" r="180"
	stroke="#000000" stroke-width="15px"/>
<!-- Circle -->
<circle cx="9900" cy="-14850" r="180"
	stroke="#000000" stroke-width="15px"/>
<!-- Circle -->
<circle cx="12600" cy="-8550" r="180"
	stroke="#000000" stroke-width="15px"/>
<!-- Circle -->
<circle cx="13500" cy="-4950" r="180"
	stroke="#000000" stroke-width="15px"/>
<!-- Circle -->
<circle cx="14400" cy="-6750" r="180"
	stroke="#000000" stroke-width="15px"/>
<!-- Circle -->
<circle cx="15300" cy="-5850" r="180"
	stroke="#000000" stroke-width="15px"/>
<!-- Line -->
<defs>
<clipPath id="cp15">
	<path clip-rule="evenodd" d="M 86,-18912 H 16662 V -2595 H 86 z
		M 13011,-4918 13016,-4859 13249,-4888 13247,-4924z"/>
</clipPath>
</defs>
<polyline points=" 2025,-4050 13230,-4905" clip-path="url(#cp15)"
	stroke="#000000" stroke-width="30px"/>
<!-- Forward arrow to point 13230,-4905 -->
<polygon points=" 13016,-4859 13133,-4898 13011,-4918 13016,-4859"
	stroke="#000000" stroke-width="45px" stroke-miterlimit="8" fill="#000000"/>
<!-- Line -->
<defs>
<clipPath id="cp16">
	<path clip-rule="evenodd" d="M 86,-18912 H 16662 V -2595 H 86 z
		M 3381,-12648 3434,-12619 3524,-12829 3506,-12839z"/>
</clipPath>
</defs>
<polyline points=" 2790,-11475 3510,-12825" clip-path="url(#cp16)"
	stroke="#000000" stroke-width="15px"/>
<!-- Forward arrow to point 3510,-12825 -->
<polygon points=" 3434,-12619 3464,-12739 3381,-12648 3434,-12619"
	stroke="#000000" stroke-width="45px" stroke-miterlimit="8" fill="#000000"/>
</g>
</svg>
