<?xml version="1.0" encoding="UTF-8" standalone="no"?>
<!-- Creator: fig2dev Version 3.2.9 -->
<!-- CreationDate: 2026-03-17 16:05:34 -->
<!-- Magnification: 1.05 -->
<svg	xmlns="http://www.w3.org/2000/svg"
	xmlns:xlink="http://www.w3.org/1999/xlink"
	width="818pt" height="802pt"
	viewBox="91 -15312 12971 12717">
<g fill="none">
<!-- Line -->
<polyline points=" 12600,-2925 12600,-15300"
	stroke="#000000" stroke-width="8px" stroke-dasharray="10 30"/>
<!-- Line -->
<polyline points=" 675,-14850 13050,-14850"
	stroke="#000000" stroke-width="8px" stroke-dasharray="10 30"/>
<!-- Line -->
<polyline points=" 3780,-14040 12420,-14850"
	stroke="#000000" stroke-width="15px" stroke-dasharray="60 60"/>
<!-- Line -->
<polyline points=" 4680,-13140 12420,-14760"
	stroke="#000000" stroke-width="15px" stroke-dasharray="60 60"/>
<!-- Line -->
<polyline points=" 5580,-12240 12420,-14760"
	stroke="#000000" stroke-width="15px" stroke-dasharray="60 60"/>
<!-- Line -->
<polyline points=" 6480,-10530 12420,-14670"
	stroke="#000000" stroke-width="15px" stroke-dasharray="60 60"/>
<!-- Line -->
<polyline points=" 8190,-9630 12420,-14670"
	stroke="#000000" stroke-width="15px" stroke-dasharray="60 60"/>
<!-- Line -->
<polyline points=" 9090,-8730 12510,-14670"
	stroke="#000000" stroke-width="15px" stroke-dasharray="60 60"/>
<!-- Line -->
<polyline points=" 9990,-7830 12510,-14670"
	stroke="#000000" stroke-width="15px" stroke-dasharray="60 60"/>
<!-- Line -->
<polyline points=" 10890,-6930 12600,-14670"
	stroke="#000000" stroke-width="15px" stroke-dasharray="60 60"/>
<!-- Line -->
<polyline points=" 11700,-5220 12600,-14670"
	stroke="#000000" stroke-width="15px" stroke-dasharray="60 60"/>
<!-- Line -->
<polyline points=" 675,-13950 13050,-13950"
	stroke="#000000" stroke-width="8px" stroke-dasharray="10 30"/>
<!-- Line -->
<polyline points=" 675,-13050 13050,-13050"
	stroke="#000000" stroke-width="8px" stroke-dasharray="10 30"/>
<!-- Line -->
<polyline points=" 675,-12150 13050,-12150"
	stroke="#000000" stroke-width="8px" stroke-dasharray="10 30"/>
<!-- Line -->
<polyline points=" 675,-11250 13050,-11250"
	stroke="#000000" stroke-width="8px" stroke-dasharray="10 30"/>
<!-- Line -->
<polyline points=" 675,-10350 13050,-10350"
	stroke="#000000" stroke-width="8px" stroke-dasharray="10 30"/>
<!-- Line -->
<polyline points=" 675,-9450 13050,-9450"
	stroke="#000000" stroke-width="8px" stroke-dasharray="10 30"/>
<!-- Line -->
<polyline points=" 675,-8550 13050,-8550"
	stroke="#000000" stroke-width="8px" stroke-dasharray="10 30"/>
<!-- Line -->
<polyline points=" 675,-7650 13050,-7650"
	stroke="#000000" stroke-width="8px" stroke-dasharray="10 30"/>
<!-- Line -->
<polyline points=" 675,-6750 13050,-6750"
	stroke="#000000" stroke-width="8px" stroke-dasharray="10 30"/>
<!-- Line -->
<polyline points=" 675,-5850 13050,-5850"
	stroke="#000000" stroke-width="8px" stroke-dasharray="10 30"/>
<!-- Line -->
<polyline points=" 675,-4950 13050,-4950"
	stroke="#000000" stroke-width="8px" stroke-dasharray="10 30"/>
<!-- Line -->
<polyline points=" 675,-4050 13050,-4050"
	stroke="#000000" stroke-width="8px" stroke-dasharray="10 30"/>
<!-- Line -->
<polyline points=" 675,-3150 13050,-3150"
	stroke="#000000" stroke-width="8px" stroke-dasharray="10 30"/>
<!-- Line -->
<polyline points=" 11700,-2925 11700,-15300"
	stroke="#000000" stroke-width="8px" stroke-dasharray="10 30"/>
<!-- Line -->
<polyline points=" 10800,-2925 10800,-15300"
	stroke="#000000" stroke-width="8px" stroke-dasharray="10 30"/>
<!-- Line -->
<polyline points=" 9900,-2925 9900,-15300"
	stroke="#000000" stroke-width="8px" stroke-dasharray="10 30"/>
<!-- Line -->
<polyline points=" 9000,-2925 9000,-15300"
	stroke="#000000" stroke-width="8px" stroke-dasharray="10 30"/>
<!-- Line -->
<polyline points=" 8100,-2925 8100,-15300"
	stroke="#000000" stroke-width="8px" stroke-dasharray="10 30"/>
<!-- Line -->
<polyline points=" 7200,-2925 7200,-15300"
	stroke="#000000" stroke-width="8px" stroke-dasharray="10 30"/>
<!-- Line -->
<polyline points=" 6300,-2925 6300,-15300"
	stroke="#000000" stroke-width="8px" stroke-dasharray="10 30"/>
<!-- Line -->
<polyline points=" 5400,-2925 5400,-15300"
	stroke="#000000" stroke-width="8px" stroke-dasharray="10 30"/>
<!-- Line -->
<polyline points=" 4500,-2925 4500,-15300"
	stroke="#000000" stroke-width="8px" stroke-dasharray="10 30"/>
<!-- Line -->
<polyline points=" 3600,-2925 3600,-15300"
	stroke="#000000" stroke-width="8px" stroke-dasharray="10 30"/>
<!-- Line -->
<polyline points=" 2700,-2925 2700,-15300"
	stroke="#000000" stroke-width="8px" stroke-dasharray="10 30"/>
<!-- Line -->
<polyline points=" 1800,-2925 1800,-15300"
	stroke="#000000" stroke-width="8px" stroke-dasharray="10 30"/>
<!-- Line -->
<polyline points=" 900,-2925 900,-15300"
	stroke="#000000" stroke-width="8px" stroke-dasharray="10 30"/>
<!-- Line -->
<polyline points=" 1035,-3285 1665,-3915"
	stroke="#000000" stroke-width="15px" stroke-dasharray="60 60"/>
<!-- Text -->
<text xml:space="preserve" x="2520" y="-11520" fill="#000000" font-family="Helvetica Narrow" font-style="normal" font-weight="normal" font-size="336" text-anchor="end">apple</text>
<!-- Text -->
<text xml:space="preserve" x="6120" y="-10530" fill="#000000" font-family="Helvetica Narrow" font-style="normal" font-weight="normal" font-size="336" text-anchor="end">grape</text>
<!-- Text -->
<text xml:space="preserve" x="7020" y="-6030" fill="#000000" font-family="Helvetica Narrow" font-style="normal" font-weight="normal" font-size="336" text-anchor="end">citrus</text>
<!-- Text -->
<text xml:space="preserve" x="11610" y="-5220" fill="#000000" font-family="Helvetica Narrow" font-style="normal" font-weight="normal" font-size="336" text-anchor="end">peach</text>
<!-- Text -->
<text xml:space="preserve" x="3600" y="-14310" fill="#000000" font-family="Helvetica Narrow" font-style="normal" font-weight="normal" font-size="336" text-anchor="middle">granny smith</text>
<!-- Text -->
<text xml:space="preserve" x="4500" y="-13320" fill="#000000" font-family="Helvetica Narrow" font-style="normal" font-weight="normal" font-size="336" text-anchor="middle">bramley</text>
<!-- Text -->
<text xml:space="preserve" x="5400" y="-12420" fill="#000000" font-family="Helvetica Narrow" font-style="normal" font-weight="normal" font-size="336" text-anchor="middle">fuji</text>
<!-- Text -->
<text xml:space="preserve" x="8100" y="-9720" fill="#000000" font-family="Helvetica Narrow" font-style="normal" font-weight="normal" font-size="336" text-anchor="middle">orange</text>
<!-- Text -->
<text xml:space="preserve" x="9000" y="-8820" fill="#000000" font-family="Helvetica Narrow" font-style="normal" font-weight="normal" font-size="336" text-anchor="middle">grapefruit</text>
<!-- Text -->
<text xml:space="preserve" x="9900" y="-7920" fill="#000000" font-family="Helvetica Narrow" font-style="normal" font-weight="normal" font-size="336" text-anchor="middle">lemon</text>
<!-- Text -->
<text xml:space="preserve" x="10800" y="-7020" fill="#000000" font-family="Helvetica Narrow" font-style="normal" font-weight="normal" font-size="336" text-anchor="middle">lime</text>
<!-- Text -->
<text xml:space="preserve" x="1710" y="-4320" fill="#000000" font-family="Helvetica Narrow" font-style="normal" font-weight="normal" font-size="336" text-anchor="end">fruit</text>
<!-- Text -->
<text xml:space="preserve" x="540" y="-11160" fill="#000000" font-family="Helvetica Narrow" font-style="normal" font-weight="normal" font-size="384" text-anchor="end">8</text>
<!-- Text -->
<text xml:space="preserve" x="540" y="-7560" fill="#000000" font-family="Helvetica Narrow" font-style="normal" font-weight="normal" font-size="384" text-anchor="end">4</text>
<!-- Text -->
<text xml:space="preserve" x="540" y="-14760" fill="#000000" font-family="Helvetica Narrow" font-style="normal" font-weight="normal" font-size="384" text-anchor="end">12</text>
<!-- Text -->
<text xml:space="preserve" x="540" y="-3960" fill="#000000" font-family="Helvetica Narrow" font-style="normal" font-weight="normal" font-size="384" text-anchor="end">0</text>
<!-- Text -->
<text xml:space="preserve" x="1800" y="-2610" fill="#000000" font-family="Helvetica Narrow" font-style="normal" font-weight="normal" font-size="384" text-anchor="middle">0</text>
<!-- Text -->
<text xml:space="preserve" x="5400" y="-2610" fill="#000000" font-family="Helvetica Narrow" font-style="normal" font-weight="normal" font-size="384" text-anchor="middle">4</text>
<!-- Text -->
<text xml:space="preserve" x="9000" y="-2610" fill="#000000" font-family="Helvetica Narrow" font-style="normal" font-weight="normal" font-size="384" text-anchor="middle">8</text>
<!-- Text -->
<text xml:space="preserve" x="12600" y="-2610" fill="#000000" font-family="Helvetica Narrow" font-style="normal" font-weight="normal" font-size="384" text-anchor="middle">12</text>
<!-- Circle -->
<circle cx="2700" cy="-11250" r="180"
	stroke="#000000" stroke-width="15px"/>
<!-- Circle -->
<circle cx="3600" cy="-13950" r="180"
	stroke="#000000" stroke-width="15px"/>
<!-- Circle -->
<circle cx="4500" cy="-13050" r="180"
	stroke="#000000" stroke-width="15px"/>
<!-- Circle -->
<circle cx="5400" cy="-12150" r="180"
	stroke="#000000" stroke-width="15px"/>
<!-- Circle -->
<circle cx="6300" cy="-10350" r="180"
	stroke="#000000" stroke-width="15px"/>
<!-- Circle -->
<circle cx="11700" cy="-4950" r="180"
	stroke="#000000" stroke-width="15px"/>
<!-- Circle -->
<circle cx="7200" cy="-5850" r="180"
	stroke="#000000" stroke-width="15px"/>
<!-- Circle -->
<circle cx="8100" cy="-9450" r="180"
	stroke="#000000" stroke-width="15px"/>
<!-- Circle -->
<circle cx="9000" cy="-8550" r="180"
	stroke="#000000" stroke-width="15px"/>
<!-- Circle -->
<circle cx="9900" cy="-7650" r="180"
	stroke="#000000" stroke-width="15px"/>
<!-- Circle -->
<circle cx="10800" cy="-6750" r="180"
	stroke="#000000" stroke-width="15px"/>
<!-- Circle -->
<circle cx="12600" cy="-14850" r="180"
	stroke="#000000" stroke-width="15px" stroke-dasharray="60 60"/>
<!-- Circle -->
<circle cx="1800" cy="-4050" r="180"
	stroke="#000000" stroke-width="15px"/>
<!-- Circle -->
<circle cx="900" cy="-3150" r="180"
	stroke="#000000" stroke-width="15px" stroke-dasharray="60 60"/>
<!-- Line -->
<defs>
<clipPath id="cp0">
	<path clip-rule="evenodd" d="M 91,-15312 H 13062 V -2595 H 91 z
		M 6804,-5721 6823,-5664 7033,-5753 7027,-5773z"/>
</clipPath>
</defs>
<polyline points=" 2008,-4120 7020,-5760" clip-path="url(#cp0)"
	stroke="#000000" stroke-width="15px"/>
<!-- Forward arrow to point 7020,-5760 -->
<polygon points=" 6823,-5664 6928,-5730 6804,-5721 6823,-5664"
	stroke="#000000" stroke-width="45px" stroke-miterlimit="8" fill="#000000"/>
<!-- Line -->
<defs>
<clipPath id="cp1">
	<path clip-rule="evenodd" d="M 91,-15312 H 13062 V -2595 H 91 z
		M 2643,-10768 2702,-10761 2712,-10989 2691,-10992z"/>
</clipPath>
</defs>
<polyline points=" 1846,-4287 2700,-10980" clip-path="url(#cp1)"
	stroke="#000000" stroke-width="15px"/>
<!-- Forward arrow to point 2700,-10980 -->
<polygon points=" 2702,-10761 2688,-10884 2643,-10768 2702,-10761"
	stroke="#000000" stroke-width="45px" stroke-miterlimit="8" fill="#000000"/>
<!-- Line -->
<defs>
<clipPath id="cp2">
	<path clip-rule="evenodd" d="M 91,-15312 H 13062 V -2595 H 91 z
		M 11211,-4959 11217,-4899 11441,-4941 11439,-4961z"/>
</clipPath>
</defs>
<polyline points=" 2025,-4050 11430,-4950" clip-path="url(#cp2)"
	stroke="#000000" stroke-width="15px"/>
<!-- Forward arrow to point 11430,-4950 -->
<polygon points=" 11217,-4899 11333,-4941 11211,-4959 11217,-4899"
	stroke="#000000" stroke-width="45px" stroke-miterlimit="8" fill="#000000"/>
<!-- Line -->
<defs>
<clipPath id="cp3">
	<path clip-rule="evenodd" d="M 91,-15312 H 13062 V -2595 H 91 z
		M 6060,-10011 6108,-9976 6225,-10172 6208,-10185z"/>
</clipPath>
</defs>
<polyline points=" 1980,-4230 6210,-10170" clip-path="url(#cp3)"
	stroke="#000000" stroke-width="15px"/>
<!-- Forward arrow to point 6210,-10170 -->
<polygon points=" 6108,-9976 6154,-10091 6060,-10011 6108,-9976"
	stroke="#000000" stroke-width="45px" stroke-miterlimit="8" fill="#000000"/>
<!-- Line -->
<defs>
<clipPath id="cp4">
	<path clip-rule="evenodd" d="M 91,-15312 H 13062 V -2595 H 91 z
		M 8679,-8202 8730,-8170 8834,-8373 8817,-8384z"/>
</clipPath>
</defs>
<polyline points=" 7355,-6048 8820,-8370" clip-path="url(#cp4)"
	stroke="#000000" stroke-width="15px"/>
<!-- Forward arrow to point 8820,-8370 -->
<polygon points=" 8730,-8170 8768,-8288 8679,-8202 8730,-8170"
	stroke="#000000" stroke-width="45px" stroke-miterlimit="8" fill="#000000"/>
<!-- Line -->
<defs>
<clipPath id="cp5">
	<path clip-rule="evenodd" d="M 91,-15312 H 13062 V -2595 H 91 z
		M 7925,-8978 7983,-8962 8023,-9187 8003,-9193z"/>
</clipPath>
</defs>
<polyline points=" 7192,-6126 8010,-9180" clip-path="url(#cp5)"
	stroke="#000000" stroke-width="15px"/>
<!-- Forward arrow to point 8010,-9180 -->
<polygon points=" 7983,-8962 7985,-9086 7925,-8978 7983,-8962"
	stroke="#000000" stroke-width="45px" stroke-miterlimit="8" fill="#000000"/>
<!-- Line -->
<defs>
<clipPath id="cp6">
	<path clip-rule="evenodd" d="M 91,-15312 H 13062 V -2595 H 91 z
		M 10312,-6635 10327,-6577 10543,-6652 10538,-6673z"/>
</clipPath>
</defs>
<polyline points=" 7509,-5886 10530,-6660" clip-path="url(#cp6)"
	stroke="#000000" stroke-width="15px"/>
<!-- Forward arrow to point 10530,-6660 -->
<polygon points=" 10327,-6577 10436,-6636 10312,-6635 10327,-6577"
	stroke="#000000" stroke-width="45px" stroke-miterlimit="8" fill="#000000"/>
<!-- Line -->
<defs>
<clipPath id="cp7">
	<path clip-rule="evenodd" d="M 91,-15312 H 13062 V -2595 H 91 z
		M 9522,-7377 9554,-7327 9735,-7467 9723,-7485z"/>
</clipPath>
</defs>
<polyline points=" 7419,-5976 9720,-7470" clip-path="url(#cp7)"
	stroke="#000000" stroke-width="15px"/>
<!-- Forward arrow to point 9720,-7470 -->
<polygon points=" 9554,-7327 9639,-7417 9522,-7377 9554,-7327"
	stroke="#000000" stroke-width="45px" stroke-miterlimit="8" fill="#000000"/>
<!-- Line -->
<defs>
<clipPath id="cp8">
	<path clip-rule="evenodd" d="M 91,-15312 H 13062 V -2595 H 91 z
		M 3411,-13484 3468,-13465 3523,-13687 3503,-13693z"/>
</clipPath>
</defs>
<polyline points=" 2751,-11457 3510,-13680" clip-path="url(#cp8)"
	stroke="#000000" stroke-width="15px"/>
<!-- Forward arrow to point 3510,-13680 -->
<polygon points=" 3468,-13465 3479,-13588 3411,-13484 3468,-13465"
	stroke="#000000" stroke-width="45px" stroke-miterlimit="8" fill="#000000"/>
<!-- Line -->
<defs>
<clipPath id="cp9">
	<path clip-rule="evenodd" d="M 91,-15312 H 13062 V -2595 H 91 z
		M 4142,-12742 4184,-12698 4335,-12870 4320,-12885z"/>
</clipPath>
</defs>
<polyline points=" 2841,-11457 4320,-12870" clip-path="url(#cp9)"
	stroke="#000000" stroke-width="15px"/>
<!-- Forward arrow to point 4320,-12870 -->
<polygon points=" 4184,-12698 4250,-12803 4142,-12742 4184,-12698"
	stroke="#000000" stroke-width="45px" stroke-miterlimit="8" fill="#000000"/>
<!-- Line -->
<defs>
<clipPath id="cp10">
	<path clip-rule="evenodd" d="M 91,-15312 H 13062 V -2595 H 91 z
		M 5004,-12023 5022,-11966 5233,-12053 5227,-12073z"/>
</clipPath>
</defs>
<polyline points=" 2906,-11326 5220,-12060" clip-path="url(#cp10)"
	stroke="#000000" stroke-width="15px"/>
<!-- Forward arrow to point 5220,-12060 -->
<polygon points=" 5022,-11966 5127,-12031 5004,-12023 5022,-11966"
	stroke="#000000" stroke-width="45px" stroke-miterlimit="8" fill="#000000"/>
</g>
</svg>
