<?xml version="1.0" encoding="UTF-8" standalone="no"?>
<!-- Creator: fig2dev Version 3.2.9 -->
<!-- CreationDate: 2026-07-06 08:18:05 -->
<!-- Magnification: 0.42 -->
<svg	xmlns="http://www.w3.org/2000/svg"
	xmlns:xlink="http://www.w3.org/1999/xlink"
	width="330pt" height="330pt"
	viewBox="6053 -24547 13094 13094">
<g fill="none">
<!-- Circle -->
<circle cx="13725" cy="-14625" r="64" fill="#000000"
	stroke="#000000" stroke-width="15px"/>
<!-- Circle -->
<circle cx="14175" cy="-16425" r="64" fill="#000000"
	stroke="#000000" stroke-width="15px"/>
<!-- Circle -->
<circle cx="14625" cy="-11925" r="64" fill="#000000"
	stroke="#000000" stroke-width="15px"/>
<!-- Circle -->
<circle cx="15075" cy="-13275" r="64" fill="#000000"
	stroke="#000000" stroke-width="15px"/>
<!-- Circle -->
<circle cx="15525" cy="-15075" r="64" fill="#000000"
	stroke="#000000" stroke-width="15px"/>
<!-- Circle -->
<circle cx="15975" cy="-14175" r="64" fill="#000000"
	stroke="#000000" stroke-width="15px"/>
<!-- Circle -->
<circle cx="16875" cy="-13725" r="64" fill="#000000"
	stroke="#000000" stroke-width="15px"/>
<!-- Circle -->
<circle cx="16425" cy="-15525" r="64" fill="#000000"
	stroke="#000000" stroke-width="15px"/>
<!-- Circle -->
<circle cx="17775" cy="-15975" r="64" fill="#000000"
	stroke="#000000" stroke-width="15px"/>
<!-- Circle -->
<circle cx="18675" cy="-16875" r="64" fill="#000000"
	stroke="#000000" stroke-width="15px"/>
<!-- Circle -->
<circle cx="18225" cy="-12825" r="64" fill="#000000"
	stroke="#000000" stroke-width="15px"/>
<!-- Circle -->
<circle cx="17325" cy="-12375" r="64" fill="#000000"
	stroke="#000000" stroke-width="15px"/>
<!-- Line -->
<defs>
<clipPath id="cp0">
	<path clip-rule="evenodd" d="M 6053,-24547 H 19147 V -11453 H 6053 z
		M 18246,-13104 18220,-12858 18127,-13087 18216,-12813 18237,-12816z"/>
</clipPath>
</defs>
<polyline points=" 17775,-15975 18225,-12825" clip-path="url(#cp0)"
	stroke="#000000" stroke-width="15px"/>
<!-- Forward arrow to point 18225,-12825 -->
<polyline points=" 18246,-13104 18220,-12858 18127,-13087"
	stroke="#000000" stroke-width="15px" stroke-miterlimit="8"/>
<!-- Line -->
<defs>
<clipPath id="cp1">
	<path clip-rule="evenodd" d="M 6053,-24547 H 19147 V -11453 H 6053 z
		M 16867,-14005 16867,-13757 16751,-13975 16867,-13712 16888,-13717z"/>
</clipPath>
</defs>
<polyline points=" 16425,-15525 16875,-13725" clip-path="url(#cp1)"
	stroke="#000000" stroke-width="15px"/>
<!-- Forward arrow to point 16875,-13725 -->
<polyline points=" 16867,-14005 16867,-13757 16751,-13975"
	stroke="#000000" stroke-width="15px" stroke-miterlimit="8"/>
<!-- Line -->
<defs>
<clipPath id="cp2">
	<path clip-rule="evenodd" d="M 6053,-24547 H 19147 V -11453 H 6053 z
		M 15907,-14446 15960,-14205 15799,-14392 15970,-14161 15989,-14170z"/>
</clipPath>
</defs>
<polyline points=" 15525,-15075 15975,-14175" clip-path="url(#cp2)"
	stroke="#000000" stroke-width="15px"/>
<!-- Forward arrow to point 15975,-14175 -->
<polyline points=" 15907,-14446 15960,-14205 15799,-14392"
	stroke="#000000" stroke-width="15px" stroke-miterlimit="8"/>
<!-- Line -->
<defs>
<clipPath id="cp3">
	<path clip-rule="evenodd" d="M 6053,-24547 H 19147 V -11453 H 6053 z
		M 16658,-13901 16845,-13740 16604,-13793 16880,-13711 16889,-13730z"/>
</clipPath>
</defs>
<polyline points=" 15975,-14175 16875,-13725" clip-path="url(#cp3)"
	stroke="#000000" stroke-width="15px"/>
<!-- Forward arrow to point 16875,-13725 -->
<polyline points=" 16658,-13901 16845,-13740 16604,-13793"
	stroke="#000000" stroke-width="15px" stroke-miterlimit="8"/>
<!-- Line -->
<defs>
<clipPath id="cp4">
	<path clip-rule="evenodd" d="M 6053,-24547 H 19147 V -11453 H 6053 z
		M 18031,-13026 18197,-12843 17964,-12927 18228,-12810 18240,-12828z"/>
</clipPath>
</defs>
<polyline points=" 16875,-13725 18225,-12825" clip-path="url(#cp4)"
	stroke="#000000" stroke-width="15px"/>
<!-- Forward arrow to point 18225,-12825 -->
<polyline points=" 18031,-13026 18197,-12843 17964,-12927"
	stroke="#000000" stroke-width="15px" stroke-miterlimit="8"/>
<!-- Line -->
<defs>
<clipPath id="cp5">
	<path clip-rule="evenodd" d="M 6053,-24547 H 19147 V -11453 H 6053 z
		M 17963,-12923 18192,-12830 17946,-12804 18234,-12813 18237,-12834z"/>
</clipPath>
</defs>
<polyline points=" 15075,-13275 18225,-12825" clip-path="url(#cp5)"
	stroke="#000000" stroke-width="15px"/>
<!-- Forward arrow to point 18225,-12825 -->
<polyline points=" 17963,-12923 18192,-12830 17946,-12804"
	stroke="#000000" stroke-width="15px" stroke-miterlimit="8"/>
<!-- Line -->
<defs>
<clipPath id="cp6">
	<path clip-rule="evenodd" d="M 6053,-24547 H 19147 V -11453 H 6053 z
		M 15719,-14287 15943,-14181 15695,-14170 15983,-14163 15987,-14183z"/>
</clipPath>
</defs>
<polyline points=" 13725,-14625 15975,-14175" clip-path="url(#cp6)"
	stroke="#000000" stroke-width="15px"/>
<!-- Forward arrow to point 15975,-14175 -->
<polyline points=" 15719,-14287 15943,-14181 15695,-14170"
	stroke="#000000" stroke-width="15px" stroke-miterlimit="8"/>
<!-- Line -->
<defs>
<clipPath id="cp7">
	<path clip-rule="evenodd" d="M 6053,-24547 H 19147 V -11453 H 6053 z
		M 17511,-16068 17742,-15979 17497,-15949 17784,-15963 17787,-15984z"/>
</clipPath>
</defs>
<polyline points=" 14175,-16425 17775,-15975" clip-path="url(#cp7)"
	stroke="#000000" stroke-width="15px"/>
<!-- Forward arrow to point 17775,-15975 -->
<polyline points=" 17511,-16068 17742,-15979 17497,-15949"
	stroke="#000000" stroke-width="15px" stroke-miterlimit="8"/>
<!-- Text -->
<text xml:space="preserve" x="13050" y="-12780" fill="#000000" font-family="Helvetica Narrow" font-style="normal" font-weight="normal" font-size="432" text-anchor="start">ANB</text>
<!-- Circle -->
<circle cx="6975" cy="-14625" r="64" fill="#000000"
	stroke="#000000" stroke-width="15px"/>
<!-- Circle -->
<circle cx="7425" cy="-16425" r="64" fill="#000000"
	stroke="#000000" stroke-width="15px"/>
<!-- Circle -->
<circle cx="7875" cy="-11925" r="64" fill="#000000"
	stroke="#000000" stroke-width="15px"/>
<!-- Circle -->
<circle cx="8325" cy="-13275" r="64" fill="#000000"
	stroke="#000000" stroke-width="15px"/>
<!-- Circle -->
<circle cx="8775" cy="-15075" r="64" fill="#000000"
	stroke="#000000" stroke-width="15px"/>
<!-- Circle -->
<circle cx="9225" cy="-14175" r="64" fill="#000000"
	stroke="#000000" stroke-width="15px"/>
<!-- Circle -->
<circle cx="10125" cy="-13725" r="64" fill="#000000"
	stroke="#000000" stroke-width="15px"/>
<!-- Circle -->
<circle cx="9675" cy="-15525" r="64" fill="#000000"
	stroke="#000000" stroke-width="15px"/>
<!-- Circle -->
<circle cx="11025" cy="-15975" r="64" fill="#000000"
	stroke="#000000" stroke-width="15px"/>
<!-- Circle -->
<circle cx="11925" cy="-16875" r="64" fill="#000000"
	stroke="#000000" stroke-width="15px"/>
<!-- Circle -->
<circle cx="11475" cy="-12825" r="64" fill="#000000"
	stroke="#000000" stroke-width="15px"/>
<!-- Circle -->
<circle cx="10575" cy="-12375" r="64" fill="#000000"
	stroke="#000000" stroke-width="15px"/>
<!-- Line -->
<defs>
<clipPath id="cp8">
	<path clip-rule="evenodd" d="M 6053,-24547 H 19147 V -11453 H 6053 z
		M 17511,-16068 17742,-15979 17497,-15949 17784,-15963 17787,-15984z
		M 10846,-12443 10605,-12390 10792,-12551 10561,-12380 10570,-12361z"/>
</clipPath>
</defs>
<polyline points=" 10575,-12375 11475,-12825" clip-path="url(#cp8)"
	stroke="#000000" stroke-width="15px"/>
<!-- Backward arrow to point 10575,-12375 -->
<polyline points=" 10846,-12443 10605,-12390 10792,-12551"
	stroke="#000000" stroke-width="15px" stroke-miterlimit="8"/>
<!-- Line -->
<defs>
<clipPath id="cp9">
	<path clip-rule="evenodd" d="M 6053,-24547 H 19147 V -11453 H 6053 z
		M 17511,-16068 17742,-15979 17497,-15949 17784,-15963 17787,-15984z
		M 7099,-14875 6983,-14657 6983,-14905 6962,-14617 6983,-14612z"/>
</clipPath>
</defs>
<polyline points=" 6975,-14625 7425,-16425" clip-path="url(#cp9)"
	stroke="#000000" stroke-width="15px"/>
<!-- Backward arrow to point 6975,-14625 -->
<polyline points=" 7099,-14875 6983,-14657 6983,-14905"
	stroke="#000000" stroke-width="15px" stroke-miterlimit="8"/>
<!-- Line -->
<defs>
<clipPath id="cp10">
	<path clip-rule="evenodd" d="M 6053,-24547 H 19147 V -11453 H 6053 z
		M 17511,-16068 17742,-15979 17497,-15949 17784,-15963 17787,-15984z
		M 8018,-12165 7885,-11956 7904,-12203 7862,-11918 7882,-11912z"/>
</clipPath>
</defs>
<polyline points=" 7875,-11925 8325,-13275" clip-path="url(#cp10)"
	stroke="#000000" stroke-width="15px"/>
<!-- Backward arrow to point 7875,-11925 -->
<polyline points=" 8018,-12165 7885,-11956 7904,-12203"
	stroke="#000000" stroke-width="15px" stroke-miterlimit="8"/>
<!-- Line -->
<defs>
<clipPath id="cp11">
	<path clip-rule="evenodd" d="M 6053,-24547 H 19147 V -11453 H 6053 z
		M 17511,-16068 17742,-15979 17497,-15949 17784,-15963 17787,-15984z
		M 9046,-15143 8805,-15090 8992,-15251 8761,-15080 8770,-15061z"/>
</clipPath>
</defs>
<polyline points=" 8775,-15075 9675,-15525" clip-path="url(#cp11)"
	stroke="#000000" stroke-width="15px"/>
<!-- Backward arrow to point 8775,-15075 -->
<polyline points=" 9046,-15143 8805,-15090 8992,-15251"
	stroke="#000000" stroke-width="15px" stroke-miterlimit="8"/>
<!-- Line -->
<defs>
<clipPath id="cp12">
	<path clip-rule="evenodd" d="M 6053,-24547 H 19147 V -11453 H 6053 z
		M 17511,-16068 17742,-15979 17497,-15949 17784,-15963 17787,-15984z
		M 8605,-13283 8357,-13283 8575,-13399 8312,-13283 8317,-13262z"/>
</clipPath>
</defs>
<polyline points=" 8325,-13275 10125,-13725" clip-path="url(#cp12)"
	stroke="#000000" stroke-width="15px"/>
<!-- Backward arrow to point 8325,-13275 -->
<polyline points=" 8605,-13283 8357,-13283 8575,-13399"
	stroke="#000000" stroke-width="15px" stroke-miterlimit="8"/>
<!-- Line -->
<defs>
<clipPath id="cp13">
	<path clip-rule="evenodd" d="M 6053,-24547 H 19147 V -11453 H 6053 z
		M 17511,-16068 17742,-15979 17497,-15949 17784,-15963 17787,-15984z
		M 8561,-13426 8348,-13298 8476,-13511 8310,-13275 8325,-13260z"/>
</clipPath>
</defs>
<polyline points=" 8325,-13275 9225,-14175" clip-path="url(#cp13)"
	stroke="#000000" stroke-width="15px"/>
<!-- Backward arrow to point 8325,-13275 -->
<polyline points=" 8561,-13426 8348,-13298 8476,-13511"
	stroke="#000000" stroke-width="15px" stroke-miterlimit="8"/>
<!-- Line -->
<defs>
<clipPath id="cp14">
	<path clip-rule="evenodd" d="M 6053,-24547 H 19147 V -11453 H 6053 z
		M 17511,-16068 17742,-15979 17497,-15949 17784,-15963 17787,-15984z
		M 8154,-11911 7908,-11930 8135,-12029 7863,-11934 7866,-11913z"/>
</clipPath>
</defs>
<polyline points=" 7875,-11925 10575,-12375" clip-path="url(#cp14)"
	stroke="#000000" stroke-width="15px"/>
<!-- Backward arrow to point 7875,-11925 -->
<polyline points=" 8154,-11911 7908,-11930 8135,-12029"
	stroke="#000000" stroke-width="15px" stroke-miterlimit="8"/>
<!-- Line -->
<defs>
<clipPath id="cp15">
	<path clip-rule="evenodd" d="M 6053,-24547 H 19147 V -11453 H 6053 z
		M 17511,-16068 17742,-15979 17497,-15949 17784,-15963 17787,-15984z
		M 7255,-14633 7007,-14633 7225,-14749 6962,-14633 6967,-14612z"/>
</clipPath>
</defs>
<polyline points=" 6975,-14625 8775,-15075" clip-path="url(#cp15)"
	stroke="#000000" stroke-width="15px"/>
<!-- Backward arrow to point 6975,-14625 -->
<polyline points=" 7255,-14633 7007,-14633 7225,-14749"
	stroke="#000000" stroke-width="15px" stroke-miterlimit="8"/>
<!-- Line -->
<defs>
<clipPath id="cp16">
	<path clip-rule="evenodd" d="M 6053,-24547 H 19147 V -11453 H 6053 z
		M 17511,-16068 17742,-15979 17497,-15949 17784,-15963 17787,-15984z
		M 7703,-16392 7458,-16428 7691,-16512 7414,-16434 7416,-16414z"/>
</clipPath>
</defs>
<polyline points=" 7425,-16425 11925,-16875" clip-path="url(#cp16)"
	stroke="#000000" stroke-width="15px"/>
<!-- Backward arrow to point 7425,-16425 -->
<polyline points=" 7703,-16392 7458,-16428 7691,-16512"
	stroke="#000000" stroke-width="15px" stroke-miterlimit="8"/>
<!-- Line -->
<defs>
<clipPath id="cp17">
	<path clip-rule="evenodd" d="M 6053,-24547 H 19147 V -11453 H 6053 z
		M 17511,-16068 17742,-15979 17497,-15949 17784,-15963 17787,-15984z
		M 9953,-15554 9706,-15535 9915,-15668 9662,-15532 9668,-15512z"/>
</clipPath>
</defs>
<polyline points=" 9675,-15525 11025,-15975" clip-path="url(#cp17)"
	stroke="#000000" stroke-width="15px"/>
<!-- Backward arrow to point 9675,-15525 -->
<polyline points=" 9953,-15554 9706,-15535 9915,-15668"
	stroke="#000000" stroke-width="15px" stroke-miterlimit="8"/>
<!-- Text -->
<text xml:space="preserve" x="12150" y="-14400" fill="#000000" font-family="Helvetica Narrow" font-style="normal" font-weight="normal" font-size="432" text-anchor="end">BNB</text>
<!-- Circle -->
<circle cx="6975" cy="-21825" r="64" fill="#000000"
	stroke="#000000" stroke-width="15px"/>
<!-- Circle -->
<circle cx="7425" cy="-23625" r="64" fill="#000000"
	stroke="#000000" stroke-width="15px"/>
<!-- Circle -->
<circle cx="7875" cy="-19125" r="64" fill="#000000"
	stroke="#000000" stroke-width="15px"/>
<!-- Circle -->
<circle cx="8325" cy="-20475" r="64" fill="#000000"
	stroke="#000000" stroke-width="15px"/>
<!-- Circle -->
<circle cx="8775" cy="-22275" r="64" fill="#000000"
	stroke="#000000" stroke-width="15px"/>
<!-- Circle -->
<circle cx="9225" cy="-21375" r="64" fill="#000000"
	stroke="#000000" stroke-width="15px"/>
<!-- Circle -->
<circle cx="10125" cy="-20925" r="64" fill="#000000"
	stroke="#000000" stroke-width="15px"/>
<!-- Circle -->
<circle cx="9675" cy="-22725" r="64" fill="#000000"
	stroke="#000000" stroke-width="15px"/>
<!-- Circle -->
<circle cx="11025" cy="-23175" r="64" fill="#000000"
	stroke="#000000" stroke-width="15px"/>
<!-- Circle -->
<circle cx="11925" cy="-24075" r="64" fill="#000000"
	stroke="#000000" stroke-width="15px"/>
<!-- Circle -->
<circle cx="11475" cy="-20025" r="64" fill="#000000"
	stroke="#000000" stroke-width="15px"/>
<!-- Circle -->
<circle cx="10575" cy="-19575" r="64" fill="#000000"
	stroke="#000000" stroke-width="15px"/>
<!-- Line -->
<defs>
<clipPath id="cp18">
	<path clip-rule="evenodd" d="M 6053,-24547 H 19147 V -11453 H 6053 z
		M 17511,-16068 17742,-15979 17497,-15949 17784,-15963 17787,-15984z
		M 7689,-23532 7458,-23621 7703,-23651 7416,-23637 7413,-23616z"/>
</clipPath>
</defs>
<polyline points=" 7425,-23625 11025,-23175" clip-path="url(#cp18)"
	stroke="#000000" stroke-width="15px"/>
<!-- Backward arrow to point 7425,-23625 -->
<polyline points=" 7689,-23532 7458,-23621 7703,-23651"
	stroke="#000000" stroke-width="15px" stroke-miterlimit="8"/>
<!-- Line -->
<defs>
<clipPath id="cp19">
	<path clip-rule="evenodd" d="M 6053,-24547 H 19147 V -11453 H 6053 z
		M 17511,-16068 17742,-15979 17497,-15949 17784,-15963 17787,-15984z
		M 7656,-23468 7456,-23613 7701,-23579 7419,-23639 7411,-23619z"/>
</clipPath>
</defs>
<polyline points=" 7425,-23625 9675,-22725" clip-path="url(#cp19)"
	stroke="#000000" stroke-width="15px"/>
<!-- Backward arrow to point 7425,-23625 -->
<polyline points=" 7656,-23468 7456,-23613 7701,-23579"
	stroke="#000000" stroke-width="15px" stroke-miterlimit="8"/>
<!-- Line -->
<defs>
<clipPath id="cp20">
	<path clip-rule="evenodd" d="M 6053,-24547 H 19147 V -11453 H 6053 z
		M 17511,-16068 17742,-15979 17497,-15949 17784,-15963 17787,-15984z
		M 7576,-23389 7448,-23602 7661,-23474 7425,-23640 7410,-23625z"/>
</clipPath>
</defs>
<polyline points=" 7425,-23625 8775,-22275" clip-path="url(#cp20)"
	stroke="#000000" stroke-width="15px"/>
<!-- Backward arrow to point 7425,-23625 -->
<polyline points=" 7576,-23389 7448,-23602 7661,-23474"
	stroke="#000000" stroke-width="15px" stroke-miterlimit="8"/>
<!-- Line -->
<defs>
<clipPath id="cp21">
	<path clip-rule="evenodd" d="M 6053,-24547 H 19147 V -11453 H 6053 z
		M 17511,-16068 17742,-15979 17497,-15949 17784,-15963 17787,-15984z
		M 7126,-21589 6998,-21802 7211,-21674 6975,-21840 6960,-21825z"/>
</clipPath>
</defs>
<polyline points=" 6975,-21825 8325,-20475" clip-path="url(#cp21)"
	stroke="#000000" stroke-width="15px"/>
<!-- Backward arrow to point 6975,-21825 -->
<polyline points=" 7126,-21589 6998,-21802 7211,-21674"
	stroke="#000000" stroke-width="15px" stroke-miterlimit="8"/>
<!-- Line -->
<defs>
<clipPath id="cp22">
	<path clip-rule="evenodd" d="M 6053,-24547 H 19147 V -11453 H 6053 z
		M 17511,-16068 17742,-15979 17497,-15949 17784,-15963 17787,-15984z
		M 7004,-21547 6985,-21794 7118,-21585 6982,-21838 6962,-21832z"/>
</clipPath>
</defs>
<polyline points=" 6975,-21825 7875,-19125" clip-path="url(#cp22)"
	stroke="#000000" stroke-width="15px"/>
<!-- Backward arrow to point 6975,-21825 -->
<polyline points=" 7004,-21547 6985,-21794 7118,-21585"
	stroke="#000000" stroke-width="15px" stroke-miterlimit="8"/>
<!-- Line -->
<defs>
<clipPath id="cp23">
	<path clip-rule="evenodd" d="M 6053,-24547 H 19147 V -11453 H 6053 z
		M 17511,-16068 17742,-15979 17497,-15949 17784,-15963 17787,-15984z
		M 9442,-21199 9255,-21360 9496,-21307 9220,-21389 9211,-21370z"/>
</clipPath>
</defs>
<polyline points=" 9225,-21375 10125,-20925" clip-path="url(#cp23)"
	stroke="#000000" stroke-width="15px"/>
<!-- Backward arrow to point 9225,-21375 -->
<polyline points=" 9442,-21199 9255,-21360 9496,-21307"
	stroke="#000000" stroke-width="15px" stroke-miterlimit="8"/>
<!-- Line -->
<defs>
<clipPath id="cp24">
	<path clip-rule="evenodd" d="M 6053,-24547 H 19147 V -11453 H 6053 z
		M 17511,-16068 17742,-15979 17497,-15949 17784,-15963 17787,-15984z
		M 8587,-20377 8358,-20470 8604,-20496 8316,-20487 8313,-20466z"/>
</clipPath>
</defs>
<polyline points=" 8325,-20475 11475,-20025" clip-path="url(#cp24)"
	stroke="#000000" stroke-width="15px"/>
<!-- Backward arrow to point 8325,-20475 -->
<polyline points=" 8587,-20377 8358,-20470 8604,-20496"
	stroke="#000000" stroke-width="15px" stroke-miterlimit="8"/>
<!-- Line -->
<defs>
<clipPath id="cp25">
	<path clip-rule="evenodd" d="M 6053,-24547 H 19147 V -11453 H 6053 z
		M 17511,-16068 17742,-15979 17497,-15949 17784,-15963 17787,-15984z
		M 8556,-20318 8356,-20463 8601,-20429 8319,-20489 8311,-20469z"/>
</clipPath>
</defs>
<polyline points=" 8325,-20475 10575,-19575" clip-path="url(#cp25)"
	stroke="#000000" stroke-width="15px"/>
<!-- Backward arrow to point 8325,-20475 -->
<polyline points=" 8556,-20318 8356,-20463 8601,-20429"
	stroke="#000000" stroke-width="15px" stroke-miterlimit="8"/>
<!-- Line -->
<defs>
<clipPath id="cp26">
	<path clip-rule="evenodd" d="M 6053,-24547 H 19147 V -11453 H 6053 z
		M 17511,-16068 17742,-15979 17497,-15949 17784,-15963 17787,-15984z
		M 7231,-21713 7007,-21819 7255,-21830 6967,-21837 6963,-21817z"/>
</clipPath>
</defs>
<polyline points=" 6975,-21825 9225,-21375" clip-path="url(#cp26)"
	stroke="#000000" stroke-width="15px"/>
<!-- Backward arrow to point 6975,-21825 -->
<polyline points=" 7231,-21713 7007,-21819 7255,-21830"
	stroke="#000000" stroke-width="15px" stroke-miterlimit="8"/>
<!-- Text -->
<text xml:space="preserve" x="12150" y="-21600" fill="#000000" font-family="Helvetica Narrow" font-style="normal" font-weight="normal" font-size="432" text-anchor="end">BNA</text>
<!-- Circle -->
<circle cx="13725" cy="-21825" r="64" fill="#000000"
	stroke="#000000" stroke-width="15px"/>
<!-- Circle -->
<circle cx="14175" cy="-23625" r="64" fill="#000000"
	stroke="#000000" stroke-width="15px"/>
<!-- Circle -->
<circle cx="14625" cy="-19125" r="64" fill="#000000"
	stroke="#000000" stroke-width="15px"/>
<!-- Circle -->
<circle cx="15075" cy="-20475" r="64" fill="#000000"
	stroke="#000000" stroke-width="15px"/>
<!-- Circle -->
<circle cx="15525" cy="-22275" r="64" fill="#000000"
	stroke="#000000" stroke-width="15px"/>
<!-- Circle -->
<circle cx="15975" cy="-21375" r="64" fill="#000000"
	stroke="#000000" stroke-width="15px"/>
<!-- Circle -->
<circle cx="16875" cy="-20925" r="64" fill="#000000"
	stroke="#000000" stroke-width="15px"/>
<!-- Circle -->
<circle cx="16425" cy="-22725" r="64" fill="#000000"
	stroke="#000000" stroke-width="15px"/>
<!-- Circle -->
<circle cx="17775" cy="-23175" r="64" fill="#000000"
	stroke="#000000" stroke-width="15px"/>
<!-- Circle -->
<circle cx="18675" cy="-24075" r="64" fill="#000000"
	stroke="#000000" stroke-width="15px"/>
<!-- Circle -->
<circle cx="18225" cy="-20025" r="64" fill="#000000"
	stroke="#000000" stroke-width="15px"/>
<!-- Circle -->
<circle cx="17325" cy="-19575" r="64" fill="#000000"
	stroke="#000000" stroke-width="15px"/>
<!-- Line -->
<defs>
<clipPath id="cp27">
	<path clip-rule="evenodd" d="M 6053,-24547 H 19147 V -11453 H 6053 z
		M 17046,-19589 17292,-19570 17065,-19471 17337,-19566 17334,-19587z
		M 7231,-21713 7007,-21819 7255,-21830 6967,-21837 6963,-21817z"/>
</clipPath>
</defs>
<polyline points=" 14625,-19125 17325,-19575" clip-path="url(#cp27)"
	stroke="#000000" stroke-width="15px"/>
<!-- Forward arrow to point 17325,-19575 -->
<polyline points=" 17046,-19589 17292,-19570 17065,-19471"
	stroke="#000000" stroke-width="15px" stroke-miterlimit="8"/>
<!-- Line -->
<defs>
<clipPath id="cp28">
	<path clip-rule="evenodd" d="M 6053,-24547 H 19147 V -11453 H 6053 z
		M 17954,-19957 18195,-20010 18008,-19849 18239,-20020 18230,-20039z
		M 7231,-21713 7007,-21819 7255,-21830 6967,-21837 6963,-21817z"/>
</clipPath>
</defs>
<polyline points=" 17325,-19575 18225,-20025" clip-path="url(#cp28)"
	stroke="#000000" stroke-width="15px"/>
<!-- Forward arrow to point 18225,-20025 -->
<polyline points=" 17954,-19957 18195,-20010 18008,-19849"
	stroke="#000000" stroke-width="15px" stroke-miterlimit="8"/>
<!-- Line -->
<defs>
<clipPath id="cp29">
	<path clip-rule="evenodd" d="M 6053,-24547 H 19147 V -11453 H 6053 z
		M 18585,-23810 18671,-24042 18704,-23797 18687,-24084 18666,-24087z
		M 7231,-21713 7007,-21819 7255,-21830 6967,-21837 6963,-21817z"/>
</clipPath>
</defs>
<polyline points=" 18225,-20025 18675,-24075" clip-path="url(#cp29)"
	stroke="#000000" stroke-width="15px"/>
<!-- Forward arrow to point 18675,-24075 -->
<polyline points=" 18585,-23810 18671,-24042 18704,-23797"
	stroke="#000000" stroke-width="15px" stroke-miterlimit="8"/>
<!-- Line -->
<defs>
<clipPath id="cp30">
	<path clip-rule="evenodd" d="M 6053,-24547 H 19147 V -11453 H 6053 z
		M 18397,-24108 18642,-24072 18409,-23988 18686,-24066 18684,-24086z
		M 7231,-21713 7007,-21819 7255,-21830 6967,-21837 6963,-21817z"/>
</clipPath>
</defs>
<polyline points=" 14175,-23625 18675,-24075" clip-path="url(#cp30)"
	stroke="#000000" stroke-width="15px"/>
<!-- Forward arrow to point 18675,-24075 -->
<polyline points=" 18397,-24108 18642,-24072 18409,-23988"
	stroke="#000000" stroke-width="15px" stroke-miterlimit="8"/>
<!-- Line -->
<defs>
<clipPath id="cp31">
	<path clip-rule="evenodd" d="M 6053,-24547 H 19147 V -11453 H 6053 z
		M 16154,-22657 16395,-22710 16208,-22549 16439,-22720 16430,-22739z
		M 7231,-21713 7007,-21819 7255,-21830 6967,-21837 6963,-21817z"/>
</clipPath>
</defs>
<polyline points=" 15525,-22275 16425,-22725" clip-path="url(#cp31)"
	stroke="#000000" stroke-width="15px"/>
<!-- Forward arrow to point 16425,-22725 -->
<polyline points=" 16154,-22657 16395,-22710 16208,-22549"
	stroke="#000000" stroke-width="15px" stroke-miterlimit="8"/>
<!-- Line -->
<defs>
<clipPath id="cp32">
	<path clip-rule="evenodd" d="M 6053,-24547 H 19147 V -11453 H 6053 z
		M 17497,-23146 17744,-23165 17535,-23032 17788,-23168 17782,-23188z
		M 7231,-21713 7007,-21819 7255,-21830 6967,-21837 6963,-21817z"/>
</clipPath>
</defs>
<polyline points=" 16425,-22725 17775,-23175" clip-path="url(#cp32)"
	stroke="#000000" stroke-width="15px"/>
<!-- Forward arrow to point 17775,-23175 -->
<polyline points=" 17497,-23146 17744,-23165 17535,-23032"
	stroke="#000000" stroke-width="15px" stroke-miterlimit="8"/>
<!-- Line -->
<defs>
<clipPath id="cp33">
	<path clip-rule="evenodd" d="M 6053,-24547 H 19147 V -11453 H 6053 z
		M 18439,-23924 18652,-24052 18524,-23839 18690,-24075 18675,-24090z
		M 7231,-21713 7007,-21819 7255,-21830 6967,-21837 6963,-21817z"/>
</clipPath>
</defs>
<polyline points=" 17775,-23175 18675,-24075" clip-path="url(#cp33)"
	stroke="#000000" stroke-width="15px"/>
<!-- Forward arrow to point 18675,-24075 -->
<polyline points=" 18439,-23924 18652,-24052 18524,-23839"
	stroke="#000000" stroke-width="15px" stroke-miterlimit="8"/>
<!-- Line -->
<defs>
<clipPath id="cp34">
	<path clip-rule="evenodd" d="M 6053,-24547 H 19147 V -11453 H 6053 z
		M 16595,-20917 16843,-20917 16625,-20801 16888,-20917 16883,-20938z
		M 7231,-21713 7007,-21819 7255,-21830 6967,-21837 6963,-21817z"/>
</clipPath>
</defs>
<polyline points=" 15075,-20475 16875,-20925" clip-path="url(#cp34)"
	stroke="#000000" stroke-width="15px"/>
<!-- Forward arrow to point 16875,-20925 -->
<polyline points=" 16595,-20917 16843,-20917 16625,-20801"
	stroke="#000000" stroke-width="15px" stroke-miterlimit="8"/>
<!-- Line -->
<defs>
<clipPath id="cp35">
	<path clip-rule="evenodd" d="M 6053,-24547 H 19147 V -11453 H 6053 z
		M 17618,-22944 17763,-23144 17729,-22899 17789,-23181 17769,-23189z
		M 7231,-21713 7007,-21819 7255,-21830 6967,-21837 6963,-21817z"/>
</clipPath>
</defs>
<polyline points=" 16875,-20925 17775,-23175" clip-path="url(#cp35)"
	stroke="#000000" stroke-width="15px"/>
<!-- Forward arrow to point 17775,-23175 -->
<polyline points=" 17618,-22944 17763,-23144 17729,-22899"
	stroke="#000000" stroke-width="15px" stroke-miterlimit="8"/>
<!-- Line -->
<defs>
<clipPath id="cp36">
	<path clip-rule="evenodd" d="M 6053,-24547 H 19147 V -11453 H 6053 z
		M 16282,-22485 16415,-22694 16396,-22447 16438,-22732 16418,-22738z
		M 7231,-21713 7007,-21819 7255,-21830 6967,-21837 6963,-21817z"/>
</clipPath>
</defs>
<polyline points=" 15975,-21375 16425,-22725" clip-path="url(#cp36)"
	stroke="#000000" stroke-width="15px"/>
<!-- Forward arrow to point 16425,-22725 -->
<polyline points=" 16282,-22485 16415,-22694 16396,-22447"
	stroke="#000000" stroke-width="15px" stroke-miterlimit="8"/>
<!-- Line -->
<defs>
<clipPath id="cp37">
	<path clip-rule="evenodd" d="M 6053,-24547 H 19147 V -11453 H 6053 z
		M 15245,-22267 15493,-22267 15275,-22151 15538,-22267 15533,-22288z
		M 7231,-21713 7007,-21819 7255,-21830 6967,-21837 6963,-21817z"/>
</clipPath>
</defs>
<polyline points=" 13725,-21825 15525,-22275" clip-path="url(#cp37)"
	stroke="#000000" stroke-width="15px"/>
<!-- Forward arrow to point 15525,-22275 -->
<polyline points=" 15245,-22267 15493,-22267 15275,-22151"
	stroke="#000000" stroke-width="15px" stroke-miterlimit="8"/>
<!-- Text -->
<text xml:space="preserve" x="13050" y="-20250" fill="#000000" font-family="Helvetica Narrow" font-style="normal" font-weight="normal" font-size="432" text-anchor="start">ANA</text>
<!-- Line -->
<polyline points=" 6075,-18000 19125,-18000"
	stroke="#000000" stroke-width="15px" stroke-dasharray="260 130 10 130"/>
<!-- Line -->
<polyline points=" 12600,-24525 12600,-11475"
	stroke="#000000" stroke-width="15px" stroke-dasharray="260 130 10 130"/>
</g>
</svg>
